<?xml version="1.0" encoding="utf-8" standalone="no"?><!DOCTYPE svg PUBLIC "-//W3C//DTD SVG 1.1//EN" "http://www.w3.org/Graphics/SVG/1.1/DTD/svg11.dtd">
<svg preserveAspectRatio="xMinYMin meet" width="100%" height="100%" viewBox="0 0 1665.000 393.750"  version="1.1" xmlns="http://www.w3.org/2000/svg" xmlns:xlink="http://www.w3.org/1999/xlink">
  <desc>Matlab Figure Converted by PLOT2SVG written by Juerg Schwizer</desc>
  <g id="topgroup">
  <rect x="0" y="0" width="1665.000" height="393.750" fill="#ffffff" stroke="none" />
  <g id ="ID000000">
  <clipPath id="ID000001">
    <rect x="145.377" y="34.375" width="1447.281" height="295.908"/>
  </clipPath>
      <polygon fill="#ffffff" fill-opacity="1.00" stroke="none" stroke-width="0.5pt" stroke-opacity="1.00" stroke-dasharray="none" points="145.377,330.283 1592.658,330.283 1592.658,34.375 145.377,34.375 "/>
      <polygon fill="#ffffff" fill-opacity="1.00" stroke="none" stroke-width="0.5pt" stroke-opacity="1.00" stroke-dasharray="none" points="145.377,34.375 1592.658,34.375 1592.658,34.375 145.377,34.375 "/>
      <polygon fill="#ffffff" fill-opacity="1.00" stroke="none" stroke-width="0.5pt" stroke-opacity="1.00" stroke-dasharray="none" points="145.377,330.283 145.377,330.283 145.377,34.375 145.377,34.375 "/>
      <polyline fill="none" stroke="#000000" stroke-width="0.5pt" stroke-dasharray="2.0,2.0" points="145.377,330.283 145.377,34.375 "/>
      <polyline fill="none" stroke="#000000" stroke-width="0.5pt" stroke-dasharray="2.0,2.0" points="203.268,330.283 203.268,34.375 "/>
      <polyline fill="none" stroke="#000000" stroke-width="0.5pt" stroke-dasharray="2.0,2.0" points="261.159,330.283 261.159,34.375 "/>
      <polyline fill="none" stroke="#000000" stroke-width="0.5pt" stroke-dasharray="2.0,2.0" points="319.051,330.283 319.051,34.375 "/>
      <polyline fill="none" stroke="#000000" stroke-width="0.5pt" stroke-dasharray="2.0,2.0" points="376.942,330.283 376.942,34.375 "/>
      <polyline fill="none" stroke="#000000" stroke-width="0.5pt" stroke-dasharray="2.0,2.0" points="434.833,330.283 434.833,34.375 "/>
      <polyline fill="none" stroke="#000000" stroke-width="0.5pt" stroke-dasharray="2.0,2.0" points="492.724,330.283 492.724,34.375 "/>
      <polyline fill="none" stroke="#000000" stroke-width="0.5pt" stroke-dasharray="2.0,2.0" points="550.615,330.283 550.615,34.375 "/>
      <polyline fill="none" stroke="#000000" stroke-width="0.5pt" stroke-dasharray="2.0,2.0" points="608.507,330.283 608.507,34.375 "/>
      <polyline fill="none" stroke="#000000" stroke-width="0.5pt" stroke-dasharray="2.0,2.0" points="666.398,330.283 666.398,34.375 "/>
      <polyline fill="none" stroke="#000000" stroke-width="0.5pt" stroke-dasharray="2.0,2.0" points="724.289,330.283 724.289,34.375 "/>
      <polyline fill="none" stroke="#000000" stroke-width="0.5pt" stroke-dasharray="2.0,2.0" points="782.180,330.283 782.180,34.375 "/>
      <polyline fill="none" stroke="#000000" stroke-width="0.5pt" stroke-dasharray="2.0,2.0" points="840.072,330.283 840.072,34.375 "/>
      <polyline fill="none" stroke="#000000" stroke-width="0.5pt" stroke-dasharray="2.0,2.0" points="897.963,330.283 897.963,34.375 "/>
      <polyline fill="none" stroke="#000000" stroke-width="0.5pt" stroke-dasharray="2.0,2.0" points="955.854,330.283 955.854,34.375 "/>
      <polyline fill="none" stroke="#000000" stroke-width="0.5pt" stroke-dasharray="2.0,2.0" points="1013.745,330.283 1013.745,34.375 "/>
      <polyline fill="none" stroke="#000000" stroke-width="0.5pt" stroke-dasharray="2.0,2.0" points="1071.637,330.283 1071.637,34.375 "/>
      <polyline fill="none" stroke="#000000" stroke-width="0.5pt" stroke-dasharray="2.0,2.0" points="1129.528,330.283 1129.528,34.375 "/>
      <polyline fill="none" stroke="#000000" stroke-width="0.5pt" stroke-dasharray="2.0,2.0" points="1187.419,330.283 1187.419,34.375 "/>
      <polyline fill="none" stroke="#000000" stroke-width="0.5pt" stroke-dasharray="2.0,2.0" points="1245.310,330.283 1245.310,34.375 "/>
      <polyline fill="none" stroke="#000000" stroke-width="0.5pt" stroke-dasharray="2.0,2.0" points="1303.201,330.283 1303.201,34.375 "/>
      <polyline fill="none" stroke="#000000" stroke-width="0.5pt" stroke-dasharray="2.0,2.0" points="1361.093,330.283 1361.093,34.375 "/>
      <polyline fill="none" stroke="#000000" stroke-width="0.5pt" stroke-dasharray="2.0,2.0" points="1418.984,330.283 1418.984,34.375 "/>
      <polyline fill="none" stroke="#000000" stroke-width="0.5pt" stroke-dasharray="2.0,2.0" points="1476.875,330.283 1476.875,34.375 "/>
      <polyline fill="none" stroke="#000000" stroke-width="0.5pt" stroke-dasharray="2.0,2.0" points="1534.766,330.283 1534.766,34.375 "/>
      <polyline fill="none" stroke="#000000" stroke-width="0.5pt" stroke-dasharray="2.0,2.0" points="145.377,330.283 1592.658,330.283 "/>
      <polyline fill="none" stroke="#000000" stroke-width="0.5pt" stroke-dasharray="2.0,2.0" points="145.377,300.693 1592.658,300.693 "/>
      <polyline fill="none" stroke="#000000" stroke-width="0.5pt" stroke-dasharray="2.0,2.0" points="145.377,271.102 1592.658,271.102 "/>
      <polyline fill="none" stroke="#000000" stroke-width="0.5pt" stroke-dasharray="2.0,2.0" points="145.377,241.511 1592.658,241.511 "/>
      <polyline fill="none" stroke="#000000" stroke-width="0.5pt" stroke-dasharray="2.0,2.0" points="145.377,211.920 1592.658,211.920 "/>
      <polyline fill="none" stroke="#000000" stroke-width="0.5pt" stroke-dasharray="2.0,2.0" points="145.377,182.329 1592.658,182.329 "/>
      <polyline fill="none" stroke="#000000" stroke-width="0.5pt" stroke-dasharray="2.0,2.0" points="145.377,152.738 1592.658,152.738 "/>
      <polyline fill="none" stroke="#000000" stroke-width="0.5pt" stroke-dasharray="2.0,2.0" points="145.377,123.148 1592.658,123.148 "/>
      <polyline fill="none" stroke="#000000" stroke-width="0.5pt" stroke-dasharray="2.0,2.0" points="145.377,93.557 1592.658,93.557 "/>
      <polyline fill="none" stroke="#000000" stroke-width="0.5pt" stroke-dasharray="2.0,2.0" points="145.377,63.966 1592.658,63.966 "/>
      <polyline fill="none" stroke="#000000" stroke-width="0.5pt" stroke-dasharray="2.0,2.0" points="145.377,34.375 1592.658,34.375 "/>
      <polyline fill="none" stroke="#000000" stroke-width="0.5pt" stroke-dasharray="2.0,2.0" points="145.377,34.375 145.377,34.375 "/>
      <polyline fill="none" stroke="#000000" stroke-width="0.5pt" stroke-dasharray="2.0,2.0" points="203.268,34.375 203.268,34.375 "/>
      <polyline fill="none" stroke="#000000" stroke-width="0.5pt" stroke-dasharray="2.0,2.0" points="261.159,34.375 261.159,34.375 "/>
      <polyline fill="none" stroke="#000000" stroke-width="0.5pt" stroke-dasharray="2.0,2.0" points="319.051,34.375 319.051,34.375 "/>
      <polyline fill="none" stroke="#000000" stroke-width="0.5pt" stroke-dasharray="2.0,2.0" points="376.942,34.375 376.942,34.375 "/>
      <polyline fill="none" stroke="#000000" stroke-width="0.5pt" stroke-dasharray="2.0,2.0" points="434.833,34.375 434.833,34.375 "/>
      <polyline fill="none" stroke="#000000" stroke-width="0.5pt" stroke-dasharray="2.0,2.0" points="492.724,34.375 492.724,34.375 "/>
      <polyline fill="none" stroke="#000000" stroke-width="0.5pt" stroke-dasharray="2.0,2.0" points="550.615,34.375 550.615,34.375 "/>
      <polyline fill="none" stroke="#000000" stroke-width="0.5pt" stroke-dasharray="2.0,2.0" points="608.507,34.375 608.507,34.375 "/>
      <polyline fill="none" stroke="#000000" stroke-width="0.5pt" stroke-dasharray="2.0,2.0" points="666.398,34.375 666.398,34.375 "/>
      <polyline fill="none" stroke="#000000" stroke-width="0.5pt" stroke-dasharray="2.0,2.0" points="724.289,34.375 724.289,34.375 "/>
      <polyline fill="none" stroke="#000000" stroke-width="0.5pt" stroke-dasharray="2.0,2.0" points="782.180,34.375 782.180,34.375 "/>
      <polyline fill="none" stroke="#000000" stroke-width="0.5pt" stroke-dasharray="2.0,2.0" points="840.072,34.375 840.072,34.375 "/>
      <polyline fill="none" stroke="#000000" stroke-width="0.5pt" stroke-dasharray="2.0,2.0" points="897.963,34.375 897.963,34.375 "/>
      <polyline fill="none" stroke="#000000" stroke-width="0.5pt" stroke-dasharray="2.0,2.0" points="955.854,34.375 955.854,34.375 "/>
      <polyline fill="none" stroke="#000000" stroke-width="0.5pt" stroke-dasharray="2.0,2.0" points="1013.745,34.375 1013.745,34.375 "/>
      <polyline fill="none" stroke="#000000" stroke-width="0.5pt" stroke-dasharray="2.0,2.0" points="1071.637,34.375 1071.637,34.375 "/>
      <polyline fill="none" stroke="#000000" stroke-width="0.5pt" stroke-dasharray="2.0,2.0" points="1129.528,34.375 1129.528,34.375 "/>
      <polyline fill="none" stroke="#000000" stroke-width="0.5pt" stroke-dasharray="2.0,2.0" points="1187.419,34.375 1187.419,34.375 "/>
      <polyline fill="none" stroke="#000000" stroke-width="0.5pt" stroke-dasharray="2.0,2.0" points="1245.310,34.375 1245.310,34.375 "/>
      <polyline fill="none" stroke="#000000" stroke-width="0.5pt" stroke-dasharray="2.0,2.0" points="1303.201,34.375 1303.201,34.375 "/>
      <polyline fill="none" stroke="#000000" stroke-width="0.5pt" stroke-dasharray="2.0,2.0" points="1361.093,34.375 1361.093,34.375 "/>
      <polyline fill="none" stroke="#000000" stroke-width="0.5pt" stroke-dasharray="2.0,2.0" points="1418.984,34.375 1418.984,34.375 "/>
      <polyline fill="none" stroke="#000000" stroke-width="0.5pt" stroke-dasharray="2.0,2.0" points="1476.875,34.375 1476.875,34.375 "/>
      <polyline fill="none" stroke="#000000" stroke-width="0.5pt" stroke-dasharray="2.0,2.0" points="1534.766,34.375 1534.766,34.375 "/>
      <polyline fill="none" stroke="#000000" stroke-width="0.5pt" stroke-dasharray="2.0,2.0" points="145.377,330.283 145.377,330.283 "/>
      <polyline fill="none" stroke="#000000" stroke-width="0.5pt" stroke-dasharray="2.0,2.0" points="145.377,300.693 145.377,300.693 "/>
      <polyline fill="none" stroke="#000000" stroke-width="0.5pt" stroke-dasharray="2.0,2.0" points="145.377,271.102 145.377,271.102 "/>
      <polyline fill="none" stroke="#000000" stroke-width="0.5pt" stroke-dasharray="2.0,2.0" points="145.377,241.511 145.377,241.511 "/>
      <polyline fill="none" stroke="#000000" stroke-width="0.5pt" stroke-dasharray="2.0,2.0" points="145.377,211.920 145.377,211.920 "/>
      <polyline fill="none" stroke="#000000" stroke-width="0.5pt" stroke-dasharray="2.0,2.0" points="145.377,182.329 145.377,182.329 "/>
      <polyline fill="none" stroke="#000000" stroke-width="0.5pt" stroke-dasharray="2.0,2.0" points="145.377,152.738 145.377,152.738 "/>
      <polyline fill="none" stroke="#000000" stroke-width="0.5pt" stroke-dasharray="2.0,2.0" points="145.377,123.148 145.377,123.148 "/>
      <polyline fill="none" stroke="#000000" stroke-width="0.5pt" stroke-dasharray="2.0,2.0" points="145.377,93.557 145.377,93.557 "/>
      <polyline fill="none" stroke="#000000" stroke-width="0.5pt" stroke-dasharray="2.0,2.0" points="145.377,63.966 145.377,63.966 "/>
      <polyline fill="none" stroke="#000000" stroke-width="0.5pt" stroke-dasharray="2.0,2.0" points="145.377,34.375 145.377,34.375 "/>
    <g>
<g id="ID000002" >
  <g transform="translate(868.549,364.828)">
    <g transform="rotate(-0.0)">
      <text x="0.000" y="0.000" font-family="Helvetica" text-anchor="middle" font-size="13pt" font-style="oblique" fill="#142b8c" >Time of day (24h)</text>
    </g>
  </g>
</g>
<g id="ID000003" >
  <g transform="translate(106.007,183.269)">
    <g transform="rotate(-90.0)">
      <text x="0.000" y="0.000" font-family="Helvetica" text-anchor="middle" font-size="13pt" font-style="oblique" fill="#142b8c" >Watt</text>
    </g>
  </g>
</g>
<g id="ID000004" >
  <g transform="translate(868.549,23.581)">
    <g transform="rotate(-0.0)">
      <text x="0.000" y="0.000" font-family="Helvetica" text-anchor="middle" font-size="19pt" font-weight="lighter" font-style="oblique" fill="#142b8c" >Clear Sky Irradiance Forecast</text>
    </g>
  </g>
</g>
<g id="ID000005" clip-path="url(#ID000001)" >
<g id="ID000006" clip-path="url(#ID000001)" >
      <polygon fill="#ffcc00" fill-opacity="1.00" stroke="#000000" stroke-width="1.0pt" stroke-opacity="0.00" stroke-dasharray="none" points="146.342,330.283 146.342,330.283 147.307,330.283 148.271,330.283 149.236,330.283 150.201,330.283 151.166,330.283 152.131,330.283 153.096,330.283 154.061,330.283 155.025,330.283 155.990,330.283 156.955,330.283 157.920,330.283 158.885,330.283 159.850,330.283 160.815,330.283 161.779,330.283 162.744,330.283 163.709,330.283 164.674,330.283 165.639,330.283 166.604,330.283 167.569,330.283 168.533,330.283 169.498,330.283 170.463,330.283 171.428,330.283 172.393,330.283 173.358,330.283 174.322,330.283 175.287,330.283 176.252,330.283 177.217,330.283 178.182,330.283 179.147,330.283 180.112,330.283 181.076,330.283 182.041,330.283 183.006,330.283 183.971,330.283 184.936,330.283 185.901,330.283 186.866,330.283 187.830,330.283 188.795,330.283 189.760,330.283 190.725,330.283 191.690,330.283 192.655,330.283 193.620,330.283 194.584,330.283 195.549,330.283 196.514,330.283 197.479,330.283 198.444,330.283 199.409,330.283 200.374,330.283 201.338,330.283 202.303,330.283 203.268,330.283 204.233,330.283 205.198,330.283 206.163,330.283 207.128,330.283 208.092,330.283 209.057,330.283 210.022,330.283 210.987,330.283 211.952,330.283 212.917,330.283 213.881,330.283 214.846,330.283 215.811,330.283 216.776,330.283 217.741,330.283 218.706,330.283 219.671,330.283 220.635,330.283 221.600,330.283 222.565,330.283 223.530,330.283 224.495,330.283 225.460,330.283 226.425,330.283 227.389,330.283 228.354,330.283 229.319,330.283 230.284,330.283 231.249,330.283 232.214,330.283 233.179,330.283 234.143,330.283 235.108,330.283 236.073,330.283 237.038,330.283 238.003,330.283 238.968,330.283 239.933,330.283 240.897,330.283 241.862,330.283 242.827,330.283 243.792,330.283 244.757,330.283 245.722,330.283 246.687,330.283 247.651,330.283 248.616,330.283 249.581,330.283 250.546,330.283 251.511,330.283 252.476,330.283 253.440,330.283 254.405,330.283 255.370,330.283 256.335,330.283 257.300,330.283 258.265,330.283 259.230,330.283 260.194,330.283 261.159,330.283 262.124,330.283 263.089,330.283 264.054,330.283 265.019,330.283 265.984,330.283 266.948,330.283 267.913,330.283 268.878,330.283 269.843,330.283 270.808,330.283 271.773,330.283 272.738,330.283 273.702,330.283 274.667,330.283 275.632,330.283 276.597,330.283 277.562,330.283 278.527,330.283 279.492,330.283 280.456,330.283 281.421,330.283 282.386,330.283 283.351,330.283 284.316,330.283 285.281,330.283 286.246,330.283 287.210,330.283 288.175,330.283 289.140,330.283 290.105,330.283 291.070,330.283 292.035,330.283 293.000,330.283 293.964,330.283 294.929,330.283 295.894,330.283 296.859,330.283 297.824,330.283 298.789,330.283 299.753,330.283 300.718,330.283 301.683,330.283 302.648,330.283 303.613,330.283 304.578,330.283 305.543,330.283 306.507,330.283 307.472,330.283 308.437,330.283 309.402,330.283 310.367,330.283 311.332,330.283 312.297,330.283 313.261,330.283 314.226,330.283 315.191,330.283 316.156,330.283 317.121,330.283 318.086,330.283 319.051,330.283 320.015,330.283 320.980,330.283 321.945,330.283 322.910,330.283 323.875,330.283 324.840,330.283 325.805,330.283 326.769,330.283 327.734,330.283 328.699,330.283 329.664,330.283 330.629,330.283 331.594,330.283 332.559,330.283 333.523,330.283 334.488,330.283 335.453,330.283 336.418,330.283 337.383,330.283 338.348,330.283 339.312,330.283 340.277,330.283 341.242,330.283 342.207,330.283 343.172,330.283 344.137,330.283 345.102,330.283 346.066,330.283 347.031,330.283 347.996,330.283 348.961,330.283 349.926,330.283 350.891,330.283 351.856,330.283 352.820,330.283 353.785,330.283 354.750,330.283 355.715,330.283 356.680,330.283 357.645,330.283 358.610,330.283 359.574,330.283 360.539,330.283 361.504,330.283 362.469,330.283 363.434,330.283 364.399,330.283 365.364,330.283 366.328,330.283 367.293,330.283 368.258,330.283 369.223,330.283 370.188,330.283 371.153,330.283 372.118,330.283 373.082,330.283 374.047,330.283 375.012,330.283 375.977,330.283 376.942,330.283 377.907,330.283 378.871,330.283 379.836,330.283 380.801,330.283 381.766,330.283 382.731,330.283 383.696,330.283 384.661,330.283 385.625,330.283 386.590,330.283 387.555,330.283 388.520,330.283 389.485,330.283 390.450,330.283 391.415,330.283 392.379,330.283 393.344,330.283 394.309,330.283 395.274,330.283 396.239,330.283 397.204,330.283 398.169,330.283 399.133,330.283 400.098,330.283 401.063,330.283 402.028,330.283 402.993,330.283 403.958,330.283 404.923,330.283 405.887,330.283 406.852,330.283 407.817,330.283 408.782,330.283 409.747,330.283 410.712,330.283 411.677,330.283 412.641,330.283 413.606,330.283 414.571,330.283 415.536,330.283 416.501,330.283 417.466,330.283 418.431,330.283 419.395,330.283 420.360,330.283 421.325,330.283 422.290,330.283 423.255,330.283 424.220,330.283 425.184,330.283 426.149,330.283 427.114,330.283 428.079,330.283 429.044,330.283 430.009,330.283 430.974,330.283 431.938,330.283 432.903,330.283 433.868,330.283 434.833,330.283 435.798,330.283 436.763,330.283 437.728,330.283 438.692,330.283 439.657,330.283 440.622,330.283 441.587,330.283 442.552,330.283 443.517,330.283 444.482,330.283 445.446,330.283 446.411,330.283 447.376,330.283 448.341,330.283 449.306,330.283 450.271,330.283 451.236,330.283 452.200,330.283 453.165,330.283 454.130,330.283 455.095,330.283 456.060,330.283 457.025,330.283 457.990,330.283 458.954,330.283 459.919,330.283 460.884,330.283 461.849,330.283 462.814,330.283 463.779,330.283 464.743,330.283 465.708,330.283 466.673,330.283 467.638,330.283 468.603,330.283 469.568,330.283 470.533,330.283 471.497,330.283 472.462,330.283 473.427,330.283 474.392,330.283 475.357,330.283 476.322,330.283 477.287,330.283 478.251,330.283 479.216,330.283 480.181,330.283 481.146,330.283 482.111,330.283 483.076,330.283 484.041,330.283 485.005,330.283 485.970,330.283 486.935,330.283 487.900,330.283 488.865,330.283 489.830,330.283 490.795,330.283 491.759,330.283 492.724,330.283 493.689,330.283 494.654,330.283 495.619,330.283 496.584,330.283 497.549,330.283 498.513,330.283 499.478,330.283 500.443,330.283 501.408,330.283 502.373,330.283 503.338,330.283 504.302,330.283 505.267,330.283 506.232,330.283 507.197,330.283 508.162,330.283 509.127,330.283 510.092,330.283 511.056,330.283 512.021,330.283 512.986,330.283 513.951,330.283 514.916,330.283 515.881,330.283 516.846,330.283 517.810,330.283 518.775,330.283 519.740,330.283 520.705,330.283 521.670,330.283 522.635,330.283 523.600,330.283 524.564,330.283 525.529,330.283 526.494,330.283 527.459,330.283 528.424,330.283 529.389,330.283 530.354,330.283 531.318,330.283 532.283,330.283 533.248,330.283 534.213,330.283 535.178,330.283 536.143,330.283 537.108,330.283 538.072,330.283 539.037,330.283 540.002,330.283 540.967,330.283 541.932,330.283 542.897,330.283 543.862,330.283 544.826,330.283 545.791,330.283 546.756,330.283 547.721,330.283 548.686,330.283 549.651,330.283 550.615,330.283 551.580,330.283 552.545,330.283 553.510,330.283 554.475,330.283 555.440,330.283 556.405,330.283 557.369,330.283 558.334,330.283 559.299,330.283 560.264,330.283 561.229,330.283 562.194,330.283 563.159,330.283 564.123,330.283 565.088,330.283 566.053,330.283 567.018,330.283 567.983,330.283 568.948,330.283 569.913,330.283 570.877,330.283 571.842,330.283 572.807,330.283 573.772,330.283 574.737,330.283 575.702,330.283 576.667,330.283 577.631,330.283 578.596,330.283 579.561,330.283 580.526,330.283 581.491,330.283 582.456,330.283 583.421,330.283 584.385,330.283 585.350,330.283 586.315,330.283 587.280,330.283 588.245,330.283 589.210,330.283 590.174,330.283 591.139,330.283 592.104,330.283 593.069,330.283 594.034,330.283 594.999,330.283 595.964,330.283 596.928,330.283 597.893,330.283 598.858,330.283 599.823,330.283 600.788,330.283 601.753,330.283 602.718,330.283 603.682,330.283 604.647,330.283 605.612,330.283 606.577,330.283 607.542,330.283 608.507,330.283 609.472,330.283 610.436,330.267 611.401,330.225 612.366,330.162 613.331,330.080 614.296,329.980 615.261,329.862 616.226,329.728 617.190,329.577 618.155,329.410 619.120,329.227 620.085,329.030 621.050,328.818 622.015,328.591 622.980,328.349 623.944,328.094 624.909,327.825 625.874,327.542 626.839,327.245 627.804,326.936 628.769,326.613 629.733,326.277 630.698,325.928 631.663,325.566 632.628,325.192 633.593,324.805 634.558,324.406 635.523,323.995 636.487,323.572 637.452,323.136 638.417,322.689 639.382,322.230 640.347,321.760 641.312,321.278 642.277,320.784 643.241,320.279 644.206,319.763 645.171,319.236 646.136,318.698 647.101,318.148 648.066,317.588 649.031,317.017 649.995,316.436 650.960,315.844 651.925,315.241 652.890,314.628 653.855,314.005 654.820,313.372 655.785,312.728 656.749,312.074 657.714,311.411 658.679,310.737 659.644,310.054 660.609,309.361 661.574,308.658 662.539,307.946 663.503,307.225 664.468,306.494 665.433,305.753 666.398,305.004 667.363,304.245 668.328,303.478 669.293,302.701 670.257,301.915 671.222,301.121 672.187,300.318 673.152,299.506 674.117,298.686 675.082,297.857 676.046,297.020 677.011,296.175 677.976,295.321 678.941,294.459 679.906,293.589 680.871,292.712 681.836,291.826 682.800,290.932 683.765,290.031 684.730,289.122 685.695,288.205 686.660,287.281 687.625,286.350 688.590,285.411 689.554,284.465 690.519,283.511 691.484,282.551 692.449,281.584 693.414,280.609 694.379,279.628 695.344,278.640 696.308,277.646 697.273,276.644 698.238,275.637 699.203,274.622 700.168,273.602 701.133,272.575 702.098,271.542 703.062,270.503 704.027,269.458 704.992,268.407 705.957,267.350 706.922,266.287 707.887,265.219 708.852,264.145 709.816,263.066 710.781,261.981 711.746,260.891 712.711,259.795 713.676,258.694 714.641,257.589 715.605,256.478 716.570,255.362 717.535,254.242 718.500,253.116 719.465,251.986 720.430,250.852 721.395,249.713 722.359,248.569 723.324,247.421 724.289,246.269 725.254,245.113 726.219,243.953 727.184,242.788 728.149,241.620 729.113,240.448 730.078,239.273 731.043,238.093 732.008,236.910 732.973,235.724 733.938,234.534 734.903,233.341 735.867,232.145 736.832,230.945 737.797,229.743 738.762,228.537 739.727,227.329 740.692,226.118 741.657,224.904 742.621,223.688 743.586,222.469 744.551,221.248 745.516,220.024 746.481,218.798 747.446,217.570 748.411,216.340 749.375,215.108 750.340,213.873 751.305,212.638 752.270,211.400 753.235,210.161 754.200,208.920 755.164,207.677 756.129,206.434 757.094,205.189 758.059,203.942 759.024,202.695 759.989,201.447 760.954,200.197 761.918,198.947 762.883,197.696 763.848,196.444 764.813,195.192 765.778,193.939 766.743,192.686 767.708,191.433 768.672,190.179 769.637,188.925 770.602,187.671 771.567,186.416 772.532,185.162 773.497,183.909 774.462,182.655 775.426,181.402 776.391,180.149 777.356,178.897 778.321,177.645 779.286,176.394 780.251,175.144 781.216,173.894 782.180,172.646 783.145,171.398 784.110,170.152 785.075,168.907 786.040,167.663 787.005,166.421 787.970,165.179 788.934,163.940 789.899,162.702 790.864,161.466 791.829,160.232 792.794,158.999 793.759,157.768 794.724,156.540 795.688,155.313 796.653,154.089 797.618,152.867 798.583,151.648 799.548,150.431 800.513,149.216 801.477,148.004 802.442,146.795 803.407,145.588 804.372,144.384 805.337,143.184 806.302,141.986 807.267,140.791 808.231,139.600 809.196,138.412 810.161,137.227 811.126,136.045 812.091,134.867 813.056,133.693 814.021,132.522 814.985,131.355 815.950,130.192 816.915,129.032 817.880,127.877 818.845,126.726 819.810,125.578 820.775,124.435 821.739,123.296 822.704,122.162 823.669,121.032 824.634,119.906 825.599,118.785 826.564,117.669 827.529,116.557 828.493,115.450 829.458,114.348 830.423,113.251 831.388,112.159 832.353,111.072 833.318,109.990 834.283,108.914 835.247,107.842 836.212,106.776 837.177,105.716 838.142,104.661 839.107,103.611 840.072,102.568 841.036,101.529 842.001,100.497 842.966,99.471 843.931,98.450 844.896,97.435 845.861,96.427 846.826,95.424 847.790,94.428 848.755,93.438 849.720,92.455 850.685,91.477 851.650,90.506 852.615,89.542 853.580,88.584 854.544,87.633 855.509,86.689 856.474,85.751 857.439,84.820 858.404,83.896 859.369,82.979 860.334,82.069 861.298,81.166 862.263,80.270 863.228,79.381 864.193,78.499 865.158,77.625 866.123,76.758 867.088,75.899 868.052,75.047 869.017,74.202 869.982,73.366 870.947,72.536 871.912,71.715 872.877,70.901 873.842,70.095 874.806,69.297 875.771,68.506 876.736,67.724 877.701,66.949 878.666,66.183 879.631,65.425 880.595,64.675 881.560,63.933 882.525,63.199 883.490,62.474 884.455,61.757 885.420,61.048 886.385,60.348 887.349,59.656 888.314,58.973 889.279,58.298 890.244,57.632 891.209,56.975 892.174,56.326 893.139,55.687 894.103,55.055 895.068,54.433 896.033,53.820 896.998,53.215 897.963,52.619 898.928,52.033 899.893,51.455 900.857,50.887 901.822,50.327 902.787,49.777 903.752,49.236 904.717,48.704 905.682,48.181 906.647,47.668 907.611,47.164 908.576,46.669 909.541,46.183 910.506,45.707 911.471,45.241 912.436,44.784 913.401,44.336 914.365,43.898 915.330,43.469 916.295,43.050 917.260,42.641 918.225,42.241 919.190,41.851 920.155,41.471 921.119,41.100 922.084,40.739 923.049,40.388 924.014,40.046 924.979,39.715 925.944,39.393 926.908,39.081 927.873,38.779 928.838,38.487 929.803,38.204 930.768,37.932 931.733,37.670 932.698,37.417 933.662,37.174 934.627,36.942 935.592,36.719 936.557,36.507 937.522,36.304 938.487,36.112 939.452,35.930 940.416,35.757 941.381,35.595 942.346,35.443 943.311,35.301 944.276,35.169 945.241,35.047 946.206,34.935 947.170,34.834 948.135,34.742 949.100,34.661 950.065,34.590 951.030,34.529 951.995,34.478 952.960,34.437 953.924,34.407 954.889,34.386 955.854,34.376 956.819,34.376 957.784,34.386 958.749,34.407 959.714,34.437 960.678,34.478 961.643,34.529 962.608,34.590 963.573,34.661 964.538,34.742 965.503,34.834 966.467,34.935 967.432,35.047 968.397,35.169 969.362,35.301 970.327,35.443 971.292,35.595 972.257,35.757 973.221,35.930 974.186,36.112 975.151,36.304 976.116,36.507 977.081,36.719 978.046,36.942 979.011,37.174 979.975,37.417 980.940,37.670 981.905,37.932 982.870,38.204 983.835,38.487 984.800,38.779 985.765,39.081 986.729,39.393 987.694,39.715 988.659,40.046 989.624,40.388 990.589,40.739 991.554,41.100 992.519,41.471 993.483,41.851 994.448,42.241 995.413,42.641 996.378,43.050 997.343,43.469 998.308,43.898 999.273,44.336 1000.237,44.784 1001.202,45.241 1002.167,45.707 1003.132,46.183 1004.097,46.669 1005.062,47.164 1006.026,47.668 1006.991,48.181 1007.956,48.704 1008.921,49.236 1009.886,49.777 1010.851,50.327 1011.816,50.887 1012.780,51.455 1013.745,52.033 1014.710,52.619 1015.675,53.215 1016.640,53.820 1017.605,54.433 1018.570,55.055 1019.534,55.687 1020.499,56.326 1021.464,56.975 1022.429,57.632 1023.394,58.298 1024.359,58.973 1025.324,59.656 1026.288,60.348 1027.253,61.048 1028.218,61.757 1029.183,62.474 1030.148,63.199 1031.113,63.933 1032.078,64.675 1033.042,65.425 1034.007,66.183 1034.972,66.949 1035.937,67.724 1036.902,68.506 1037.867,69.297 1038.832,70.095 1039.796,70.901 1040.761,71.715 1041.726,72.536 1042.691,73.366 1043.656,74.202 1044.621,75.047 1045.586,75.899 1046.550,76.758 1047.515,77.625 1048.480,78.499 1049.445,79.381 1050.410,80.270 1051.375,81.166 1052.339,82.069 1053.304,82.979 1054.269,83.896 1055.234,84.820 1056.199,85.751 1057.164,86.689 1058.129,87.633 1059.093,88.584 1060.058,89.542 1061.023,90.506 1061.988,91.477 1062.953,92.455 1063.918,93.438 1064.883,94.428 1065.847,95.424 1066.812,96.427 1067.777,97.435 1068.742,98.450 1069.707,99.471 1070.672,100.497 1071.637,101.529 1072.601,102.568 1073.566,103.611 1074.531,104.661 1075.496,105.716 1076.461,106.776 1077.426,107.842 1078.391,108.914 1079.355,109.990 1080.320,111.072 1081.285,112.159 1082.250,113.251 1083.215,114.348 1084.180,115.450 1085.145,116.557 1086.109,117.669 1087.074,118.785 1088.039,119.906 1089.004,121.032 1089.969,122.162 1090.934,123.296 1091.898,124.435 1092.863,125.578 1093.828,126.726 1094.793,127.877 1095.758,129.032 1096.723,130.192 1097.688,131.355 1098.652,132.522 1099.617,133.693 1100.582,134.867 1101.547,136.045 1102.512,137.227 1103.477,138.412 1104.442,139.600 1105.406,140.791 1106.371,141.986 1107.336,143.184 1108.301,144.384 1109.266,145.588 1110.231,146.795 1111.196,148.004 1112.160,149.216 1113.125,150.431 1114.090,151.648 1115.055,152.867 1116.020,154.089 1116.985,155.313 1117.950,156.540 1118.914,157.768 1119.879,158.999 1120.844,160.232 1121.809,161.466 1122.774,162.702 1123.739,163.940 1124.704,165.179 1125.668,166.421 1126.633,167.663 1127.598,168.907 1128.563,170.152 1129.528,171.398 1130.493,172.646 1131.457,173.894 1132.422,175.144 1133.387,176.394 1134.352,177.645 1135.317,178.897 1136.282,180.149 1137.247,181.402 1138.211,182.655 1139.176,183.909 1140.141,185.162 1141.106,186.416 1142.071,187.671 1143.036,188.925 1144.001,190.179 1144.965,191.433 1145.930,192.686 1146.895,193.939 1147.860,195.192 1148.825,196.444 1149.790,197.696 1150.755,198.947 1151.719,200.197 1152.684,201.447 1153.649,202.695 1154.614,203.942 1155.579,205.189 1156.544,206.434 1157.509,207.677 1158.473,208.920 1159.438,210.161 1160.403,211.400 1161.368,212.638 1162.333,213.873 1163.298,215.108 1164.263,216.340 1165.227,217.570 1166.192,218.798 1167.157,220.024 1168.122,221.248 1169.087,222.469 1170.052,223.688 1171.017,224.904 1171.981,226.118 1172.946,227.329 1173.911,228.537 1174.876,229.743 1175.841,230.945 1176.806,232.145 1177.770,233.341 1178.735,234.534 1179.700,235.724 1180.665,236.910 1181.630,238.093 1182.595,239.273 1183.560,240.448 1184.524,241.620 1185.489,242.788 1186.454,243.953 1187.419,245.113 1188.384,246.269 1189.349,247.421 1190.314,248.569 1191.278,249.713 1192.243,250.852 1193.208,251.986 1194.173,253.116 1195.138,254.242 1196.103,255.362 1197.068,256.478 1198.032,257.589 1198.997,258.694 1199.962,259.795 1200.927,260.891 1201.892,261.981 1202.857,263.066 1203.822,264.145 1204.786,265.219 1205.751,266.287 1206.716,267.350 1207.681,268.407 1208.646,269.458 1209.611,270.503 1210.576,271.542 1211.540,272.575 1212.505,273.602 1213.470,274.622 1214.435,275.637 1215.400,276.644 1216.365,277.646 1217.329,278.640 1218.294,279.628 1219.259,280.609 1220.224,281.584 1221.189,282.551 1222.154,283.511 1223.119,284.465 1224.083,285.411 1225.048,286.350 1226.013,287.281 1226.978,288.205 1227.943,289.122 1228.908,290.031 1229.873,290.932 1230.837,291.826 1231.802,292.712 1232.767,293.589 1233.732,294.459 1234.697,295.321 1235.662,296.175 1236.627,297.020 1237.591,297.857 1238.556,298.686 1239.521,299.506 1240.486,300.318 1241.451,301.121 1242.416,301.915 1243.381,302.701 1244.345,303.478 1245.310,304.245 1246.275,305.004 1247.240,305.753 1248.205,306.494 1249.170,307.225 1250.135,307.946 1251.099,308.658 1252.064,309.361 1253.029,310.054 1253.994,310.737 1254.959,311.411 1255.924,312.074 1256.888,312.728 1257.853,313.372 1258.818,314.005 1259.783,314.628 1260.748,315.241 1261.713,315.844 1262.678,316.436 1263.642,317.017 1264.607,317.588 1265.572,318.148 1266.537,318.698 1267.502,319.236 1268.467,319.763 1269.432,320.279 1270.396,320.784 1271.361,321.278 1272.326,321.760 1273.291,322.230 1274.256,322.689 1275.221,323.136 1276.186,323.572 1277.150,323.995 1278.115,324.406 1279.080,324.805 1280.045,325.192 1281.010,325.566 1281.975,325.928 1282.940,326.277 1283.904,326.613 1284.869,326.936 1285.834,327.245 1286.799,327.542 1287.764,327.825 1288.729,328.094 1289.694,328.349 1290.658,328.591 1291.623,328.818 1292.588,329.030 1293.553,329.227 1294.518,329.410 1295.483,329.577 1296.448,329.728 1297.412,329.862 1298.377,329.980 1299.342,330.080 1300.307,330.162 1301.272,330.225 1302.237,330.267 1303.201,330.283 1304.166,330.283 1305.131,330.283 1306.096,330.283 1307.061,330.283 1308.026,330.283 1308.991,330.283 1309.955,330.283 1310.920,330.283 1311.885,330.283 1312.850,330.283 1313.815,330.283 1314.780,330.283 1315.745,330.283 1316.709,330.283 1317.674,330.283 1318.639,330.283 1319.604,330.283 1320.569,330.283 1321.534,330.283 1322.499,330.283 1323.463,330.283 1324.428,330.283 1325.393,330.283 1326.358,330.283 1327.323,330.283 1328.288,330.283 1329.253,330.283 1330.217,330.283 1331.182,330.283 1332.147,330.283 1333.112,330.283 1334.077,330.283 1335.042,330.283 1336.007,330.283 1336.971,330.283 1337.936,330.283 1338.901,330.283 1339.866,330.283 1340.831,330.283 1341.796,330.283 1342.760,330.283 1343.725,330.283 1344.690,330.283 1345.655,330.283 1346.620,330.283 1347.585,330.283 1348.550,330.283 1349.514,330.283 1350.479,330.283 1351.444,330.283 1352.409,330.283 1353.374,330.283 1354.339,330.283 1355.304,330.283 1356.268,330.283 1357.233,330.283 1358.198,330.283 1359.163,330.283 1360.128,330.283 1361.093,330.283 1362.058,330.283 1363.022,330.283 1363.987,330.283 1364.952,330.283 1365.917,330.283 1366.882,330.283 1367.847,330.283 1368.812,330.283 1369.776,330.283 1370.741,330.283 1371.706,330.283 1372.671,330.283 1373.636,330.283 1374.601,330.283 1375.566,330.283 1376.530,330.283 1377.495,330.283 1378.460,330.283 1379.425,330.283 1380.390,330.283 1381.355,330.283 1382.319,330.283 1383.284,330.283 1384.249,330.283 1385.214,330.283 1386.179,330.283 1387.144,330.283 1388.109,330.283 1389.073,330.283 1390.038,330.283 1391.003,330.283 1391.968,330.283 1392.933,330.283 1393.898,330.283 1394.863,330.283 1395.827,330.283 1396.792,330.283 1397.757,330.283 1398.722,330.283 1399.687,330.283 1400.652,330.283 1401.617,330.283 1402.581,330.283 1403.546,330.283 1404.511,330.283 1405.476,330.283 1406.441,330.283 1407.406,330.283 1408.371,330.283 1409.335,330.283 1410.300,330.283 1411.265,330.283 1412.230,330.283 1413.195,330.283 1414.160,330.283 1415.125,330.283 1416.089,330.283 1417.054,330.283 1418.019,330.283 1418.984,330.283 1419.949,330.283 1420.914,330.283 1421.879,330.283 1422.843,330.283 1423.808,330.283 1424.773,330.283 1425.738,330.283 1426.703,330.283 1427.668,330.283 1428.632,330.283 1429.597,330.283 1430.562,330.283 1431.527,330.283 1432.492,330.283 1433.457,330.283 1434.422,330.283 1435.386,330.283 1436.351,330.283 1437.316,330.283 1438.281,330.283 1439.246,330.283 1440.211,330.283 1441.176,330.283 1442.140,330.283 1443.105,330.283 1444.070,330.283 1445.035,330.283 1446.000,330.283 1446.965,330.283 1447.930,330.283 1448.894,330.283 1449.859,330.283 1450.824,330.283 1451.789,330.283 1452.754,330.283 1453.719,330.283 1454.684,330.283 1455.648,330.283 1456.613,330.283 1457.578,330.283 1458.543,330.283 1459.508,330.283 1460.473,330.283 1461.438,330.283 1462.402,330.283 1463.367,330.283 1464.332,330.283 1465.297,330.283 1466.262,330.283 1467.227,330.283 1468.191,330.283 1469.156,330.283 1470.121,330.283 1471.086,330.283 1472.051,330.283 1473.016,330.283 1473.981,330.283 1474.945,330.283 1475.910,330.283 1476.875,330.283 1477.840,330.283 1478.805,330.283 1479.770,330.283 1480.735,330.283 1481.699,330.283 1482.664,330.283 1483.629,330.283 1484.594,330.283 1485.559,330.283 1486.524,330.283 1487.489,330.283 1488.453,330.283 1489.418,330.283 1490.383,330.283 1491.348,330.283 1492.313,330.283 1493.278,330.283 1494.243,330.283 1495.207,330.283 1496.172,330.283 1497.137,330.283 1498.102,330.283 1499.067,330.283 1500.032,330.283 1500.997,330.283 1501.961,330.283 1502.926,330.283 1503.891,330.283 1504.856,330.283 1505.821,330.283 1506.786,330.283 1507.750,330.283 1508.715,330.283 1509.680,330.283 1510.645,330.283 1511.610,330.283 1512.575,330.283 1513.540,330.283 1514.504,330.283 1515.469,330.283 1516.434,330.283 1517.399,330.283 1518.364,330.283 1519.329,330.283 1520.294,330.283 1521.258,330.283 1522.223,330.283 1523.188,330.283 1524.153,330.283 1525.118,330.283 1526.083,330.283 1527.048,330.283 1528.012,330.283 1528.977,330.283 1529.942,330.283 1530.907,330.283 1531.872,330.283 1532.837,330.283 1533.802,330.283 1534.766,330.283 1534.766,330.283 1533.802,330.283 1532.837,330.283 1531.872,330.283 1530.907,330.283 1529.942,330.283 1528.977,330.283 1528.012,330.283 1527.048,330.283 1526.083,330.283 1525.118,330.283 1524.153,330.283 1523.188,330.283 1522.223,330.283 1521.258,330.283 1520.294,330.283 1519.329,330.283 1518.364,330.283 1517.399,330.283 1516.434,330.283 1515.469,330.283 1514.504,330.283 1513.540,330.283 1512.575,330.283 1511.610,330.283 1510.645,330.283 1509.680,330.283 1508.715,330.283 1507.750,330.283 1506.786,330.283 1505.821,330.283 1504.856,330.283 1503.891,330.283 1502.926,330.283 1501.961,330.283 1500.997,330.283 1500.032,330.283 1499.067,330.283 1498.102,330.283 1497.137,330.283 1496.172,330.283 1495.207,330.283 1494.243,330.283 1493.278,330.283 1492.313,330.283 1491.348,330.283 1490.383,330.283 1489.418,330.283 1488.453,330.283 1487.489,330.283 1486.524,330.283 1485.559,330.283 1484.594,330.283 1483.629,330.283 1482.664,330.283 1481.699,330.283 1480.735,330.283 1479.770,330.283 1478.805,330.283 1477.840,330.283 1476.875,330.283 1475.910,330.283 1474.945,330.283 1473.981,330.283 1473.016,330.283 1472.051,330.283 1471.086,330.283 1470.121,330.283 1469.156,330.283 1468.191,330.283 1467.227,330.283 1466.262,330.283 1465.297,330.283 1464.332,330.283 1463.367,330.283 1462.402,330.283 1461.438,330.283 1460.473,330.283 1459.508,330.283 1458.543,330.283 1457.578,330.283 1456.613,330.283 1455.648,330.283 1454.684,330.283 1453.719,330.283 1452.754,330.283 1451.789,330.283 1450.824,330.283 1449.859,330.283 1448.894,330.283 1447.930,330.283 1446.965,330.283 1446.000,330.283 1445.035,330.283 1444.070,330.283 1443.105,330.283 1442.140,330.283 1441.176,330.283 1440.211,330.283 1439.246,330.283 1438.281,330.283 1437.316,330.283 1436.351,330.283 1435.386,330.283 1434.422,330.283 1433.457,330.283 1432.492,330.283 1431.527,330.283 1430.562,330.283 1429.597,330.283 1428.632,330.283 1427.668,330.283 1426.703,330.283 1425.738,330.283 1424.773,330.283 1423.808,330.283 1422.843,330.283 1421.879,330.283 1420.914,330.283 1419.949,330.283 1418.984,330.283 1418.019,330.283 1417.054,330.283 1416.089,330.283 1415.125,330.283 1414.160,330.283 1413.195,330.283 1412.230,330.283 1411.265,330.283 1410.300,330.283 1409.335,330.283 1408.371,330.283 1407.406,330.283 1406.441,330.283 1405.476,330.283 1404.511,330.283 1403.546,330.283 1402.581,330.283 1401.617,330.283 1400.652,330.283 1399.687,330.283 1398.722,330.283 1397.757,330.283 1396.792,330.283 1395.827,330.283 1394.863,330.283 1393.898,330.283 1392.933,330.283 1391.968,330.283 1391.003,330.283 1390.038,330.283 1389.073,330.283 1388.109,330.283 1387.144,330.283 1386.179,330.283 1385.214,330.283 1384.249,330.283 1383.284,330.283 1382.319,330.283 1381.355,330.283 1380.390,330.283 1379.425,330.283 1378.460,330.283 1377.495,330.283 1376.530,330.283 1375.566,330.283 1374.601,330.283 1373.636,330.283 1372.671,330.283 1371.706,330.283 1370.741,330.283 1369.776,330.283 1368.812,330.283 1367.847,330.283 1366.882,330.283 1365.917,330.283 1364.952,330.283 1363.987,330.283 1363.022,330.283 1362.058,330.283 1361.093,330.283 1360.128,330.283 1359.163,330.283 1358.198,330.283 1357.233,330.283 1356.268,330.283 1355.304,330.283 1354.339,330.283 1353.374,330.283 1352.409,330.283 1351.444,330.283 1350.479,330.283 1349.514,330.283 1348.550,330.283 1347.585,330.283 1346.620,330.283 1345.655,330.283 1344.690,330.283 1343.725,330.283 1342.760,330.283 1341.796,330.283 1340.831,330.283 1339.866,330.283 1338.901,330.283 1337.936,330.283 1336.971,330.283 1336.007,330.283 1335.042,330.283 1334.077,330.283 1333.112,330.283 1332.147,330.283 1331.182,330.283 1330.217,330.283 1329.253,330.283 1328.288,330.283 1327.323,330.283 1326.358,330.283 1325.393,330.283 1324.428,330.283 1323.463,330.283 1322.499,330.283 1321.534,330.283 1320.569,330.283 1319.604,330.283 1318.639,330.283 1317.674,330.283 1316.709,330.283 1315.745,330.283 1314.780,330.283 1313.815,330.283 1312.850,330.283 1311.885,330.283 1310.920,330.283 1309.955,330.283 1308.991,330.283 1308.026,330.283 1307.061,330.283 1306.096,330.283 1305.131,330.283 1304.166,330.283 1303.201,330.283 1302.237,330.283 1301.272,330.283 1300.307,330.283 1299.342,330.283 1298.377,330.283 1297.412,330.283 1296.448,330.283 1295.483,330.283 1294.518,330.283 1293.553,330.283 1292.588,330.283 1291.623,330.283 1290.658,330.283 1289.694,330.283 1288.729,330.283 1287.764,330.283 1286.799,330.283 1285.834,330.283 1284.869,330.283 1283.904,330.283 1282.940,330.283 1281.975,330.283 1281.010,330.283 1280.045,330.283 1279.080,330.283 1278.115,330.283 1277.150,330.283 1276.186,330.283 1275.221,330.283 1274.256,330.283 1273.291,330.283 1272.326,330.283 1271.361,330.283 1270.396,330.283 1269.432,330.283 1268.467,330.283 1267.502,330.283 1266.537,330.283 1265.572,330.283 1264.607,330.283 1263.642,330.283 1262.678,330.283 1261.713,330.283 1260.748,330.283 1259.783,330.283 1258.818,330.283 1257.853,330.283 1256.888,330.283 1255.924,330.283 1254.959,330.283 1253.994,330.283 1253.029,330.283 1252.064,330.283 1251.099,330.283 1250.135,330.283 1249.170,330.283 1248.205,330.283 1247.240,330.283 1246.275,330.283 1245.310,330.283 1244.345,330.283 1243.381,330.283 1242.416,330.283 1241.451,330.283 1240.486,330.283 1239.521,330.283 1238.556,330.283 1237.591,330.283 1236.627,330.283 1235.662,330.283 1234.697,330.283 1233.732,330.283 1232.767,330.283 1231.802,330.283 1230.837,330.283 1229.873,330.283 1228.908,330.283 1227.943,330.283 1226.978,330.283 1226.013,330.283 1225.048,330.283 1224.083,330.283 1223.119,330.283 1222.154,330.283 1221.189,330.283 1220.224,330.283 1219.259,330.283 1218.294,330.283 1217.329,330.283 1216.365,330.283 1215.400,330.283 1214.435,330.283 1213.470,330.283 1212.505,330.283 1211.540,330.283 1210.576,330.283 1209.611,330.283 1208.646,330.283 1207.681,330.283 1206.716,330.283 1205.751,330.283 1204.786,330.283 1203.822,330.283 1202.857,330.283 1201.892,330.283 1200.927,330.283 1199.962,330.283 1198.997,330.283 1198.032,330.283 1197.068,330.283 1196.103,330.283 1195.138,330.283 1194.173,330.283 1193.208,330.283 1192.243,330.283 1191.278,330.283 1190.314,330.283 1189.349,330.283 1188.384,330.283 1187.419,330.283 1186.454,330.283 1185.489,330.283 1184.524,330.283 1183.560,330.283 1182.595,330.283 1181.630,330.283 1180.665,330.283 1179.700,330.283 1178.735,330.283 1177.770,330.283 1176.806,330.283 1175.841,330.283 1174.876,330.283 1173.911,330.283 1172.946,330.283 1171.981,330.283 1171.017,330.283 1170.052,330.283 1169.087,330.283 1168.122,330.283 1167.157,330.283 1166.192,330.283 1165.227,330.283 1164.263,330.283 1163.298,330.283 1162.333,330.283 1161.368,330.283 1160.403,330.283 1159.438,330.283 1158.473,330.283 1157.509,330.283 1156.544,330.283 1155.579,330.283 1154.614,330.283 1153.649,330.283 1152.684,330.283 1151.719,330.283 1150.755,330.283 1149.790,330.283 1148.825,330.283 1147.860,330.283 1146.895,330.283 1145.930,330.283 1144.965,330.283 1144.001,330.283 1143.036,330.283 1142.071,330.283 1141.106,330.283 1140.141,330.283 1139.176,330.283 1138.211,330.283 1137.247,330.283 1136.282,330.283 1135.317,330.283 1134.352,330.283 1133.387,330.283 1132.422,330.283 1131.457,330.283 1130.493,330.283 1129.528,330.283 1128.563,330.283 1127.598,330.283 1126.633,330.283 1125.668,330.283 1124.704,330.283 1123.739,330.283 1122.774,330.283 1121.809,330.283 1120.844,330.283 1119.879,330.283 1118.914,330.283 1117.950,330.283 1116.985,330.283 1116.020,330.283 1115.055,330.283 1114.090,330.283 1113.125,330.283 1112.160,330.283 1111.196,330.283 1110.231,330.283 1109.266,330.283 1108.301,330.283 1107.336,330.283 1106.371,330.283 1105.406,330.283 1104.442,330.283 1103.477,330.283 1102.512,330.283 1101.547,330.283 1100.582,330.283 1099.617,330.283 1098.652,330.283 1097.688,330.283 1096.723,330.283 1095.758,330.283 1094.793,330.283 1093.828,330.283 1092.863,330.283 1091.898,330.283 1090.934,330.283 1089.969,330.283 1089.004,330.283 1088.039,330.283 1087.074,330.283 1086.109,330.283 1085.145,330.283 1084.180,330.283 1083.215,330.283 1082.250,330.283 1081.285,330.283 1080.320,330.283 1079.355,330.283 1078.391,330.283 1077.426,330.283 1076.461,330.283 1075.496,330.283 1074.531,330.283 1073.566,330.283 1072.601,330.283 1071.637,330.283 1070.672,330.283 1069.707,330.283 1068.742,330.283 1067.777,330.283 1066.812,330.283 1065.847,330.283 1064.883,330.283 1063.918,330.283 1062.953,330.283 1061.988,330.283 1061.023,330.283 1060.058,330.283 1059.093,330.283 1058.129,330.283 1057.164,330.283 1056.199,330.283 1055.234,330.283 1054.269,330.283 1053.304,330.283 1052.339,330.283 1051.375,330.283 1050.410,330.283 1049.445,330.283 1048.480,330.283 1047.515,330.283 1046.550,330.283 1045.586,330.283 1044.621,330.283 1043.656,330.283 1042.691,330.283 1041.726,330.283 1040.761,330.283 1039.796,330.283 1038.832,330.283 1037.867,330.283 1036.902,330.283 1035.937,330.283 1034.972,330.283 1034.007,330.283 1033.042,330.283 1032.078,330.283 1031.113,330.283 1030.148,330.283 1029.183,330.283 1028.218,330.283 1027.253,330.283 1026.288,330.283 1025.324,330.283 1024.359,330.283 1023.394,330.283 1022.429,330.283 1021.464,330.283 1020.499,330.283 1019.534,330.283 1018.570,330.283 1017.605,330.283 1016.640,330.283 1015.675,330.283 1014.710,330.283 1013.745,330.283 1012.780,330.283 1011.816,330.283 1010.851,330.283 1009.886,330.283 1008.921,330.283 1007.956,330.283 1006.991,330.283 1006.026,330.283 1005.062,330.283 1004.097,330.283 1003.132,330.283 1002.167,330.283 1001.202,330.283 1000.237,330.283 999.273,330.283 998.308,330.283 997.343,330.283 996.378,330.283 995.413,330.283 994.448,330.283 993.483,330.283 992.519,330.283 991.554,330.283 990.589,330.283 989.624,330.283 988.659,330.283 987.694,330.283 986.729,330.283 985.765,330.283 984.800,330.283 983.835,330.283 982.870,330.283 981.905,330.283 980.940,330.283 979.975,330.283 979.011,330.283 978.046,330.283 977.081,330.283 976.116,330.283 975.151,330.283 974.186,330.283 973.221,330.283 972.257,330.283 971.292,330.283 970.327,330.283 969.362,330.283 968.397,330.283 967.432,330.283 966.467,330.283 965.503,330.283 964.538,330.283 963.573,330.283 962.608,330.283 961.643,330.283 960.678,330.283 959.714,330.283 958.749,330.283 957.784,330.283 956.819,330.283 955.854,330.283 954.889,330.283 953.924,330.283 952.960,330.283 951.995,330.283 951.030,330.283 950.065,330.283 949.100,330.283 948.135,330.283 947.170,330.283 946.206,330.283 945.241,330.283 944.276,330.283 943.311,330.283 942.346,330.283 941.381,330.283 940.416,330.283 939.452,330.283 938.487,330.283 937.522,330.283 936.557,330.283 935.592,330.283 934.627,330.283 933.662,330.283 932.698,330.283 931.733,330.283 930.768,330.283 929.803,330.283 928.838,330.283 927.873,330.283 926.908,330.283 925.944,330.283 924.979,330.283 924.014,330.283 923.049,330.283 922.084,330.283 921.119,330.283 920.155,330.283 919.190,330.283 918.225,330.283 917.260,330.283 916.295,330.283 915.330,330.283 914.365,330.283 913.401,330.283 912.436,330.283 911.471,330.283 910.506,330.283 909.541,330.283 908.576,330.283 907.611,330.283 906.647,330.283 905.682,330.283 904.717,330.283 903.752,330.283 902.787,330.283 901.822,330.283 900.857,330.283 899.893,330.283 898.928,330.283 897.963,330.283 896.998,330.283 896.033,330.283 895.068,330.283 894.103,330.283 893.139,330.283 892.174,330.283 891.209,330.283 890.244,330.283 889.279,330.283 888.314,330.283 887.349,330.283 886.385,330.283 885.420,330.283 884.455,330.283 883.490,330.283 882.525,330.283 881.560,330.283 880.595,330.283 879.631,330.283 878.666,330.283 877.701,330.283 876.736,330.283 875.771,330.283 874.806,330.283 873.842,330.283 872.877,330.283 871.912,330.283 870.947,330.283 869.982,330.283 869.017,330.283 868.052,330.283 867.088,330.283 866.123,330.283 865.158,330.283 864.193,330.283 863.228,330.283 862.263,330.283 861.298,330.283 860.334,330.283 859.369,330.283 858.404,330.283 857.439,330.283 856.474,330.283 855.509,330.283 854.544,330.283 853.580,330.283 852.615,330.283 851.650,330.283 850.685,330.283 849.720,330.283 848.755,330.283 847.790,330.283 846.826,330.283 845.861,330.283 844.896,330.283 843.931,330.283 842.966,330.283 842.001,330.283 841.036,330.283 840.072,330.283 839.107,330.283 838.142,330.283 837.177,330.283 836.212,330.283 835.247,330.283 834.283,330.283 833.318,330.283 832.353,330.283 831.388,330.283 830.423,330.283 829.458,330.283 828.493,330.283 827.529,330.283 826.564,330.283 825.599,330.283 824.634,330.283 823.669,330.283 822.704,330.283 821.739,330.283 820.775,330.283 819.810,330.283 818.845,330.283 817.880,330.283 816.915,330.283 815.950,330.283 814.985,330.283 814.021,330.283 813.056,330.283 812.091,330.283 811.126,330.283 810.161,330.283 809.196,330.283 808.231,330.283 807.267,330.283 806.302,330.283 805.337,330.283 804.372,330.283 803.407,330.283 802.442,330.283 801.477,330.283 800.513,330.283 799.548,330.283 798.583,330.283 797.618,330.283 796.653,330.283 795.688,330.283 794.724,330.283 793.759,330.283 792.794,330.283 791.829,330.283 790.864,330.283 789.899,330.283 788.934,330.283 787.970,330.283 787.005,330.283 786.040,330.283 785.075,330.283 784.110,330.283 783.145,330.283 782.180,330.283 781.216,330.283 780.251,330.283 779.286,330.283 778.321,330.283 777.356,330.283 776.391,330.283 775.426,330.283 774.462,330.283 773.497,330.283 772.532,330.283 771.567,330.283 770.602,330.283 769.637,330.283 768.672,330.283 767.708,330.283 766.743,330.283 765.778,330.283 764.813,330.283 763.848,330.283 762.883,330.283 761.918,330.283 760.954,330.283 759.989,330.283 759.024,330.283 758.059,330.283 757.094,330.283 756.129,330.283 755.164,330.283 754.200,330.283 753.235,330.283 752.270,330.283 751.305,330.283 750.340,330.283 749.375,330.283 748.411,330.283 747.446,330.283 746.481,330.283 745.516,330.283 744.551,330.283 743.586,330.283 742.621,330.283 741.657,330.283 740.692,330.283 739.727,330.283 738.762,330.283 737.797,330.283 736.832,330.283 735.867,330.283 734.903,330.283 733.938,330.283 732.973,330.283 732.008,330.283 731.043,330.283 730.078,330.283 729.113,330.283 728.149,330.283 727.184,330.283 726.219,330.283 725.254,330.283 724.289,330.283 723.324,330.283 722.359,330.283 721.395,330.283 720.430,330.283 719.465,330.283 718.500,330.283 717.535,330.283 716.570,330.283 715.605,330.283 714.641,330.283 713.676,330.283 712.711,330.283 711.746,330.283 710.781,330.283 709.816,330.283 708.852,330.283 707.887,330.283 706.922,330.283 705.957,330.283 704.992,330.283 704.027,330.283 703.062,330.283 702.098,330.283 701.133,330.283 700.168,330.283 699.203,330.283 698.238,330.283 697.273,330.283 696.308,330.283 695.344,330.283 694.379,330.283 693.414,330.283 692.449,330.283 691.484,330.283 690.519,330.283 689.554,330.283 688.590,330.283 687.625,330.283 686.660,330.283 685.695,330.283 684.730,330.283 683.765,330.283 682.800,330.283 681.836,330.283 680.871,330.283 679.906,330.283 678.941,330.283 677.976,330.283 677.011,330.283 676.046,330.283 675.082,330.283 674.117,330.283 673.152,330.283 672.187,330.283 671.222,330.283 670.257,330.283 669.293,330.283 668.328,330.283 667.363,330.283 666.398,330.283 665.433,330.283 664.468,330.283 663.503,330.283 662.539,330.283 661.574,330.283 660.609,330.283 659.644,330.283 658.679,330.283 657.714,330.283 656.749,330.283 655.785,330.283 654.820,330.283 653.855,330.283 652.890,330.283 651.925,330.283 650.960,330.283 649.995,330.283 649.031,330.283 648.066,330.283 647.101,330.283 646.136,330.283 645.171,330.283 644.206,330.283 643.241,330.283 642.277,330.283 641.312,330.283 640.347,330.283 639.382,330.283 638.417,330.283 637.452,330.283 636.487,330.283 635.523,330.283 634.558,330.283 633.593,330.283 632.628,330.283 631.663,330.283 630.698,330.283 629.733,330.283 628.769,330.283 627.804,330.283 626.839,330.283 625.874,330.283 624.909,330.283 623.944,330.283 622.980,330.283 622.015,330.283 621.050,330.283 620.085,330.283 619.120,330.283 618.155,330.283 617.190,330.283 616.226,330.283 615.261,330.283 614.296,330.283 613.331,330.283 612.366,330.283 611.401,330.283 610.436,330.283 609.472,330.283 608.507,330.283 607.542,330.283 606.577,330.283 605.612,330.283 604.647,330.283 603.682,330.283 602.718,330.283 601.753,330.283 600.788,330.283 599.823,330.283 598.858,330.283 597.893,330.283 596.928,330.283 595.964,330.283 594.999,330.283 594.034,330.283 593.069,330.283 592.104,330.283 591.139,330.283 590.174,330.283 589.210,330.283 588.245,330.283 587.280,330.283 586.315,330.283 585.350,330.283 584.385,330.283 583.421,330.283 582.456,330.283 581.491,330.283 580.526,330.283 579.561,330.283 578.596,330.283 577.631,330.283 576.667,330.283 575.702,330.283 574.737,330.283 573.772,330.283 572.807,330.283 571.842,330.283 570.877,330.283 569.913,330.283 568.948,330.283 567.983,330.283 567.018,330.283 566.053,330.283 565.088,330.283 564.123,330.283 563.159,330.283 562.194,330.283 561.229,330.283 560.264,330.283 559.299,330.283 558.334,330.283 557.369,330.283 556.405,330.283 555.440,330.283 554.475,330.283 553.510,330.283 552.545,330.283 551.580,330.283 550.615,330.283 549.651,330.283 548.686,330.283 547.721,330.283 546.756,330.283 545.791,330.283 544.826,330.283 543.862,330.283 542.897,330.283 541.932,330.283 540.967,330.283 540.002,330.283 539.037,330.283 538.072,330.283 537.108,330.283 536.143,330.283 535.178,330.283 534.213,330.283 533.248,330.283 532.283,330.283 531.318,330.283 530.354,330.283 529.389,330.283 528.424,330.283 527.459,330.283 526.494,330.283 525.529,330.283 524.564,330.283 523.600,330.283 522.635,330.283 521.670,330.283 520.705,330.283 519.740,330.283 518.775,330.283 517.810,330.283 516.846,330.283 515.881,330.283 514.916,330.283 513.951,330.283 512.986,330.283 512.021,330.283 511.056,330.283 510.092,330.283 509.127,330.283 508.162,330.283 507.197,330.283 506.232,330.283 505.267,330.283 504.302,330.283 503.338,330.283 502.373,330.283 501.408,330.283 500.443,330.283 499.478,330.283 498.513,330.283 497.549,330.283 496.584,330.283 495.619,330.283 494.654,330.283 493.689,330.283 492.724,330.283 491.759,330.283 490.795,330.283 489.830,330.283 488.865,330.283 487.900,330.283 486.935,330.283 485.970,330.283 485.005,330.283 484.041,330.283 483.076,330.283 482.111,330.283 481.146,330.283 480.181,330.283 479.216,330.283 478.251,330.283 477.287,330.283 476.322,330.283 475.357,330.283 474.392,330.283 473.427,330.283 472.462,330.283 471.497,330.283 470.533,330.283 469.568,330.283 468.603,330.283 467.638,330.283 466.673,330.283 465.708,330.283 464.743,330.283 463.779,330.283 462.814,330.283 461.849,330.283 460.884,330.283 459.919,330.283 458.954,330.283 457.990,330.283 457.025,330.283 456.060,330.283 455.095,330.283 454.130,330.283 453.165,330.283 452.200,330.283 451.236,330.283 450.271,330.283 449.306,330.283 448.341,330.283 447.376,330.283 446.411,330.283 445.446,330.283 444.482,330.283 443.517,330.283 442.552,330.283 441.587,330.283 440.622,330.283 439.657,330.283 438.692,330.283 437.728,330.283 436.763,330.283 435.798,330.283 434.833,330.283 433.868,330.283 432.903,330.283 431.938,330.283 430.974,330.283 430.009,330.283 429.044,330.283 428.079,330.283 427.114,330.283 426.149,330.283 425.184,330.283 424.220,330.283 423.255,330.283 422.290,330.283 421.325,330.283 420.360,330.283 419.395,330.283 418.431,330.283 417.466,330.283 416.501,330.283 415.536,330.283 414.571,330.283 413.606,330.283 412.641,330.283 411.677,330.283 410.712,330.283 409.747,330.283 408.782,330.283 407.817,330.283 406.852,330.283 405.887,330.283 404.923,330.283 403.958,330.283 402.993,330.283 402.028,330.283 401.063,330.283 400.098,330.283 399.133,330.283 398.169,330.283 397.204,330.283 396.239,330.283 395.274,330.283 394.309,330.283 393.344,330.283 392.379,330.283 391.415,330.283 390.450,330.283 389.485,330.283 388.520,330.283 387.555,330.283 386.590,330.283 385.625,330.283 384.661,330.283 383.696,330.283 382.731,330.283 381.766,330.283 380.801,330.283 379.836,330.283 378.871,330.283 377.907,330.283 376.942,330.283 375.977,330.283 375.012,330.283 374.047,330.283 373.082,330.283 372.118,330.283 371.153,330.283 370.188,330.283 369.223,330.283 368.258,330.283 367.293,330.283 366.328,330.283 365.364,330.283 364.399,330.283 363.434,330.283 362.469,330.283 361.504,330.283 360.539,330.283 359.574,330.283 358.610,330.283 357.645,330.283 356.680,330.283 355.715,330.283 354.750,330.283 353.785,330.283 352.820,330.283 351.856,330.283 350.891,330.283 349.926,330.283 348.961,330.283 347.996,330.283 347.031,330.283 346.066,330.283 345.102,330.283 344.137,330.283 343.172,330.283 342.207,330.283 341.242,330.283 340.277,330.283 339.312,330.283 338.348,330.283 337.383,330.283 336.418,330.283 335.453,330.283 334.488,330.283 333.523,330.283 332.559,330.283 331.594,330.283 330.629,330.283 329.664,330.283 328.699,330.283 327.734,330.283 326.769,330.283 325.805,330.283 324.840,330.283 323.875,330.283 322.910,330.283 321.945,330.283 320.980,330.283 320.015,330.283 319.051,330.283 318.086,330.283 317.121,330.283 316.156,330.283 315.191,330.283 314.226,330.283 313.261,330.283 312.297,330.283 311.332,330.283 310.367,330.283 309.402,330.283 308.437,330.283 307.472,330.283 306.507,330.283 305.543,330.283 304.578,330.283 303.613,330.283 302.648,330.283 301.683,330.283 300.718,330.283 299.753,330.283 298.789,330.283 297.824,330.283 296.859,330.283 295.894,330.283 294.929,330.283 293.964,330.283 293.000,330.283 292.035,330.283 291.070,330.283 290.105,330.283 289.140,330.283 288.175,330.283 287.210,330.283 286.246,330.283 285.281,330.283 284.316,330.283 283.351,330.283 282.386,330.283 281.421,330.283 280.456,330.283 279.492,330.283 278.527,330.283 277.562,330.283 276.597,330.283 275.632,330.283 274.667,330.283 273.702,330.283 272.738,330.283 271.773,330.283 270.808,330.283 269.843,330.283 268.878,330.283 267.913,330.283 266.948,330.283 265.984,330.283 265.019,330.283 264.054,330.283 263.089,330.283 262.124,330.283 261.159,330.283 260.194,330.283 259.230,330.283 258.265,330.283 257.300,330.283 256.335,330.283 255.370,330.283 254.405,330.283 253.440,330.283 252.476,330.283 251.511,330.283 250.546,330.283 249.581,330.283 248.616,330.283 247.651,330.283 246.687,330.283 245.722,330.283 244.757,330.283 243.792,330.283 242.827,330.283 241.862,330.283 240.897,330.283 239.933,330.283 238.968,330.283 238.003,330.283 237.038,330.283 236.073,330.283 235.108,330.283 234.143,330.283 233.179,330.283 232.214,330.283 231.249,330.283 230.284,330.283 229.319,330.283 228.354,330.283 227.389,330.283 226.425,330.283 225.460,330.283 224.495,330.283 223.530,330.283 222.565,330.283 221.600,330.283 220.635,330.283 219.671,330.283 218.706,330.283 217.741,330.283 216.776,330.283 215.811,330.283 214.846,330.283 213.881,330.283 212.917,330.283 211.952,330.283 210.987,330.283 210.022,330.283 209.057,330.283 208.092,330.283 207.128,330.283 206.163,330.283 205.198,330.283 204.233,330.283 203.268,330.283 202.303,330.283 201.338,330.283 200.374,330.283 199.409,330.283 198.444,330.283 197.479,330.283 196.514,330.283 195.549,330.283 194.584,330.283 193.620,330.283 192.655,330.283 191.690,330.283 190.725,330.283 189.760,330.283 188.795,330.283 187.830,330.283 186.866,330.283 185.901,330.283 184.936,330.283 183.971,330.283 183.006,330.283 182.041,330.283 181.076,330.283 180.112,330.283 179.147,330.283 178.182,330.283 177.217,330.283 176.252,330.283 175.287,330.283 174.322,330.283 173.358,330.283 172.393,330.283 171.428,330.283 170.463,330.283 169.498,330.283 168.533,330.283 167.569,330.283 166.604,330.283 165.639,330.283 164.674,330.283 163.709,330.283 162.744,330.283 161.779,330.283 160.815,330.283 159.850,330.283 158.885,330.283 157.920,330.283 156.955,330.283 155.990,330.283 155.025,330.283 154.061,330.283 153.096,330.283 152.131,330.283 151.166,330.283 150.201,330.283 149.236,330.283 148.271,330.283 147.307,330.283 146.342,330.283 "/>
</g>
</g>    </g>
    <g>
      <polyline fill="none" stroke="#000000" stroke-width="0.5pt" stroke-dasharray="none" points="145.377,330.283 145.377,315.811 "/>
      <polyline fill="none" stroke="#000000" stroke-width="0.5pt" stroke-dasharray="none" points="203.268,330.283 203.268,315.811 "/>
      <polyline fill="none" stroke="#000000" stroke-width="0.5pt" stroke-dasharray="none" points="261.159,330.283 261.159,315.811 "/>
      <polyline fill="none" stroke="#000000" stroke-width="0.5pt" stroke-dasharray="none" points="319.051,330.283 319.051,315.811 "/>
      <polyline fill="none" stroke="#000000" stroke-width="0.5pt" stroke-dasharray="none" points="376.942,330.283 376.942,315.811 "/>
      <polyline fill="none" stroke="#000000" stroke-width="0.5pt" stroke-dasharray="none" points="434.833,330.283 434.833,315.811 "/>
      <polyline fill="none" stroke="#000000" stroke-width="0.5pt" stroke-dasharray="none" points="492.724,330.283 492.724,315.811 "/>
      <polyline fill="none" stroke="#000000" stroke-width="0.5pt" stroke-dasharray="none" points="550.615,330.283 550.615,315.811 "/>
      <polyline fill="none" stroke="#000000" stroke-width="0.5pt" stroke-dasharray="none" points="608.507,330.283 608.507,315.811 "/>
      <polyline fill="none" stroke="#000000" stroke-width="0.5pt" stroke-dasharray="none" points="666.398,330.283 666.398,315.811 "/>
      <polyline fill="none" stroke="#000000" stroke-width="0.5pt" stroke-dasharray="none" points="724.289,330.283 724.289,315.811 "/>
      <polyline fill="none" stroke="#000000" stroke-width="0.5pt" stroke-dasharray="none" points="782.180,330.283 782.180,315.811 "/>
      <polyline fill="none" stroke="#000000" stroke-width="0.5pt" stroke-dasharray="none" points="840.072,330.283 840.072,315.811 "/>
      <polyline fill="none" stroke="#000000" stroke-width="0.5pt" stroke-dasharray="none" points="897.963,330.283 897.963,315.811 "/>
      <polyline fill="none" stroke="#000000" stroke-width="0.5pt" stroke-dasharray="none" points="955.854,330.283 955.854,315.811 "/>
      <polyline fill="none" stroke="#000000" stroke-width="0.5pt" stroke-dasharray="none" points="1013.745,330.283 1013.745,315.811 "/>
      <polyline fill="none" stroke="#000000" stroke-width="0.5pt" stroke-dasharray="none" points="1071.637,330.283 1071.637,315.811 "/>
      <polyline fill="none" stroke="#000000" stroke-width="0.5pt" stroke-dasharray="none" points="1129.528,330.283 1129.528,315.811 "/>
      <polyline fill="none" stroke="#000000" stroke-width="0.5pt" stroke-dasharray="none" points="1187.419,330.283 1187.419,315.811 "/>
      <polyline fill="none" stroke="#000000" stroke-width="0.5pt" stroke-dasharray="none" points="1245.310,330.283 1245.310,315.811 "/>
      <polyline fill="none" stroke="#000000" stroke-width="0.5pt" stroke-dasharray="none" points="1303.201,330.283 1303.201,315.811 "/>
      <polyline fill="none" stroke="#000000" stroke-width="0.5pt" stroke-dasharray="none" points="1361.093,330.283 1361.093,315.811 "/>
      <polyline fill="none" stroke="#000000" stroke-width="0.5pt" stroke-dasharray="none" points="1418.984,330.283 1418.984,315.811 "/>
      <polyline fill="none" stroke="#000000" stroke-width="0.5pt" stroke-dasharray="none" points="1476.875,330.283 1476.875,315.811 "/>
      <polyline fill="none" stroke="#000000" stroke-width="0.5pt" stroke-dasharray="none" points="1534.766,330.283 1534.766,315.811 "/>
      <polyline fill="none" stroke="#000000" stroke-width="0.5pt" stroke-dasharray="none" points="145.377,330.283 1592.658,330.283 "/>
  <g transform="translate(145.377,347.264)">
    <g transform="rotate(-0.0)">
      <text x="0.000" y="0.000" font-family="Helvetica" text-anchor="middle" font-size="9pt" font-style="oblique" fill="#000000" >00:00</text>
    </g>
  </g>
  <g transform="translate(203.268,347.264)">
    <g transform="rotate(-0.0)">
      <text x="0.000" y="0.000" font-family="Helvetica" text-anchor="middle" font-size="9pt" font-style="oblique" fill="#000000" >01:00</text>
    </g>
  </g>
  <g transform="translate(261.159,347.264)">
    <g transform="rotate(-0.0)">
      <text x="0.000" y="0.000" font-family="Helvetica" text-anchor="middle" font-size="9pt" font-style="oblique" fill="#000000" >02:00</text>
    </g>
  </g>
  <g transform="translate(319.051,347.264)">
    <g transform="rotate(-0.0)">
      <text x="0.000" y="0.000" font-family="Helvetica" text-anchor="middle" font-size="9pt" font-style="oblique" fill="#000000" >03:00</text>
    </g>
  </g>
  <g transform="translate(376.942,347.264)">
    <g transform="rotate(-0.0)">
      <text x="0.000" y="0.000" font-family="Helvetica" text-anchor="middle" font-size="9pt" font-style="oblique" fill="#000000" >04:00</text>
    </g>
  </g>
  <g transform="translate(434.833,347.264)">
    <g transform="rotate(-0.0)">
      <text x="0.000" y="0.000" font-family="Helvetica" text-anchor="middle" font-size="9pt" font-style="oblique" fill="#000000" >05:00</text>
    </g>
  </g>
  <g transform="translate(492.724,347.264)">
    <g transform="rotate(-0.0)">
      <text x="0.000" y="0.000" font-family="Helvetica" text-anchor="middle" font-size="9pt" font-style="oblique" fill="#000000" >06:00</text>
    </g>
  </g>
  <g transform="translate(550.615,347.264)">
    <g transform="rotate(-0.0)">
      <text x="0.000" y="0.000" font-family="Helvetica" text-anchor="middle" font-size="9pt" font-style="oblique" fill="#000000" >07:00</text>
    </g>
  </g>
  <g transform="translate(608.507,347.264)">
    <g transform="rotate(-0.0)">
      <text x="0.000" y="0.000" font-family="Helvetica" text-anchor="middle" font-size="9pt" font-style="oblique" fill="#000000" >08:00</text>
    </g>
  </g>
  <g transform="translate(666.398,347.264)">
    <g transform="rotate(-0.0)">
      <text x="0.000" y="0.000" font-family="Helvetica" text-anchor="middle" font-size="9pt" font-style="oblique" fill="#000000" >09:00</text>
    </g>
  </g>
  <g transform="translate(724.289,347.264)">
    <g transform="rotate(-0.0)">
      <text x="0.000" y="0.000" font-family="Helvetica" text-anchor="middle" font-size="9pt" font-style="oblique" fill="#000000" >10:00</text>
    </g>
  </g>
  <g transform="translate(782.180,347.264)">
    <g transform="rotate(-0.0)">
      <text x="0.000" y="0.000" font-family="Helvetica" text-anchor="middle" font-size="9pt" font-style="oblique" fill="#000000" >11:00</text>
    </g>
  </g>
  <g transform="translate(840.072,347.264)">
    <g transform="rotate(-0.0)">
      <text x="0.000" y="0.000" font-family="Helvetica" text-anchor="middle" font-size="9pt" font-style="oblique" fill="#000000" >12:00</text>
    </g>
  </g>
  <g transform="translate(897.963,347.264)">
    <g transform="rotate(-0.0)">
      <text x="0.000" y="0.000" font-family="Helvetica" text-anchor="middle" font-size="9pt" font-style="oblique" fill="#000000" >13:00</text>
    </g>
  </g>
  <g transform="translate(955.854,347.264)">
    <g transform="rotate(-0.0)">
      <text x="0.000" y="0.000" font-family="Helvetica" text-anchor="middle" font-size="9pt" font-style="oblique" fill="#000000" >14:00</text>
    </g>
  </g>
  <g transform="translate(1013.745,347.264)">
    <g transform="rotate(-0.0)">
      <text x="0.000" y="0.000" font-family="Helvetica" text-anchor="middle" font-size="9pt" font-style="oblique" fill="#000000" >15:00</text>
    </g>
  </g>
  <g transform="translate(1071.637,347.264)">
    <g transform="rotate(-0.0)">
      <text x="0.000" y="0.000" font-family="Helvetica" text-anchor="middle" font-size="9pt" font-style="oblique" fill="#000000" >16:00</text>
    </g>
  </g>
  <g transform="translate(1129.528,347.264)">
    <g transform="rotate(-0.0)">
      <text x="0.000" y="0.000" font-family="Helvetica" text-anchor="middle" font-size="9pt" font-style="oblique" fill="#000000" >17:00</text>
    </g>
  </g>
  <g transform="translate(1187.419,347.264)">
    <g transform="rotate(-0.0)">
      <text x="0.000" y="0.000" font-family="Helvetica" text-anchor="middle" font-size="9pt" font-style="oblique" fill="#000000" >18:00</text>
    </g>
  </g>
  <g transform="translate(1245.310,347.264)">
    <g transform="rotate(-0.0)">
      <text x="0.000" y="0.000" font-family="Helvetica" text-anchor="middle" font-size="9pt" font-style="oblique" fill="#000000" >19:00</text>
    </g>
  </g>
  <g transform="translate(1303.201,347.264)">
    <g transform="rotate(-0.0)">
      <text x="0.000" y="0.000" font-family="Helvetica" text-anchor="middle" font-size="9pt" font-style="oblique" fill="#000000" >20:00</text>
    </g>
  </g>
  <g transform="translate(1361.093,347.264)">
    <g transform="rotate(-0.0)">
      <text x="0.000" y="0.000" font-family="Helvetica" text-anchor="middle" font-size="9pt" font-style="oblique" fill="#000000" >21:00</text>
    </g>
  </g>
  <g transform="translate(1418.984,347.264)">
    <g transform="rotate(-0.0)">
      <text x="0.000" y="0.000" font-family="Helvetica" text-anchor="middle" font-size="9pt" font-style="oblique" fill="#000000" >22:00</text>
    </g>
  </g>
  <g transform="translate(1476.875,347.264)">
    <g transform="rotate(-0.0)">
      <text x="0.000" y="0.000" font-family="Helvetica" text-anchor="middle" font-size="9pt" font-style="oblique" fill="#000000" >23:00</text>
    </g>
  </g>
  <g transform="translate(1534.766,347.264)">
    <g transform="rotate(-0.0)">
      <text x="0.000" y="0.000" font-family="Helvetica" text-anchor="middle" font-size="9pt" font-style="oblique" fill="#000000" >24:00</text>
    </g>
  </g>
      <polyline fill="none" stroke="#000000" stroke-width="0.5pt" stroke-dasharray="none" points="145.377,330.283 159.850,330.283 "/>
      <polyline fill="none" stroke="#000000" stroke-width="0.5pt" stroke-dasharray="none" points="145.377,300.693 159.850,300.693 "/>
      <polyline fill="none" stroke="#000000" stroke-width="0.5pt" stroke-dasharray="none" points="145.377,271.102 159.850,271.102 "/>
      <polyline fill="none" stroke="#000000" stroke-width="0.5pt" stroke-dasharray="none" points="145.377,241.511 159.850,241.511 "/>
      <polyline fill="none" stroke="#000000" stroke-width="0.5pt" stroke-dasharray="none" points="145.377,211.920 159.850,211.920 "/>
      <polyline fill="none" stroke="#000000" stroke-width="0.5pt" stroke-dasharray="none" points="145.377,182.329 159.850,182.329 "/>
      <polyline fill="none" stroke="#000000" stroke-width="0.5pt" stroke-dasharray="none" points="145.377,152.738 159.850,152.738 "/>
      <polyline fill="none" stroke="#000000" stroke-width="0.5pt" stroke-dasharray="none" points="145.377,123.148 159.850,123.148 "/>
      <polyline fill="none" stroke="#000000" stroke-width="0.5pt" stroke-dasharray="none" points="145.377,93.557 159.850,93.557 "/>
      <polyline fill="none" stroke="#000000" stroke-width="0.5pt" stroke-dasharray="none" points="145.377,63.966 159.850,63.966 "/>
      <polyline fill="none" stroke="#000000" stroke-width="0.5pt" stroke-dasharray="none" points="145.377,34.375 159.850,34.375 "/>
      <polyline fill="none" stroke="#000000" stroke-width="0.5pt" stroke-dasharray="none" points="145.377,330.283 145.377,34.375 "/>
  <g transform="translate(116.431,334.502)">
    <g transform="rotate(-0.0)">
      <text x="0.000" y="0.000" font-family="Helvetica" text-anchor="end" font-size="9pt" font-style="oblique" fill="#000000" >0</text>
    </g>
  </g>
  <g transform="translate(116.431,304.911)">
    <g transform="rotate(-0.0)">
      <text x="0.000" y="0.000" font-family="Helvetica" text-anchor="end" font-size="9pt" font-style="oblique" fill="#000000" >200</text>
    </g>
  </g>
  <g transform="translate(116.431,275.321)">
    <g transform="rotate(-0.0)">
      <text x="0.000" y="0.000" font-family="Helvetica" text-anchor="end" font-size="9pt" font-style="oblique" fill="#000000" >400</text>
    </g>
  </g>
  <g transform="translate(116.431,245.730)">
    <g transform="rotate(-0.0)">
      <text x="0.000" y="0.000" font-family="Helvetica" text-anchor="end" font-size="9pt" font-style="oblique" fill="#000000" >600</text>
    </g>
  </g>
  <g transform="translate(116.431,216.139)">
    <g transform="rotate(-0.0)">
      <text x="0.000" y="0.000" font-family="Helvetica" text-anchor="end" font-size="9pt" font-style="oblique" fill="#000000" >800</text>
    </g>
  </g>
  <g transform="translate(116.431,186.548)">
    <g transform="rotate(-0.0)">
      <text x="0.000" y="0.000" font-family="Helvetica" text-anchor="end" font-size="9pt" font-style="oblique" fill="#000000" >1000</text>
    </g>
  </g>
  <g transform="translate(116.431,156.957)">
    <g transform="rotate(-0.0)">
      <text x="0.000" y="0.000" font-family="Helvetica" text-anchor="end" font-size="9pt" font-style="oblique" fill="#000000" >1200</text>
    </g>
  </g>
  <g transform="translate(116.431,127.366)">
    <g transform="rotate(-0.0)">
      <text x="0.000" y="0.000" font-family="Helvetica" text-anchor="end" font-size="9pt" font-style="oblique" fill="#000000" >1400</text>
    </g>
  </g>
  <g transform="translate(116.431,97.775)">
    <g transform="rotate(-0.0)">
      <text x="0.000" y="0.000" font-family="Helvetica" text-anchor="end" font-size="9pt" font-style="oblique" fill="#000000" >1600</text>
    </g>
  </g>
  <g transform="translate(116.431,68.185)">
    <g transform="rotate(-0.0)">
      <text x="0.000" y="0.000" font-family="Helvetica" text-anchor="end" font-size="9pt" font-style="oblique" fill="#000000" >1800</text>
    </g>
  </g>
  <g transform="translate(116.431,38.594)">
    <g transform="rotate(-0.0)">
      <text x="0.000" y="0.000" font-family="Helvetica" text-anchor="end" font-size="9pt" font-style="oblique" fill="#000000" >2000</text>
    </g>
  </g>
      <polyline fill="none" stroke="#000000" stroke-width="0.5pt" stroke-dasharray="none" points="145.377,330.283 145.377,327.324 "/>
      <polyline fill="none" stroke="#000000" stroke-width="0.5pt" stroke-dasharray="none" points="145.377,330.283 145.377,327.324 "/>
      <polyline fill="none" stroke="#000000" stroke-width="0.5pt" stroke-dasharray="none" points="145.377,330.283 145.377,327.324 "/>
      <polyline fill="none" stroke="#000000" stroke-width="0.5pt" stroke-dasharray="none" points="145.377,330.283 145.377,330.283 "/>
    </g>
  </g>
  </g>
</svg>
