<?xml version="1.0" encoding="utf-8" standalone="no"?><!DOCTYPE svg PUBLIC "-//W3C//DTD SVG 1.1//EN" "http://www.w3.org/Graphics/SVG/1.1/DTD/svg11.dtd">
<svg preserveAspectRatio="xMinYMin meet" width="100%" height="100%" viewBox="0 0 1920.000 540.000"  version="1.1" xmlns="http://www.w3.org/2000/svg" xmlns:xlink="http://www.w3.org/1999/xlink">
  <desc>Matlab Figure Converted by PLOT2SVG written by Juerg Schwizer</desc>
  <g id="topgroup">
  <rect x="0" y="0" width="1920.000" height="540.000" fill="#ffffff" stroke="none" />
  <g id ="ID000000">
  <clipPath id="ID000001">
    <rect x="167.642" y="47.143" width="1668.936" height="405.817"/>
  </clipPath>
      <polygon fill="#ffffff" fill-opacity="1.00" stroke="none" stroke-width="0.5pt" stroke-opacity="1.00" stroke-dasharray="none" points="167.642,452.960 1836.578,452.960 1836.578,47.143 167.642,47.143 "/>
      <polygon fill="#ffffff" fill-opacity="1.00" stroke="none" stroke-width="0.5pt" stroke-opacity="1.00" stroke-dasharray="none" points="167.642,47.143 1836.578,47.143 1836.578,47.143 167.642,47.143 "/>
      <polygon fill="#ffffff" fill-opacity="1.00" stroke="none" stroke-width="0.5pt" stroke-opacity="1.00" stroke-dasharray="none" points="167.642,452.960 167.642,452.960 167.642,47.143 167.642,47.143 "/>
      <polyline fill="none" stroke="#000000" stroke-width="0.5pt" stroke-dasharray="2.0,2.0" points="167.642,452.960 167.642,47.143 "/>
      <polyline fill="none" stroke="#000000" stroke-width="0.5pt" stroke-dasharray="2.0,2.0" points="234.399,452.960 234.399,47.143 "/>
      <polyline fill="none" stroke="#000000" stroke-width="0.5pt" stroke-dasharray="2.0,2.0" points="301.157,452.960 301.157,47.143 "/>
      <polyline fill="none" stroke="#000000" stroke-width="0.5pt" stroke-dasharray="2.0,2.0" points="367.914,452.960 367.914,47.143 "/>
      <polyline fill="none" stroke="#000000" stroke-width="0.5pt" stroke-dasharray="2.0,2.0" points="434.672,452.960 434.672,47.143 "/>
      <polyline fill="none" stroke="#000000" stroke-width="0.5pt" stroke-dasharray="2.0,2.0" points="501.429,452.960 501.429,47.143 "/>
      <polyline fill="none" stroke="#000000" stroke-width="0.5pt" stroke-dasharray="2.0,2.0" points="568.187,452.960 568.187,47.143 "/>
      <polyline fill="none" stroke="#000000" stroke-width="0.5pt" stroke-dasharray="2.0,2.0" points="634.944,452.960 634.944,47.143 "/>
      <polyline fill="none" stroke="#000000" stroke-width="0.5pt" stroke-dasharray="2.0,2.0" points="701.701,452.960 701.701,47.143 "/>
      <polyline fill="none" stroke="#000000" stroke-width="0.5pt" stroke-dasharray="2.0,2.0" points="768.459,452.960 768.459,47.143 "/>
      <polyline fill="none" stroke="#000000" stroke-width="0.5pt" stroke-dasharray="2.0,2.0" points="835.216,452.960 835.216,47.143 "/>
      <polyline fill="none" stroke="#000000" stroke-width="0.5pt" stroke-dasharray="2.0,2.0" points="901.974,452.960 901.974,47.143 "/>
      <polyline fill="none" stroke="#000000" stroke-width="0.5pt" stroke-dasharray="2.0,2.0" points="968.731,452.960 968.731,47.143 "/>
      <polyline fill="none" stroke="#000000" stroke-width="0.5pt" stroke-dasharray="2.0,2.0" points="1035.489,452.960 1035.489,47.143 "/>
      <polyline fill="none" stroke="#000000" stroke-width="0.5pt" stroke-dasharray="2.0,2.0" points="1102.246,452.960 1102.246,47.143 "/>
      <polyline fill="none" stroke="#000000" stroke-width="0.5pt" stroke-dasharray="2.0,2.0" points="1169.004,452.960 1169.004,47.143 "/>
      <polyline fill="none" stroke="#000000" stroke-width="0.5pt" stroke-dasharray="2.0,2.0" points="1235.761,452.960 1235.761,47.143 "/>
      <polyline fill="none" stroke="#000000" stroke-width="0.5pt" stroke-dasharray="2.0,2.0" points="1302.519,452.960 1302.519,47.143 "/>
      <polyline fill="none" stroke="#000000" stroke-width="0.5pt" stroke-dasharray="2.0,2.0" points="1369.276,452.960 1369.276,47.143 "/>
      <polyline fill="none" stroke="#000000" stroke-width="0.5pt" stroke-dasharray="2.0,2.0" points="1436.033,452.960 1436.033,47.143 "/>
      <polyline fill="none" stroke="#000000" stroke-width="0.5pt" stroke-dasharray="2.0,2.0" points="1502.791,452.960 1502.791,47.143 "/>
      <polyline fill="none" stroke="#000000" stroke-width="0.5pt" stroke-dasharray="2.0,2.0" points="1569.548,452.960 1569.548,47.143 "/>
      <polyline fill="none" stroke="#000000" stroke-width="0.5pt" stroke-dasharray="2.0,2.0" points="1636.306,452.960 1636.306,47.143 "/>
      <polyline fill="none" stroke="#000000" stroke-width="0.5pt" stroke-dasharray="2.0,2.0" points="1703.063,452.960 1703.063,47.143 "/>
      <polyline fill="none" stroke="#000000" stroke-width="0.5pt" stroke-dasharray="2.0,2.0" points="1769.821,452.960 1769.821,47.143 "/>
      <polyline fill="none" stroke="#000000" stroke-width="0.5pt" stroke-dasharray="2.0,2.0" points="167.642,452.960 1836.578,452.960 "/>
      <polyline fill="none" stroke="#000000" stroke-width="0.5pt" stroke-dasharray="2.0,2.0" points="167.642,412.378 1836.578,412.378 "/>
      <polyline fill="none" stroke="#000000" stroke-width="0.5pt" stroke-dasharray="2.0,2.0" points="167.642,371.797 1836.578,371.797 "/>
      <polyline fill="none" stroke="#000000" stroke-width="0.5pt" stroke-dasharray="2.0,2.0" points="167.642,331.215 1836.578,331.215 "/>
      <polyline fill="none" stroke="#000000" stroke-width="0.5pt" stroke-dasharray="2.0,2.0" points="167.642,290.633 1836.578,290.633 "/>
      <polyline fill="none" stroke="#000000" stroke-width="0.5pt" stroke-dasharray="2.0,2.0" points="167.642,250.052 1836.578,250.052 "/>
      <polyline fill="none" stroke="#000000" stroke-width="0.5pt" stroke-dasharray="2.0,2.0" points="167.642,209.470 1836.578,209.470 "/>
      <polyline fill="none" stroke="#000000" stroke-width="0.5pt" stroke-dasharray="2.0,2.0" points="167.642,168.888 1836.578,168.888 "/>
      <polyline fill="none" stroke="#000000" stroke-width="0.5pt" stroke-dasharray="2.0,2.0" points="167.642,128.306 1836.578,128.306 "/>
      <polyline fill="none" stroke="#000000" stroke-width="0.5pt" stroke-dasharray="2.0,2.0" points="167.642,87.725 1836.578,87.725 "/>
      <polyline fill="none" stroke="#000000" stroke-width="0.5pt" stroke-dasharray="2.0,2.0" points="167.642,47.143 1836.578,47.143 "/>
      <polyline fill="none" stroke="#000000" stroke-width="0.5pt" stroke-dasharray="2.0,2.0" points="167.642,47.143 167.642,47.143 "/>
      <polyline fill="none" stroke="#000000" stroke-width="0.5pt" stroke-dasharray="2.0,2.0" points="234.399,47.143 234.399,47.143 "/>
      <polyline fill="none" stroke="#000000" stroke-width="0.5pt" stroke-dasharray="2.0,2.0" points="301.157,47.143 301.157,47.143 "/>
      <polyline fill="none" stroke="#000000" stroke-width="0.5pt" stroke-dasharray="2.0,2.0" points="367.914,47.143 367.914,47.143 "/>
      <polyline fill="none" stroke="#000000" stroke-width="0.5pt" stroke-dasharray="2.0,2.0" points="434.672,47.143 434.672,47.143 "/>
      <polyline fill="none" stroke="#000000" stroke-width="0.5pt" stroke-dasharray="2.0,2.0" points="501.429,47.143 501.429,47.143 "/>
      <polyline fill="none" stroke="#000000" stroke-width="0.5pt" stroke-dasharray="2.0,2.0" points="568.187,47.143 568.187,47.143 "/>
      <polyline fill="none" stroke="#000000" stroke-width="0.5pt" stroke-dasharray="2.0,2.0" points="634.944,47.143 634.944,47.143 "/>
      <polyline fill="none" stroke="#000000" stroke-width="0.5pt" stroke-dasharray="2.0,2.0" points="701.701,47.143 701.701,47.143 "/>
      <polyline fill="none" stroke="#000000" stroke-width="0.5pt" stroke-dasharray="2.0,2.0" points="768.459,47.143 768.459,47.143 "/>
      <polyline fill="none" stroke="#000000" stroke-width="0.5pt" stroke-dasharray="2.0,2.0" points="835.216,47.143 835.216,47.143 "/>
      <polyline fill="none" stroke="#000000" stroke-width="0.5pt" stroke-dasharray="2.0,2.0" points="901.974,47.143 901.974,47.143 "/>
      <polyline fill="none" stroke="#000000" stroke-width="0.5pt" stroke-dasharray="2.0,2.0" points="968.731,47.143 968.731,47.143 "/>
      <polyline fill="none" stroke="#000000" stroke-width="0.5pt" stroke-dasharray="2.0,2.0" points="1035.489,47.143 1035.489,47.143 "/>
      <polyline fill="none" stroke="#000000" stroke-width="0.5pt" stroke-dasharray="2.0,2.0" points="1102.246,47.143 1102.246,47.143 "/>
      <polyline fill="none" stroke="#000000" stroke-width="0.5pt" stroke-dasharray="2.0,2.0" points="1169.004,47.143 1169.004,47.143 "/>
      <polyline fill="none" stroke="#000000" stroke-width="0.5pt" stroke-dasharray="2.0,2.0" points="1235.761,47.143 1235.761,47.143 "/>
      <polyline fill="none" stroke="#000000" stroke-width="0.5pt" stroke-dasharray="2.0,2.0" points="1302.519,47.143 1302.519,47.143 "/>
      <polyline fill="none" stroke="#000000" stroke-width="0.5pt" stroke-dasharray="2.0,2.0" points="1369.276,47.143 1369.276,47.143 "/>
      <polyline fill="none" stroke="#000000" stroke-width="0.5pt" stroke-dasharray="2.0,2.0" points="1436.033,47.143 1436.033,47.143 "/>
      <polyline fill="none" stroke="#000000" stroke-width="0.5pt" stroke-dasharray="2.0,2.0" points="1502.791,47.143 1502.791,47.143 "/>
      <polyline fill="none" stroke="#000000" stroke-width="0.5pt" stroke-dasharray="2.0,2.0" points="1569.548,47.143 1569.548,47.143 "/>
      <polyline fill="none" stroke="#000000" stroke-width="0.5pt" stroke-dasharray="2.0,2.0" points="1636.306,47.143 1636.306,47.143 "/>
      <polyline fill="none" stroke="#000000" stroke-width="0.5pt" stroke-dasharray="2.0,2.0" points="1703.063,47.143 1703.063,47.143 "/>
      <polyline fill="none" stroke="#000000" stroke-width="0.5pt" stroke-dasharray="2.0,2.0" points="1769.821,47.143 1769.821,47.143 "/>
      <polyline fill="none" stroke="#000000" stroke-width="0.5pt" stroke-dasharray="2.0,2.0" points="167.642,452.960 167.642,452.960 "/>
      <polyline fill="none" stroke="#000000" stroke-width="0.5pt" stroke-dasharray="2.0,2.0" points="167.642,412.378 167.642,412.378 "/>
      <polyline fill="none" stroke="#000000" stroke-width="0.5pt" stroke-dasharray="2.0,2.0" points="167.642,371.797 167.642,371.797 "/>
      <polyline fill="none" stroke="#000000" stroke-width="0.5pt" stroke-dasharray="2.0,2.0" points="167.642,331.215 167.642,331.215 "/>
      <polyline fill="none" stroke="#000000" stroke-width="0.5pt" stroke-dasharray="2.0,2.0" points="167.642,290.633 167.642,290.633 "/>
      <polyline fill="none" stroke="#000000" stroke-width="0.5pt" stroke-dasharray="2.0,2.0" points="167.642,250.052 167.642,250.052 "/>
      <polyline fill="none" stroke="#000000" stroke-width="0.5pt" stroke-dasharray="2.0,2.0" points="167.642,209.470 167.642,209.470 "/>
      <polyline fill="none" stroke="#000000" stroke-width="0.5pt" stroke-dasharray="2.0,2.0" points="167.642,168.888 167.642,168.888 "/>
      <polyline fill="none" stroke="#000000" stroke-width="0.5pt" stroke-dasharray="2.0,2.0" points="167.642,128.306 167.642,128.306 "/>
      <polyline fill="none" stroke="#000000" stroke-width="0.5pt" stroke-dasharray="2.0,2.0" points="167.642,87.725 167.642,87.725 "/>
      <polyline fill="none" stroke="#000000" stroke-width="0.5pt" stroke-dasharray="2.0,2.0" points="167.642,47.143 167.642,47.143 "/>
    <g>
<g id="ID000002" >
  <g transform="translate(1001.641,489.235)">
    <g transform="rotate(-0.0)">
      <text x="0.000" y="0.000" font-family="Helvetica" text-anchor="middle" font-size="15pt" font-style="oblique" fill="#142b8c" >Time of day (24h)</text>
    </g>
  </g>
</g>
<g id="ID000003" >
  <g transform="translate(127.794,250.989)">
    <g transform="rotate(-90.0)">
      <text x="0.000" y="0.000" font-family="Helvetica" text-anchor="middle" font-size="15pt" font-style="oblique" fill="#142b8c" >Watt</text>
    </g>
  </g>
</g>
<g id="ID000004" >
  <g transform="translate(1001.641,36.363)">
    <g transform="rotate(-0.0)">
      <text x="0.000" y="0.000" font-family="Helvetica" text-anchor="middle" font-size="19pt" font-weight="lighter" font-style="oblique" fill="#142b8c" >clearSky</text>
    </g>
  </g>
</g>
<g id="ID000005" clip-path="url(#ID000001)" >
<g id="ID000006" clip-path="url(#ID000001)" >
      <polygon fill="#ffcc00" fill-opacity="1.00" stroke="#000000" stroke-width="1.0pt" stroke-opacity="0.00" stroke-dasharray="none" points="168.754,452.960 168.754,452.960 169.867,452.960 170.980,452.960 172.092,452.960 173.205,452.960 174.318,452.960 175.430,452.960 176.543,452.960 177.655,452.960 178.768,452.960 179.881,452.960 180.993,452.960 182.106,452.960 183.219,452.960 184.331,452.960 185.444,452.960 186.556,452.960 187.669,452.960 188.782,452.960 189.894,452.960 191.007,452.960 192.120,452.960 193.232,452.960 194.345,452.960 195.457,452.960 196.570,452.960 197.683,452.960 198.795,452.960 199.908,452.960 201.021,452.960 202.133,452.960 203.246,452.960 204.358,452.960 205.471,452.960 206.584,452.960 207.696,452.960 208.809,452.960 209.922,452.960 211.034,452.960 212.147,452.960 213.259,452.960 214.372,452.960 215.485,452.960 216.597,452.960 217.710,452.960 218.823,452.960 219.935,452.960 221.048,452.960 222.160,452.960 223.273,452.960 224.386,452.960 225.498,452.960 226.611,452.960 227.724,452.960 228.836,452.960 229.949,452.960 231.061,452.960 232.174,452.960 233.287,452.960 234.399,452.960 235.512,452.960 236.624,452.960 237.737,452.960 238.850,452.960 239.962,452.960 241.075,452.960 242.188,452.960 243.300,452.960 244.413,452.960 245.525,452.960 246.638,452.960 247.751,452.960 248.863,452.960 249.976,452.960 251.089,452.960 252.201,452.960 253.314,452.960 254.426,452.960 255.539,452.960 256.652,452.960 257.764,452.960 258.877,452.960 259.990,452.960 261.102,452.960 262.215,452.960 263.327,452.960 264.440,452.960 265.553,452.960 266.665,452.960 267.778,452.960 268.891,452.960 270.003,452.960 271.116,452.960 272.228,452.960 273.341,452.960 274.454,452.960 275.566,452.960 276.679,452.960 277.792,452.960 278.904,452.960 280.017,452.960 281.129,452.960 282.242,452.960 283.355,452.960 284.467,452.960 285.580,452.960 286.693,452.960 287.805,452.960 288.918,452.960 290.030,452.960 291.143,452.960 292.256,452.960 293.368,452.960 294.481,452.960 295.594,452.960 296.706,452.960 297.819,452.960 298.931,452.960 300.044,452.960 301.157,452.960 302.269,452.960 303.382,452.960 304.495,452.960 305.607,452.960 306.720,452.960 307.832,452.960 308.945,452.960 310.058,452.960 311.170,452.960 312.283,452.960 313.396,452.960 314.508,452.960 315.621,452.960 316.733,452.960 317.846,452.960 318.959,452.960 320.071,452.960 321.184,452.960 322.297,452.960 323.409,452.960 324.522,452.960 325.634,452.960 326.747,452.960 327.860,452.960 328.972,452.960 330.085,452.960 331.198,452.960 332.310,452.960 333.423,452.960 334.535,452.960 335.648,452.960 336.761,452.960 337.873,452.960 338.986,452.960 340.099,452.960 341.211,452.960 342.324,452.960 343.436,452.960 344.549,452.960 345.662,452.960 346.774,452.960 347.887,452.960 349.000,452.960 350.112,452.960 351.225,452.960 352.337,452.960 353.450,452.960 354.563,452.960 355.675,452.960 356.788,452.960 357.901,452.960 359.013,452.960 360.126,452.960 361.238,452.960 362.351,452.960 363.464,452.960 364.576,452.960 365.689,452.960 366.802,452.960 367.914,452.960 369.027,452.960 370.139,452.960 371.252,452.960 372.365,452.960 373.477,452.960 374.590,452.960 375.703,452.960 376.815,452.960 377.928,452.960 379.040,452.960 380.153,452.960 381.266,452.960 382.378,452.960 383.491,452.960 384.604,452.960 385.716,452.960 386.829,452.960 387.941,452.960 389.054,452.960 390.167,452.960 391.279,452.960 392.392,452.960 393.505,452.960 394.617,452.960 395.730,452.960 396.842,452.960 397.955,452.960 399.068,452.960 400.180,452.960 401.293,452.960 402.406,452.960 403.518,452.960 404.631,452.960 405.743,452.960 406.856,452.960 407.969,452.960 409.081,452.960 410.194,452.960 411.307,452.960 412.419,452.960 413.532,452.960 414.644,452.960 415.757,452.960 416.870,452.960 417.982,452.960 419.095,452.960 420.207,452.960 421.320,452.960 422.433,452.960 423.545,452.960 424.658,452.960 425.771,452.960 426.883,452.960 427.996,452.960 429.108,452.960 430.221,452.960 431.334,452.960 432.446,452.960 433.559,452.960 434.672,452.960 435.784,452.960 436.897,452.960 438.009,452.960 439.122,452.960 440.235,452.960 441.347,452.960 442.460,452.960 443.573,452.960 444.685,452.960 445.798,452.960 446.910,452.960 448.023,452.960 449.136,452.960 450.248,452.960 451.361,452.960 452.474,452.960 453.586,452.960 454.699,452.960 455.811,452.960 456.924,452.960 458.037,452.960 459.149,452.960 460.262,452.960 461.375,452.960 462.487,452.960 463.600,452.960 464.712,452.960 465.825,452.960 466.938,452.960 468.050,452.960 469.163,452.960 470.276,452.960 471.388,452.960 472.501,452.960 473.613,452.960 474.726,452.960 475.839,452.960 476.951,452.960 478.064,452.960 479.177,452.960 480.289,452.960 481.402,452.960 482.514,452.960 483.627,452.960 484.740,452.960 485.852,452.960 486.965,452.960 488.078,452.960 489.190,452.960 490.303,452.960 491.415,452.960 492.528,452.960 493.641,452.960 494.753,452.960 495.866,452.960 496.979,452.960 498.091,452.960 499.204,452.960 500.316,452.960 501.429,452.960 502.542,452.960 503.654,452.960 504.767,452.960 505.880,452.960 506.992,452.960 508.105,452.960 509.217,452.960 510.330,452.960 511.443,452.960 512.555,452.960 513.668,452.960 514.781,452.960 515.893,452.960 517.006,452.960 518.118,452.960 519.231,452.960 520.344,452.960 521.456,452.960 522.569,452.960 523.682,452.960 524.794,452.960 525.907,452.960 527.019,452.960 528.132,452.960 529.245,452.960 530.357,452.960 531.470,452.960 532.583,452.960 533.695,452.960 534.808,452.960 535.920,452.960 537.033,452.960 538.146,452.960 539.258,452.960 540.371,452.960 541.484,452.960 542.596,452.960 543.709,452.960 544.821,452.960 545.934,452.960 547.047,452.960 548.159,452.960 549.272,452.960 550.385,452.960 551.497,452.960 552.610,452.960 553.722,452.960 554.835,452.960 555.948,452.960 557.060,452.960 558.173,452.960 559.286,452.960 560.398,452.960 561.511,452.960 562.623,452.960 563.736,452.960 564.849,452.960 565.961,452.960 567.074,452.960 568.187,452.960 569.299,452.960 570.412,452.960 571.524,452.960 572.637,452.960 573.750,452.960 574.862,452.960 575.975,452.960 577.088,452.960 578.200,452.960 579.313,452.960 580.425,452.960 581.538,452.960 582.651,452.960 583.763,452.960 584.876,452.960 585.989,452.960 587.101,452.960 588.214,452.960 589.326,452.960 590.439,452.960 591.552,452.960 592.664,452.960 593.777,452.960 594.890,452.960 596.002,452.960 597.115,452.960 598.227,452.960 599.340,452.960 600.453,452.960 601.565,452.960 602.678,452.960 603.790,452.960 604.903,452.960 606.016,452.960 607.128,452.960 608.241,452.960 609.354,452.960 610.466,452.960 611.579,452.960 612.691,452.960 613.804,452.960 614.917,452.960 616.029,452.960 617.142,452.960 618.255,452.960 619.367,452.960 620.480,452.960 621.592,452.960 622.705,452.960 623.818,452.960 624.930,452.960 626.043,452.960 627.156,452.960 628.268,452.960 629.381,452.960 630.493,452.960 631.606,452.960 632.719,452.960 633.831,452.960 634.944,452.960 636.057,452.960 637.169,452.960 638.282,452.960 639.394,452.960 640.507,452.960 641.620,452.960 642.732,452.960 643.845,452.960 644.958,452.960 646.070,452.960 647.183,452.960 648.295,452.960 649.408,452.960 650.521,452.960 651.633,452.960 652.746,452.960 653.859,452.960 654.971,452.960 656.084,452.960 657.196,452.960 658.309,452.960 659.422,452.960 660.534,452.960 661.647,452.960 662.760,452.960 663.872,452.960 664.985,452.960 666.097,452.960 667.210,452.960 668.323,452.960 669.435,452.960 670.548,452.960 671.661,452.960 672.773,452.960 673.886,452.960 674.998,452.960 676.111,452.960 677.224,452.960 678.336,452.960 679.449,452.960 680.562,452.960 681.674,452.960 682.787,452.960 683.899,452.960 685.012,452.960 686.125,452.960 687.237,452.960 688.350,452.960 689.463,452.960 690.575,452.960 691.688,452.960 692.800,452.960 693.913,452.960 695.026,452.960 696.138,452.960 697.251,452.960 698.364,452.960 699.476,452.960 700.589,452.960 701.701,452.960 702.814,452.960 703.927,452.937 705.039,452.880 706.152,452.794 707.265,452.682 708.377,452.544 709.490,452.383 710.602,452.198 711.715,451.991 712.828,451.762 713.940,451.512 715.053,451.241 716.166,450.950 717.278,450.639 718.391,450.308 719.503,449.958 720.616,449.588 721.729,449.200 722.841,448.794 723.954,448.369 725.067,447.926 726.179,447.465 727.292,446.986 728.404,446.491 729.517,445.977 730.630,445.447 731.742,444.900 732.855,444.336 733.968,443.755 735.080,443.158 736.193,442.545 737.305,441.916 738.418,441.270 739.531,440.609 740.643,439.932 741.756,439.240 742.869,438.532 743.981,437.809 745.094,437.071 746.206,436.318 747.319,435.550 748.432,434.767 749.544,433.969 750.657,433.157 751.770,432.331 752.882,431.490 753.995,430.636 755.107,429.767 756.220,428.884 757.333,427.988 758.445,427.078 759.558,426.154 760.671,425.217 761.783,424.267 762.896,423.303 764.008,422.326 765.121,421.337 766.234,420.334 767.346,419.319 768.459,418.291 769.572,417.251 770.684,416.198 771.797,415.133 772.909,414.055 774.022,412.966 775.135,411.865 776.247,410.751 777.360,409.627 778.473,408.490 779.585,407.342 780.698,406.183 781.810,405.012 782.923,403.830 784.036,402.637 785.148,401.433 786.261,400.218 787.374,398.993 788.486,397.757 789.599,396.510 790.711,395.253 791.824,393.985 792.937,392.708 794.049,391.420 795.162,390.123 796.274,388.816 797.387,387.498 798.500,386.172 799.612,384.836 800.725,383.490 801.838,382.135 802.950,380.771 804.063,379.398 805.175,378.016 806.288,376.625 807.401,375.225 808.513,373.817 809.626,372.401 810.739,370.976 811.851,369.542 812.964,368.101 814.076,366.652 815.189,365.194 816.302,363.729 817.414,362.256 818.527,360.776 819.640,359.288 820.752,357.793 821.865,356.290 822.977,354.781 824.090,353.264 825.203,351.741 826.315,350.211 827.428,348.674 828.541,347.131 829.653,345.581 830.766,344.025 831.878,342.463 832.991,340.895 834.104,339.321 835.216,337.741 836.329,336.155 837.442,334.564 838.554,332.967 839.667,331.365 840.779,329.758 841.892,328.145 843.005,326.528 844.117,324.905 845.230,323.278 846.343,321.647 847.455,320.010 848.568,318.370 849.680,316.725 850.793,315.076 851.906,313.423 853.018,311.765 854.131,310.105 855.244,308.440 856.356,306.772 857.469,305.100 858.581,303.425 859.694,301.747 860.807,300.066 861.919,298.382 863.032,296.694 864.145,295.005 865.257,293.312 866.370,291.617 867.482,289.920 868.595,288.220 869.708,286.519 870.820,284.815 871.933,283.109 873.046,281.402 874.158,279.693 875.271,277.982 876.383,276.270 877.496,274.556 878.609,272.842 879.721,271.126 880.834,269.410 881.947,267.692 883.059,265.974 884.172,264.255 885.284,262.536 886.397,260.816 887.510,259.097 888.622,257.377 889.735,255.657 890.848,253.937 891.960,252.217 893.073,250.498 894.185,248.779 895.298,247.061 896.411,245.344 897.523,243.627 898.636,241.912 899.749,240.197 900.861,238.483 901.974,236.771 903.086,235.061 904.199,233.351 905.312,231.644 906.424,229.938 907.537,228.234 908.650,226.532 909.762,224.832 910.875,223.134 911.987,221.439 913.100,219.746 914.213,218.056 915.325,216.368 916.438,214.683 917.551,213.001 918.663,211.322 919.776,209.647 920.888,207.974 922.001,206.305 923.114,204.639 924.226,202.977 925.339,201.318 926.452,199.664 927.564,198.013 928.677,196.366 929.789,194.723 930.902,193.085 932.015,191.451 933.127,189.822 934.240,188.197 935.353,186.576 936.465,184.961 937.578,183.350 938.690,181.744 939.803,180.144 940.916,178.549 942.028,176.959 943.141,175.374 944.254,173.795 945.366,172.222 946.479,170.654 947.591,169.092 948.704,167.536 949.817,165.987 950.929,164.443 952.042,162.905 953.155,161.374 954.267,159.850 955.380,158.332 956.492,156.821 957.605,155.316 958.718,153.818 959.830,152.328 960.943,150.844 962.056,149.367 963.168,147.898 964.281,146.436 965.393,144.982 966.506,143.535 967.619,142.096 968.731,140.664 969.844,139.240 970.957,137.825 972.069,136.417 973.182,135.017 974.294,133.626 975.407,132.243 976.520,130.868 977.632,129.502 978.745,128.144 979.857,126.795 980.970,125.454 982.083,124.123 983.195,122.800 984.308,121.487 985.421,120.182 986.533,118.887 987.646,117.601 988.758,116.324 989.871,115.057 990.984,113.799 992.096,112.551 993.209,111.313 994.322,110.084 995.434,108.865 996.547,107.656 997.659,106.458 998.772,105.269 999.885,104.090 1000.997,102.922 1002.110,101.763 1003.223,100.616 1004.335,99.478 1005.448,98.352 1006.560,97.235 1007.673,96.130 1008.786,95.035 1009.898,93.951 1011.011,92.878 1012.124,91.816 1013.236,90.765 1014.349,89.726 1015.461,88.697 1016.574,87.679 1017.687,86.673 1018.799,85.678 1019.912,84.695 1021.025,83.723 1022.137,82.763 1023.250,81.814 1024.362,80.877 1025.475,79.952 1026.588,79.039 1027.700,78.137 1028.813,77.248 1029.926,76.370 1031.038,75.505 1032.151,74.651 1033.263,73.810 1034.376,72.981 1035.489,72.164 1036.601,71.359 1037.714,70.567 1038.827,69.787 1039.939,69.020 1041.052,68.266 1042.164,67.523 1043.277,66.794 1044.390,66.077 1045.502,65.373 1046.615,64.681 1047.728,64.003 1048.840,63.337 1049.953,62.684 1051.065,62.044 1052.178,61.418 1053.291,60.804 1054.403,60.203 1055.516,59.615 1056.629,59.040 1057.741,58.479 1058.854,57.931 1059.966,57.396 1061.079,56.874 1062.192,56.366 1063.304,55.871 1064.417,55.389 1065.530,54.921 1066.642,54.466 1067.755,54.025 1068.867,53.597 1069.980,53.183 1071.093,52.782 1072.205,52.395 1073.318,52.021 1074.431,51.661 1075.543,51.315 1076.656,50.982 1077.768,50.663 1078.881,50.358 1079.994,50.067 1081.106,49.789 1082.219,49.525 1083.332,49.275 1084.444,49.038 1085.557,48.816 1086.669,48.607 1087.782,48.412 1088.895,48.231 1090.007,48.064 1091.120,47.911 1092.233,47.772 1093.345,47.646 1094.458,47.535 1095.570,47.437 1096.683,47.354 1097.796,47.284 1098.908,47.228 1100.021,47.186 1101.134,47.159 1102.246,47.145 1103.359,47.145 1104.471,47.159 1105.584,47.186 1106.697,47.228 1107.809,47.284 1108.922,47.354 1110.035,47.437 1111.147,47.535 1112.260,47.646 1113.372,47.772 1114.485,47.911 1115.598,48.064 1116.710,48.231 1117.823,48.412 1118.936,48.607 1120.048,48.816 1121.161,49.038 1122.273,49.275 1123.386,49.525 1124.499,49.789 1125.611,50.067 1126.724,50.358 1127.837,50.663 1128.949,50.982 1130.062,51.315 1131.174,51.661 1132.287,52.021 1133.400,52.395 1134.512,52.782 1135.625,53.183 1136.738,53.597 1137.850,54.025 1138.963,54.466 1140.075,54.921 1141.188,55.389 1142.301,55.871 1143.413,56.366 1144.526,56.874 1145.639,57.396 1146.751,57.931 1147.864,58.479 1148.976,59.040 1150.089,59.615 1151.202,60.203 1152.314,60.804 1153.427,61.418 1154.540,62.044 1155.652,62.684 1156.765,63.337 1157.877,64.003 1158.990,64.681 1160.103,65.373 1161.215,66.077 1162.328,66.794 1163.440,67.523 1164.553,68.266 1165.666,69.020 1166.778,69.787 1167.891,70.567 1169.004,71.359 1170.116,72.164 1171.229,72.981 1172.341,73.810 1173.454,74.651 1174.567,75.505 1175.679,76.370 1176.792,77.248 1177.905,78.137 1179.017,79.039 1180.130,79.952 1181.242,80.877 1182.355,81.814 1183.468,82.763 1184.580,83.723 1185.693,84.695 1186.806,85.678 1187.918,86.673 1189.031,87.679 1190.143,88.697 1191.256,89.726 1192.369,90.765 1193.481,91.816 1194.594,92.878 1195.707,93.951 1196.819,95.035 1197.932,96.130 1199.044,97.235 1200.157,98.352 1201.270,99.478 1202.382,100.616 1203.495,101.763 1204.608,102.922 1205.720,104.090 1206.833,105.269 1207.945,106.458 1209.058,107.656 1210.171,108.865 1211.283,110.084 1212.396,111.313 1213.509,112.551 1214.621,113.799 1215.734,115.057 1216.846,116.324 1217.959,117.601 1219.072,118.887 1220.184,120.182 1221.297,121.487 1222.410,122.800 1223.522,124.123 1224.635,125.454 1225.747,126.795 1226.860,128.144 1227.973,129.502 1229.085,130.868 1230.198,132.243 1231.311,133.626 1232.423,135.017 1233.536,136.417 1234.648,137.825 1235.761,139.240 1236.874,140.664 1237.986,142.096 1239.099,143.535 1240.212,144.982 1241.324,146.436 1242.437,147.898 1243.549,149.367 1244.662,150.844 1245.775,152.328 1246.887,153.818 1248.000,155.316 1249.113,156.821 1250.225,158.332 1251.338,159.850 1252.450,161.374 1253.563,162.905 1254.676,164.443 1255.788,165.987 1256.901,167.536 1258.014,169.092 1259.126,170.654 1260.239,172.222 1261.351,173.795 1262.464,175.374 1263.577,176.959 1264.689,178.549 1265.802,180.144 1266.915,181.744 1268.027,183.350 1269.140,184.961 1270.252,186.576 1271.365,188.197 1272.478,189.822 1273.590,191.451 1274.703,193.085 1275.816,194.723 1276.928,196.366 1278.041,198.013 1279.153,199.664 1280.266,201.318 1281.379,202.977 1282.491,204.639 1283.604,206.305 1284.717,207.974 1285.829,209.647 1286.942,211.322 1288.054,213.001 1289.167,214.683 1290.280,216.368 1291.392,218.056 1292.505,219.746 1293.618,221.439 1294.730,223.134 1295.843,224.832 1296.955,226.532 1298.068,228.234 1299.181,229.938 1300.293,231.644 1301.406,233.351 1302.519,235.061 1303.631,236.771 1304.744,238.483 1305.856,240.197 1306.969,241.912 1308.082,243.627 1309.194,245.344 1310.307,247.061 1311.420,248.779 1312.532,250.498 1313.645,252.217 1314.757,253.937 1315.870,255.657 1316.983,257.377 1318.095,259.097 1319.208,260.816 1320.321,262.536 1321.433,264.255 1322.546,265.974 1323.658,267.692 1324.771,269.410 1325.884,271.126 1326.996,272.842 1328.109,274.556 1329.222,276.270 1330.334,277.982 1331.447,279.693 1332.559,281.402 1333.672,283.109 1334.785,284.815 1335.897,286.519 1337.010,288.220 1338.123,289.920 1339.235,291.617 1340.348,293.312 1341.460,295.005 1342.573,296.694 1343.686,298.382 1344.798,300.066 1345.911,301.747 1347.024,303.425 1348.136,305.100 1349.249,306.772 1350.361,308.440 1351.474,310.105 1352.587,311.765 1353.699,313.423 1354.812,315.076 1355.924,316.725 1357.037,318.370 1358.150,320.010 1359.262,321.647 1360.375,323.278 1361.488,324.905 1362.600,326.528 1363.713,328.145 1364.825,329.758 1365.938,331.365 1367.051,332.967 1368.163,334.564 1369.276,336.155 1370.389,337.741 1371.501,339.321 1372.614,340.895 1373.726,342.463 1374.839,344.025 1375.952,345.581 1377.064,347.131 1378.177,348.674 1379.290,350.211 1380.402,351.741 1381.515,353.264 1382.627,354.781 1383.740,356.290 1384.853,357.793 1385.965,359.288 1387.078,360.776 1388.191,362.256 1389.303,363.729 1390.416,365.194 1391.528,366.652 1392.641,368.101 1393.754,369.542 1394.866,370.976 1395.979,372.401 1397.092,373.817 1398.204,375.225 1399.317,376.625 1400.429,378.016 1401.542,379.398 1402.655,380.771 1403.767,382.135 1404.880,383.490 1405.993,384.836 1407.105,386.172 1408.218,387.498 1409.330,388.816 1410.443,390.123 1411.556,391.420 1412.668,392.708 1413.781,393.985 1414.894,395.253 1416.006,396.510 1417.119,397.757 1418.231,398.993 1419.344,400.218 1420.457,401.433 1421.569,402.637 1422.682,403.830 1423.795,405.012 1424.907,406.183 1426.020,407.342 1427.132,408.490 1428.245,409.627 1429.358,410.751 1430.470,411.865 1431.583,412.966 1432.696,414.055 1433.808,415.133 1434.921,416.198 1436.033,417.251 1437.146,418.291 1438.259,419.319 1439.371,420.334 1440.484,421.337 1441.597,422.326 1442.709,423.303 1443.822,424.267 1444.934,425.217 1446.047,426.154 1447.160,427.078 1448.272,427.988 1449.385,428.884 1450.498,429.767 1451.610,430.636 1452.723,431.490 1453.835,432.331 1454.948,433.157 1456.061,433.969 1457.173,434.767 1458.286,435.550 1459.399,436.318 1460.511,437.071 1461.624,437.809 1462.736,438.532 1463.849,439.240 1464.962,439.932 1466.074,440.609 1467.187,441.270 1468.300,441.916 1469.412,442.545 1470.525,443.158 1471.637,443.755 1472.750,444.336 1473.863,444.900 1474.975,445.447 1476.088,445.977 1477.201,446.491 1478.313,446.986 1479.426,447.465 1480.538,447.926 1481.651,448.369 1482.764,448.794 1483.876,449.200 1484.989,449.588 1486.102,449.958 1487.214,450.308 1488.327,450.639 1489.439,450.950 1490.552,451.241 1491.665,451.512 1492.777,451.762 1493.890,451.991 1495.003,452.198 1496.115,452.383 1497.228,452.544 1498.340,452.682 1499.453,452.794 1500.566,452.880 1501.678,452.937 1502.791,452.960 1503.904,452.960 1505.016,452.960 1506.129,452.960 1507.241,452.960 1508.354,452.960 1509.467,452.960 1510.579,452.960 1511.692,452.960 1512.805,452.960 1513.917,452.960 1515.030,452.960 1516.142,452.960 1517.255,452.960 1518.368,452.960 1519.480,452.960 1520.593,452.960 1521.706,452.960 1522.818,452.960 1523.931,452.960 1525.043,452.960 1526.156,452.960 1527.269,452.960 1528.381,452.960 1529.494,452.960 1530.607,452.960 1531.719,452.960 1532.832,452.960 1533.944,452.960 1535.057,452.960 1536.170,452.960 1537.282,452.960 1538.395,452.960 1539.507,452.960 1540.620,452.960 1541.733,452.960 1542.845,452.960 1543.958,452.960 1545.071,452.960 1546.183,452.960 1547.296,452.960 1548.408,452.960 1549.521,452.960 1550.634,452.960 1551.746,452.960 1552.859,452.960 1553.972,452.960 1555.084,452.960 1556.197,452.960 1557.309,452.960 1558.422,452.960 1559.535,452.960 1560.647,452.960 1561.760,452.960 1562.873,452.960 1563.985,452.960 1565.098,452.960 1566.210,452.960 1567.323,452.960 1568.436,452.960 1569.548,452.960 1570.661,452.960 1571.774,452.960 1572.886,452.960 1573.999,452.960 1575.111,452.960 1576.224,452.960 1577.337,452.960 1578.449,452.960 1579.562,452.960 1580.675,452.960 1581.787,452.960 1582.900,452.960 1584.012,452.960 1585.125,452.960 1586.238,452.960 1587.350,452.960 1588.463,452.960 1589.576,452.960 1590.688,452.960 1591.801,452.960 1592.913,452.960 1594.026,452.960 1595.139,452.960 1596.251,452.960 1597.364,452.960 1598.477,452.960 1599.589,452.960 1600.702,452.960 1601.814,452.960 1602.927,452.960 1604.040,452.960 1605.152,452.960 1606.265,452.960 1607.378,452.960 1608.490,452.960 1609.603,452.960 1610.715,452.960 1611.828,452.960 1612.941,452.960 1614.053,452.960 1615.166,452.960 1616.279,452.960 1617.391,452.960 1618.504,452.960 1619.616,452.960 1620.729,452.960 1621.842,452.960 1622.954,452.960 1624.067,452.960 1625.180,452.960 1626.292,452.960 1627.405,452.960 1628.517,452.960 1629.630,452.960 1630.743,452.960 1631.855,452.960 1632.968,452.960 1634.081,452.960 1635.193,452.960 1636.306,452.960 1637.418,452.960 1638.531,452.960 1639.644,452.960 1640.756,452.960 1641.869,452.960 1642.982,452.960 1644.094,452.960 1645.207,452.960 1646.319,452.960 1647.432,452.960 1648.545,452.960 1649.657,452.960 1650.770,452.960 1651.883,452.960 1652.995,452.960 1654.108,452.960 1655.220,452.960 1656.333,452.960 1657.446,452.960 1658.558,452.960 1659.671,452.960 1660.784,452.960 1661.896,452.960 1663.009,452.960 1664.121,452.960 1665.234,452.960 1666.347,452.960 1667.459,452.960 1668.572,452.960 1669.685,452.960 1670.797,452.960 1671.910,452.960 1673.022,452.960 1674.135,452.960 1675.248,452.960 1676.360,452.960 1677.473,452.960 1678.586,452.960 1679.698,452.960 1680.811,452.960 1681.923,452.960 1683.036,452.960 1684.149,452.960 1685.261,452.960 1686.374,452.960 1687.487,452.960 1688.599,452.960 1689.712,452.960 1690.824,452.960 1691.937,452.960 1693.050,452.960 1694.162,452.960 1695.275,452.960 1696.388,452.960 1697.500,452.960 1698.613,452.960 1699.725,452.960 1700.838,452.960 1701.951,452.960 1703.063,452.960 1704.176,452.960 1705.289,452.960 1706.401,452.960 1707.514,452.960 1708.626,452.960 1709.739,452.960 1710.852,452.960 1711.964,452.960 1713.077,452.960 1714.190,452.960 1715.302,452.960 1716.415,452.960 1717.527,452.960 1718.640,452.960 1719.753,452.960 1720.865,452.960 1721.978,452.960 1723.090,452.960 1724.203,452.960 1725.316,452.960 1726.428,452.960 1727.541,452.960 1728.654,452.960 1729.766,452.960 1730.879,452.960 1731.991,452.960 1733.104,452.960 1734.217,452.960 1735.329,452.960 1736.442,452.960 1737.555,452.960 1738.667,452.960 1739.780,452.960 1740.892,452.960 1742.005,452.960 1743.118,452.960 1744.230,452.960 1745.343,452.960 1746.456,452.960 1747.568,452.960 1748.681,452.960 1749.793,452.960 1750.906,452.960 1752.019,452.960 1753.131,452.960 1754.244,452.960 1755.357,452.960 1756.469,452.960 1757.582,452.960 1758.694,452.960 1759.807,452.960 1760.920,452.960 1762.032,452.960 1763.145,452.960 1764.258,452.960 1765.370,452.960 1766.483,452.960 1767.595,452.960 1768.708,452.960 1769.821,452.960 1769.821,452.960 1768.708,452.960 1767.595,452.960 1766.483,452.960 1765.370,452.960 1764.258,452.960 1763.145,452.960 1762.032,452.960 1760.920,452.960 1759.807,452.960 1758.694,452.960 1757.582,452.960 1756.469,452.960 1755.357,452.960 1754.244,452.960 1753.131,452.960 1752.019,452.960 1750.906,452.960 1749.793,452.960 1748.681,452.960 1747.568,452.960 1746.456,452.960 1745.343,452.960 1744.230,452.960 1743.118,452.960 1742.005,452.960 1740.892,452.960 1739.780,452.960 1738.667,452.960 1737.555,452.960 1736.442,452.960 1735.329,452.960 1734.217,452.960 1733.104,452.960 1731.991,452.960 1730.879,452.960 1729.766,452.960 1728.654,452.960 1727.541,452.960 1726.428,452.960 1725.316,452.960 1724.203,452.960 1723.090,452.960 1721.978,452.960 1720.865,452.960 1719.753,452.960 1718.640,452.960 1717.527,452.960 1716.415,452.960 1715.302,452.960 1714.190,452.960 1713.077,452.960 1711.964,452.960 1710.852,452.960 1709.739,452.960 1708.626,452.960 1707.514,452.960 1706.401,452.960 1705.289,452.960 1704.176,452.960 1703.063,452.960 1701.951,452.960 1700.838,452.960 1699.725,452.960 1698.613,452.960 1697.500,452.960 1696.388,452.960 1695.275,452.960 1694.162,452.960 1693.050,452.960 1691.937,452.960 1690.824,452.960 1689.712,452.960 1688.599,452.960 1687.487,452.960 1686.374,452.960 1685.261,452.960 1684.149,452.960 1683.036,452.960 1681.923,452.960 1680.811,452.960 1679.698,452.960 1678.586,452.960 1677.473,452.960 1676.360,452.960 1675.248,452.960 1674.135,452.960 1673.022,452.960 1671.910,452.960 1670.797,452.960 1669.685,452.960 1668.572,452.960 1667.459,452.960 1666.347,452.960 1665.234,452.960 1664.121,452.960 1663.009,452.960 1661.896,452.960 1660.784,452.960 1659.671,452.960 1658.558,452.960 1657.446,452.960 1656.333,452.960 1655.220,452.960 1654.108,452.960 1652.995,452.960 1651.883,452.960 1650.770,452.960 1649.657,452.960 1648.545,452.960 1647.432,452.960 1646.319,452.960 1645.207,452.960 1644.094,452.960 1642.982,452.960 1641.869,452.960 1640.756,452.960 1639.644,452.960 1638.531,452.960 1637.418,452.960 1636.306,452.960 1635.193,452.960 1634.081,452.960 1632.968,452.960 1631.855,452.960 1630.743,452.960 1629.630,452.960 1628.517,452.960 1627.405,452.960 1626.292,452.960 1625.180,452.960 1624.067,452.960 1622.954,452.960 1621.842,452.960 1620.729,452.960 1619.616,452.960 1618.504,452.960 1617.391,452.960 1616.279,452.960 1615.166,452.960 1614.053,452.960 1612.941,452.960 1611.828,452.960 1610.715,452.960 1609.603,452.960 1608.490,452.960 1607.378,452.960 1606.265,452.960 1605.152,452.960 1604.040,452.960 1602.927,452.960 1601.814,452.960 1600.702,452.960 1599.589,452.960 1598.477,452.960 1597.364,452.960 1596.251,452.960 1595.139,452.960 1594.026,452.960 1592.913,452.960 1591.801,452.960 1590.688,452.960 1589.576,452.960 1588.463,452.960 1587.350,452.960 1586.238,452.960 1585.125,452.960 1584.012,452.960 1582.900,452.960 1581.787,452.960 1580.675,452.960 1579.562,452.960 1578.449,452.960 1577.337,452.960 1576.224,452.960 1575.111,452.960 1573.999,452.960 1572.886,452.960 1571.774,452.960 1570.661,452.960 1569.548,452.960 1568.436,452.960 1567.323,452.960 1566.210,452.960 1565.098,452.960 1563.985,452.960 1562.873,452.960 1561.760,452.960 1560.647,452.960 1559.535,452.960 1558.422,452.960 1557.309,452.960 1556.197,452.960 1555.084,452.960 1553.972,452.960 1552.859,452.960 1551.746,452.960 1550.634,452.960 1549.521,452.960 1548.408,452.960 1547.296,452.960 1546.183,452.960 1545.071,452.960 1543.958,452.960 1542.845,452.960 1541.733,452.960 1540.620,452.960 1539.507,452.960 1538.395,452.960 1537.282,452.960 1536.170,452.960 1535.057,452.960 1533.944,452.960 1532.832,452.960 1531.719,452.960 1530.607,452.960 1529.494,452.960 1528.381,452.960 1527.269,452.960 1526.156,452.960 1525.043,452.960 1523.931,452.960 1522.818,452.960 1521.706,452.960 1520.593,452.960 1519.480,452.960 1518.368,452.960 1517.255,452.960 1516.142,452.960 1515.030,452.960 1513.917,452.960 1512.805,452.960 1511.692,452.960 1510.579,452.960 1509.467,452.960 1508.354,452.960 1507.241,452.960 1506.129,452.960 1505.016,452.960 1503.904,452.960 1502.791,452.960 1501.678,452.960 1500.566,452.960 1499.453,452.960 1498.340,452.960 1497.228,452.960 1496.115,452.960 1495.003,452.960 1493.890,452.960 1492.777,452.960 1491.665,452.960 1490.552,452.960 1489.439,452.960 1488.327,452.960 1487.214,452.960 1486.102,452.960 1484.989,452.960 1483.876,452.960 1482.764,452.960 1481.651,452.960 1480.538,452.960 1479.426,452.960 1478.313,452.960 1477.201,452.960 1476.088,452.960 1474.975,452.960 1473.863,452.960 1472.750,452.960 1471.637,452.960 1470.525,452.960 1469.412,452.960 1468.300,452.960 1467.187,452.960 1466.074,452.960 1464.962,452.960 1463.849,452.960 1462.736,452.960 1461.624,452.960 1460.511,452.960 1459.399,452.960 1458.286,452.960 1457.173,452.960 1456.061,452.960 1454.948,452.960 1453.835,452.960 1452.723,452.960 1451.610,452.960 1450.498,452.960 1449.385,452.960 1448.272,452.960 1447.160,452.960 1446.047,452.960 1444.934,452.960 1443.822,452.960 1442.709,452.960 1441.597,452.960 1440.484,452.960 1439.371,452.960 1438.259,452.960 1437.146,452.960 1436.033,452.960 1434.921,452.960 1433.808,452.960 1432.696,452.960 1431.583,452.960 1430.470,452.960 1429.358,452.960 1428.245,452.960 1427.132,452.960 1426.020,452.960 1424.907,452.960 1423.795,452.960 1422.682,452.960 1421.569,452.960 1420.457,452.960 1419.344,452.960 1418.231,452.960 1417.119,452.960 1416.006,452.960 1414.894,452.960 1413.781,452.960 1412.668,452.960 1411.556,452.960 1410.443,452.960 1409.330,452.960 1408.218,452.960 1407.105,452.960 1405.993,452.960 1404.880,452.960 1403.767,452.960 1402.655,452.960 1401.542,452.960 1400.429,452.960 1399.317,452.960 1398.204,452.960 1397.092,452.960 1395.979,452.960 1394.866,452.960 1393.754,452.960 1392.641,452.960 1391.528,452.960 1390.416,452.960 1389.303,452.960 1388.191,452.960 1387.078,452.960 1385.965,452.960 1384.853,452.960 1383.740,452.960 1382.627,452.960 1381.515,452.960 1380.402,452.960 1379.290,452.960 1378.177,452.960 1377.064,452.960 1375.952,452.960 1374.839,452.960 1373.726,452.960 1372.614,452.960 1371.501,452.960 1370.389,452.960 1369.276,452.960 1368.163,452.960 1367.051,452.960 1365.938,452.960 1364.825,452.960 1363.713,452.960 1362.600,452.960 1361.488,452.960 1360.375,452.960 1359.262,452.960 1358.150,452.960 1357.037,452.960 1355.924,452.960 1354.812,452.960 1353.699,452.960 1352.587,452.960 1351.474,452.960 1350.361,452.960 1349.249,452.960 1348.136,452.960 1347.024,452.960 1345.911,452.960 1344.798,452.960 1343.686,452.960 1342.573,452.960 1341.460,452.960 1340.348,452.960 1339.235,452.960 1338.123,452.960 1337.010,452.960 1335.897,452.960 1334.785,452.960 1333.672,452.960 1332.559,452.960 1331.447,452.960 1330.334,452.960 1329.222,452.960 1328.109,452.960 1326.996,452.960 1325.884,452.960 1324.771,452.960 1323.658,452.960 1322.546,452.960 1321.433,452.960 1320.321,452.960 1319.208,452.960 1318.095,452.960 1316.983,452.960 1315.870,452.960 1314.757,452.960 1313.645,452.960 1312.532,452.960 1311.420,452.960 1310.307,452.960 1309.194,452.960 1308.082,452.960 1306.969,452.960 1305.856,452.960 1304.744,452.960 1303.631,452.960 1302.519,452.960 1301.406,452.960 1300.293,452.960 1299.181,452.960 1298.068,452.960 1296.955,452.960 1295.843,452.960 1294.730,452.960 1293.618,452.960 1292.505,452.960 1291.392,452.960 1290.280,452.960 1289.167,452.960 1288.054,452.960 1286.942,452.960 1285.829,452.960 1284.717,452.960 1283.604,452.960 1282.491,452.960 1281.379,452.960 1280.266,452.960 1279.153,452.960 1278.041,452.960 1276.928,452.960 1275.816,452.960 1274.703,452.960 1273.590,452.960 1272.478,452.960 1271.365,452.960 1270.252,452.960 1269.140,452.960 1268.027,452.960 1266.915,452.960 1265.802,452.960 1264.689,452.960 1263.577,452.960 1262.464,452.960 1261.351,452.960 1260.239,452.960 1259.126,452.960 1258.014,452.960 1256.901,452.960 1255.788,452.960 1254.676,452.960 1253.563,452.960 1252.450,452.960 1251.338,452.960 1250.225,452.960 1249.113,452.960 1248.000,452.960 1246.887,452.960 1245.775,452.960 1244.662,452.960 1243.549,452.960 1242.437,452.960 1241.324,452.960 1240.212,452.960 1239.099,452.960 1237.986,452.960 1236.874,452.960 1235.761,452.960 1234.648,452.960 1233.536,452.960 1232.423,452.960 1231.311,452.960 1230.198,452.960 1229.085,452.960 1227.973,452.960 1226.860,452.960 1225.747,452.960 1224.635,452.960 1223.522,452.960 1222.410,452.960 1221.297,452.960 1220.184,452.960 1219.072,452.960 1217.959,452.960 1216.846,452.960 1215.734,452.960 1214.621,452.960 1213.509,452.960 1212.396,452.960 1211.283,452.960 1210.171,452.960 1209.058,452.960 1207.945,452.960 1206.833,452.960 1205.720,452.960 1204.608,452.960 1203.495,452.960 1202.382,452.960 1201.270,452.960 1200.157,452.960 1199.044,452.960 1197.932,452.960 1196.819,452.960 1195.707,452.960 1194.594,452.960 1193.481,452.960 1192.369,452.960 1191.256,452.960 1190.143,452.960 1189.031,452.960 1187.918,452.960 1186.806,452.960 1185.693,452.960 1184.580,452.960 1183.468,452.960 1182.355,452.960 1181.242,452.960 1180.130,452.960 1179.017,452.960 1177.905,452.960 1176.792,452.960 1175.679,452.960 1174.567,452.960 1173.454,452.960 1172.341,452.960 1171.229,452.960 1170.116,452.960 1169.004,452.960 1167.891,452.960 1166.778,452.960 1165.666,452.960 1164.553,452.960 1163.440,452.960 1162.328,452.960 1161.215,452.960 1160.103,452.960 1158.990,452.960 1157.877,452.960 1156.765,452.960 1155.652,452.960 1154.540,452.960 1153.427,452.960 1152.314,452.960 1151.202,452.960 1150.089,452.960 1148.976,452.960 1147.864,452.960 1146.751,452.960 1145.639,452.960 1144.526,452.960 1143.413,452.960 1142.301,452.960 1141.188,452.960 1140.075,452.960 1138.963,452.960 1137.850,452.960 1136.738,452.960 1135.625,452.960 1134.512,452.960 1133.400,452.960 1132.287,452.960 1131.174,452.960 1130.062,452.960 1128.949,452.960 1127.837,452.960 1126.724,452.960 1125.611,452.960 1124.499,452.960 1123.386,452.960 1122.273,452.960 1121.161,452.960 1120.048,452.960 1118.936,452.960 1117.823,452.960 1116.710,452.960 1115.598,452.960 1114.485,452.960 1113.372,452.960 1112.260,452.960 1111.147,452.960 1110.035,452.960 1108.922,452.960 1107.809,452.960 1106.697,452.960 1105.584,452.960 1104.471,452.960 1103.359,452.960 1102.246,452.960 1101.134,452.960 1100.021,452.960 1098.908,452.960 1097.796,452.960 1096.683,452.960 1095.570,452.960 1094.458,452.960 1093.345,452.960 1092.233,452.960 1091.120,452.960 1090.007,452.960 1088.895,452.960 1087.782,452.960 1086.669,452.960 1085.557,452.960 1084.444,452.960 1083.332,452.960 1082.219,452.960 1081.106,452.960 1079.994,452.960 1078.881,452.960 1077.768,452.960 1076.656,452.960 1075.543,452.960 1074.431,452.960 1073.318,452.960 1072.205,452.960 1071.093,452.960 1069.980,452.960 1068.867,452.960 1067.755,452.960 1066.642,452.960 1065.530,452.960 1064.417,452.960 1063.304,452.960 1062.192,452.960 1061.079,452.960 1059.966,452.960 1058.854,452.960 1057.741,452.960 1056.629,452.960 1055.516,452.960 1054.403,452.960 1053.291,452.960 1052.178,452.960 1051.065,452.960 1049.953,452.960 1048.840,452.960 1047.728,452.960 1046.615,452.960 1045.502,452.960 1044.390,452.960 1043.277,452.960 1042.164,452.960 1041.052,452.960 1039.939,452.960 1038.827,452.960 1037.714,452.960 1036.601,452.960 1035.489,452.960 1034.376,452.960 1033.263,452.960 1032.151,452.960 1031.038,452.960 1029.926,452.960 1028.813,452.960 1027.700,452.960 1026.588,452.960 1025.475,452.960 1024.362,452.960 1023.250,452.960 1022.137,452.960 1021.025,452.960 1019.912,452.960 1018.799,452.960 1017.687,452.960 1016.574,452.960 1015.461,452.960 1014.349,452.960 1013.236,452.960 1012.124,452.960 1011.011,452.960 1009.898,452.960 1008.786,452.960 1007.673,452.960 1006.560,452.960 1005.448,452.960 1004.335,452.960 1003.223,452.960 1002.110,452.960 1000.997,452.960 999.885,452.960 998.772,452.960 997.659,452.960 996.547,452.960 995.434,452.960 994.322,452.960 993.209,452.960 992.096,452.960 990.984,452.960 989.871,452.960 988.758,452.960 987.646,452.960 986.533,452.960 985.421,452.960 984.308,452.960 983.195,452.960 982.083,452.960 980.970,452.960 979.857,452.960 978.745,452.960 977.632,452.960 976.520,452.960 975.407,452.960 974.294,452.960 973.182,452.960 972.069,452.960 970.957,452.960 969.844,452.960 968.731,452.960 967.619,452.960 966.506,452.960 965.393,452.960 964.281,452.960 963.168,452.960 962.056,452.960 960.943,452.960 959.830,452.960 958.718,452.960 957.605,452.960 956.492,452.960 955.380,452.960 954.267,452.960 953.155,452.960 952.042,452.960 950.929,452.960 949.817,452.960 948.704,452.960 947.591,452.960 946.479,452.960 945.366,452.960 944.254,452.960 943.141,452.960 942.028,452.960 940.916,452.960 939.803,452.960 938.690,452.960 937.578,452.960 936.465,452.960 935.353,452.960 934.240,452.960 933.127,452.960 932.015,452.960 930.902,452.960 929.789,452.960 928.677,452.960 927.564,452.960 926.452,452.960 925.339,452.960 924.226,452.960 923.114,452.960 922.001,452.960 920.888,452.960 919.776,452.960 918.663,452.960 917.551,452.960 916.438,452.960 915.325,452.960 914.213,452.960 913.100,452.960 911.987,452.960 910.875,452.960 909.762,452.960 908.650,452.960 907.537,452.960 906.424,452.960 905.312,452.960 904.199,452.960 903.086,452.960 901.974,452.960 900.861,452.960 899.749,452.960 898.636,452.960 897.523,452.960 896.411,452.960 895.298,452.960 894.185,452.960 893.073,452.960 891.960,452.960 890.848,452.960 889.735,452.960 888.622,452.960 887.510,452.960 886.397,452.960 885.284,452.960 884.172,452.960 883.059,452.960 881.947,452.960 880.834,452.960 879.721,452.960 878.609,452.960 877.496,452.960 876.383,452.960 875.271,452.960 874.158,452.960 873.046,452.960 871.933,452.960 870.820,452.960 869.708,452.960 868.595,452.960 867.482,452.960 866.370,452.960 865.257,452.960 864.145,452.960 863.032,452.960 861.919,452.960 860.807,452.960 859.694,452.960 858.581,452.960 857.469,452.960 856.356,452.960 855.244,452.960 854.131,452.960 853.018,452.960 851.906,452.960 850.793,452.960 849.680,452.960 848.568,452.960 847.455,452.960 846.343,452.960 845.230,452.960 844.117,452.960 843.005,452.960 841.892,452.960 840.779,452.960 839.667,452.960 838.554,452.960 837.442,452.960 836.329,452.960 835.216,452.960 834.104,452.960 832.991,452.960 831.878,452.960 830.766,452.960 829.653,452.960 828.541,452.960 827.428,452.960 826.315,452.960 825.203,452.960 824.090,452.960 822.977,452.960 821.865,452.960 820.752,452.960 819.640,452.960 818.527,452.960 817.414,452.960 816.302,452.960 815.189,452.960 814.076,452.960 812.964,452.960 811.851,452.960 810.739,452.960 809.626,452.960 808.513,452.960 807.401,452.960 806.288,452.960 805.175,452.960 804.063,452.960 802.950,452.960 801.838,452.960 800.725,452.960 799.612,452.960 798.500,452.960 797.387,452.960 796.274,452.960 795.162,452.960 794.049,452.960 792.937,452.960 791.824,452.960 790.711,452.960 789.599,452.960 788.486,452.960 787.374,452.960 786.261,452.960 785.148,452.960 784.036,452.960 782.923,452.960 781.810,452.960 780.698,452.960 779.585,452.960 778.473,452.960 777.360,452.960 776.247,452.960 775.135,452.960 774.022,452.960 772.909,452.960 771.797,452.960 770.684,452.960 769.572,452.960 768.459,452.960 767.346,452.960 766.234,452.960 765.121,452.960 764.008,452.960 762.896,452.960 761.783,452.960 760.671,452.960 759.558,452.960 758.445,452.960 757.333,452.960 756.220,452.960 755.107,452.960 753.995,452.960 752.882,452.960 751.770,452.960 750.657,452.960 749.544,452.960 748.432,452.960 747.319,452.960 746.206,452.960 745.094,452.960 743.981,452.960 742.869,452.960 741.756,452.960 740.643,452.960 739.531,452.960 738.418,452.960 737.305,452.960 736.193,452.960 735.080,452.960 733.968,452.960 732.855,452.960 731.742,452.960 730.630,452.960 729.517,452.960 728.404,452.960 727.292,452.960 726.179,452.960 725.067,452.960 723.954,452.960 722.841,452.960 721.729,452.960 720.616,452.960 719.503,452.960 718.391,452.960 717.278,452.960 716.166,452.960 715.053,452.960 713.940,452.960 712.828,452.960 711.715,452.960 710.602,452.960 709.490,452.960 708.377,452.960 707.265,452.960 706.152,452.960 705.039,452.960 703.927,452.960 702.814,452.960 701.701,452.960 700.589,452.960 699.476,452.960 698.364,452.960 697.251,452.960 696.138,452.960 695.026,452.960 693.913,452.960 692.800,452.960 691.688,452.960 690.575,452.960 689.463,452.960 688.350,452.960 687.237,452.960 686.125,452.960 685.012,452.960 683.899,452.960 682.787,452.960 681.674,452.960 680.562,452.960 679.449,452.960 678.336,452.960 677.224,452.960 676.111,452.960 674.998,452.960 673.886,452.960 672.773,452.960 671.661,452.960 670.548,452.960 669.435,452.960 668.323,452.960 667.210,452.960 666.097,452.960 664.985,452.960 663.872,452.960 662.760,452.960 661.647,452.960 660.534,452.960 659.422,452.960 658.309,452.960 657.196,452.960 656.084,452.960 654.971,452.960 653.859,452.960 652.746,452.960 651.633,452.960 650.521,452.960 649.408,452.960 648.295,452.960 647.183,452.960 646.070,452.960 644.958,452.960 643.845,452.960 642.732,452.960 641.620,452.960 640.507,452.960 639.394,452.960 638.282,452.960 637.169,452.960 636.057,452.960 634.944,452.960 633.831,452.960 632.719,452.960 631.606,452.960 630.493,452.960 629.381,452.960 628.268,452.960 627.156,452.960 626.043,452.960 624.930,452.960 623.818,452.960 622.705,452.960 621.592,452.960 620.480,452.960 619.367,452.960 618.255,452.960 617.142,452.960 616.029,452.960 614.917,452.960 613.804,452.960 612.691,452.960 611.579,452.960 610.466,452.960 609.354,452.960 608.241,452.960 607.128,452.960 606.016,452.960 604.903,452.960 603.790,452.960 602.678,452.960 601.565,452.960 600.453,452.960 599.340,452.960 598.227,452.960 597.115,452.960 596.002,452.960 594.890,452.960 593.777,452.960 592.664,452.960 591.552,452.960 590.439,452.960 589.326,452.960 588.214,452.960 587.101,452.960 585.989,452.960 584.876,452.960 583.763,452.960 582.651,452.960 581.538,452.960 580.425,452.960 579.313,452.960 578.200,452.960 577.088,452.960 575.975,452.960 574.862,452.960 573.750,452.960 572.637,452.960 571.524,452.960 570.412,452.960 569.299,452.960 568.187,452.960 567.074,452.960 565.961,452.960 564.849,452.960 563.736,452.960 562.623,452.960 561.511,452.960 560.398,452.960 559.286,452.960 558.173,452.960 557.060,452.960 555.948,452.960 554.835,452.960 553.722,452.960 552.610,452.960 551.497,452.960 550.385,452.960 549.272,452.960 548.159,452.960 547.047,452.960 545.934,452.960 544.821,452.960 543.709,452.960 542.596,452.960 541.484,452.960 540.371,452.960 539.258,452.960 538.146,452.960 537.033,452.960 535.920,452.960 534.808,452.960 533.695,452.960 532.583,452.960 531.470,452.960 530.357,452.960 529.245,452.960 528.132,452.960 527.019,452.960 525.907,452.960 524.794,452.960 523.682,452.960 522.569,452.960 521.456,452.960 520.344,452.960 519.231,452.960 518.118,452.960 517.006,452.960 515.893,452.960 514.781,452.960 513.668,452.960 512.555,452.960 511.443,452.960 510.330,452.960 509.217,452.960 508.105,452.960 506.992,452.960 505.880,452.960 504.767,452.960 503.654,452.960 502.542,452.960 501.429,452.960 500.316,452.960 499.204,452.960 498.091,452.960 496.979,452.960 495.866,452.960 494.753,452.960 493.641,452.960 492.528,452.960 491.415,452.960 490.303,452.960 489.190,452.960 488.078,452.960 486.965,452.960 485.852,452.960 484.740,452.960 483.627,452.960 482.514,452.960 481.402,452.960 480.289,452.960 479.177,452.960 478.064,452.960 476.951,452.960 475.839,452.960 474.726,452.960 473.613,452.960 472.501,452.960 471.388,452.960 470.276,452.960 469.163,452.960 468.050,452.960 466.938,452.960 465.825,452.960 464.712,452.960 463.600,452.960 462.487,452.960 461.375,452.960 460.262,452.960 459.149,452.960 458.037,452.960 456.924,452.960 455.811,452.960 454.699,452.960 453.586,452.960 452.474,452.960 451.361,452.960 450.248,452.960 449.136,452.960 448.023,452.960 446.910,452.960 445.798,452.960 444.685,452.960 443.573,452.960 442.460,452.960 441.347,452.960 440.235,452.960 439.122,452.960 438.009,452.960 436.897,452.960 435.784,452.960 434.672,452.960 433.559,452.960 432.446,452.960 431.334,452.960 430.221,452.960 429.108,452.960 427.996,452.960 426.883,452.960 425.771,452.960 424.658,452.960 423.545,452.960 422.433,452.960 421.320,452.960 420.207,452.960 419.095,452.960 417.982,452.960 416.870,452.960 415.757,452.960 414.644,452.960 413.532,452.960 412.419,452.960 411.307,452.960 410.194,452.960 409.081,452.960 407.969,452.960 406.856,452.960 405.743,452.960 404.631,452.960 403.518,452.960 402.406,452.960 401.293,452.960 400.180,452.960 399.068,452.960 397.955,452.960 396.842,452.960 395.730,452.960 394.617,452.960 393.505,452.960 392.392,452.960 391.279,452.960 390.167,452.960 389.054,452.960 387.941,452.960 386.829,452.960 385.716,452.960 384.604,452.960 383.491,452.960 382.378,452.960 381.266,452.960 380.153,452.960 379.040,452.960 377.928,452.960 376.815,452.960 375.703,452.960 374.590,452.960 373.477,452.960 372.365,452.960 371.252,452.960 370.139,452.960 369.027,452.960 367.914,452.960 366.802,452.960 365.689,452.960 364.576,452.960 363.464,452.960 362.351,452.960 361.238,452.960 360.126,452.960 359.013,452.960 357.901,452.960 356.788,452.960 355.675,452.960 354.563,452.960 353.450,452.960 352.337,452.960 351.225,452.960 350.112,452.960 349.000,452.960 347.887,452.960 346.774,452.960 345.662,452.960 344.549,452.960 343.436,452.960 342.324,452.960 341.211,452.960 340.099,452.960 338.986,452.960 337.873,452.960 336.761,452.960 335.648,452.960 334.535,452.960 333.423,452.960 332.310,452.960 331.198,452.960 330.085,452.960 328.972,452.960 327.860,452.960 326.747,452.960 325.634,452.960 324.522,452.960 323.409,452.960 322.297,452.960 321.184,452.960 320.071,452.960 318.959,452.960 317.846,452.960 316.733,452.960 315.621,452.960 314.508,452.960 313.396,452.960 312.283,452.960 311.170,452.960 310.058,452.960 308.945,452.960 307.832,452.960 306.720,452.960 305.607,452.960 304.495,452.960 303.382,452.960 302.269,452.960 301.157,452.960 300.044,452.960 298.931,452.960 297.819,452.960 296.706,452.960 295.594,452.960 294.481,452.960 293.368,452.960 292.256,452.960 291.143,452.960 290.030,452.960 288.918,452.960 287.805,452.960 286.693,452.960 285.580,452.960 284.467,452.960 283.355,452.960 282.242,452.960 281.129,452.960 280.017,452.960 278.904,452.960 277.792,452.960 276.679,452.960 275.566,452.960 274.454,452.960 273.341,452.960 272.228,452.960 271.116,452.960 270.003,452.960 268.891,452.960 267.778,452.960 266.665,452.960 265.553,452.960 264.440,452.960 263.327,452.960 262.215,452.960 261.102,452.960 259.990,452.960 258.877,452.960 257.764,452.960 256.652,452.960 255.539,452.960 254.426,452.960 253.314,452.960 252.201,452.960 251.089,452.960 249.976,452.960 248.863,452.960 247.751,452.960 246.638,452.960 245.525,452.960 244.413,452.960 243.300,452.960 242.188,452.960 241.075,452.960 239.962,452.960 238.850,452.960 237.737,452.960 236.624,452.960 235.512,452.960 234.399,452.960 233.287,452.960 232.174,452.960 231.061,452.960 229.949,452.960 228.836,452.960 227.724,452.960 226.611,452.960 225.498,452.960 224.386,452.960 223.273,452.960 222.160,452.960 221.048,452.960 219.935,452.960 218.823,452.960 217.710,452.960 216.597,452.960 215.485,452.960 214.372,452.960 213.259,452.960 212.147,452.960 211.034,452.960 209.922,452.960 208.809,452.960 207.696,452.960 206.584,452.960 205.471,452.960 204.358,452.960 203.246,452.960 202.133,452.960 201.021,452.960 199.908,452.960 198.795,452.960 197.683,452.960 196.570,452.960 195.457,452.960 194.345,452.960 193.232,452.960 192.120,452.960 191.007,452.960 189.894,452.960 188.782,452.960 187.669,452.960 186.556,452.960 185.444,452.960 184.331,452.960 183.219,452.960 182.106,452.960 180.993,452.960 179.881,452.960 178.768,452.960 177.655,452.960 176.543,452.960 175.430,452.960 174.318,452.960 173.205,452.960 172.092,452.960 170.980,452.960 169.867,452.960 168.754,452.960 "/>
</g>
</g>    </g>
    <g>
      <polyline fill="none" stroke="#000000" stroke-width="0.5pt" stroke-dasharray="none" points="167.642,452.960 167.642,436.271 "/>
      <polyline fill="none" stroke="#000000" stroke-width="0.5pt" stroke-dasharray="none" points="234.399,452.960 234.399,436.271 "/>
      <polyline fill="none" stroke="#000000" stroke-width="0.5pt" stroke-dasharray="none" points="301.157,452.960 301.157,436.271 "/>
      <polyline fill="none" stroke="#000000" stroke-width="0.5pt" stroke-dasharray="none" points="367.914,452.960 367.914,436.271 "/>
      <polyline fill="none" stroke="#000000" stroke-width="0.5pt" stroke-dasharray="none" points="434.672,452.960 434.672,436.271 "/>
      <polyline fill="none" stroke="#000000" stroke-width="0.5pt" stroke-dasharray="none" points="501.429,452.960 501.429,436.271 "/>
      <polyline fill="none" stroke="#000000" stroke-width="0.5pt" stroke-dasharray="none" points="568.187,452.960 568.187,436.271 "/>
      <polyline fill="none" stroke="#000000" stroke-width="0.5pt" stroke-dasharray="none" points="634.944,452.960 634.944,436.271 "/>
      <polyline fill="none" stroke="#000000" stroke-width="0.5pt" stroke-dasharray="none" points="701.701,452.960 701.701,436.271 "/>
      <polyline fill="none" stroke="#000000" stroke-width="0.5pt" stroke-dasharray="none" points="768.459,452.960 768.459,436.271 "/>
      <polyline fill="none" stroke="#000000" stroke-width="0.5pt" stroke-dasharray="none" points="835.216,452.960 835.216,436.271 "/>
      <polyline fill="none" stroke="#000000" stroke-width="0.5pt" stroke-dasharray="none" points="901.974,452.960 901.974,436.271 "/>
      <polyline fill="none" stroke="#000000" stroke-width="0.5pt" stroke-dasharray="none" points="968.731,452.960 968.731,436.271 "/>
      <polyline fill="none" stroke="#000000" stroke-width="0.5pt" stroke-dasharray="none" points="1035.489,452.960 1035.489,436.271 "/>
      <polyline fill="none" stroke="#000000" stroke-width="0.5pt" stroke-dasharray="none" points="1102.246,452.960 1102.246,436.271 "/>
      <polyline fill="none" stroke="#000000" stroke-width="0.5pt" stroke-dasharray="none" points="1169.004,452.960 1169.004,436.271 "/>
      <polyline fill="none" stroke="#000000" stroke-width="0.5pt" stroke-dasharray="none" points="1235.761,452.960 1235.761,436.271 "/>
      <polyline fill="none" stroke="#000000" stroke-width="0.5pt" stroke-dasharray="none" points="1302.519,452.960 1302.519,436.271 "/>
      <polyline fill="none" stroke="#000000" stroke-width="0.5pt" stroke-dasharray="none" points="1369.276,452.960 1369.276,436.271 "/>
      <polyline fill="none" stroke="#000000" stroke-width="0.5pt" stroke-dasharray="none" points="1436.033,452.960 1436.033,436.271 "/>
      <polyline fill="none" stroke="#000000" stroke-width="0.5pt" stroke-dasharray="none" points="1502.791,452.960 1502.791,436.271 "/>
      <polyline fill="none" stroke="#000000" stroke-width="0.5pt" stroke-dasharray="none" points="1569.548,452.960 1569.548,436.271 "/>
      <polyline fill="none" stroke="#000000" stroke-width="0.5pt" stroke-dasharray="none" points="1636.306,452.960 1636.306,436.271 "/>
      <polyline fill="none" stroke="#000000" stroke-width="0.5pt" stroke-dasharray="none" points="1703.063,452.960 1703.063,436.271 "/>
      <polyline fill="none" stroke="#000000" stroke-width="0.5pt" stroke-dasharray="none" points="1769.821,452.960 1769.821,436.271 "/>
      <polyline fill="none" stroke="#000000" stroke-width="0.5pt" stroke-dasharray="none" points="167.642,452.960 1836.578,452.960 "/>
  <g transform="translate(167.642,472.139)">
    <g transform="rotate(-0.0)">
      <text x="0.000" y="0.000" font-family="Helvetica" text-anchor="middle" font-size="9pt" font-style="oblique" fill="#000000" >00:00</text>
    </g>
  </g>
  <g transform="translate(234.399,472.139)">
    <g transform="rotate(-0.0)">
      <text x="0.000" y="0.000" font-family="Helvetica" text-anchor="middle" font-size="9pt" font-style="oblique" fill="#000000" >01:00</text>
    </g>
  </g>
  <g transform="translate(301.157,472.139)">
    <g transform="rotate(-0.0)">
      <text x="0.000" y="0.000" font-family="Helvetica" text-anchor="middle" font-size="9pt" font-style="oblique" fill="#000000" >02:00</text>
    </g>
  </g>
  <g transform="translate(367.914,472.139)">
    <g transform="rotate(-0.0)">
      <text x="0.000" y="0.000" font-family="Helvetica" text-anchor="middle" font-size="9pt" font-style="oblique" fill="#000000" >03:00</text>
    </g>
  </g>
  <g transform="translate(434.672,472.139)">
    <g transform="rotate(-0.0)">
      <text x="0.000" y="0.000" font-family="Helvetica" text-anchor="middle" font-size="9pt" font-style="oblique" fill="#000000" >04:00</text>
    </g>
  </g>
  <g transform="translate(501.429,472.139)">
    <g transform="rotate(-0.0)">
      <text x="0.000" y="0.000" font-family="Helvetica" text-anchor="middle" font-size="9pt" font-style="oblique" fill="#000000" >05:00</text>
    </g>
  </g>
  <g transform="translate(568.187,472.139)">
    <g transform="rotate(-0.0)">
      <text x="0.000" y="0.000" font-family="Helvetica" text-anchor="middle" font-size="9pt" font-style="oblique" fill="#000000" >06:00</text>
    </g>
  </g>
  <g transform="translate(634.944,472.139)">
    <g transform="rotate(-0.0)">
      <text x="0.000" y="0.000" font-family="Helvetica" text-anchor="middle" font-size="9pt" font-style="oblique" fill="#000000" >07:00</text>
    </g>
  </g>
  <g transform="translate(701.701,472.139)">
    <g transform="rotate(-0.0)">
      <text x="0.000" y="0.000" font-family="Helvetica" text-anchor="middle" font-size="9pt" font-style="oblique" fill="#000000" >08:00</text>
    </g>
  </g>
  <g transform="translate(768.459,472.139)">
    <g transform="rotate(-0.0)">
      <text x="0.000" y="0.000" font-family="Helvetica" text-anchor="middle" font-size="9pt" font-style="oblique" fill="#000000" >09:00</text>
    </g>
  </g>
  <g transform="translate(835.216,472.139)">
    <g transform="rotate(-0.0)">
      <text x="0.000" y="0.000" font-family="Helvetica" text-anchor="middle" font-size="9pt" font-style="oblique" fill="#000000" >10:00</text>
    </g>
  </g>
  <g transform="translate(901.974,472.139)">
    <g transform="rotate(-0.0)">
      <text x="0.000" y="0.000" font-family="Helvetica" text-anchor="middle" font-size="9pt" font-style="oblique" fill="#000000" >11:00</text>
    </g>
  </g>
  <g transform="translate(968.731,472.139)">
    <g transform="rotate(-0.0)">
      <text x="0.000" y="0.000" font-family="Helvetica" text-anchor="middle" font-size="9pt" font-style="oblique" fill="#000000" >12:00</text>
    </g>
  </g>
  <g transform="translate(1035.489,472.139)">
    <g transform="rotate(-0.0)">
      <text x="0.000" y="0.000" font-family="Helvetica" text-anchor="middle" font-size="9pt" font-style="oblique" fill="#000000" >13:00</text>
    </g>
  </g>
  <g transform="translate(1102.246,472.139)">
    <g transform="rotate(-0.0)">
      <text x="0.000" y="0.000" font-family="Helvetica" text-anchor="middle" font-size="9pt" font-style="oblique" fill="#000000" >14:00</text>
    </g>
  </g>
  <g transform="translate(1169.004,472.139)">
    <g transform="rotate(-0.0)">
      <text x="0.000" y="0.000" font-family="Helvetica" text-anchor="middle" font-size="9pt" font-style="oblique" fill="#000000" >15:00</text>
    </g>
  </g>
  <g transform="translate(1235.761,472.139)">
    <g transform="rotate(-0.0)">
      <text x="0.000" y="0.000" font-family="Helvetica" text-anchor="middle" font-size="9pt" font-style="oblique" fill="#000000" >16:00</text>
    </g>
  </g>
  <g transform="translate(1302.519,472.139)">
    <g transform="rotate(-0.0)">
      <text x="0.000" y="0.000" font-family="Helvetica" text-anchor="middle" font-size="9pt" font-style="oblique" fill="#000000" >17:00</text>
    </g>
  </g>
  <g transform="translate(1369.276,472.139)">
    <g transform="rotate(-0.0)">
      <text x="0.000" y="0.000" font-family="Helvetica" text-anchor="middle" font-size="9pt" font-style="oblique" fill="#000000" >18:00</text>
    </g>
  </g>
  <g transform="translate(1436.033,472.139)">
    <g transform="rotate(-0.0)">
      <text x="0.000" y="0.000" font-family="Helvetica" text-anchor="middle" font-size="9pt" font-style="oblique" fill="#000000" >19:00</text>
    </g>
  </g>
  <g transform="translate(1502.791,472.139)">
    <g transform="rotate(-0.0)">
      <text x="0.000" y="0.000" font-family="Helvetica" text-anchor="middle" font-size="9pt" font-style="oblique" fill="#000000" >20:00</text>
    </g>
  </g>
  <g transform="translate(1569.548,472.139)">
    <g transform="rotate(-0.0)">
      <text x="0.000" y="0.000" font-family="Helvetica" text-anchor="middle" font-size="9pt" font-style="oblique" fill="#000000" >21:00</text>
    </g>
  </g>
  <g transform="translate(1636.306,472.139)">
    <g transform="rotate(-0.0)">
      <text x="0.000" y="0.000" font-family="Helvetica" text-anchor="middle" font-size="9pt" font-style="oblique" fill="#000000" >22:00</text>
    </g>
  </g>
  <g transform="translate(1703.063,472.139)">
    <g transform="rotate(-0.0)">
      <text x="0.000" y="0.000" font-family="Helvetica" text-anchor="middle" font-size="9pt" font-style="oblique" fill="#000000" >23:00</text>
    </g>
  </g>
  <g transform="translate(1769.821,472.139)">
    <g transform="rotate(-0.0)">
      <text x="0.000" y="0.000" font-family="Helvetica" text-anchor="middle" font-size="9pt" font-style="oblique" fill="#000000" >24:00</text>
    </g>
  </g>
      <polyline fill="none" stroke="#000000" stroke-width="0.5pt" stroke-dasharray="none" points="167.642,452.960 184.331,452.960 "/>
      <polyline fill="none" stroke="#000000" stroke-width="0.5pt" stroke-dasharray="none" points="167.642,412.378 184.331,412.378 "/>
      <polyline fill="none" stroke="#000000" stroke-width="0.5pt" stroke-dasharray="none" points="167.642,371.797 184.331,371.797 "/>
      <polyline fill="none" stroke="#000000" stroke-width="0.5pt" stroke-dasharray="none" points="167.642,331.215 184.331,331.215 "/>
      <polyline fill="none" stroke="#000000" stroke-width="0.5pt" stroke-dasharray="none" points="167.642,290.633 184.331,290.633 "/>
      <polyline fill="none" stroke="#000000" stroke-width="0.5pt" stroke-dasharray="none" points="167.642,250.052 184.331,250.052 "/>
      <polyline fill="none" stroke="#000000" stroke-width="0.5pt" stroke-dasharray="none" points="167.642,209.470 184.331,209.470 "/>
      <polyline fill="none" stroke="#000000" stroke-width="0.5pt" stroke-dasharray="none" points="167.642,168.888 184.331,168.888 "/>
      <polyline fill="none" stroke="#000000" stroke-width="0.5pt" stroke-dasharray="none" points="167.642,128.306 184.331,128.306 "/>
      <polyline fill="none" stroke="#000000" stroke-width="0.5pt" stroke-dasharray="none" points="167.642,87.725 184.331,87.725 "/>
      <polyline fill="none" stroke="#000000" stroke-width="0.5pt" stroke-dasharray="none" points="167.642,47.143 184.331,47.143 "/>
      <polyline fill="none" stroke="#000000" stroke-width="0.5pt" stroke-dasharray="none" points="167.642,452.960 167.642,47.143 "/>
  <g transform="translate(134.263,457.179)">
    <g transform="rotate(-0.0)">
      <text x="0.000" y="0.000" font-family="Helvetica" text-anchor="end" font-size="9pt" font-style="oblique" fill="#000000" >0</text>
    </g>
  </g>
  <g transform="translate(134.263,416.597)">
    <g transform="rotate(-0.0)">
      <text x="0.000" y="0.000" font-family="Helvetica" text-anchor="end" font-size="9pt" font-style="oblique" fill="#000000" >200</text>
    </g>
  </g>
  <g transform="translate(134.263,376.015)">
    <g transform="rotate(-0.0)">
      <text x="0.000" y="0.000" font-family="Helvetica" text-anchor="end" font-size="9pt" font-style="oblique" fill="#000000" >400</text>
    </g>
  </g>
  <g transform="translate(134.263,335.434)">
    <g transform="rotate(-0.0)">
      <text x="0.000" y="0.000" font-family="Helvetica" text-anchor="end" font-size="9pt" font-style="oblique" fill="#000000" >600</text>
    </g>
  </g>
  <g transform="translate(134.263,294.852)">
    <g transform="rotate(-0.0)">
      <text x="0.000" y="0.000" font-family="Helvetica" text-anchor="end" font-size="9pt" font-style="oblique" fill="#000000" >800</text>
    </g>
  </g>
  <g transform="translate(134.263,254.270)">
    <g transform="rotate(-0.0)">
      <text x="0.000" y="0.000" font-family="Helvetica" text-anchor="end" font-size="9pt" font-style="oblique" fill="#000000" >1000</text>
    </g>
  </g>
  <g transform="translate(134.263,213.689)">
    <g transform="rotate(-0.0)">
      <text x="0.000" y="0.000" font-family="Helvetica" text-anchor="end" font-size="9pt" font-style="oblique" fill="#000000" >1200</text>
    </g>
  </g>
  <g transform="translate(134.263,173.107)">
    <g transform="rotate(-0.0)">
      <text x="0.000" y="0.000" font-family="Helvetica" text-anchor="end" font-size="9pt" font-style="oblique" fill="#000000" >1400</text>
    </g>
  </g>
  <g transform="translate(134.263,132.525)">
    <g transform="rotate(-0.0)">
      <text x="0.000" y="0.000" font-family="Helvetica" text-anchor="end" font-size="9pt" font-style="oblique" fill="#000000" >1600</text>
    </g>
  </g>
  <g transform="translate(134.263,91.943)">
    <g transform="rotate(-0.0)">
      <text x="0.000" y="0.000" font-family="Helvetica" text-anchor="end" font-size="9pt" font-style="oblique" fill="#000000" >1800</text>
    </g>
  </g>
  <g transform="translate(134.263,51.362)">
    <g transform="rotate(-0.0)">
      <text x="0.000" y="0.000" font-family="Helvetica" text-anchor="end" font-size="9pt" font-style="oblique" fill="#000000" >2000</text>
    </g>
  </g>
      <polyline fill="none" stroke="#000000" stroke-width="0.5pt" stroke-dasharray="none" points="167.642,452.960 167.642,448.902 "/>
      <polyline fill="none" stroke="#000000" stroke-width="0.5pt" stroke-dasharray="none" points="167.642,452.960 167.642,448.902 "/>
      <polyline fill="none" stroke="#000000" stroke-width="0.5pt" stroke-dasharray="none" points="167.642,452.960 167.642,448.902 "/>
      <polyline fill="none" stroke="#000000" stroke-width="0.5pt" stroke-dasharray="none" points="167.642,452.960 167.642,452.960 "/>
    </g>
  </g>
  </g>
</svg>
