<?xml version="1.0" encoding="utf-8" standalone="no"?><!DOCTYPE svg PUBLIC "-//W3C//DTD SVG 1.1//EN" "http://www.w3.org/Graphics/SVG/1.1/DTD/svg11.dtd">
<svg preserveAspectRatio="xMinYMin meet" width="100%" height="100%" viewBox="0 0 1920.000 540.000"  version="1.1" xmlns="http://www.w3.org/2000/svg" xmlns:xlink="http://www.w3.org/1999/xlink">
  <desc>Matlab Figure Converted by PLOT2SVG written by Juerg Schwizer</desc>
  <g id="topgroup">
  <rect x="0" y="0" width="1920.000" height="540.000" fill="#ffffff" stroke="none" />
  <g id ="ID000000">
  <clipPath id="ID000001">
    <rect x="192.000" y="40.500" width="1662.090" height="440.100"/>
  </clipPath>
      <polygon fill="#ffffff" fill-opacity="1.00" stroke="none" stroke-width="0.5pt" stroke-opacity="1.00" stroke-dasharray="none" points="192.000,480.600 1854.090,480.600 1854.090,40.500 192.000,40.500 "/>
      <polygon fill="#ffffff" fill-opacity="1.00" stroke="none" stroke-width="0.5pt" stroke-opacity="1.00" stroke-dasharray="none" points="192.000,40.500 1854.090,40.500 1854.090,40.500 192.000,40.500 "/>
      <polygon fill="#ffffff" fill-opacity="1.00" stroke="none" stroke-width="0.5pt" stroke-opacity="1.00" stroke-dasharray="none" points="192.000,480.600 192.000,480.600 192.000,40.500 192.000,40.500 "/>
      <polyline fill="none" stroke="#000000" stroke-width="0.5pt" stroke-dasharray="2.0,2.0" points="192.000,480.600 192.000,40.500 "/>
      <polyline fill="none" stroke="#000000" stroke-width="0.5pt" stroke-dasharray="2.0,2.0" points="261.254,480.600 261.254,40.500 "/>
      <polyline fill="none" stroke="#000000" stroke-width="0.5pt" stroke-dasharray="2.0,2.0" points="330.507,480.600 330.507,40.500 "/>
      <polyline fill="none" stroke="#000000" stroke-width="0.5pt" stroke-dasharray="2.0,2.0" points="399.761,480.600 399.761,40.500 "/>
      <polyline fill="none" stroke="#000000" stroke-width="0.5pt" stroke-dasharray="2.0,2.0" points="469.015,480.600 469.015,40.500 "/>
      <polyline fill="none" stroke="#000000" stroke-width="0.5pt" stroke-dasharray="2.0,2.0" points="538.269,480.600 538.269,40.500 "/>
      <polyline fill="none" stroke="#000000" stroke-width="0.5pt" stroke-dasharray="2.0,2.0" points="607.522,480.600 607.522,40.500 "/>
      <polyline fill="none" stroke="#000000" stroke-width="0.5pt" stroke-dasharray="2.0,2.0" points="676.776,480.600 676.776,40.500 "/>
      <polyline fill="none" stroke="#000000" stroke-width="0.5pt" stroke-dasharray="2.0,2.0" points="746.030,480.600 746.030,40.500 "/>
      <polyline fill="none" stroke="#000000" stroke-width="0.5pt" stroke-dasharray="2.0,2.0" points="815.284,480.600 815.284,40.500 "/>
      <polyline fill="none" stroke="#000000" stroke-width="0.5pt" stroke-dasharray="2.0,2.0" points="884.537,480.600 884.537,40.500 "/>
      <polyline fill="none" stroke="#000000" stroke-width="0.5pt" stroke-dasharray="2.0,2.0" points="953.791,480.600 953.791,40.500 "/>
      <polyline fill="none" stroke="#000000" stroke-width="0.5pt" stroke-dasharray="2.0,2.0" points="1023.045,480.600 1023.045,40.500 "/>
      <polyline fill="none" stroke="#000000" stroke-width="0.5pt" stroke-dasharray="2.0,2.0" points="1092.299,480.600 1092.299,40.500 "/>
      <polyline fill="none" stroke="#000000" stroke-width="0.5pt" stroke-dasharray="2.0,2.0" points="1161.552,480.600 1161.552,40.500 "/>
      <polyline fill="none" stroke="#000000" stroke-width="0.5pt" stroke-dasharray="2.0,2.0" points="1230.806,480.600 1230.806,40.500 "/>
      <polyline fill="none" stroke="#000000" stroke-width="0.5pt" stroke-dasharray="2.0,2.0" points="1300.060,480.600 1300.060,40.500 "/>
      <polyline fill="none" stroke="#000000" stroke-width="0.5pt" stroke-dasharray="2.0,2.0" points="1369.313,480.600 1369.313,40.500 "/>
      <polyline fill="none" stroke="#000000" stroke-width="0.5pt" stroke-dasharray="2.0,2.0" points="1438.567,480.600 1438.567,40.500 "/>
      <polyline fill="none" stroke="#000000" stroke-width="0.5pt" stroke-dasharray="2.0,2.0" points="1507.821,480.600 1507.821,40.500 "/>
      <polyline fill="none" stroke="#000000" stroke-width="0.5pt" stroke-dasharray="2.0,2.0" points="1577.075,480.600 1577.075,40.500 "/>
      <polyline fill="none" stroke="#000000" stroke-width="0.5pt" stroke-dasharray="2.0,2.0" points="192.000,480.600 1854.090,480.600 "/>
      <polyline fill="none" stroke="#000000" stroke-width="0.5pt" stroke-dasharray="2.0,2.0" points="192.000,417.729 1854.090,417.729 "/>
      <polyline fill="none" stroke="#000000" stroke-width="0.5pt" stroke-dasharray="2.0,2.0" points="192.000,354.857 1854.090,354.857 "/>
      <polyline fill="none" stroke="#000000" stroke-width="0.5pt" stroke-dasharray="2.0,2.0" points="192.000,291.986 1854.090,291.986 "/>
      <polyline fill="none" stroke="#000000" stroke-width="0.5pt" stroke-dasharray="2.0,2.0" points="192.000,229.114 1854.090,229.114 "/>
      <polyline fill="none" stroke="#000000" stroke-width="0.5pt" stroke-dasharray="2.0,2.0" points="192.000,166.243 1854.090,166.243 "/>
      <polyline fill="none" stroke="#000000" stroke-width="0.5pt" stroke-dasharray="2.0,2.0" points="192.000,103.371 1854.090,103.371 "/>
      <polyline fill="none" stroke="#000000" stroke-width="0.5pt" stroke-dasharray="2.0,2.0" points="192.000,40.500 1854.090,40.500 "/>
      <polyline fill="none" stroke="#000000" stroke-width="0.5pt" stroke-dasharray="2.0,2.0" points="192.000,40.500 192.000,40.500 "/>
      <polyline fill="none" stroke="#000000" stroke-width="0.5pt" stroke-dasharray="2.0,2.0" points="261.254,40.500 261.254,40.500 "/>
      <polyline fill="none" stroke="#000000" stroke-width="0.5pt" stroke-dasharray="2.0,2.0" points="330.507,40.500 330.507,40.500 "/>
      <polyline fill="none" stroke="#000000" stroke-width="0.5pt" stroke-dasharray="2.0,2.0" points="399.761,40.500 399.761,40.500 "/>
      <polyline fill="none" stroke="#000000" stroke-width="0.5pt" stroke-dasharray="2.0,2.0" points="469.015,40.500 469.015,40.500 "/>
      <polyline fill="none" stroke="#000000" stroke-width="0.5pt" stroke-dasharray="2.0,2.0" points="538.269,40.500 538.269,40.500 "/>
      <polyline fill="none" stroke="#000000" stroke-width="0.5pt" stroke-dasharray="2.0,2.0" points="607.522,40.500 607.522,40.500 "/>
      <polyline fill="none" stroke="#000000" stroke-width="0.5pt" stroke-dasharray="2.0,2.0" points="676.776,40.500 676.776,40.500 "/>
      <polyline fill="none" stroke="#000000" stroke-width="0.5pt" stroke-dasharray="2.0,2.0" points="746.030,40.500 746.030,40.500 "/>
      <polyline fill="none" stroke="#000000" stroke-width="0.5pt" stroke-dasharray="2.0,2.0" points="815.284,40.500 815.284,40.500 "/>
      <polyline fill="none" stroke="#000000" stroke-width="0.5pt" stroke-dasharray="2.0,2.0" points="884.537,40.500 884.537,40.500 "/>
      <polyline fill="none" stroke="#000000" stroke-width="0.5pt" stroke-dasharray="2.0,2.0" points="953.791,40.500 953.791,40.500 "/>
      <polyline fill="none" stroke="#000000" stroke-width="0.5pt" stroke-dasharray="2.0,2.0" points="1023.045,40.500 1023.045,40.500 "/>
      <polyline fill="none" stroke="#000000" stroke-width="0.5pt" stroke-dasharray="2.0,2.0" points="1092.299,40.500 1092.299,40.500 "/>
      <polyline fill="none" stroke="#000000" stroke-width="0.5pt" stroke-dasharray="2.0,2.0" points="1161.552,40.500 1161.552,40.500 "/>
      <polyline fill="none" stroke="#000000" stroke-width="0.5pt" stroke-dasharray="2.0,2.0" points="1230.806,40.500 1230.806,40.500 "/>
      <polyline fill="none" stroke="#000000" stroke-width="0.5pt" stroke-dasharray="2.0,2.0" points="1300.060,40.500 1300.060,40.500 "/>
      <polyline fill="none" stroke="#000000" stroke-width="0.5pt" stroke-dasharray="2.0,2.0" points="1369.313,40.500 1369.313,40.500 "/>
      <polyline fill="none" stroke="#000000" stroke-width="0.5pt" stroke-dasharray="2.0,2.0" points="1438.567,40.500 1438.567,40.500 "/>
      <polyline fill="none" stroke="#000000" stroke-width="0.5pt" stroke-dasharray="2.0,2.0" points="1507.821,40.500 1507.821,40.500 "/>
      <polyline fill="none" stroke="#000000" stroke-width="0.5pt" stroke-dasharray="2.0,2.0" points="1577.075,40.500 1577.075,40.500 "/>
      <polyline fill="none" stroke="#000000" stroke-width="0.5pt" stroke-dasharray="2.0,2.0" points="192.000,480.600 192.000,480.600 "/>
      <polyline fill="none" stroke="#000000" stroke-width="0.5pt" stroke-dasharray="2.0,2.0" points="192.000,417.729 192.000,417.729 "/>
      <polyline fill="none" stroke="#000000" stroke-width="0.5pt" stroke-dasharray="2.0,2.0" points="192.000,354.857 192.000,354.857 "/>
      <polyline fill="none" stroke="#000000" stroke-width="0.5pt" stroke-dasharray="2.0,2.0" points="192.000,291.986 192.000,291.986 "/>
      <polyline fill="none" stroke="#000000" stroke-width="0.5pt" stroke-dasharray="2.0,2.0" points="192.000,229.114 192.000,229.114 "/>
      <polyline fill="none" stroke="#000000" stroke-width="0.5pt" stroke-dasharray="2.0,2.0" points="192.000,166.243 192.000,166.243 "/>
      <polyline fill="none" stroke="#000000" stroke-width="0.5pt" stroke-dasharray="2.0,2.0" points="192.000,103.371 192.000,103.371 "/>
      <polyline fill="none" stroke="#000000" stroke-width="0.5pt" stroke-dasharray="2.0,2.0" points="192.000,40.500 192.000,40.500 "/>
    <g>
<g id="ID000002" clip-path="url(#ID000001)" >
<g id="ID000003" clip-path="url(#ID000001)" >
      <polygon fill="#3366ff" fill-opacity="1.00" stroke="#000000" stroke-width="0.5pt" stroke-opacity="0.00" stroke-dasharray="none" points="205.851,480.600 205.851,478.085 219.701,474.942 233.552,471.798 247.403,472.238 261.254,472.678 275.104,472.678 288.955,472.678 302.806,472.678 316.657,472.678 330.507,472.678 344.358,472.678 358.209,472.678 372.060,472.678 385.910,472.678 399.761,472.678 413.612,371.707 427.463,270.735 441.313,271.427 455.164,272.118 469.015,271.804 482.866,271.490 496.716,271.741 510.567,271.993 524.418,272.055 538.269,272.118 552.119,272.181 565.970,272.244 579.821,272.118 593.672,271.993 607.522,271.615 621.373,271.238 635.224,271.553 649.075,271.867 662.925,372.273 676.776,472.678 690.627,472.678 704.478,472.678 718.328,472.678 732.179,472.678 746.030,472.678 759.881,472.678 773.731,472.678 787.582,472.678 801.433,472.678 815.284,472.678 829.134,472.867 842.985,473.055 856.836,472.930 870.687,472.804 884.537,472.867 898.388,472.930 912.239,472.867 926.090,472.804 939.940,472.930 953.791,473.055 967.642,473.055 981.493,473.055 995.343,472.993 1009.194,472.930 1023.045,473.055 1036.896,473.181 1050.746,473.118 1064.597,473.055 1078.448,474.187 1092.299,475.319 1106.149,473.244 1120.000,471.169 1133.851,471.987 1147.701,472.804 1161.552,472.804 1175.403,472.804 1189.254,472.867 1203.104,472.930 1216.955,472.930 1230.806,472.930 1244.657,371.015 1258.507,269.101 1272.358,269.603 1286.209,270.106 1300.060,270.798 1313.910,271.490 1327.761,271.867 1341.612,272.244 1355.463,272.244 1369.313,272.244 1383.164,272.181 1397.015,272.118 1410.866,271.993 1424.716,271.867 1438.567,271.490 1452.418,271.112 1466.269,270.358 1480.119,269.603 1493.970,269.478 1507.821,269.352 1521.672,269.918 1535.522,270.484 1549.373,270.861 1563.224,271.238 1577.075,371.707 1590.925,472.175 1604.776,472.175 1604.776,480.600 1590.925,480.600 1577.075,480.600 1563.224,480.600 1549.373,480.600 1535.522,480.600 1521.672,480.600 1507.821,480.600 1493.970,480.600 1480.119,480.600 1466.269,480.600 1452.418,480.600 1438.567,480.600 1424.716,480.600 1410.866,480.600 1397.015,480.600 1383.164,480.600 1369.313,480.600 1355.463,480.600 1341.612,480.600 1327.761,480.600 1313.910,480.600 1300.060,480.600 1286.209,480.600 1272.358,480.600 1258.507,480.600 1244.657,480.600 1230.806,480.600 1216.955,480.600 1203.104,480.600 1189.254,480.600 1175.403,480.600 1161.552,480.600 1147.701,480.600 1133.851,480.600 1120.000,480.600 1106.149,480.600 1092.299,480.600 1078.448,480.600 1064.597,480.600 1050.746,480.600 1036.896,480.600 1023.045,480.600 1009.194,480.600 995.343,480.600 981.493,480.600 967.642,480.600 953.791,480.600 939.940,480.600 926.090,480.600 912.239,480.600 898.388,480.600 884.537,480.600 870.687,480.600 856.836,480.600 842.985,480.600 829.134,480.600 815.284,480.600 801.433,480.600 787.582,480.600 773.731,480.600 759.881,480.600 746.030,480.600 732.179,480.600 718.328,480.600 704.478,480.600 690.627,480.600 676.776,480.600 662.925,480.600 649.075,480.600 635.224,480.600 621.373,480.600 607.522,480.600 593.672,480.600 579.821,480.600 565.970,480.600 552.119,480.600 538.269,480.600 524.418,480.600 510.567,480.600 496.716,480.600 482.866,480.600 469.015,480.600 455.164,480.600 441.313,480.600 427.463,480.600 413.612,480.600 399.761,480.600 385.910,480.600 372.060,480.600 358.209,480.600 344.358,480.600 330.507,480.600 316.657,480.600 302.806,480.600 288.955,480.600 275.104,480.600 261.254,480.600 247.403,480.600 233.552,480.600 219.701,480.600 205.851,480.600 "/>
</g>
</g><g id="ID000004" clip-path="url(#ID000001)" >
<g id="ID000005" clip-path="url(#ID000001)" >
      <polygon fill="#ff0000" fill-opacity="1.00" stroke="#000000" stroke-width="0.5pt" stroke-opacity="0.00" stroke-dasharray="none" points="205.851,478.085 205.851,478.085 219.701,471.484 233.552,466.140 247.403,465.448 261.254,464.756 275.104,464.756 288.955,464.756 302.806,464.756 316.657,464.756 330.507,464.756 344.358,464.756 358.209,464.756 372.060,464.756 385.910,466.674 399.761,468.592 413.612,316.568 427.463,164.545 441.313,114.336 455.164,64.140 469.015,63.637 482.866,63.134 496.716,63.574 510.567,64.014 524.418,63.976 538.269,63.951 552.119,64.265 565.970,64.580 579.821,64.228 593.672,63.888 607.522,63.222 621.373,62.568 635.224,113.117 649.075,163.665 662.925,314.211 676.776,464.756 690.627,464.945 704.478,465.134 718.328,465.102 732.179,465.071 746.030,465.071 759.881,465.071 773.731,465.134 787.582,465.197 801.433,465.165 815.284,465.134 829.134,465.322 842.985,465.511 856.836,465.511 870.687,465.511 884.537,465.574 898.388,465.637 912.239,465.574 926.090,465.511 939.940,465.731 953.791,465.951 967.642,465.888 981.493,465.825 995.343,465.825 1009.194,465.825 1023.045,466.014 1036.896,466.202 1050.746,466.077 1064.597,465.951 1078.448,469.315 1092.299,475.319 1106.149,468.780 1120.000,464.882 1133.851,465.165 1147.701,465.448 1161.552,465.385 1175.403,465.322 1189.254,465.479 1203.104,465.637 1216.955,467.366 1230.806,469.095 1244.657,314.337 1258.507,159.578 1272.358,110.099 1286.209,60.619 1300.060,62.027 1313.910,63.448 1327.761,64.265 1341.612,65.083 1355.463,64.668 1369.313,64.265 1383.164,64.353 1397.015,64.454 1410.866,64.416 1424.716,64.391 1438.567,63.511 1452.418,62.631 1466.269,61.248 1480.119,59.864 1493.970,59.575 1507.821,59.299 1521.672,60.179 1535.522,61.059 1549.373,111.859 1563.224,162.659 1577.075,315.311 1590.925,467.963 1604.776,467.963 1604.776,472.175 1590.925,472.175 1577.075,371.707 1563.224,271.238 1549.373,270.861 1535.522,270.484 1521.672,269.918 1507.821,269.352 1493.970,269.478 1480.119,269.603 1466.269,270.358 1452.418,271.112 1438.567,271.490 1424.716,271.867 1410.866,271.993 1397.015,272.118 1383.164,272.181 1369.313,272.244 1355.463,272.244 1341.612,272.244 1327.761,271.867 1313.910,271.490 1300.060,270.798 1286.209,270.106 1272.358,269.603 1258.507,269.101 1244.657,371.015 1230.806,472.930 1216.955,472.930 1203.104,472.930 1189.254,472.867 1175.403,472.804 1161.552,472.804 1147.701,472.804 1133.851,471.987 1120.000,471.169 1106.149,473.244 1092.299,475.319 1078.448,474.187 1064.597,473.055 1050.746,473.118 1036.896,473.181 1023.045,473.055 1009.194,472.930 995.343,472.993 981.493,473.055 967.642,473.055 953.791,473.055 939.940,472.930 926.090,472.804 912.239,472.867 898.388,472.930 884.537,472.867 870.687,472.804 856.836,472.930 842.985,473.055 829.134,472.867 815.284,472.678 801.433,472.678 787.582,472.678 773.731,472.678 759.881,472.678 746.030,472.678 732.179,472.678 718.328,472.678 704.478,472.678 690.627,472.678 676.776,472.678 662.925,372.273 649.075,271.867 635.224,271.553 621.373,271.238 607.522,271.615 593.672,271.993 579.821,272.118 565.970,272.244 552.119,272.181 538.269,272.118 524.418,272.055 510.567,271.993 496.716,271.741 482.866,271.490 469.015,271.804 455.164,272.118 441.313,271.427 427.463,270.735 413.612,371.707 399.761,472.678 385.910,472.678 372.060,472.678 358.209,472.678 344.358,472.678 330.507,472.678 316.657,472.678 302.806,472.678 288.955,472.678 275.104,472.678 261.254,472.678 247.403,472.238 233.552,471.798 219.701,474.942 205.851,478.085 "/>
</g>
</g><g id="ID000006" >
  <g transform="translate(1022.107,517.791)">
    <g transform="rotate(-0.0)">
      <text x="0.000" y="0.000" font-family="Helvetica" text-anchor="middle" font-size="15pt" font-style="oblique" fill="#142b8c" >Time Duration (minutes)</text>
    </g>
  </g>
</g>
<g id="ID000007" >
  <g transform="translate(148.409,261.955)">
    <g transform="rotate(-90.0)">
      <text x="0.000" y="0.000" font-family="Helvetica" text-anchor="middle" font-size="15pt" font-style="oblique" fill="#142b8c" >Watt</text>
    </g>
  </g>
</g>
<g id="ID000008" >
  <g transform="translate(1023.045,29.726)">
    <g transform="rotate(-0.0)">
      <text x="0.000" y="0.000" font-family="Helvetica" text-anchor="middle" font-size="19pt" font-style="oblique" fill="#142b8c" >dishMachine</text>
    </g>
  </g>
</g>
<g id="ID000009" >
</g>
<g id="ID000010" >
</g>
    </g>
    <g>
      <polyline fill="none" stroke="#000000" stroke-width="0.5pt" stroke-dasharray="none" points="192.000,480.600 192.000,463.979 "/>
      <polyline fill="none" stroke="#000000" stroke-width="0.5pt" stroke-dasharray="none" points="261.254,480.600 261.254,463.979 "/>
      <polyline fill="none" stroke="#000000" stroke-width="0.5pt" stroke-dasharray="none" points="330.507,480.600 330.507,463.979 "/>
      <polyline fill="none" stroke="#000000" stroke-width="0.5pt" stroke-dasharray="none" points="399.761,480.600 399.761,463.979 "/>
      <polyline fill="none" stroke="#000000" stroke-width="0.5pt" stroke-dasharray="none" points="469.015,480.600 469.015,463.979 "/>
      <polyline fill="none" stroke="#000000" stroke-width="0.5pt" stroke-dasharray="none" points="538.269,480.600 538.269,463.979 "/>
      <polyline fill="none" stroke="#000000" stroke-width="0.5pt" stroke-dasharray="none" points="607.522,480.600 607.522,463.979 "/>
      <polyline fill="none" stroke="#000000" stroke-width="0.5pt" stroke-dasharray="none" points="676.776,480.600 676.776,463.979 "/>
      <polyline fill="none" stroke="#000000" stroke-width="0.5pt" stroke-dasharray="none" points="746.030,480.600 746.030,463.979 "/>
      <polyline fill="none" stroke="#000000" stroke-width="0.5pt" stroke-dasharray="none" points="815.284,480.600 815.284,463.979 "/>
      <polyline fill="none" stroke="#000000" stroke-width="0.5pt" stroke-dasharray="none" points="884.537,480.600 884.537,463.979 "/>
      <polyline fill="none" stroke="#000000" stroke-width="0.5pt" stroke-dasharray="none" points="953.791,480.600 953.791,463.979 "/>
      <polyline fill="none" stroke="#000000" stroke-width="0.5pt" stroke-dasharray="none" points="1023.045,480.600 1023.045,463.979 "/>
      <polyline fill="none" stroke="#000000" stroke-width="0.5pt" stroke-dasharray="none" points="1092.299,480.600 1092.299,463.979 "/>
      <polyline fill="none" stroke="#000000" stroke-width="0.5pt" stroke-dasharray="none" points="1161.552,480.600 1161.552,463.979 "/>
      <polyline fill="none" stroke="#000000" stroke-width="0.5pt" stroke-dasharray="none" points="1230.806,480.600 1230.806,463.979 "/>
      <polyline fill="none" stroke="#000000" stroke-width="0.5pt" stroke-dasharray="none" points="1300.060,480.600 1300.060,463.979 "/>
      <polyline fill="none" stroke="#000000" stroke-width="0.5pt" stroke-dasharray="none" points="1369.313,480.600 1369.313,463.979 "/>
      <polyline fill="none" stroke="#000000" stroke-width="0.5pt" stroke-dasharray="none" points="1438.567,480.600 1438.567,463.979 "/>
      <polyline fill="none" stroke="#000000" stroke-width="0.5pt" stroke-dasharray="none" points="1507.821,480.600 1507.821,463.979 "/>
      <polyline fill="none" stroke="#000000" stroke-width="0.5pt" stroke-dasharray="none" points="1577.075,480.600 1577.075,463.979 "/>
      <polyline fill="none" stroke="#000000" stroke-width="0.5pt" stroke-dasharray="none" points="192.000,480.600 1854.090,480.600 "/>
  <g transform="translate(192.000,501.571)">
    <g transform="rotate(-0.0)">
      <text x="0.000" y="0.000" font-family="Helvetica" text-anchor="middle" font-size="10pt" font-style="oblique" fill="#000000" >0</text>
    </g>
  </g>
  <g transform="translate(261.254,501.571)">
    <g transform="rotate(-0.0)">
      <text x="0.000" y="0.000" font-family="Helvetica" text-anchor="middle" font-size="10pt" font-style="oblique" fill="#000000" >5</text>
    </g>
  </g>
  <g transform="translate(330.507,501.571)">
    <g transform="rotate(-0.0)">
      <text x="0.000" y="0.000" font-family="Helvetica" text-anchor="middle" font-size="10pt" font-style="oblique" fill="#000000" >10</text>
    </g>
  </g>
  <g transform="translate(399.761,501.571)">
    <g transform="rotate(-0.0)">
      <text x="0.000" y="0.000" font-family="Helvetica" text-anchor="middle" font-size="10pt" font-style="oblique" fill="#000000" >15</text>
    </g>
  </g>
  <g transform="translate(469.015,501.571)">
    <g transform="rotate(-0.0)">
      <text x="0.000" y="0.000" font-family="Helvetica" text-anchor="middle" font-size="10pt" font-style="oblique" fill="#000000" >20</text>
    </g>
  </g>
  <g transform="translate(538.269,501.571)">
    <g transform="rotate(-0.0)">
      <text x="0.000" y="0.000" font-family="Helvetica" text-anchor="middle" font-size="10pt" font-style="oblique" fill="#000000" >25</text>
    </g>
  </g>
  <g transform="translate(607.522,501.571)">
    <g transform="rotate(-0.0)">
      <text x="0.000" y="0.000" font-family="Helvetica" text-anchor="middle" font-size="10pt" font-style="oblique" fill="#000000" >30</text>
    </g>
  </g>
  <g transform="translate(676.776,501.571)">
    <g transform="rotate(-0.0)">
      <text x="0.000" y="0.000" font-family="Helvetica" text-anchor="middle" font-size="10pt" font-style="oblique" fill="#000000" >35</text>
    </g>
  </g>
  <g transform="translate(746.030,501.571)">
    <g transform="rotate(-0.0)">
      <text x="0.000" y="0.000" font-family="Helvetica" text-anchor="middle" font-size="10pt" font-style="oblique" fill="#000000" >40</text>
    </g>
  </g>
  <g transform="translate(815.284,501.571)">
    <g transform="rotate(-0.0)">
      <text x="0.000" y="0.000" font-family="Helvetica" text-anchor="middle" font-size="10pt" font-style="oblique" fill="#000000" >45</text>
    </g>
  </g>
  <g transform="translate(884.537,501.571)">
    <g transform="rotate(-0.0)">
      <text x="0.000" y="0.000" font-family="Helvetica" text-anchor="middle" font-size="10pt" font-style="oblique" fill="#000000" >50</text>
    </g>
  </g>
  <g transform="translate(953.791,501.571)">
    <g transform="rotate(-0.0)">
      <text x="0.000" y="0.000" font-family="Helvetica" text-anchor="middle" font-size="10pt" font-style="oblique" fill="#000000" >55</text>
    </g>
  </g>
  <g transform="translate(1023.045,501.571)">
    <g transform="rotate(-0.0)">
      <text x="0.000" y="0.000" font-family="Helvetica" text-anchor="middle" font-size="10pt" font-style="oblique" fill="#000000" >60</text>
    </g>
  </g>
  <g transform="translate(1092.299,501.571)">
    <g transform="rotate(-0.0)">
      <text x="0.000" y="0.000" font-family="Helvetica" text-anchor="middle" font-size="10pt" font-style="oblique" fill="#000000" >65</text>
    </g>
  </g>
  <g transform="translate(1161.552,501.571)">
    <g transform="rotate(-0.0)">
      <text x="0.000" y="0.000" font-family="Helvetica" text-anchor="middle" font-size="10pt" font-style="oblique" fill="#000000" >70</text>
    </g>
  </g>
  <g transform="translate(1230.806,501.571)">
    <g transform="rotate(-0.0)">
      <text x="0.000" y="0.000" font-family="Helvetica" text-anchor="middle" font-size="10pt" font-style="oblique" fill="#000000" >75</text>
    </g>
  </g>
  <g transform="translate(1300.060,501.571)">
    <g transform="rotate(-0.0)">
      <text x="0.000" y="0.000" font-family="Helvetica" text-anchor="middle" font-size="10pt" font-style="oblique" fill="#000000" >80</text>
    </g>
  </g>
  <g transform="translate(1369.313,501.571)">
    <g transform="rotate(-0.0)">
      <text x="0.000" y="0.000" font-family="Helvetica" text-anchor="middle" font-size="10pt" font-style="oblique" fill="#000000" >85</text>
    </g>
  </g>
  <g transform="translate(1438.567,501.571)">
    <g transform="rotate(-0.0)">
      <text x="0.000" y="0.000" font-family="Helvetica" text-anchor="middle" font-size="10pt" font-style="oblique" fill="#000000" >90</text>
    </g>
  </g>
  <g transform="translate(1507.821,501.571)">
    <g transform="rotate(-0.0)">
      <text x="0.000" y="0.000" font-family="Helvetica" text-anchor="middle" font-size="10pt" font-style="oblique" fill="#000000" >95</text>
    </g>
  </g>
  <g transform="translate(1577.075,501.571)">
    <g transform="rotate(-0.0)">
      <text x="0.000" y="0.000" font-family="Helvetica" text-anchor="middle" font-size="10pt" font-style="oblique" fill="#000000" >100</text>
    </g>
  </g>
      <polyline fill="none" stroke="#000000" stroke-width="0.5pt" stroke-dasharray="none" points="192.000,480.600 208.621,480.600 "/>
      <polyline fill="none" stroke="#000000" stroke-width="0.5pt" stroke-dasharray="none" points="192.000,417.729 208.621,417.729 "/>
      <polyline fill="none" stroke="#000000" stroke-width="0.5pt" stroke-dasharray="none" points="192.000,354.857 208.621,354.857 "/>
      <polyline fill="none" stroke="#000000" stroke-width="0.5pt" stroke-dasharray="none" points="192.000,291.986 208.621,291.986 "/>
      <polyline fill="none" stroke="#000000" stroke-width="0.5pt" stroke-dasharray="none" points="192.000,229.114 208.621,229.114 "/>
      <polyline fill="none" stroke="#000000" stroke-width="0.5pt" stroke-dasharray="none" points="192.000,166.243 208.621,166.243 "/>
      <polyline fill="none" stroke="#000000" stroke-width="0.5pt" stroke-dasharray="none" points="192.000,103.371 208.621,103.371 "/>
      <polyline fill="none" stroke="#000000" stroke-width="0.5pt" stroke-dasharray="none" points="192.000,40.500 208.621,40.500 "/>
      <polyline fill="none" stroke="#000000" stroke-width="0.5pt" stroke-dasharray="none" points="192.000,480.600 192.000,40.500 "/>
  <g transform="translate(158.758,485.241)">
    <g transform="rotate(-0.0)">
      <text x="0.000" y="0.000" font-family="Helvetica" text-anchor="end" font-size="10pt" font-style="oblique" fill="#000000" >0</text>
    </g>
  </g>
  <g transform="translate(158.758,422.369)">
    <g transform="rotate(-0.0)">
      <text x="0.000" y="0.000" font-family="Helvetica" text-anchor="end" font-size="10pt" font-style="oblique" fill="#000000" >500</text>
    </g>
  </g>
  <g transform="translate(158.758,359.498)">
    <g transform="rotate(-0.0)">
      <text x="0.000" y="0.000" font-family="Helvetica" text-anchor="end" font-size="10pt" font-style="oblique" fill="#000000" >1000</text>
    </g>
  </g>
  <g transform="translate(158.758,296.626)">
    <g transform="rotate(-0.0)">
      <text x="0.000" y="0.000" font-family="Helvetica" text-anchor="end" font-size="10pt" font-style="oblique" fill="#000000" >1500</text>
    </g>
  </g>
  <g transform="translate(158.758,233.755)">
    <g transform="rotate(-0.0)">
      <text x="0.000" y="0.000" font-family="Helvetica" text-anchor="end" font-size="10pt" font-style="oblique" fill="#000000" >2000</text>
    </g>
  </g>
  <g transform="translate(158.758,170.883)">
    <g transform="rotate(-0.0)">
      <text x="0.000" y="0.000" font-family="Helvetica" text-anchor="end" font-size="10pt" font-style="oblique" fill="#000000" >2500</text>
    </g>
  </g>
  <g transform="translate(158.758,108.012)">
    <g transform="rotate(-0.0)">
      <text x="0.000" y="0.000" font-family="Helvetica" text-anchor="end" font-size="10pt" font-style="oblique" fill="#000000" >3000</text>
    </g>
  </g>
  <g transform="translate(158.758,45.141)">
    <g transform="rotate(-0.0)">
      <text x="0.000" y="0.000" font-family="Helvetica" text-anchor="end" font-size="10pt" font-style="oblique" fill="#000000" >3500</text>
    </g>
  </g>
      <polyline fill="none" stroke="#000000" stroke-width="0.5pt" stroke-dasharray="none" points="192.000,480.600 192.000,476.199 "/>
      <polyline fill="none" stroke="#000000" stroke-width="0.5pt" stroke-dasharray="none" points="192.000,480.600 192.000,476.199 "/>
      <polyline fill="none" stroke="#000000" stroke-width="0.5pt" stroke-dasharray="none" points="192.000,480.600 192.000,476.199 "/>
      <polyline fill="none" stroke="#000000" stroke-width="0.5pt" stroke-dasharray="none" points="192.000,480.600 192.000,480.600 "/>
    </g>
  </g>
  <g id ="ID000011">
  <clipPath id="ID000012">
    <rect x="1632.065" y="50.625" width="183.750" height="45.000"/>
  </clipPath>
      <polygon fill="#ffffff" fill-opacity="1.00" stroke="none" stroke-width="0.5pt" stroke-opacity="1.00" stroke-dasharray="none" points="1632.065,95.625 1815.815,95.625 1815.815,50.625 1632.065,50.625 "/>
      <polygon fill="#ffffff" fill-opacity="1.00" stroke="none" stroke-width="0.5pt" stroke-opacity="1.00" stroke-dasharray="none" points="1632.065,50.625 1815.815,50.625 1815.815,50.625 1632.065,50.625 "/>
      <polygon fill="#ffffff" fill-opacity="1.00" stroke="none" stroke-width="0.5pt" stroke-opacity="1.00" stroke-dasharray="none" points="1632.065,95.625 1632.065,95.625 1632.065,50.625 1632.065,50.625 "/>
    <g>
<g id="ID000013" >
  <g transform="translate(1681.284,68.344)">
    <g transform="rotate(-0.0)">
      <text x="0.000" y="0.000" font-family="Helvetica" text-anchor="start" font-size="11pt" font-style="oblique" fill="#000000" >Mean Power Profile</text>
    </g>
  </g>
</g>
<g id="ID000014" clip-path="url(#ID000012)" >
<g id="ID000015" clip-path="url(#ID000012)" >
      <polygon fill="#3366ff" fill-opacity="1.00" stroke="#000000" stroke-width="0.5pt" stroke-opacity="0.00" stroke-dasharray="none" points="1639.565,70.531 1639.565,55.406 1677.065,55.406 1677.065,70.531 1639.565,70.531 "/>
</g>
</g><g id="ID000016" >
  <g transform="translate(1681.284,89.906)">
    <g transform="rotate(-0.0)">
      <text x="0.000" y="0.000" font-family="Helvetica" text-anchor="start" font-size="11pt" font-style="oblique" fill="#000000" >Peak Power Profile</text>
    </g>
  </g>
</g>
<g id="ID000017" clip-path="url(#ID000012)" >
<g id="ID000018" clip-path="url(#ID000012)" >
      <polygon fill="#ff0000" fill-opacity="1.00" stroke="#000000" stroke-width="0.5pt" stroke-opacity="0.00" stroke-dasharray="none" points="1639.565,90.844 1639.565,75.719 1677.065,75.719 1677.065,90.844 1639.565,90.844 "/>
</g>
</g><g id="ID000019" >
</g>
<g id="ID000020" >
</g>
<g id="ID000021" >
</g>
    </g>
    <g>
      <polyline fill="none" stroke="#000000" stroke-width="0.5pt" stroke-dasharray="none" points="1632.065,95.625 1815.815,95.625 "/>
      <polyline fill="none" stroke="#000000" stroke-width="0.5pt" stroke-dasharray="none" points="1632.065,50.625 1815.815,50.625 "/>
      <polyline fill="none" stroke="#000000" stroke-width="0.5pt" stroke-dasharray="none" points="1632.065,95.625 1632.065,50.625 "/>
      <polyline fill="none" stroke="#000000" stroke-width="0.5pt" stroke-dasharray="none" points="1815.815,95.625 1815.815,50.625 "/>
      <polyline fill="none" stroke="#000000" stroke-width="0.5pt" stroke-dasharray="none" points="1632.065,95.625 1632.065,95.175 "/>
      <polyline fill="none" stroke="#000000" stroke-width="0.5pt" stroke-dasharray="none" points="1632.065,95.625 1632.065,95.625 "/>
    </g>
  </g>
  </g>
</svg>
