<?xml version="1.0" encoding="utf-8" standalone="no"?><!DOCTYPE svg PUBLIC "-//W3C//DTD SVG 1.1//EN" "http://www.w3.org/Graphics/SVG/1.1/DTD/svg11.dtd">
<svg preserveAspectRatio="xMinYMin meet" width="100%" height="100%" viewBox="0 0 1785.000 509.063"  version="1.1" xmlns="http://www.w3.org/2000/svg" xmlns:xlink="http://www.w3.org/1999/xlink">
  <desc>Matlab Figure Converted by PLOT2SVG written by Juerg Schwizer</desc>
  <g id="topgroup">
  <rect x="0" y="0" width="1785.000" height="509.063" fill="#ffffff" stroke="none" />
  <g id ="ID000000">
  <clipPath id="ID000001">
    <rect x="151.858" y="41.275" width="1450.246" height="390.293"/>
  </clipPath>
      <polygon fill="#ffffff" fill-opacity="1.00" stroke="none" stroke-width="0.5pt" stroke-opacity="1.00" stroke-dasharray="none" points="151.858,431.568 1602.104,431.568 1602.104,41.275 151.858,41.275 "/>
      <polygon fill="#ffffff" fill-opacity="1.00" stroke="none" stroke-width="0.5pt" stroke-opacity="1.00" stroke-dasharray="none" points="151.858,41.275 1602.104,41.275 1602.104,41.275 151.858,41.275 "/>
      <polygon fill="#ffffff" fill-opacity="1.00" stroke="none" stroke-width="0.5pt" stroke-opacity="1.00" stroke-dasharray="none" points="151.858,431.568 151.858,431.568 151.858,41.275 151.858,41.275 "/>
      <polyline fill="none" stroke="#000000" stroke-width="0.5pt" stroke-dasharray="2.0,2.0" points="151.858,431.568 1602.104,431.568 "/>
      <polyline fill="none" stroke="#000000" stroke-width="0.5pt" stroke-dasharray="2.0,2.0" points="151.858,366.519 1602.104,366.519 "/>
      <polyline fill="none" stroke="#000000" stroke-width="0.5pt" stroke-dasharray="2.0,2.0" points="151.858,301.470 1602.104,301.470 "/>
      <polyline fill="none" stroke="#000000" stroke-width="0.5pt" stroke-dasharray="2.0,2.0" points="151.858,236.422 1602.104,236.422 "/>
      <polyline fill="none" stroke="#000000" stroke-width="0.5pt" stroke-dasharray="2.0,2.0" points="151.858,171.373 1602.104,171.373 "/>
      <polyline fill="none" stroke="#000000" stroke-width="0.5pt" stroke-dasharray="2.0,2.0" points="151.858,106.324 1602.104,106.324 "/>
      <polyline fill="none" stroke="#000000" stroke-width="0.5pt" stroke-dasharray="2.0,2.0" points="151.858,431.568 151.858,431.568 "/>
      <polyline fill="none" stroke="#000000" stroke-width="0.5pt" stroke-dasharray="2.0,2.0" points="151.858,366.519 151.858,366.519 "/>
      <polyline fill="none" stroke="#000000" stroke-width="0.5pt" stroke-dasharray="2.0,2.0" points="151.858,301.470 151.858,301.470 "/>
      <polyline fill="none" stroke="#000000" stroke-width="0.5pt" stroke-dasharray="2.0,2.0" points="151.858,236.422 151.858,236.422 "/>
      <polyline fill="none" stroke="#000000" stroke-width="0.5pt" stroke-dasharray="2.0,2.0" points="151.858,171.373 151.858,171.373 "/>
      <polyline fill="none" stroke="#000000" stroke-width="0.5pt" stroke-dasharray="2.0,2.0" points="151.858,106.324 151.858,106.324 "/>
    <g>
<g id="ID000002" clip-path="url(#ID000001)" >
<g id="ID000003" clip-path="url(#ID000001)" >
      <polygon fill="#ff0000" fill-opacity="1.00" stroke="#cccccc" stroke-width="0.5pt" stroke-opacity="1.00" stroke-dasharray="none" points="153.369,431.568 153.369,124.930 210.774,124.930 210.774,431.568 "/>
      <polygon fill="#ffff00" fill-opacity="1.00" stroke="#cccccc" stroke-width="0.5pt" stroke-opacity="1.00" stroke-dasharray="none" points="213.796,431.568 213.796,286.981 271.201,286.981 271.201,431.568 "/>
      <polygon fill="#00ff00" fill-opacity="1.00" stroke="#cccccc" stroke-width="0.5pt" stroke-opacity="1.00" stroke-dasharray="none" points="274.223,431.568 274.223,292.609 331.628,292.609 331.628,431.568 "/>
      <polygon fill="#ffff00" fill-opacity="1.00" stroke="#cccccc" stroke-width="0.5pt" stroke-opacity="1.00" stroke-dasharray="none" points="334.650,431.568 334.650,226.920 392.055,226.920 392.055,431.568 "/>
      <polygon fill="#ffff00" fill-opacity="1.00" stroke="#cccccc" stroke-width="0.5pt" stroke-opacity="1.00" stroke-dasharray="none" points="395.077,431.568 395.077,281.334 452.482,281.334 452.482,431.568 "/>
      <polygon fill="#ff0000" fill-opacity="1.00" stroke="#cccccc" stroke-width="0.5pt" stroke-opacity="1.00" stroke-dasharray="none" points="455.503,431.568 455.503,67.146 512.909,67.146 512.909,431.568 "/>
      <polygon fill="#ff0000" fill-opacity="1.00" stroke="#cccccc" stroke-width="0.5pt" stroke-opacity="1.00" stroke-dasharray="none" points="515.930,431.568 515.930,81.188 573.336,81.188 573.336,431.568 "/>
      <polygon fill="#ffff00" fill-opacity="1.00" stroke="#cccccc" stroke-width="0.5pt" stroke-opacity="1.00" stroke-dasharray="none" points="576.357,431.568 576.357,198.512 633.763,198.512 633.763,431.568 "/>
      <polygon fill="#ffff00" fill-opacity="1.00" stroke="#cccccc" stroke-width="0.5pt" stroke-opacity="1.00" stroke-dasharray="none" points="636.784,431.568 636.784,257.441 694.190,257.441 694.190,431.568 "/>
      <polygon fill="#ffff00" fill-opacity="1.00" stroke="#cccccc" stroke-width="0.5pt" stroke-opacity="1.00" stroke-dasharray="none" points="697.211,431.568 697.211,189.469 754.617,189.469 754.617,431.568 "/>
      <polygon fill="#ffff00" fill-opacity="1.00" stroke="#cccccc" stroke-width="0.5pt" stroke-opacity="1.00" stroke-dasharray="none" points="757.638,431.568 757.638,193.173 815.044,193.173 815.044,431.568 "/>
      <polygon fill="#ff0000" fill-opacity="1.00" stroke="#cccccc" stroke-width="0.5pt" stroke-opacity="1.00" stroke-dasharray="none" points="818.065,431.568 818.065,111.850 875.470,111.850 875.470,431.568 "/>
      <polygon fill="#ffff00" fill-opacity="1.00" stroke="#cccccc" stroke-width="0.5pt" stroke-opacity="1.00" stroke-dasharray="none" points="878.492,431.568 878.492,195.708 935.897,195.708 935.897,431.568 "/>
      <polygon fill="#ff0000" fill-opacity="1.00" stroke="#cccccc" stroke-width="0.5pt" stroke-opacity="1.00" stroke-dasharray="none" points="938.919,431.568 938.919,53.815 996.324,53.815 996.324,431.568 "/>
      <polygon fill="#ff0000" fill-opacity="1.00" stroke="#cccccc" stroke-width="0.5pt" stroke-opacity="1.00" stroke-dasharray="none" points="999.346,431.568 999.346,64.176 1056.751,64.176 1056.751,431.568 "/>
      <polygon fill="#ff0000" fill-opacity="1.00" stroke="#cccccc" stroke-width="0.5pt" stroke-opacity="1.00" stroke-dasharray="none" points="1059.773,431.568 1059.773,53.917 1117.178,53.917 1117.178,431.568 "/>
      <polygon fill="#ffff00" fill-opacity="1.00" stroke="#cccccc" stroke-width="0.5pt" stroke-opacity="1.00" stroke-dasharray="none" points="1120.199,431.568 1120.199,211.443 1177.605,211.443 1177.605,431.568 "/>
      <polygon fill="#ffff00" fill-opacity="1.00" stroke="#cccccc" stroke-width="0.5pt" stroke-opacity="1.00" stroke-dasharray="none" points="1180.626,431.568 1180.626,225.950 1238.032,225.950 1238.032,431.568 "/>
      <polygon fill="#ff0000" fill-opacity="1.00" stroke="#cccccc" stroke-width="0.5pt" stroke-opacity="1.00" stroke-dasharray="none" points="1241.053,431.568 1241.053,70.755 1298.459,70.755 1298.459,431.568 "/>
      <polygon fill="#ffff00" fill-opacity="1.00" stroke="#cccccc" stroke-width="0.5pt" stroke-opacity="1.00" stroke-dasharray="none" points="1301.480,431.568 1301.480,246.821 1358.886,246.821 1358.886,431.568 "/>
      <polygon fill="#ffff00" fill-opacity="1.00" stroke="#cccccc" stroke-width="0.5pt" stroke-opacity="1.00" stroke-dasharray="none" points="1361.907,431.568 1361.907,267.417 1419.313,267.417 1419.313,431.568 "/>
      <polygon fill="#ff0000" fill-opacity="1.00" stroke="#cccccc" stroke-width="0.5pt" stroke-opacity="1.00" stroke-dasharray="none" points="1422.334,431.568 1422.334,166.035 1479.740,166.035 1479.740,431.568 "/>
      <polygon fill="#ff0000" fill-opacity="1.00" stroke="#cccccc" stroke-width="0.5pt" stroke-opacity="1.00" stroke-dasharray="none" points="1482.761,431.568 1482.761,65.873 1540.167,65.873 1540.167,431.568 "/>
      <polygon fill="#ffff00" fill-opacity="1.00" stroke="#cccccc" stroke-width="0.5pt" stroke-opacity="1.00" stroke-dasharray="none" points="1543.188,431.568 1543.188,196.734 1600.593,196.734 1600.593,431.568 "/>
</g>
</g><g id="ID000004" clip-path="url(#ID000001)" >
      <polyline fill="none" stroke="#000000" stroke-width="0.5pt" stroke-dasharray="none" points="151.858,431.568 1602.104,431.568 "/>
<g>
</g>
</g>
<g id="ID000005" >
  <g transform="translate(876.044,467.866)">
    <g transform="rotate(-0.0)">
      <text x="0.000" y="0.000" font-family="Helvetica" text-anchor="middle" font-size="15pt" font-style="oblique" fill="#142b8c" >Time of day (24h)</text>
    </g>
  </g>
</g>
<g id="ID000006" >
  <g transform="translate(121.391,236.891)">
    <g transform="rotate(-90.0)">
      <text x="0.000" y="0.000" font-family="Helvetica" text-anchor="middle" font-size="15pt" font-style="oblique" fill="#142b8c" >Eruos</text>
    </g>
  </g>
</g>
<g id="ID000007" >
  <g transform="translate(876.981,30.490)">
    <g transform="rotate(-0.0)">
      <text x="0.000" y="0.000" font-family="Helvetica" text-anchor="middle" font-size="19pt" font-style="oblique" fill="#142b8c" >&quot;Next Day&quot; Dynamic Tariff</text>
    </g>
  </g>
</g>
    </g>
    <g>
      <polyline fill="none" stroke="#000000" stroke-width="0.5pt" stroke-dasharray="none" points="151.858,431.568 151.858,417.066 "/>
      <polyline fill="none" stroke="#000000" stroke-width="0.5pt" stroke-dasharray="none" points="212.285,431.568 212.285,417.066 "/>
      <polyline fill="none" stroke="#000000" stroke-width="0.5pt" stroke-dasharray="none" points="272.712,431.568 272.712,417.066 "/>
      <polyline fill="none" stroke="#000000" stroke-width="0.5pt" stroke-dasharray="none" points="333.139,431.568 333.139,417.066 "/>
      <polyline fill="none" stroke="#000000" stroke-width="0.5pt" stroke-dasharray="none" points="393.566,431.568 393.566,417.066 "/>
      <polyline fill="none" stroke="#000000" stroke-width="0.5pt" stroke-dasharray="none" points="453.993,431.568 453.993,417.066 "/>
      <polyline fill="none" stroke="#000000" stroke-width="0.5pt" stroke-dasharray="none" points="514.420,431.568 514.420,417.066 "/>
      <polyline fill="none" stroke="#000000" stroke-width="0.5pt" stroke-dasharray="none" points="574.847,431.568 574.847,417.066 "/>
      <polyline fill="none" stroke="#000000" stroke-width="0.5pt" stroke-dasharray="none" points="635.274,431.568 635.274,417.066 "/>
      <polyline fill="none" stroke="#000000" stroke-width="0.5pt" stroke-dasharray="none" points="695.700,431.568 695.700,417.066 "/>
      <polyline fill="none" stroke="#000000" stroke-width="0.5pt" stroke-dasharray="none" points="756.127,431.568 756.127,417.066 "/>
      <polyline fill="none" stroke="#000000" stroke-width="0.5pt" stroke-dasharray="none" points="816.554,431.568 816.554,417.066 "/>
      <polyline fill="none" stroke="#000000" stroke-width="0.5pt" stroke-dasharray="none" points="876.981,431.568 876.981,417.066 "/>
      <polyline fill="none" stroke="#000000" stroke-width="0.5pt" stroke-dasharray="none" points="937.408,431.568 937.408,417.066 "/>
      <polyline fill="none" stroke="#000000" stroke-width="0.5pt" stroke-dasharray="none" points="997.835,431.568 997.835,417.066 "/>
      <polyline fill="none" stroke="#000000" stroke-width="0.5pt" stroke-dasharray="none" points="1058.262,431.568 1058.262,417.066 "/>
      <polyline fill="none" stroke="#000000" stroke-width="0.5pt" stroke-dasharray="none" points="1118.689,431.568 1118.689,417.066 "/>
      <polyline fill="none" stroke="#000000" stroke-width="0.5pt" stroke-dasharray="none" points="1179.116,431.568 1179.116,417.066 "/>
      <polyline fill="none" stroke="#000000" stroke-width="0.5pt" stroke-dasharray="none" points="1239.543,431.568 1239.543,417.066 "/>
      <polyline fill="none" stroke="#000000" stroke-width="0.5pt" stroke-dasharray="none" points="1299.970,431.568 1299.970,417.066 "/>
      <polyline fill="none" stroke="#000000" stroke-width="0.5pt" stroke-dasharray="none" points="1360.396,431.568 1360.396,417.066 "/>
      <polyline fill="none" stroke="#000000" stroke-width="0.5pt" stroke-dasharray="none" points="1420.823,431.568 1420.823,417.066 "/>
      <polyline fill="none" stroke="#000000" stroke-width="0.5pt" stroke-dasharray="none" points="1481.250,431.568 1481.250,417.066 "/>
      <polyline fill="none" stroke="#000000" stroke-width="0.5pt" stroke-dasharray="none" points="1541.677,431.568 1541.677,417.066 "/>
      <polyline fill="none" stroke="#000000" stroke-width="0.5pt" stroke-dasharray="none" points="1602.104,431.568 1602.104,417.066 "/>
      <polyline fill="none" stroke="#000000" stroke-width="0.5pt" stroke-dasharray="none" points="151.858,431.568 1602.104,431.568 "/>
  <g transform="translate(151.858,450.436)">
    <g transform="rotate(-0.0)">
      <text x="0.000" y="0.000" font-family="Helvetica" text-anchor="middle" font-size="9pt" font-style="oblique" fill="#000000" >00:00</text>
    </g>
  </g>
  <g transform="translate(212.285,450.436)">
    <g transform="rotate(-0.0)">
      <text x="0.000" y="0.000" font-family="Helvetica" text-anchor="middle" font-size="9pt" font-style="oblique" fill="#000000" >01:00</text>
    </g>
  </g>
  <g transform="translate(272.712,450.436)">
    <g transform="rotate(-0.0)">
      <text x="0.000" y="0.000" font-family="Helvetica" text-anchor="middle" font-size="9pt" font-style="oblique" fill="#000000" >02:00</text>
    </g>
  </g>
  <g transform="translate(333.139,450.436)">
    <g transform="rotate(-0.0)">
      <text x="0.000" y="0.000" font-family="Helvetica" text-anchor="middle" font-size="9pt" font-style="oblique" fill="#000000" >03:00</text>
    </g>
  </g>
  <g transform="translate(393.566,450.436)">
    <g transform="rotate(-0.0)">
      <text x="0.000" y="0.000" font-family="Helvetica" text-anchor="middle" font-size="9pt" font-style="oblique" fill="#000000" >04:00</text>
    </g>
  </g>
  <g transform="translate(453.993,450.436)">
    <g transform="rotate(-0.0)">
      <text x="0.000" y="0.000" font-family="Helvetica" text-anchor="middle" font-size="9pt" font-style="oblique" fill="#000000" >05:00</text>
    </g>
  </g>
  <g transform="translate(514.420,450.436)">
    <g transform="rotate(-0.0)">
      <text x="0.000" y="0.000" font-family="Helvetica" text-anchor="middle" font-size="9pt" font-style="oblique" fill="#000000" >06:00</text>
    </g>
  </g>
  <g transform="translate(574.847,450.436)">
    <g transform="rotate(-0.0)">
      <text x="0.000" y="0.000" font-family="Helvetica" text-anchor="middle" font-size="9pt" font-style="oblique" fill="#000000" >07:00</text>
    </g>
  </g>
  <g transform="translate(635.274,450.436)">
    <g transform="rotate(-0.0)">
      <text x="0.000" y="0.000" font-family="Helvetica" text-anchor="middle" font-size="9pt" font-style="oblique" fill="#000000" >08:00</text>
    </g>
  </g>
  <g transform="translate(695.700,450.436)">
    <g transform="rotate(-0.0)">
      <text x="0.000" y="0.000" font-family="Helvetica" text-anchor="middle" font-size="9pt" font-style="oblique" fill="#000000" >09:00</text>
    </g>
  </g>
  <g transform="translate(756.127,450.436)">
    <g transform="rotate(-0.0)">
      <text x="0.000" y="0.000" font-family="Helvetica" text-anchor="middle" font-size="9pt" font-style="oblique" fill="#000000" >10:00</text>
    </g>
  </g>
  <g transform="translate(816.554,450.436)">
    <g transform="rotate(-0.0)">
      <text x="0.000" y="0.000" font-family="Helvetica" text-anchor="middle" font-size="9pt" font-style="oblique" fill="#000000" >11:00</text>
    </g>
  </g>
  <g transform="translate(876.981,450.436)">
    <g transform="rotate(-0.0)">
      <text x="0.000" y="0.000" font-family="Helvetica" text-anchor="middle" font-size="9pt" font-style="oblique" fill="#000000" >12:00</text>
    </g>
  </g>
  <g transform="translate(937.408,450.436)">
    <g transform="rotate(-0.0)">
      <text x="0.000" y="0.000" font-family="Helvetica" text-anchor="middle" font-size="9pt" font-style="oblique" fill="#000000" >13:00</text>
    </g>
  </g>
  <g transform="translate(997.835,450.436)">
    <g transform="rotate(-0.0)">
      <text x="0.000" y="0.000" font-family="Helvetica" text-anchor="middle" font-size="9pt" font-style="oblique" fill="#000000" >14:00</text>
    </g>
  </g>
  <g transform="translate(1058.262,450.436)">
    <g transform="rotate(-0.0)">
      <text x="0.000" y="0.000" font-family="Helvetica" text-anchor="middle" font-size="9pt" font-style="oblique" fill="#000000" >15:00</text>
    </g>
  </g>
  <g transform="translate(1118.689,450.436)">
    <g transform="rotate(-0.0)">
      <text x="0.000" y="0.000" font-family="Helvetica" text-anchor="middle" font-size="9pt" font-style="oblique" fill="#000000" >16:00</text>
    </g>
  </g>
  <g transform="translate(1179.116,450.436)">
    <g transform="rotate(-0.0)">
      <text x="0.000" y="0.000" font-family="Helvetica" text-anchor="middle" font-size="9pt" font-style="oblique" fill="#000000" >17:00</text>
    </g>
  </g>
  <g transform="translate(1239.543,450.436)">
    <g transform="rotate(-0.0)">
      <text x="0.000" y="0.000" font-family="Helvetica" text-anchor="middle" font-size="9pt" font-style="oblique" fill="#000000" >18:00</text>
    </g>
  </g>
  <g transform="translate(1299.970,450.436)">
    <g transform="rotate(-0.0)">
      <text x="0.000" y="0.000" font-family="Helvetica" text-anchor="middle" font-size="9pt" font-style="oblique" fill="#000000" >19:00</text>
    </g>
  </g>
  <g transform="translate(1360.396,450.436)">
    <g transform="rotate(-0.0)">
      <text x="0.000" y="0.000" font-family="Helvetica" text-anchor="middle" font-size="9pt" font-style="oblique" fill="#000000" >20:00</text>
    </g>
  </g>
  <g transform="translate(1420.823,450.436)">
    <g transform="rotate(-0.0)">
      <text x="0.000" y="0.000" font-family="Helvetica" text-anchor="middle" font-size="9pt" font-style="oblique" fill="#000000" >21:00</text>
    </g>
  </g>
  <g transform="translate(1481.250,450.436)">
    <g transform="rotate(-0.0)">
      <text x="0.000" y="0.000" font-family="Helvetica" text-anchor="middle" font-size="9pt" font-style="oblique" fill="#000000" >22:00</text>
    </g>
  </g>
  <g transform="translate(1541.677,450.436)">
    <g transform="rotate(-0.0)">
      <text x="0.000" y="0.000" font-family="Helvetica" text-anchor="middle" font-size="9pt" font-style="oblique" fill="#000000" >23:00</text>
    </g>
  </g>
  <g transform="translate(1602.104,450.436)">
    <g transform="rotate(-0.0)">
      <text x="0.000" y="0.000" font-family="Helvetica" text-anchor="middle" font-size="9pt" font-style="oblique" fill="#000000" >24:00</text>
    </g>
  </g>
      <polyline fill="none" stroke="#000000" stroke-width="0.5pt" stroke-dasharray="none" points="151.858,431.568 166.361,431.568 "/>
      <polyline fill="none" stroke="#000000" stroke-width="0.5pt" stroke-dasharray="none" points="151.858,366.519 166.361,366.519 "/>
      <polyline fill="none" stroke="#000000" stroke-width="0.5pt" stroke-dasharray="none" points="151.858,301.470 166.361,301.470 "/>
      <polyline fill="none" stroke="#000000" stroke-width="0.5pt" stroke-dasharray="none" points="151.858,236.422 166.361,236.422 "/>
      <polyline fill="none" stroke="#000000" stroke-width="0.5pt" stroke-dasharray="none" points="151.858,171.373 166.361,171.373 "/>
      <polyline fill="none" stroke="#000000" stroke-width="0.5pt" stroke-dasharray="none" points="151.858,106.324 166.361,106.324 "/>
      <polyline fill="none" stroke="#000000" stroke-width="0.5pt" stroke-dasharray="none" points="151.858,431.568 151.858,41.275 "/>
  <g transform="translate(122.853,435.787)">
    <g transform="rotate(-0.0)">
      <text x="0.000" y="0.000" font-family="Helvetica" text-anchor="end" font-size="9pt" font-style="oblique" fill="#000000" >0</text>
    </g>
  </g>
  <g transform="translate(122.853,370.738)">
    <g transform="rotate(-0.0)">
      <text x="0.000" y="0.000" font-family="Helvetica" text-anchor="end" font-size="9pt" font-style="oblique" fill="#000000" >0.2</text>
    </g>
  </g>
  <g transform="translate(122.853,305.689)">
    <g transform="rotate(-0.0)">
      <text x="0.000" y="0.000" font-family="Helvetica" text-anchor="end" font-size="9pt" font-style="oblique" fill="#000000" >0.4</text>
    </g>
  </g>
  <g transform="translate(122.853,240.640)">
    <g transform="rotate(-0.0)">
      <text x="0.000" y="0.000" font-family="Helvetica" text-anchor="end" font-size="9pt" font-style="oblique" fill="#000000" >0.6</text>
    </g>
  </g>
  <g transform="translate(122.853,175.592)">
    <g transform="rotate(-0.0)">
      <text x="0.000" y="0.000" font-family="Helvetica" text-anchor="end" font-size="9pt" font-style="oblique" fill="#000000" >0.8</text>
    </g>
  </g>
  <g transform="translate(122.853,110.543)">
    <g transform="rotate(-0.0)">
      <text x="0.000" y="0.000" font-family="Helvetica" text-anchor="end" font-size="9pt" font-style="oblique" fill="#000000" >1</text>
    </g>
  </g>
      <polyline fill="none" stroke="#000000" stroke-width="0.5pt" stroke-dasharray="none" points="151.858,431.568 151.858,427.665 "/>
      <polyline fill="none" stroke="#000000" stroke-width="0.5pt" stroke-dasharray="none" points="151.858,431.568 151.858,427.665 "/>
      <polyline fill="none" stroke="#000000" stroke-width="0.5pt" stroke-dasharray="none" points="151.858,431.568 151.858,427.665 "/>
      <polyline fill="none" stroke="#000000" stroke-width="0.5pt" stroke-dasharray="none" points="151.858,431.568 151.858,431.568 "/>
    </g>
  </g>
  </g>
</svg>
