<?xml version="1.0" encoding="utf-8" standalone="no"?><!DOCTYPE svg PUBLIC "-//W3C//DTD SVG 1.1//EN" "http://www.w3.org/Graphics/SVG/1.1/DTD/svg11.dtd">
<svg preserveAspectRatio="xMinYMin meet" width="100%" height="100%" viewBox="0 0 1920.000 540.000"  version="1.1" xmlns="http://www.w3.org/2000/svg" xmlns:xlink="http://www.w3.org/1999/xlink">
  <desc>Matlab Figure Converted by PLOT2SVG written by Juerg Schwizer</desc>
  <g id="topgroup">
  <rect x="0" y="0" width="1920.000" height="540.000" fill="#ffffff" stroke="none" />
  <g id ="ID000000">
  <clipPath id="ID000001">
    <rect x="163.343" y="43.784" width="1559.928" height="414.012"/>
  </clipPath>
      <polygon fill="#ffffff" fill-opacity="1.00" stroke="none" stroke-width="0.5pt" stroke-opacity="1.00" stroke-dasharray="none" points="163.343,457.796 1723.272,457.796 1723.272,43.784 163.343,43.784 "/>
      <polygon fill="#ffffff" fill-opacity="1.00" stroke="none" stroke-width="0.5pt" stroke-opacity="1.00" stroke-dasharray="none" points="163.343,43.784 1723.272,43.784 1723.272,43.784 163.343,43.784 "/>
      <polygon fill="#ffffff" fill-opacity="1.00" stroke="none" stroke-width="0.5pt" stroke-opacity="1.00" stroke-dasharray="none" points="163.343,457.796 163.343,457.796 163.343,43.784 163.343,43.784 "/>
      <polyline fill="none" stroke="#000000" stroke-width="0.5pt" stroke-dasharray="2.0,2.0" points="163.343,457.796 1723.272,457.796 "/>
      <polyline fill="none" stroke="#000000" stroke-width="0.5pt" stroke-dasharray="2.0,2.0" points="163.343,388.794 1723.272,388.794 "/>
      <polyline fill="none" stroke="#000000" stroke-width="0.5pt" stroke-dasharray="2.0,2.0" points="163.343,319.792 1723.272,319.792 "/>
      <polyline fill="none" stroke="#000000" stroke-width="0.5pt" stroke-dasharray="2.0,2.0" points="163.343,250.790 1723.272,250.790 "/>
      <polyline fill="none" stroke="#000000" stroke-width="0.5pt" stroke-dasharray="2.0,2.0" points="163.343,181.788 1723.272,181.788 "/>
      <polyline fill="none" stroke="#000000" stroke-width="0.5pt" stroke-dasharray="2.0,2.0" points="163.343,112.786 1723.272,112.786 "/>
      <polyline fill="none" stroke="#000000" stroke-width="0.5pt" stroke-dasharray="2.0,2.0" points="163.343,457.796 163.343,457.796 "/>
      <polyline fill="none" stroke="#000000" stroke-width="0.5pt" stroke-dasharray="2.0,2.0" points="163.343,388.794 163.343,388.794 "/>
      <polyline fill="none" stroke="#000000" stroke-width="0.5pt" stroke-dasharray="2.0,2.0" points="163.343,319.792 163.343,319.792 "/>
      <polyline fill="none" stroke="#000000" stroke-width="0.5pt" stroke-dasharray="2.0,2.0" points="163.343,250.790 163.343,250.790 "/>
      <polyline fill="none" stroke="#000000" stroke-width="0.5pt" stroke-dasharray="2.0,2.0" points="163.343,181.788 163.343,181.788 "/>
      <polyline fill="none" stroke="#000000" stroke-width="0.5pt" stroke-dasharray="2.0,2.0" points="163.343,112.786 163.343,112.786 "/>
    <g>
<g id="ID000002" clip-path="url(#ID000001)" >
<g id="ID000003" clip-path="url(#ID000001)" >
      <polygon fill="#ff0000" fill-opacity="1.00" stroke="#cccccc" stroke-width="0.5pt" stroke-opacity="1.00" stroke-dasharray="none" points="164.968,457.796 164.968,96.445 226.715,96.445 226.715,457.796 "/>
      <polygon fill="#ff0000" fill-opacity="1.00" stroke="#cccccc" stroke-width="0.5pt" stroke-opacity="1.00" stroke-dasharray="none" points="229.965,457.796 229.965,113.167 291.712,113.167 291.712,457.796 "/>
      <polygon fill="#ffff00" fill-opacity="1.00" stroke="#cccccc" stroke-width="0.5pt" stroke-opacity="1.00" stroke-dasharray="none" points="294.962,457.796 294.962,286.619 356.709,286.619 356.709,457.796 "/>
      <polygon fill="#ff0000" fill-opacity="1.00" stroke="#cccccc" stroke-width="0.5pt" stroke-opacity="1.00" stroke-dasharray="none" points="359.959,457.796 359.959,174.875 421.706,174.875 421.706,457.796 "/>
      <polygon fill="#ffff00" fill-opacity="1.00" stroke="#cccccc" stroke-width="0.5pt" stroke-opacity="1.00" stroke-dasharray="none" points="424.956,457.796 424.956,229.859 486.703,229.859 486.703,457.796 "/>
      <polygon fill="#ff0000" fill-opacity="1.00" stroke="#cccccc" stroke-width="0.5pt" stroke-opacity="1.00" stroke-dasharray="none" points="489.953,457.796 489.953,168.967 551.700,168.967 551.700,457.796 "/>
      <polygon fill="#ffff00" fill-opacity="1.00" stroke="#cccccc" stroke-width="0.5pt" stroke-opacity="1.00" stroke-dasharray="none" points="554.950,457.796 554.950,209.698 616.697,209.698 616.697,457.796 "/>
      <polygon fill="#ffff00" fill-opacity="1.00" stroke="#cccccc" stroke-width="0.5pt" stroke-opacity="1.00" stroke-dasharray="none" points="619.947,457.796 619.947,205.223 681.694,205.223 681.694,457.796 "/>
      <polygon fill="#ffff00" fill-opacity="1.00" stroke="#cccccc" stroke-width="0.5pt" stroke-opacity="1.00" stroke-dasharray="none" points="684.944,457.796 684.944,269.907 746.691,269.907 746.691,457.796 "/>
      <polygon fill="#ffff00" fill-opacity="1.00" stroke="#cccccc" stroke-width="0.5pt" stroke-opacity="1.00" stroke-dasharray="none" points="749.941,457.796 749.941,249.303 811.689,249.303 811.689,457.796 "/>
      <polygon fill="#00ff00" fill-opacity="1.00" stroke="#cccccc" stroke-width="0.5pt" stroke-opacity="1.00" stroke-dasharray="none" points="814.938,457.796 814.938,314.124 876.686,314.124 876.686,457.796 "/>
      <polygon fill="#ff0000" fill-opacity="1.00" stroke="#cccccc" stroke-width="0.5pt" stroke-opacity="1.00" stroke-dasharray="none" points="879.935,457.796 879.935,64.850 941.683,64.850 941.683,457.796 "/>
      <polygon fill="#ff0000" fill-opacity="1.00" stroke="#cccccc" stroke-width="0.5pt" stroke-opacity="1.00" stroke-dasharray="none" points="944.932,457.796 944.932,139.365 1006.680,139.365 1006.680,457.796 "/>
      <polygon fill="#ff0000" fill-opacity="1.00" stroke="#cccccc" stroke-width="0.5pt" stroke-opacity="1.00" stroke-dasharray="none" points="1009.929,457.796 1009.929,62.383 1071.677,62.383 1071.677,457.796 "/>
      <polygon fill="#ffff00" fill-opacity="1.00" stroke="#cccccc" stroke-width="0.5pt" stroke-opacity="1.00" stroke-dasharray="none" points="1074.926,457.796 1074.926,274.661 1136.674,274.661 1136.674,457.796 "/>
      <polygon fill="#ff0000" fill-opacity="1.00" stroke="#cccccc" stroke-width="0.5pt" stroke-opacity="1.00" stroke-dasharray="none" points="1139.923,457.796 1139.923,65.562 1201.671,65.562 1201.671,457.796 "/>
      <polygon fill="#ff0000" fill-opacity="1.00" stroke="#cccccc" stroke-width="0.5pt" stroke-opacity="1.00" stroke-dasharray="none" points="1204.920,457.796 1204.920,100.460 1266.668,100.460 1266.668,457.796 "/>
      <polygon fill="#ff0000" fill-opacity="1.00" stroke="#cccccc" stroke-width="0.5pt" stroke-opacity="1.00" stroke-dasharray="none" points="1269.917,457.796 1269.917,160.426 1331.665,160.426 1331.665,457.796 "/>
      <polygon fill="#ffff00" fill-opacity="1.00" stroke="#cccccc" stroke-width="0.5pt" stroke-opacity="1.00" stroke-dasharray="none" points="1334.914,457.796 1334.914,198.338 1396.662,198.338 1396.662,457.796 "/>
      <polygon fill="#ffff00" fill-opacity="1.00" stroke="#cccccc" stroke-width="0.5pt" stroke-opacity="1.00" stroke-dasharray="none" points="1399.911,457.796 1399.911,248.688 1461.659,248.688 1461.659,457.796 "/>
      <polygon fill="#ff0000" fill-opacity="1.00" stroke="#cccccc" stroke-width="0.5pt" stroke-opacity="1.00" stroke-dasharray="none" points="1464.909,457.796 1464.909,112.249 1526.656,112.249 1526.656,457.796 "/>
      <polygon fill="#ffff00" fill-opacity="1.00" stroke="#cccccc" stroke-width="0.5pt" stroke-opacity="1.00" stroke-dasharray="none" points="1529.906,457.796 1529.906,256.677 1591.653,256.677 1591.653,457.796 "/>
      <polygon fill="#ffff00" fill-opacity="1.00" stroke="#cccccc" stroke-width="0.5pt" stroke-opacity="1.00" stroke-dasharray="none" points="1594.903,457.796 1594.903,302.076 1656.650,302.076 1656.650,457.796 "/>
      <polygon fill="#ff0000" fill-opacity="1.00" stroke="#cccccc" stroke-width="0.5pt" stroke-opacity="1.00" stroke-dasharray="none" points="1659.900,457.796 1659.900,108.003 1721.647,108.003 1721.647,457.796 "/>
</g>
</g><g id="ID000004" clip-path="url(#ID000001)" >
      <polyline fill="none" stroke="#000000" stroke-width="0.5pt" stroke-dasharray="none" points="163.343,457.796 1723.272,457.796 "/>
<g>
</g>
</g>
<g id="ID000005" >
  <g transform="translate(942.839,494.108)">
    <g transform="rotate(-0.0)">
      <text x="0.000" y="0.000" font-family="Helvetica" text-anchor="middle" font-size="15pt" font-style="oblique" fill="#142b8c" >Time of day (24h)</text>
    </g>
  </g>
</g>
<g id="ID000006" >
  <g transform="translate(132.876,251.729)">
    <g transform="rotate(-90.0)">
      <text x="0.000" y="0.000" font-family="Helvetica" text-anchor="middle" font-size="15pt" font-style="oblique" fill="#142b8c" >Eruos</text>
    </g>
  </g>
</g>
<g id="ID000007" >
  <g transform="translate(942.839,32.994)">
    <g transform="rotate(-0.0)">
      <text x="0.000" y="0.000" font-family="Helvetica" text-anchor="middle" font-size="19pt" font-style="oblique" fill="#142b8c" >dynamicTariff</text>
    </g>
  </g>
</g>
    </g>
    <g>
      <polyline fill="none" stroke="#000000" stroke-width="0.5pt" stroke-dasharray="none" points="163.343,457.796 163.343,442.197 "/>
      <polyline fill="none" stroke="#000000" stroke-width="0.5pt" stroke-dasharray="none" points="228.340,457.796 228.340,442.197 "/>
      <polyline fill="none" stroke="#000000" stroke-width="0.5pt" stroke-dasharray="none" points="293.337,457.796 293.337,442.197 "/>
      <polyline fill="none" stroke="#000000" stroke-width="0.5pt" stroke-dasharray="none" points="358.334,457.796 358.334,442.197 "/>
      <polyline fill="none" stroke="#000000" stroke-width="0.5pt" stroke-dasharray="none" points="423.331,457.796 423.331,442.197 "/>
      <polyline fill="none" stroke="#000000" stroke-width="0.5pt" stroke-dasharray="none" points="488.328,457.796 488.328,442.197 "/>
      <polyline fill="none" stroke="#000000" stroke-width="0.5pt" stroke-dasharray="none" points="553.325,457.796 553.325,442.197 "/>
      <polyline fill="none" stroke="#000000" stroke-width="0.5pt" stroke-dasharray="none" points="618.322,457.796 618.322,442.197 "/>
      <polyline fill="none" stroke="#000000" stroke-width="0.5pt" stroke-dasharray="none" points="683.319,457.796 683.319,442.197 "/>
      <polyline fill="none" stroke="#000000" stroke-width="0.5pt" stroke-dasharray="none" points="748.316,457.796 748.316,442.197 "/>
      <polyline fill="none" stroke="#000000" stroke-width="0.5pt" stroke-dasharray="none" points="813.313,457.796 813.313,442.197 "/>
      <polyline fill="none" stroke="#000000" stroke-width="0.5pt" stroke-dasharray="none" points="878.310,457.796 878.310,442.197 "/>
      <polyline fill="none" stroke="#000000" stroke-width="0.5pt" stroke-dasharray="none" points="943.307,457.796 943.307,442.197 "/>
      <polyline fill="none" stroke="#000000" stroke-width="0.5pt" stroke-dasharray="none" points="1008.304,457.796 1008.304,442.197 "/>
      <polyline fill="none" stroke="#000000" stroke-width="0.5pt" stroke-dasharray="none" points="1073.301,457.796 1073.301,442.197 "/>
      <polyline fill="none" stroke="#000000" stroke-width="0.5pt" stroke-dasharray="none" points="1138.299,457.796 1138.299,442.197 "/>
      <polyline fill="none" stroke="#000000" stroke-width="0.5pt" stroke-dasharray="none" points="1203.296,457.796 1203.296,442.197 "/>
      <polyline fill="none" stroke="#000000" stroke-width="0.5pt" stroke-dasharray="none" points="1268.293,457.796 1268.293,442.197 "/>
      <polyline fill="none" stroke="#000000" stroke-width="0.5pt" stroke-dasharray="none" points="1333.290,457.796 1333.290,442.197 "/>
      <polyline fill="none" stroke="#000000" stroke-width="0.5pt" stroke-dasharray="none" points="1398.287,457.796 1398.287,442.197 "/>
      <polyline fill="none" stroke="#000000" stroke-width="0.5pt" stroke-dasharray="none" points="1463.284,457.796 1463.284,442.197 "/>
      <polyline fill="none" stroke="#000000" stroke-width="0.5pt" stroke-dasharray="none" points="1528.281,457.796 1528.281,442.197 "/>
      <polyline fill="none" stroke="#000000" stroke-width="0.5pt" stroke-dasharray="none" points="1593.278,457.796 1593.278,442.197 "/>
      <polyline fill="none" stroke="#000000" stroke-width="0.5pt" stroke-dasharray="none" points="1658.275,457.796 1658.275,442.197 "/>
      <polyline fill="none" stroke="#000000" stroke-width="0.5pt" stroke-dasharray="none" points="1723.272,457.796 1723.272,442.197 "/>
      <polyline fill="none" stroke="#000000" stroke-width="0.5pt" stroke-dasharray="none" points="163.343,457.796 1723.272,457.796 "/>
  <g transform="translate(163.343,477.139)">
    <g transform="rotate(-0.0)">
      <text x="0.000" y="0.000" font-family="Helvetica" text-anchor="middle" font-size="9pt" font-style="oblique" fill="#000000" >00:00</text>
    </g>
  </g>
  <g transform="translate(228.340,477.139)">
    <g transform="rotate(-0.0)">
      <text x="0.000" y="0.000" font-family="Helvetica" text-anchor="middle" font-size="9pt" font-style="oblique" fill="#000000" >01:00</text>
    </g>
  </g>
  <g transform="translate(293.337,477.139)">
    <g transform="rotate(-0.0)">
      <text x="0.000" y="0.000" font-family="Helvetica" text-anchor="middle" font-size="9pt" font-style="oblique" fill="#000000" >02:00</text>
    </g>
  </g>
  <g transform="translate(358.334,477.139)">
    <g transform="rotate(-0.0)">
      <text x="0.000" y="0.000" font-family="Helvetica" text-anchor="middle" font-size="9pt" font-style="oblique" fill="#000000" >03:00</text>
    </g>
  </g>
  <g transform="translate(423.331,477.139)">
    <g transform="rotate(-0.0)">
      <text x="0.000" y="0.000" font-family="Helvetica" text-anchor="middle" font-size="9pt" font-style="oblique" fill="#000000" >04:00</text>
    </g>
  </g>
  <g transform="translate(488.328,477.139)">
    <g transform="rotate(-0.0)">
      <text x="0.000" y="0.000" font-family="Helvetica" text-anchor="middle" font-size="9pt" font-style="oblique" fill="#000000" >05:00</text>
    </g>
  </g>
  <g transform="translate(553.325,477.139)">
    <g transform="rotate(-0.0)">
      <text x="0.000" y="0.000" font-family="Helvetica" text-anchor="middle" font-size="9pt" font-style="oblique" fill="#000000" >06:00</text>
    </g>
  </g>
  <g transform="translate(618.322,477.139)">
    <g transform="rotate(-0.0)">
      <text x="0.000" y="0.000" font-family="Helvetica" text-anchor="middle" font-size="9pt" font-style="oblique" fill="#000000" >07:00</text>
    </g>
  </g>
  <g transform="translate(683.319,477.139)">
    <g transform="rotate(-0.0)">
      <text x="0.000" y="0.000" font-family="Helvetica" text-anchor="middle" font-size="9pt" font-style="oblique" fill="#000000" >08:00</text>
    </g>
  </g>
  <g transform="translate(748.316,477.139)">
    <g transform="rotate(-0.0)">
      <text x="0.000" y="0.000" font-family="Helvetica" text-anchor="middle" font-size="9pt" font-style="oblique" fill="#000000" >09:00</text>
    </g>
  </g>
  <g transform="translate(813.313,477.139)">
    <g transform="rotate(-0.0)">
      <text x="0.000" y="0.000" font-family="Helvetica" text-anchor="middle" font-size="9pt" font-style="oblique" fill="#000000" >10:00</text>
    </g>
  </g>
  <g transform="translate(878.310,477.139)">
    <g transform="rotate(-0.0)">
      <text x="0.000" y="0.000" font-family="Helvetica" text-anchor="middle" font-size="9pt" font-style="oblique" fill="#000000" >11:00</text>
    </g>
  </g>
  <g transform="translate(943.307,477.139)">
    <g transform="rotate(-0.0)">
      <text x="0.000" y="0.000" font-family="Helvetica" text-anchor="middle" font-size="9pt" font-style="oblique" fill="#000000" >12:00</text>
    </g>
  </g>
  <g transform="translate(1008.304,477.139)">
    <g transform="rotate(-0.0)">
      <text x="0.000" y="0.000" font-family="Helvetica" text-anchor="middle" font-size="9pt" font-style="oblique" fill="#000000" >13:00</text>
    </g>
  </g>
  <g transform="translate(1073.301,477.139)">
    <g transform="rotate(-0.0)">
      <text x="0.000" y="0.000" font-family="Helvetica" text-anchor="middle" font-size="9pt" font-style="oblique" fill="#000000" >14:00</text>
    </g>
  </g>
  <g transform="translate(1138.299,477.139)">
    <g transform="rotate(-0.0)">
      <text x="0.000" y="0.000" font-family="Helvetica" text-anchor="middle" font-size="9pt" font-style="oblique" fill="#000000" >15:00</text>
    </g>
  </g>
  <g transform="translate(1203.296,477.139)">
    <g transform="rotate(-0.0)">
      <text x="0.000" y="0.000" font-family="Helvetica" text-anchor="middle" font-size="9pt" font-style="oblique" fill="#000000" >16:00</text>
    </g>
  </g>
  <g transform="translate(1268.293,477.139)">
    <g transform="rotate(-0.0)">
      <text x="0.000" y="0.000" font-family="Helvetica" text-anchor="middle" font-size="9pt" font-style="oblique" fill="#000000" >17:00</text>
    </g>
  </g>
  <g transform="translate(1333.290,477.139)">
    <g transform="rotate(-0.0)">
      <text x="0.000" y="0.000" font-family="Helvetica" text-anchor="middle" font-size="9pt" font-style="oblique" fill="#000000" >18:00</text>
    </g>
  </g>
  <g transform="translate(1398.287,477.139)">
    <g transform="rotate(-0.0)">
      <text x="0.000" y="0.000" font-family="Helvetica" text-anchor="middle" font-size="9pt" font-style="oblique" fill="#000000" >19:00</text>
    </g>
  </g>
  <g transform="translate(1463.284,477.139)">
    <g transform="rotate(-0.0)">
      <text x="0.000" y="0.000" font-family="Helvetica" text-anchor="middle" font-size="9pt" font-style="oblique" fill="#000000" >20:00</text>
    </g>
  </g>
  <g transform="translate(1528.281,477.139)">
    <g transform="rotate(-0.0)">
      <text x="0.000" y="0.000" font-family="Helvetica" text-anchor="middle" font-size="9pt" font-style="oblique" fill="#000000" >21:00</text>
    </g>
  </g>
  <g transform="translate(1593.278,477.139)">
    <g transform="rotate(-0.0)">
      <text x="0.000" y="0.000" font-family="Helvetica" text-anchor="middle" font-size="9pt" font-style="oblique" fill="#000000" >22:00</text>
    </g>
  </g>
  <g transform="translate(1658.275,477.139)">
    <g transform="rotate(-0.0)">
      <text x="0.000" y="0.000" font-family="Helvetica" text-anchor="middle" font-size="9pt" font-style="oblique" fill="#000000" >23:00</text>
    </g>
  </g>
  <g transform="translate(1723.272,477.139)">
    <g transform="rotate(-0.0)">
      <text x="0.000" y="0.000" font-family="Helvetica" text-anchor="middle" font-size="9pt" font-style="oblique" fill="#000000" >24:00</text>
    </g>
  </g>
      <polyline fill="none" stroke="#000000" stroke-width="0.5pt" stroke-dasharray="none" points="163.343,457.796 178.943,457.796 "/>
      <polyline fill="none" stroke="#000000" stroke-width="0.5pt" stroke-dasharray="none" points="163.343,388.794 178.943,388.794 "/>
      <polyline fill="none" stroke="#000000" stroke-width="0.5pt" stroke-dasharray="none" points="163.343,319.792 178.943,319.792 "/>
      <polyline fill="none" stroke="#000000" stroke-width="0.5pt" stroke-dasharray="none" points="163.343,250.790 178.943,250.790 "/>
      <polyline fill="none" stroke="#000000" stroke-width="0.5pt" stroke-dasharray="none" points="163.343,181.788 178.943,181.788 "/>
      <polyline fill="none" stroke="#000000" stroke-width="0.5pt" stroke-dasharray="none" points="163.343,112.786 178.943,112.786 "/>
      <polyline fill="none" stroke="#000000" stroke-width="0.5pt" stroke-dasharray="none" points="163.343,457.796 163.343,43.784 "/>
  <g transform="translate(132.145,462.015)">
    <g transform="rotate(-0.0)">
      <text x="0.000" y="0.000" font-family="Helvetica" text-anchor="end" font-size="9pt" font-style="oblique" fill="#000000" >0</text>
    </g>
  </g>
  <g transform="translate(132.145,393.013)">
    <g transform="rotate(-0.0)">
      <text x="0.000" y="0.000" font-family="Helvetica" text-anchor="end" font-size="9pt" font-style="oblique" fill="#000000" >0.2</text>
    </g>
  </g>
  <g transform="translate(132.145,324.011)">
    <g transform="rotate(-0.0)">
      <text x="0.000" y="0.000" font-family="Helvetica" text-anchor="end" font-size="9pt" font-style="oblique" fill="#000000" >0.4</text>
    </g>
  </g>
  <g transform="translate(132.145,255.009)">
    <g transform="rotate(-0.0)">
      <text x="0.000" y="0.000" font-family="Helvetica" text-anchor="end" font-size="9pt" font-style="oblique" fill="#000000" >0.6</text>
    </g>
  </g>
  <g transform="translate(132.145,186.007)">
    <g transform="rotate(-0.0)">
      <text x="0.000" y="0.000" font-family="Helvetica" text-anchor="end" font-size="9pt" font-style="oblique" fill="#000000" >0.8</text>
    </g>
  </g>
  <g transform="translate(132.145,117.005)">
    <g transform="rotate(-0.0)">
      <text x="0.000" y="0.000" font-family="Helvetica" text-anchor="end" font-size="9pt" font-style="oblique" fill="#000000" >1</text>
    </g>
  </g>
      <polyline fill="none" stroke="#000000" stroke-width="0.5pt" stroke-dasharray="none" points="163.343,457.796 163.343,453.656 "/>
      <polyline fill="none" stroke="#000000" stroke-width="0.5pt" stroke-dasharray="none" points="163.343,457.796 163.343,453.656 "/>
      <polyline fill="none" stroke="#000000" stroke-width="0.5pt" stroke-dasharray="none" points="163.343,457.796 163.343,453.656 "/>
      <polyline fill="none" stroke="#000000" stroke-width="0.5pt" stroke-dasharray="none" points="163.343,457.796 163.343,457.796 "/>
    </g>
  </g>
  </g>
</svg>
