<?xml version="1.0" encoding="utf-8" standalone="no"?><!DOCTYPE svg PUBLIC "-//W3C//DTD SVG 1.1//EN" "http://www.w3.org/Graphics/SVG/1.1/DTD/svg11.dtd">
<svg preserveAspectRatio="xMinYMin meet" width="100%" height="100%" viewBox="0 0 1385.690 415.086"  version="1.1" xmlns="http://www.w3.org/2000/svg" xmlns:xlink="http://www.w3.org/1999/xlink">
  <desc>Matlab Figure Converted by PLOT2SVG written by Juerg Schwizer</desc>
  <g id="topgroup">
  <rect x="0" y="0" width="1385.690" height="415.086" fill="#ffffff" stroke="none" />
  <g id ="ID000000">
  <clipPath id="ID000001">
    <rect x="180.140" y="31.131" width="1073.909" height="134.343"/>
  </clipPath>
      <polygon fill="#ffffff" fill-opacity="1.00" stroke="none" stroke-width="0.5pt" stroke-opacity="1.00" stroke-dasharray="none" points="180.140,165.474 1254.049,165.474 1254.049,31.131 180.140,31.131 "/>
      <polygon fill="#ffffff" fill-opacity="1.00" stroke="none" stroke-width="0.5pt" stroke-opacity="1.00" stroke-dasharray="none" points="180.140,31.131 1254.049,31.131 1254.049,31.131 180.140,31.131 "/>
      <polygon fill="#ffffff" fill-opacity="1.00" stroke="none" stroke-width="0.5pt" stroke-opacity="1.00" stroke-dasharray="none" points="180.140,165.474 180.140,165.474 180.140,31.131 180.140,31.131 "/>
      <polyline fill="none" stroke="#000000" stroke-width="0.5pt" stroke-dasharray="2.0,2.0" points="180.140,165.474 180.140,31.131 "/>
      <polyline fill="none" stroke="#000000" stroke-width="0.5pt" stroke-dasharray="2.0,2.0" points="287.531,165.474 287.531,31.131 "/>
      <polyline fill="none" stroke="#000000" stroke-width="0.5pt" stroke-dasharray="2.0,2.0" points="394.922,165.474 394.922,31.131 "/>
      <polyline fill="none" stroke="#000000" stroke-width="0.5pt" stroke-dasharray="2.0,2.0" points="502.313,165.474 502.313,31.131 "/>
      <polyline fill="none" stroke="#000000" stroke-width="0.5pt" stroke-dasharray="2.0,2.0" points="609.703,165.474 609.703,31.131 "/>
      <polyline fill="none" stroke="#000000" stroke-width="0.5pt" stroke-dasharray="2.0,2.0" points="717.094,165.474 717.094,31.131 "/>
      <polyline fill="none" stroke="#000000" stroke-width="0.5pt" stroke-dasharray="2.0,2.0" points="824.485,165.474 824.485,31.131 "/>
      <polyline fill="none" stroke="#000000" stroke-width="0.5pt" stroke-dasharray="2.0,2.0" points="931.876,165.474 931.876,31.131 "/>
      <polyline fill="none" stroke="#000000" stroke-width="0.5pt" stroke-dasharray="2.0,2.0" points="1039.267,165.474 1039.267,31.131 "/>
      <polyline fill="none" stroke="#000000" stroke-width="0.5pt" stroke-dasharray="2.0,2.0" points="1146.658,165.474 1146.658,31.131 "/>
      <polyline fill="none" stroke="#000000" stroke-width="0.5pt" stroke-dasharray="2.0,2.0" points="1254.049,165.474 1254.049,31.131 "/>
      <polyline fill="none" stroke="#000000" stroke-width="0.5pt" stroke-dasharray="2.0,2.0" points="180.140,31.131 180.140,31.131 "/>
      <polyline fill="none" stroke="#000000" stroke-width="0.5pt" stroke-dasharray="2.0,2.0" points="287.531,31.131 287.531,31.131 "/>
      <polyline fill="none" stroke="#000000" stroke-width="0.5pt" stroke-dasharray="2.0,2.0" points="394.922,31.131 394.922,31.131 "/>
      <polyline fill="none" stroke="#000000" stroke-width="0.5pt" stroke-dasharray="2.0,2.0" points="502.313,31.131 502.313,31.131 "/>
      <polyline fill="none" stroke="#000000" stroke-width="0.5pt" stroke-dasharray="2.0,2.0" points="609.703,31.131 609.703,31.131 "/>
      <polyline fill="none" stroke="#000000" stroke-width="0.5pt" stroke-dasharray="2.0,2.0" points="717.094,31.131 717.094,31.131 "/>
      <polyline fill="none" stroke="#000000" stroke-width="0.5pt" stroke-dasharray="2.0,2.0" points="824.485,31.131 824.485,31.131 "/>
      <polyline fill="none" stroke="#000000" stroke-width="0.5pt" stroke-dasharray="2.0,2.0" points="931.876,31.131 931.876,31.131 "/>
      <polyline fill="none" stroke="#000000" stroke-width="0.5pt" stroke-dasharray="2.0,2.0" points="1039.267,31.131 1039.267,31.131 "/>
      <polyline fill="none" stroke="#000000" stroke-width="0.5pt" stroke-dasharray="2.0,2.0" points="1146.658,31.131 1146.658,31.131 "/>
      <polyline fill="none" stroke="#000000" stroke-width="0.5pt" stroke-dasharray="2.0,2.0" points="1254.049,31.131 1254.049,31.131 "/>
    <g>
<g id="ID000002" >
  <g transform="translate(716.706,198.622)">
    <g transform="rotate(-0.0)">
      <text x="0.000" y="0.000" font-family="Helvetica" text-anchor="middle" font-size="12pt" fill="#142b8c" >Search Evolution Steps</text>
    </g>
  </g>
</g>
<g id="ID000003" >
  <g transform="translate(146.386,99.079)">
    <g transform="rotate(-90.0)">
      <text x="0.000" y="0.000" font-family="Helvetica" text-anchor="middle" font-size="12pt" fill="#142b8c" >Overload (Watts)</text>
    </g>
  </g>
</g>
<g id="ID000004" clip-path="url(#ID000001)" >
      <polyline fill="none" stroke="#0000ff" stroke-width="0.5pt" stroke-dasharray="none" points="190.879,125.171 201.618,101.885 212.357,109.050 223.096,109.050 233.835,130.545 244.574,149.353 255.313,149.353 266.052,149.353 276.792,149.353 287.531,152.040 298.270,152.040 309.009,154.727 319.748,154.727 330.487,154.727 341.226,160.100 351.965,162.787 362.704,162.787 373.443,163.683 384.182,163.683 394.922,163.683 405.661,163.683 416.400,163.683 427.139,163.683 437.878,163.683 448.617,164.578 459.356,165.474 470.095,165.474 480.834,165.474 491.573,165.474 502.312,165.474 513.052,165.474 523.791,165.474 534.530,165.474 545.269,165.474 556.008,165.474 566.747,165.474 577.486,165.474 588.225,165.474 598.964,165.474 609.703,165.474 620.443,165.474 631.182,165.474 641.921,165.474 652.660,165.474 663.399,165.474 674.138,165.474 684.877,165.474 695.616,165.474 706.355,165.474 717.094,165.474 727.833,165.474 738.573,165.474 749.312,165.474 760.051,165.474 770.790,165.474 781.529,165.474 792.268,165.474 803.007,165.474 813.746,165.474 824.485,165.474 835.224,165.474 845.964,165.474 856.703,165.474 867.442,165.474 878.181,165.474 888.920,165.474 899.659,165.474 910.398,165.474 921.137,165.474 931.876,165.474 942.615,165.474 953.354,165.474 964.094,165.474 974.833,165.474 985.572,165.474 996.311,165.474 1007.050,165.474 1017.789,165.474 1028.528,165.474 1039.267,165.474 1050.006,165.474 1060.745,165.474 1071.485,165.474 1082.224,165.474 1092.963,165.474 1103.702,165.474 1114.441,165.474 1125.180,165.474 1135.919,165.474 1146.658,165.474 1157.397,165.474 1168.136,165.474 1178.875,165.474 1189.615,165.474 1200.354,165.474 1211.093,165.474 1221.832,165.474 1232.571,165.474 1243.310,165.474 "/>
<g>
</g>
</g>
<g id="ID000005" clip-path="url(#ID000001)" >
      <polyline fill="none" stroke="#007f00" stroke-width="0.5pt" stroke-dasharray="none" points="190.879,121.589 201.618,103.676 212.357,106.363 223.096,129.649 233.835,117.111 244.574,104.572 255.313,69.643 266.052,95.616 276.792,109.050 287.531,126.962 298.270,92.033 309.009,72.330 319.748,134.127 330.487,105.468 341.226,144.875 351.965,89.347 362.704,92.033 373.443,96.512 384.182,109.946 394.922,120.693 405.661,111.737 416.400,124.276 427.139,100.094 437.878,134.127 448.617,118.902 459.356,107.259 470.095,112.633 480.834,128.754 491.573,99.198 502.312,153.831 513.052,155.622 523.791,155.622 534.530,157.413 545.269,157.413 556.008,157.413 566.747,155.622 577.486,155.622 588.225,155.622 598.964,155.622 609.703,153.831 620.443,153.831 631.182,92.033 641.921,75.912 652.660,66.061 663.399,137.710 674.138,87.555 684.877,128.754 695.616,126.962 706.355,145.770 717.094,147.562 727.833,143.084 738.573,151.144 749.312,160.996 760.051,160.996 770.790,160.996 781.529,160.996 792.268,159.205 803.007,159.205 813.746,159.205 824.485,159.205 835.224,159.205 845.964,159.205 856.703,159.205 867.442,159.205 878.181,160.100 888.920,160.100 899.659,160.996 910.398,160.996 921.137,160.996 931.876,160.996 942.615,160.996 953.354,160.996 964.094,163.683 974.833,163.683 985.572,164.578 996.311,164.578 1007.050,164.578 1017.789,164.578 1028.528,164.578 1039.267,164.578 1050.006,164.578 1060.745,164.578 1071.485,164.578 1082.224,164.578 1092.963,164.578 1103.702,164.578 1114.441,164.578 1125.180,164.578 1135.919,164.578 1146.658,164.578 1157.397,164.578 1168.136,164.578 1178.875,164.578 1189.615,164.578 1200.354,164.578 1211.093,164.578 1221.832,165.474 1232.571,165.474 1243.310,165.474 "/>
<g>
</g>
</g>
<g id="ID000006" clip-path="url(#ID000001)" >
      <polyline fill="none" stroke="#ff0000" stroke-width="0.5pt" stroke-dasharray="none" points="190.879,134.127 201.618,104.572 212.357,100.990 223.096,115.319 233.835,69.643 244.574,69.643 255.313,121.589 266.052,140.397 276.792,86.660 287.531,135.023 298.270,150.249 309.009,149.353 319.748,149.353 330.487,149.353 341.226,106.363 351.965,113.528 362.704,137.710 373.443,96.512 384.182,136.814 394.922,139.501 405.661,117.111 416.400,95.616 427.139,105.468 437.878,123.380 448.617,113.528 459.356,137.710 470.095,99.198 480.834,108.155 491.573,127.858 502.312,132.336 513.052,92.929 523.791,143.084 534.530,160.100 545.269,158.309 556.008,158.309 566.747,158.309 577.486,158.309 588.225,158.309 598.964,158.309 609.703,158.309 620.443,158.309 631.182,158.309 641.921,158.309 652.660,158.309 663.399,158.309 674.138,158.309 684.877,158.309 695.616,158.309 706.355,158.309 717.094,158.309 727.833,158.309 738.573,158.309 749.312,155.622 760.051,155.622 770.790,155.622 781.529,155.622 792.268,155.622 803.007,155.622 813.746,155.622 824.485,156.518 835.224,156.518 845.964,156.518 856.703,156.518 867.442,156.518 878.181,159.205 888.920,159.205 899.659,159.205 910.398,159.205 921.137,160.996 931.876,160.996 942.615,160.996 953.354,160.996 964.094,160.100 974.833,163.683 985.572,163.683 996.311,163.683 1007.050,163.683 1017.789,163.683 1028.528,163.683 1039.267,163.683 1050.006,163.683 1060.745,163.683 1071.485,163.683 1082.224,163.683 1092.963,163.683 1103.702,163.683 1114.441,163.683 1125.180,163.683 1135.919,163.683 1146.658,163.683 1157.397,163.683 1168.136,163.683 1178.875,163.683 1189.615,163.683 1200.354,163.683 1211.093,163.683 1221.832,163.683 1232.571,163.683 1243.310,163.683 "/>
<g>
</g>
</g>
<g id="ID000007" clip-path="url(#ID000001)" >
      <polyline fill="none" stroke="#00bfbf" stroke-width="0.5pt" stroke-dasharray="none" points="190.879,112.633 201.618,126.962 212.357,99.198 223.096,119.798 233.835,126.067 244.574,112.633 255.313,76.808 266.052,151.144 276.792,151.144 287.531,151.144 298.270,151.144 309.009,151.144 319.748,151.144 330.487,151.144 341.226,151.144 351.965,152.040 362.704,148.457 373.443,100.990 384.182,88.451 394.922,97.407 405.661,127.858 416.400,78.599 427.139,99.198 437.878,131.441 448.617,143.084 459.356,94.720 470.095,132.336 480.834,81.286 491.573,121.589 502.312,92.033 513.052,127.858 523.791,152.935 534.530,152.935 545.269,161.892 556.008,161.892 566.747,161.892 577.486,161.892 588.225,161.892 598.964,161.892 609.703,161.892 620.443,161.892 631.182,162.787 641.921,162.787 652.660,162.787 663.399,162.787 674.138,162.787 684.877,162.787 695.616,162.787 706.355,162.787 717.094,162.787 727.833,162.787 738.573,162.787 749.312,162.787 760.051,162.787 770.790,162.787 781.529,162.787 792.268,162.787 803.007,163.683 813.746,163.683 824.485,163.683 835.224,163.683 845.964,163.683 856.703,163.683 867.442,163.683 878.181,163.683 888.920,163.683 899.659,163.683 910.398,163.683 921.137,163.683 931.876,163.683 942.615,163.683 953.354,163.683 964.094,163.683 974.833,163.683 985.572,163.683 996.311,163.683 1007.050,163.683 1017.789,163.683 1028.528,163.683 1039.267,163.683 1050.006,163.683 1060.745,163.683 1071.485,163.683 1082.224,163.683 1092.963,163.683 1103.702,163.683 1114.441,163.683 1125.180,163.683 1135.919,163.683 1146.658,163.683 1157.397,163.683 1168.136,163.683 1178.875,163.683 1189.615,163.683 1200.354,163.683 1211.093,163.683 1221.832,163.683 1232.571,163.683 1243.310,163.683 "/>
<g>
</g>
</g>
<g id="ID000008" clip-path="url(#ID000001)" >
      <polyline fill="none" stroke="#bf00bf" stroke-width="0.5pt" stroke-dasharray="none" points="190.879,90.242 201.618,110.841 212.357,82.182 223.096,140.397 233.835,148.457 244.574,148.457 255.313,80.390 266.052,90.242 276.792,80.390 287.531,66.956 298.270,148.457 309.009,148.457 319.748,101.885 330.487,135.023 341.226,136.814 351.965,118.006 362.704,64.269 373.443,131.441 384.182,141.292 394.922,141.292 405.661,100.990 416.400,126.962 427.139,133.232 437.878,58.000 448.617,83.973 459.356,89.347 470.095,102.781 480.834,87.555 491.573,96.512 502.312,65.165 513.052,126.067 523.791,138.606 534.530,42.774 545.269,132.336 556.008,125.171 566.747,134.127 577.486,157.413 588.225,164.578 598.964,165.474 609.703,165.474 620.443,165.474 631.182,165.474 641.921,165.474 652.660,165.474 663.399,165.474 674.138,165.474 684.877,165.474 695.616,165.474 706.355,165.474 717.094,165.474 727.833,165.474 738.573,165.474 749.312,165.474 760.051,165.474 770.790,165.474 781.529,165.474 792.268,165.474 803.007,165.474 813.746,165.474 824.485,165.474 835.224,165.474 845.964,165.474 856.703,165.474 867.442,165.474 878.181,165.474 888.920,165.474 899.659,165.474 910.398,165.474 921.137,165.474 931.876,165.474 942.615,165.474 953.354,165.474 964.094,165.474 974.833,165.474 985.572,165.474 996.311,165.474 1007.050,165.474 1017.789,165.474 1028.528,165.474 1039.267,165.474 1050.006,165.474 1060.745,165.474 1071.485,165.474 1082.224,165.474 1092.963,165.474 1103.702,165.474 1114.441,165.474 1125.180,165.474 1135.919,165.474 1146.658,165.474 1157.397,165.474 1168.136,165.474 1178.875,165.474 1189.615,165.474 1200.354,165.474 1211.093,165.474 1221.832,165.474 1232.571,165.474 1243.310,165.474 "/>
<g>
</g>
</g>
<g id="ID000009" clip-path="url(#ID000001)" >
      <polyline fill="none" stroke="#bfbf00" stroke-width="0.5pt" stroke-dasharray="none" points="190.879,118.006 201.618,75.017 212.357,73.225 223.096,121.589 233.835,80.390 244.574,125.171 255.313,91.138 266.052,102.781 276.792,122.484 287.531,134.127 298.270,143.084 309.009,105.468 319.748,111.737 330.487,84.868 341.226,65.165 351.965,110.841 362.704,146.666 373.443,146.666 384.182,146.666 394.922,123.380 405.661,151.144 416.400,152.040 427.139,149.353 437.878,154.727 448.617,160.100 459.356,160.100 470.095,160.100 480.834,160.100 491.573,160.100 502.312,160.100 513.052,160.100 523.791,160.100 534.530,160.100 545.269,160.996 556.008,160.996 566.747,160.996 577.486,160.996 588.225,160.996 598.964,160.996 609.703,160.996 620.443,160.996 631.182,160.996 641.921,160.996 652.660,160.996 663.399,162.787 674.138,162.787 684.877,162.787 695.616,162.787 706.355,162.787 717.094,162.787 727.833,162.787 738.573,162.787 749.312,162.787 760.051,163.683 770.790,163.683 781.529,163.683 792.268,163.683 803.007,163.683 813.746,163.683 824.485,163.683 835.224,163.683 845.964,163.683 856.703,163.683 867.442,163.683 878.181,163.683 888.920,163.683 899.659,163.683 910.398,163.683 921.137,163.683 931.876,163.683 942.615,163.683 953.354,163.683 964.094,165.474 974.833,165.474 985.572,165.474 996.311,165.474 1007.050,165.474 1017.789,165.474 1028.528,165.474 1039.267,165.474 1050.006,165.474 1060.745,165.474 1071.485,165.474 1082.224,165.474 1092.963,165.474 1103.702,165.474 1114.441,165.474 1125.180,165.474 1135.919,165.474 1146.658,165.474 1157.397,165.474 1168.136,165.474 1178.875,165.474 1189.615,165.474 1200.354,165.474 1211.093,165.474 1221.832,165.474 1232.571,165.474 1243.310,165.474 "/>
<g>
</g>
</g>
<g id="ID000010" clip-path="url(#ID000001)" >
      <polyline fill="none" stroke="#3f3f3f" stroke-width="0.5pt" stroke-dasharray="none" points="190.879,81.286 201.618,100.990 212.357,95.616 223.096,102.781 233.835,126.962 244.574,129.649 255.313,118.902 266.052,143.979 276.792,146.666 287.531,146.666 298.270,93.825 309.009,123.380 319.748,123.380 330.487,131.441 341.226,98.303 351.965,97.407 362.704,91.138 373.443,141.292 384.182,73.225 394.922,98.303 405.661,120.693 416.400,143.979 427.139,152.935 437.878,152.935 448.617,152.935 459.356,156.518 470.095,156.518 480.834,156.518 491.573,156.518 502.312,158.309 513.052,158.309 523.791,158.309 534.530,158.309 545.269,158.309 556.008,158.309 566.747,158.309 577.486,158.309 588.225,158.309 598.964,161.892 609.703,161.892 620.443,161.892 631.182,161.892 641.921,161.892 652.660,161.892 663.399,161.892 674.138,161.892 684.877,161.892 695.616,164.578 706.355,164.578 717.094,164.578 727.833,164.578 738.573,164.578 749.312,164.578 760.051,164.578 770.790,165.474 781.529,165.474 792.268,165.474 803.007,165.474 813.746,165.474 824.485,165.474 835.224,165.474 845.964,165.474 856.703,165.474 867.442,165.474 878.181,165.474 888.920,165.474 899.659,165.474 910.398,165.474 921.137,165.474 931.876,165.474 942.615,165.474 953.354,165.474 964.094,165.474 974.833,165.474 985.572,165.474 996.311,165.474 1007.050,165.474 1017.789,165.474 1028.528,165.474 1039.267,165.474 1050.006,165.474 1060.745,165.474 1071.485,165.474 1082.224,165.474 1092.963,165.474 1103.702,165.474 1114.441,165.474 1125.180,165.474 1135.919,165.474 1146.658,165.474 1157.397,165.474 1168.136,165.474 1178.875,165.474 1189.615,165.474 1200.354,165.474 1211.093,165.474 1221.832,165.474 1232.571,165.474 1243.310,165.474 "/>
<g>
</g>
</g>
<g id="ID000011" clip-path="url(#ID000001)" >
      <polyline fill="none" stroke="#0000ff" stroke-width="0.5pt" stroke-dasharray="none" points="190.879,141.292 201.618,145.770 212.357,145.770 223.096,149.353 233.835,152.935 244.574,152.935 255.313,152.935 266.052,152.935 276.792,155.622 287.531,155.622 298.270,155.622 309.009,155.622 319.748,155.622 330.487,162.787 341.226,162.787 351.965,162.787 362.704,162.787 373.443,163.683 384.182,163.683 394.922,163.683 405.661,163.683 416.400,163.683 427.139,163.683 437.878,163.683 448.617,163.683 459.356,163.683 470.095,165.474 480.834,165.474 491.573,165.474 502.312,165.474 513.052,165.474 523.791,165.474 534.530,165.474 545.269,165.474 556.008,165.474 566.747,165.474 577.486,165.474 588.225,165.474 598.964,165.474 609.703,165.474 620.443,165.474 631.182,165.474 641.921,165.474 652.660,165.474 663.399,165.474 674.138,165.474 684.877,165.474 695.616,165.474 706.355,165.474 717.094,165.474 727.833,165.474 738.573,165.474 749.312,165.474 760.051,165.474 770.790,165.474 781.529,165.474 792.268,165.474 803.007,165.474 813.746,165.474 824.485,165.474 835.224,165.474 845.964,165.474 856.703,165.474 867.442,165.474 878.181,165.474 888.920,165.474 899.659,165.474 910.398,165.474 921.137,165.474 931.876,165.474 942.615,165.474 953.354,165.474 964.094,165.474 974.833,165.474 985.572,165.474 996.311,165.474 1007.050,165.474 1017.789,165.474 1028.528,165.474 1039.267,165.474 1050.006,165.474 1060.745,165.474 1071.485,165.474 1082.224,165.474 1092.963,165.474 1103.702,165.474 1114.441,165.474 1125.180,165.474 1135.919,165.474 1146.658,165.474 1157.397,165.474 1168.136,165.474 1178.875,165.474 1189.615,165.474 1200.354,165.474 1211.093,165.474 1221.832,165.474 1232.571,165.474 1243.310,165.474 "/>
<g>
</g>
</g>
<g id="ID000012" clip-path="url(#ID000001)" >
      <polyline fill="none" stroke="#007f00" stroke-width="0.5pt" stroke-dasharray="none" points="190.879,100.990 201.618,101.885 212.357,118.902 223.096,70.539 233.835,79.495 244.574,149.353 255.313,106.363 266.052,115.319 276.792,83.077 287.531,88.451 298.270,95.616 309.009,128.754 319.748,92.033 330.487,136.814 341.226,127.858 351.965,89.347 362.704,125.171 373.443,135.919 384.182,146.666 394.922,146.666 405.661,158.309 416.400,158.309 427.139,158.309 437.878,157.413 448.617,156.518 459.356,156.518 470.095,156.518 480.834,156.518 491.573,159.205 502.312,159.205 513.052,159.205 523.791,159.205 534.530,159.205 545.269,159.205 556.008,159.205 566.747,159.205 577.486,159.205 588.225,159.205 598.964,159.205 609.703,159.205 620.443,159.205 631.182,160.996 641.921,160.996 652.660,160.996 663.399,160.996 674.138,160.996 684.877,160.996 695.616,160.996 706.355,160.996 717.094,160.996 727.833,160.996 738.573,160.996 749.312,161.892 760.051,161.892 770.790,161.892 781.529,161.892 792.268,161.892 803.007,161.892 813.746,161.892 824.485,162.787 835.224,162.787 845.964,162.787 856.703,162.787 867.442,162.787 878.181,162.787 888.920,162.787 899.659,162.787 910.398,162.787 921.137,165.474 931.876,165.474 942.615,165.474 953.354,165.474 964.094,165.474 974.833,165.474 985.572,165.474 996.311,165.474 1007.050,165.474 1017.789,165.474 1028.528,165.474 1039.267,165.474 1050.006,165.474 1060.745,165.474 1071.485,165.474 1082.224,165.474 1092.963,165.474 1103.702,165.474 1114.441,165.474 1125.180,165.474 1135.919,165.474 1146.658,165.474 1157.397,165.474 1168.136,165.474 1178.875,165.474 1189.615,165.474 1200.354,165.474 1211.093,165.474 1221.832,165.474 1232.571,165.474 1243.310,165.474 "/>
<g>
</g>
</g>
<g id="ID000013" clip-path="url(#ID000001)" >
      <polyline fill="none" stroke="#ff0000" stroke-width="0.5pt" stroke-dasharray="none" points="190.879,142.188 201.618,96.512 212.357,132.336 223.096,94.720 233.835,122.484 244.574,92.929 255.313,109.946 266.052,128.754 276.792,100.990 287.531,83.973 298.270,118.902 309.009,96.512 319.748,92.929 330.487,94.720 341.226,138.606 351.965,140.397 362.704,164.578 373.443,165.474 384.182,165.474 394.922,165.474 405.661,165.474 416.400,165.474 427.139,165.474 437.878,165.474 448.617,165.474 459.356,165.474 470.095,165.474 480.834,165.474 491.573,165.474 502.312,165.474 513.052,165.474 523.791,165.474 534.530,165.474 545.269,165.474 556.008,165.474 566.747,165.474 577.486,165.474 588.225,165.474 598.964,165.474 609.703,165.474 620.443,165.474 631.182,165.474 641.921,165.474 652.660,165.474 663.399,165.474 674.138,165.474 684.877,165.474 695.616,165.474 706.355,165.474 717.094,165.474 727.833,165.474 738.573,165.474 749.312,165.474 760.051,165.474 770.790,165.474 781.529,165.474 792.268,165.474 803.007,165.474 813.746,165.474 824.485,165.474 835.224,165.474 845.964,165.474 856.703,165.474 867.442,165.474 878.181,165.474 888.920,165.474 899.659,165.474 910.398,165.474 921.137,165.474 931.876,165.474 942.615,165.474 953.354,165.474 964.094,165.474 974.833,165.474 985.572,165.474 996.311,165.474 1007.050,165.474 1017.789,165.474 1028.528,165.474 1039.267,165.474 1050.006,165.474 1060.745,165.474 1071.485,165.474 1082.224,165.474 1092.963,165.474 1103.702,165.474 1114.441,165.474 1125.180,165.474 1135.919,165.474 1146.658,165.474 1157.397,165.474 1168.136,165.474 1178.875,165.474 1189.615,165.474 1200.354,165.474 1211.093,165.474 1221.832,165.474 1232.571,165.474 1243.310,165.474 "/>
<g>
</g>
</g>
<g id="ID000014" clip-path="url(#ID000001)" >
      <polyline fill="none" stroke="#00bfbf" stroke-width="0.5pt" stroke-dasharray="none" points="190.879,60.687 201.618,88.451 212.357,135.919 223.096,79.495 233.835,117.111 244.574,58.896 255.313,109.050 266.052,80.390 276.792,60.687 287.531,144.875 298.270,144.875 309.009,136.814 319.748,142.188 330.487,129.649 341.226,95.616 351.965,138.606 362.704,79.495 373.443,135.023 384.182,129.649 394.922,128.754 405.661,132.336 416.400,91.138 427.139,141.292 437.878,152.040 448.617,151.144 459.356,148.457 470.095,103.676 480.834,144.875 491.573,153.831 502.312,153.831 513.052,157.413 523.791,162.787 534.530,164.578 545.269,164.578 556.008,164.578 566.747,164.578 577.486,164.578 588.225,164.578 598.964,164.578 609.703,164.578 620.443,164.578 631.182,164.578 641.921,164.578 652.660,164.578 663.399,164.578 674.138,164.578 684.877,164.578 695.616,164.578 706.355,164.578 717.094,165.474 727.833,165.474 738.573,165.474 749.312,165.474 760.051,165.474 770.790,165.474 781.529,165.474 792.268,165.474 803.007,165.474 813.746,165.474 824.485,165.474 835.224,165.474 845.964,165.474 856.703,165.474 867.442,165.474 878.181,165.474 888.920,165.474 899.659,165.474 910.398,165.474 921.137,165.474 931.876,165.474 942.615,165.474 953.354,165.474 964.094,165.474 974.833,165.474 985.572,165.474 996.311,165.474 1007.050,165.474 1017.789,165.474 1028.528,165.474 1039.267,165.474 1050.006,165.474 1060.745,165.474 1071.485,165.474 1082.224,165.474 1092.963,165.474 1103.702,165.474 1114.441,165.474 1125.180,165.474 1135.919,165.474 1146.658,165.474 1157.397,165.474 1168.136,165.474 1178.875,165.474 1189.615,165.474 1200.354,165.474 1211.093,165.474 1221.832,165.474 1232.571,165.474 1243.310,165.474 "/>
<g>
</g>
</g>
<g id="ID000015" clip-path="url(#ID000001)" >
      <polyline fill="none" stroke="#bf00bf" stroke-width="0.5pt" stroke-dasharray="none" points="190.879,125.171 201.618,91.138 212.357,109.050 223.096,128.754 233.835,91.138 244.574,83.973 255.313,78.599 266.052,83.973 276.792,127.858 287.531,124.276 298.270,51.731 309.009,100.990 319.748,141.292 330.487,162.787 341.226,162.787 351.965,162.787 362.704,162.787 373.443,165.474 384.182,165.474 394.922,165.474 405.661,165.474 416.400,165.474 427.139,165.474 437.878,165.474 448.617,165.474 459.356,165.474 470.095,165.474 480.834,165.474 491.573,165.474 502.312,165.474 513.052,165.474 523.791,165.474 534.530,165.474 545.269,165.474 556.008,165.474 566.747,165.474 577.486,165.474 588.225,165.474 598.964,165.474 609.703,165.474 620.443,165.474 631.182,165.474 641.921,165.474 652.660,165.474 663.399,165.474 674.138,165.474 684.877,165.474 695.616,165.474 706.355,165.474 717.094,165.474 727.833,165.474 738.573,165.474 749.312,165.474 760.051,165.474 770.790,165.474 781.529,165.474 792.268,165.474 803.007,165.474 813.746,165.474 824.485,165.474 835.224,165.474 845.964,165.474 856.703,165.474 867.442,165.474 878.181,165.474 888.920,165.474 899.659,165.474 910.398,165.474 921.137,165.474 931.876,165.474 942.615,165.474 953.354,165.474 964.094,165.474 974.833,165.474 985.572,165.474 996.311,165.474 1007.050,165.474 1017.789,165.474 1028.528,165.474 1039.267,165.474 1050.006,165.474 1060.745,165.474 1071.485,165.474 1082.224,165.474 1092.963,165.474 1103.702,165.474 1114.441,165.474 1125.180,165.474 1135.919,165.474 1146.658,165.474 1157.397,165.474 1168.136,165.474 1178.875,165.474 1189.615,165.474 1200.354,165.474 1211.093,165.474 1221.832,165.474 1232.571,165.474 1243.310,165.474 "/>
<g>
</g>
</g>
<g id="ID000016" clip-path="url(#ID000001)" >
      <polyline fill="none" stroke="#bfbf00" stroke-width="0.5pt" stroke-dasharray="none" points="190.879,99.198 201.618,108.155 212.357,126.962 223.096,100.094 233.835,135.919 244.574,92.929 255.313,143.084 266.052,143.084 276.792,119.798 287.531,147.562 298.270,146.666 309.009,154.727 319.748,154.727 330.487,155.622 341.226,155.622 351.965,152.935 362.704,154.727 373.443,156.518 384.182,165.474 394.922,165.474 405.661,165.474 416.400,165.474 427.139,165.474 437.878,165.474 448.617,165.474 459.356,165.474 470.095,165.474 480.834,165.474 491.573,165.474 502.312,165.474 513.052,165.474 523.791,165.474 534.530,165.474 545.269,165.474 556.008,165.474 566.747,165.474 577.486,165.474 588.225,165.474 598.964,165.474 609.703,165.474 620.443,165.474 631.182,165.474 641.921,165.474 652.660,165.474 663.399,165.474 674.138,165.474 684.877,165.474 695.616,165.474 706.355,165.474 717.094,165.474 727.833,165.474 738.573,165.474 749.312,165.474 760.051,165.474 770.790,165.474 781.529,165.474 792.268,165.474 803.007,165.474 813.746,165.474 824.485,165.474 835.224,165.474 845.964,165.474 856.703,165.474 867.442,165.474 878.181,165.474 888.920,165.474 899.659,165.474 910.398,165.474 921.137,165.474 931.876,165.474 942.615,165.474 953.354,165.474 964.094,165.474 974.833,165.474 985.572,165.474 996.311,165.474 1007.050,165.474 1017.789,165.474 1028.528,165.474 1039.267,165.474 1050.006,165.474 1060.745,165.474 1071.485,165.474 1082.224,165.474 1092.963,165.474 1103.702,165.474 1114.441,165.474 1125.180,165.474 1135.919,165.474 1146.658,165.474 1157.397,165.474 1168.136,165.474 1178.875,165.474 1189.615,165.474 1200.354,165.474 1211.093,165.474 1221.832,165.474 1232.571,165.474 1243.310,165.474 "/>
<g>
</g>
</g>
<g id="ID000017" clip-path="url(#ID000001)" >
      <polyline fill="none" stroke="#3f3f3f" stroke-width="0.5pt" stroke-dasharray="none" points="190.879,77.704 201.618,134.127 212.357,110.841 223.096,99.198 233.835,109.946 244.574,137.710 255.313,122.484 266.052,114.424 276.792,71.434 287.531,36.505 298.270,83.077 309.009,99.198 319.748,92.929 330.487,121.589 341.226,147.562 351.965,137.710 362.704,126.067 373.443,58.896 384.182,139.501 394.922,96.512 405.661,90.242 416.400,128.754 427.139,103.676 437.878,128.754 448.617,109.050 459.356,108.155 470.095,123.380 480.834,127.858 491.573,80.390 502.312,86.660 513.052,107.259 523.791,160.100 534.530,160.100 545.269,160.100 556.008,160.100 566.747,160.100 577.486,160.100 588.225,158.309 598.964,157.413 609.703,165.474 620.443,165.474 631.182,165.474 641.921,165.474 652.660,165.474 663.399,165.474 674.138,165.474 684.877,165.474 695.616,165.474 706.355,165.474 717.094,165.474 727.833,165.474 738.573,165.474 749.312,165.474 760.051,165.474 770.790,165.474 781.529,165.474 792.268,165.474 803.007,165.474 813.746,165.474 824.485,165.474 835.224,165.474 845.964,165.474 856.703,165.474 867.442,165.474 878.181,165.474 888.920,165.474 899.659,165.474 910.398,165.474 921.137,165.474 931.876,165.474 942.615,165.474 953.354,165.474 964.094,165.474 974.833,165.474 985.572,165.474 996.311,165.474 1007.050,165.474 1017.789,165.474 1028.528,165.474 1039.267,165.474 1050.006,165.474 1060.745,165.474 1071.485,165.474 1082.224,165.474 1092.963,165.474 1103.702,165.474 1114.441,165.474 1125.180,165.474 1135.919,165.474 1146.658,165.474 1157.397,165.474 1168.136,165.474 1178.875,165.474 1189.615,165.474 1200.354,165.474 1211.093,165.474 1221.832,165.474 1232.571,165.474 1243.310,165.474 "/>
<g>
</g>
</g>
<g id="ID000018" clip-path="url(#ID000001)" >
      <polyline fill="none" stroke="#0000ff" stroke-width="0.5pt" stroke-dasharray="none" points="190.879,133.232 201.618,88.451 212.357,94.720 223.096,146.666 233.835,85.764 244.574,141.292 255.313,84.868 266.052,123.380 276.792,39.192 287.531,70.539 298.270,114.424 309.009,75.912 319.748,142.188 330.487,136.814 341.226,120.693 351.965,142.188 362.704,147.562 373.443,116.215 384.182,107.259 394.922,136.814 405.661,147.562 416.400,152.935 427.139,160.100 437.878,157.413 448.617,157.413 459.356,157.413 470.095,152.935 480.834,158.309 491.573,158.309 502.312,158.309 513.052,158.309 523.791,158.309 534.530,158.309 545.269,152.935 556.008,154.727 566.747,154.727 577.486,154.727 588.225,154.727 598.964,154.727 609.703,154.727 620.443,145.770 631.182,160.100 641.921,160.100 652.660,163.683 663.399,163.683 674.138,163.683 684.877,163.683 695.616,163.683 706.355,163.683 717.094,163.683 727.833,163.683 738.573,163.683 749.312,163.683 760.051,163.683 770.790,163.683 781.529,163.683 792.268,163.683 803.007,163.683 813.746,163.683 824.485,163.683 835.224,163.683 845.964,163.683 856.703,164.578 867.442,164.578 878.181,164.578 888.920,164.578 899.659,164.578 910.398,164.578 921.137,164.578 931.876,165.474 942.615,165.474 953.354,165.474 964.094,165.474 974.833,165.474 985.572,165.474 996.311,165.474 1007.050,165.474 1017.789,165.474 1028.528,165.474 1039.267,165.474 1050.006,165.474 1060.745,165.474 1071.485,165.474 1082.224,165.474 1092.963,165.474 1103.702,165.474 1114.441,165.474 1125.180,165.474 1135.919,165.474 1146.658,165.474 1157.397,165.474 1168.136,165.474 1178.875,165.474 1189.615,165.474 1200.354,165.474 1211.093,165.474 1221.832,165.474 1232.571,165.474 1243.310,165.474 "/>
<g>
</g>
</g>
<g id="ID000019" clip-path="url(#ID000001)" >
      <polyline fill="none" stroke="#007f00" stroke-width="0.5pt" stroke-dasharray="none" points="190.879,86.660 201.618,93.825 212.357,95.616 223.096,79.495 233.835,101.885 244.574,140.397 255.313,150.249 266.052,143.084 276.792,131.441 287.531,139.501 298.270,92.929 309.009,89.347 319.748,146.666 330.487,70.539 341.226,138.606 351.965,126.067 362.704,79.495 373.443,94.720 384.182,92.929 394.922,123.380 405.661,83.973 416.400,162.787 427.139,162.787 437.878,162.787 448.617,163.683 459.356,165.474 470.095,165.474 480.834,165.474 491.573,165.474 502.312,165.474 513.052,165.474 523.791,165.474 534.530,165.474 545.269,165.474 556.008,165.474 566.747,165.474 577.486,165.474 588.225,165.474 598.964,165.474 609.703,165.474 620.443,165.474 631.182,165.474 641.921,165.474 652.660,165.474 663.399,165.474 674.138,165.474 684.877,165.474 695.616,165.474 706.355,165.474 717.094,165.474 727.833,165.474 738.573,165.474 749.312,165.474 760.051,165.474 770.790,165.474 781.529,165.474 792.268,165.474 803.007,165.474 813.746,165.474 824.485,165.474 835.224,165.474 845.964,165.474 856.703,165.474 867.442,165.474 878.181,165.474 888.920,165.474 899.659,165.474 910.398,165.474 921.137,165.474 931.876,165.474 942.615,165.474 953.354,165.474 964.094,165.474 974.833,165.474 985.572,165.474 996.311,165.474 1007.050,165.474 1017.789,165.474 1028.528,165.474 1039.267,165.474 1050.006,165.474 1060.745,165.474 1071.485,165.474 1082.224,165.474 1092.963,165.474 1103.702,165.474 1114.441,165.474 1125.180,165.474 1135.919,165.474 1146.658,165.474 1157.397,165.474 1168.136,165.474 1178.875,165.474 1189.615,165.474 1200.354,165.474 1211.093,165.474 1221.832,165.474 1232.571,165.474 1243.310,165.474 "/>
<g>
</g>
</g>
<g id="ID000020" clip-path="url(#ID000001)" >
      <polyline fill="none" stroke="#ff0000" stroke-width="0.5pt" stroke-dasharray="none" points="190.879,92.929 201.618,88.451 212.357,123.380 223.096,131.441 233.835,83.973 244.574,114.424 255.313,89.347 266.052,112.633 276.792,135.919 287.531,126.962 298.270,119.798 309.009,86.660 319.748,112.633 330.487,117.111 341.226,68.747 351.965,78.599 362.704,107.259 373.443,121.589 384.182,125.171 394.922,102.781 405.661,83.973 416.400,72.330 427.139,54.418 437.878,89.347 448.617,52.626 459.356,105.468 470.095,92.033 480.834,143.979 491.573,124.276 502.312,103.676 513.052,86.660 523.791,86.660 534.530,109.050 545.269,102.781 556.008,135.023 566.747,85.764 577.486,107.259 588.225,134.127 598.964,87.555 609.703,143.084 620.443,83.077 631.182,105.468 641.921,162.787 652.660,162.787 663.399,162.787 674.138,162.787 684.877,162.787 695.616,162.787 706.355,162.787 717.094,162.787 727.833,162.787 738.573,162.787 749.312,162.787 760.051,162.787 770.790,162.787 781.529,162.787 792.268,162.787 803.007,162.787 813.746,162.787 824.485,162.787 835.224,162.787 845.964,162.787 856.703,162.787 867.442,162.787 878.181,162.787 888.920,162.787 899.659,162.787 910.398,162.787 921.137,162.787 931.876,163.683 942.615,163.683 953.354,163.683 964.094,163.683 974.833,163.683 985.572,163.683 996.311,163.683 1007.050,163.683 1017.789,163.683 1028.528,163.683 1039.267,163.683 1050.006,163.683 1060.745,163.683 1071.485,163.683 1082.224,163.683 1092.963,163.683 1103.702,163.683 1114.441,162.787 1125.180,162.787 1135.919,163.683 1146.658,163.683 1157.397,163.683 1168.136,163.683 1178.875,163.683 1189.615,163.683 1200.354,163.683 1211.093,163.683 1221.832,163.683 1232.571,163.683 1243.310,163.683 "/>
<g>
</g>
</g>
<g id="ID000021" clip-path="url(#ID000001)" >
      <polyline fill="none" stroke="#00bfbf" stroke-width="0.5pt" stroke-dasharray="none" points="190.879,112.633 201.618,88.451 212.357,98.303 223.096,100.094 233.835,117.111 244.574,149.353 255.313,147.562 266.052,147.562 276.792,146.666 287.531,124.276 298.270,43.670 309.009,123.380 319.748,92.033 330.487,69.643 341.226,99.198 351.965,92.033 362.704,117.111 373.443,102.781 384.182,81.286 394.922,98.303 405.661,135.023 416.400,109.946 427.139,130.545 437.878,147.562 448.617,132.336 459.356,97.407 470.095,77.704 480.834,135.023 491.573,129.649 502.312,126.962 513.052,147.562 523.791,83.973 534.530,92.929 545.269,88.451 556.008,98.303 566.747,90.242 577.486,123.380 588.225,95.616 598.964,105.468 609.703,141.292 620.443,45.461 631.182,98.303 641.921,95.616 652.660,74.121 663.399,135.023 674.138,111.737 684.877,112.633 695.616,103.676 706.355,74.121 717.094,64.269 727.833,105.468 738.573,150.249 749.312,79.495 760.051,75.017 770.790,100.990 781.529,124.276 792.268,92.929 803.007,137.710 813.746,109.946 824.485,93.825 835.224,71.434 845.964,100.990 856.703,136.814 867.442,118.006 878.181,120.693 888.920,142.188 899.659,122.484 910.398,66.956 921.137,94.720 931.876,132.336 942.615,121.589 953.354,126.962 964.094,140.397 974.833,102.781 985.572,102.781 996.311,99.198 1007.050,122.484 1017.789,63.374 1028.528,112.633 1039.267,155.622 1050.006,155.622 1060.745,160.100 1071.485,160.100 1082.224,160.100 1092.963,160.100 1103.702,160.100 1114.441,161.892 1125.180,161.892 1135.919,163.683 1146.658,163.683 1157.397,163.683 1168.136,163.683 1178.875,163.683 1189.615,163.683 1200.354,163.683 1211.093,163.683 1221.832,163.683 1232.571,163.683 1243.310,163.683 "/>
<g>
</g>
</g>
<g id="ID000022" clip-path="url(#ID000001)" >
      <polyline fill="none" stroke="#bf00bf" stroke-width="0.5pt" stroke-dasharray="none" points="190.879,68.747 201.618,93.825 212.357,97.407 223.096,145.770 233.835,99.198 244.574,74.121 255.313,75.912 266.052,119.798 276.792,102.781 287.531,106.363 298.270,109.050 309.009,96.512 319.748,121.589 330.487,142.188 341.226,74.121 351.965,142.188 362.704,139.501 373.443,80.390 384.182,94.720 394.922,142.188 405.661,137.710 416.400,121.589 427.139,139.501 437.878,98.303 448.617,141.292 459.356,60.687 470.095,50.835 480.834,125.171 491.573,108.155 502.312,85.764 513.052,112.633 523.791,126.962 534.530,109.946 545.269,92.929 556.008,131.441 566.747,139.501 577.486,160.996 588.225,160.996 598.964,112.633 609.703,158.309 620.443,158.309 631.182,162.787 641.921,162.787 652.660,162.787 663.399,162.787 674.138,162.787 684.877,163.683 695.616,163.683 706.355,163.683 717.094,165.474 727.833,165.474 738.573,165.474 749.312,165.474 760.051,165.474 770.790,165.474 781.529,165.474 792.268,165.474 803.007,165.474 813.746,165.474 824.485,165.474 835.224,165.474 845.964,165.474 856.703,165.474 867.442,165.474 878.181,165.474 888.920,165.474 899.659,165.474 910.398,165.474 921.137,165.474 931.876,165.474 942.615,165.474 953.354,165.474 964.094,165.474 974.833,165.474 985.572,165.474 996.311,165.474 1007.050,165.474 1017.789,165.474 1028.528,165.474 1039.267,165.474 1050.006,165.474 1060.745,165.474 1071.485,165.474 1082.224,165.474 1092.963,165.474 1103.702,165.474 1114.441,165.474 1125.180,165.474 1135.919,165.474 1146.658,165.474 1157.397,165.474 1168.136,165.474 1178.875,165.474 1189.615,165.474 1200.354,165.474 1211.093,165.474 1221.832,165.474 1232.571,165.474 1243.310,165.474 "/>
<g>
</g>
</g>
<g id="ID000023" clip-path="url(#ID000001)" >
      <polyline fill="none" stroke="#bfbf00" stroke-width="0.5pt" stroke-dasharray="none" points="190.879,100.094 201.618,104.572 212.357,126.962 223.096,91.138 233.835,152.040 244.574,152.040 255.313,148.457 266.052,76.808 276.792,114.424 287.531,54.418 298.270,84.868 309.009,106.363 319.748,90.242 330.487,75.912 341.226,127.858 351.965,142.188 362.704,98.303 373.443,124.276 384.182,77.704 394.922,68.747 405.661,100.990 416.400,83.973 427.139,114.424 437.878,88.451 448.617,94.720 459.356,160.100 470.095,162.787 480.834,162.787 491.573,165.474 502.312,165.474 513.052,165.474 523.791,165.474 534.530,165.474 545.269,165.474 556.008,165.474 566.747,165.474 577.486,165.474 588.225,165.474 598.964,165.474 609.703,165.474 620.443,165.474 631.182,165.474 641.921,165.474 652.660,165.474 663.399,165.474 674.138,165.474 684.877,165.474 695.616,165.474 706.355,165.474 717.094,165.474 727.833,165.474 738.573,165.474 749.312,165.474 760.051,165.474 770.790,165.474 781.529,165.474 792.268,165.474 803.007,165.474 813.746,165.474 824.485,165.474 835.224,165.474 845.964,165.474 856.703,165.474 867.442,165.474 878.181,165.474 888.920,165.474 899.659,165.474 910.398,165.474 921.137,165.474 931.876,165.474 942.615,165.474 953.354,165.474 964.094,165.474 974.833,165.474 985.572,165.474 996.311,165.474 1007.050,165.474 1017.789,165.474 1028.528,165.474 1039.267,165.474 1050.006,165.474 1060.745,165.474 1071.485,165.474 1082.224,165.474 1092.963,165.474 1103.702,165.474 1114.441,165.474 1125.180,165.474 1135.919,165.474 1146.658,165.474 1157.397,165.474 1168.136,165.474 1178.875,165.474 1189.615,165.474 1200.354,165.474 1211.093,165.474 1221.832,165.474 1232.571,165.474 1243.310,165.474 "/>
<g>
</g>
</g>
<g id="ID000024" >
</g>
    </g>
    <g>
      <polyline fill="none" stroke="#000000" stroke-width="0.5pt" stroke-dasharray="none" points="180.140,165.474 180.140,154.735 "/>
      <polyline fill="none" stroke="#000000" stroke-width="0.5pt" stroke-dasharray="none" points="287.531,165.474 287.531,154.735 "/>
      <polyline fill="none" stroke="#000000" stroke-width="0.5pt" stroke-dasharray="none" points="394.922,165.474 394.922,154.735 "/>
      <polyline fill="none" stroke="#000000" stroke-width="0.5pt" stroke-dasharray="none" points="502.313,165.474 502.313,154.735 "/>
      <polyline fill="none" stroke="#000000" stroke-width="0.5pt" stroke-dasharray="none" points="609.703,165.474 609.703,154.735 "/>
      <polyline fill="none" stroke="#000000" stroke-width="0.5pt" stroke-dasharray="none" points="717.094,165.474 717.094,154.735 "/>
      <polyline fill="none" stroke="#000000" stroke-width="0.5pt" stroke-dasharray="none" points="824.485,165.474 824.485,154.735 "/>
      <polyline fill="none" stroke="#000000" stroke-width="0.5pt" stroke-dasharray="none" points="931.876,165.474 931.876,154.735 "/>
      <polyline fill="none" stroke="#000000" stroke-width="0.5pt" stroke-dasharray="none" points="1039.267,165.474 1039.267,154.735 "/>
      <polyline fill="none" stroke="#000000" stroke-width="0.5pt" stroke-dasharray="none" points="1146.658,165.474 1146.658,154.735 "/>
      <polyline fill="none" stroke="#000000" stroke-width="0.5pt" stroke-dasharray="none" points="1254.049,165.474 1254.049,154.735 "/>
      <polyline fill="none" stroke="#000000" stroke-width="0.5pt" stroke-dasharray="none" points="180.140,165.474 1254.049,165.474 "/>
  <g transform="translate(180.140,177.316)">
    <g transform="rotate(-0.0)">
      <text x="0.000" y="0.000" font-family="Helvetica" text-anchor="middle" font-size="8pt" fill="#000000" >0</text>
    </g>
  </g>
  <g transform="translate(287.531,177.316)">
    <g transform="rotate(-0.0)">
      <text x="0.000" y="0.000" font-family="Helvetica" text-anchor="middle" font-size="8pt" fill="#000000" >10</text>
    </g>
  </g>
  <g transform="translate(394.922,177.316)">
    <g transform="rotate(-0.0)">
      <text x="0.000" y="0.000" font-family="Helvetica" text-anchor="middle" font-size="8pt" fill="#000000" >20</text>
    </g>
  </g>
  <g transform="translate(502.313,177.316)">
    <g transform="rotate(-0.0)">
      <text x="0.000" y="0.000" font-family="Helvetica" text-anchor="middle" font-size="8pt" fill="#000000" >30</text>
    </g>
  </g>
  <g transform="translate(609.703,177.316)">
    <g transform="rotate(-0.0)">
      <text x="0.000" y="0.000" font-family="Helvetica" text-anchor="middle" font-size="8pt" fill="#000000" >40</text>
    </g>
  </g>
  <g transform="translate(717.094,177.316)">
    <g transform="rotate(-0.0)">
      <text x="0.000" y="0.000" font-family="Helvetica" text-anchor="middle" font-size="8pt" fill="#000000" >50</text>
    </g>
  </g>
  <g transform="translate(824.485,177.316)">
    <g transform="rotate(-0.0)">
      <text x="0.000" y="0.000" font-family="Helvetica" text-anchor="middle" font-size="8pt" fill="#000000" >60</text>
    </g>
  </g>
  <g transform="translate(931.876,177.316)">
    <g transform="rotate(-0.0)">
      <text x="0.000" y="0.000" font-family="Helvetica" text-anchor="middle" font-size="8pt" fill="#000000" >70</text>
    </g>
  </g>
  <g transform="translate(1039.267,177.316)">
    <g transform="rotate(-0.0)">
      <text x="0.000" y="0.000" font-family="Helvetica" text-anchor="middle" font-size="8pt" fill="#000000" >80</text>
    </g>
  </g>
  <g transform="translate(1146.658,177.316)">
    <g transform="rotate(-0.0)">
      <text x="0.000" y="0.000" font-family="Helvetica" text-anchor="middle" font-size="8pt" fill="#000000" >90</text>
    </g>
  </g>
  <g transform="translate(1254.049,177.316)">
    <g transform="rotate(-0.0)">
      <text x="0.000" y="0.000" font-family="Helvetica" text-anchor="middle" font-size="8pt" fill="#000000" >100</text>
    </g>
  </g>
      <polyline fill="none" stroke="#000000" stroke-width="0.5pt" stroke-dasharray="none" points="180.140,165.474 190.879,165.474 "/>
      <polyline fill="none" stroke="#000000" stroke-width="0.5pt" stroke-dasharray="none" points="180.140,120.693 190.879,120.693 "/>
      <polyline fill="none" stroke="#000000" stroke-width="0.5pt" stroke-dasharray="none" points="180.140,75.912 190.879,75.912 "/>
      <polyline fill="none" stroke="#000000" stroke-width="0.5pt" stroke-dasharray="none" points="180.140,31.131 190.879,31.131 "/>
      <polyline fill="none" stroke="#000000" stroke-width="0.5pt" stroke-dasharray="none" points="180.140,165.474 180.140,31.131 "/>
  <g transform="translate(158.661,168.965)">
    <g transform="rotate(-0.0)">
      <text x="0.000" y="0.000" font-family="Helvetica" text-anchor="end" font-size="8pt" fill="#000000" >0</text>
    </g>
  </g>
  <g transform="translate(158.661,124.185)">
    <g transform="rotate(-0.0)">
      <text x="0.000" y="0.000" font-family="Helvetica" text-anchor="end" font-size="8pt" fill="#000000" >50</text>
    </g>
  </g>
  <g transform="translate(158.661,79.404)">
    <g transform="rotate(-0.0)">
      <text x="0.000" y="0.000" font-family="Helvetica" text-anchor="end" font-size="8pt" fill="#000000" >100</text>
    </g>
  </g>
  <g transform="translate(158.661,34.623)">
    <g transform="rotate(-0.0)">
      <text x="0.000" y="0.000" font-family="Helvetica" text-anchor="end" font-size="8pt" fill="#000000" >150</text>
    </g>
  </g>
      <polyline fill="none" stroke="#000000" stroke-width="0.5pt" stroke-dasharray="none" points="180.140,165.474 180.140,164.131 "/>
      <polyline fill="none" stroke="#000000" stroke-width="0.5pt" stroke-dasharray="none" points="180.140,165.474 180.140,164.131 "/>
      <polyline fill="none" stroke="#000000" stroke-width="0.5pt" stroke-dasharray="none" points="180.140,165.474 180.140,164.131 "/>
      <polyline fill="none" stroke="#000000" stroke-width="0.5pt" stroke-dasharray="none" points="180.140,165.474 180.140,165.474 "/>
    </g>
  </g>
  <g id ="ID000025">
  <clipPath id="ID000026">
    <rect x="180.140" y="227.815" width="1073.909" height="134.343"/>
  </clipPath>
      <polygon fill="#ffffff" fill-opacity="1.00" stroke="none" stroke-width="0.5pt" stroke-opacity="1.00" stroke-dasharray="none" points="180.140,362.157 1254.049,362.157 1254.049,227.815 180.140,227.815 "/>
      <polygon fill="#ffffff" fill-opacity="1.00" stroke="none" stroke-width="0.5pt" stroke-opacity="1.00" stroke-dasharray="none" points="180.140,362.157 1254.049,362.157 1254.049,362.157 180.140,362.157 "/>
      <polygon fill="#ffffff" fill-opacity="1.00" stroke="none" stroke-width="0.5pt" stroke-opacity="1.00" stroke-dasharray="none" points="180.140,362.157 180.140,362.157 180.140,227.815 180.140,227.815 "/>
      <polyline fill="none" stroke="#000000" stroke-width="0.5pt" stroke-dasharray="2.0,2.0" points="180.140,362.157 180.140,227.815 "/>
      <polyline fill="none" stroke="#000000" stroke-width="0.5pt" stroke-dasharray="2.0,2.0" points="287.531,362.157 287.531,227.815 "/>
      <polyline fill="none" stroke="#000000" stroke-width="0.5pt" stroke-dasharray="2.0,2.0" points="394.922,362.157 394.922,227.815 "/>
      <polyline fill="none" stroke="#000000" stroke-width="0.5pt" stroke-dasharray="2.0,2.0" points="502.313,362.157 502.313,227.815 "/>
      <polyline fill="none" stroke="#000000" stroke-width="0.5pt" stroke-dasharray="2.0,2.0" points="609.703,362.157 609.703,227.815 "/>
      <polyline fill="none" stroke="#000000" stroke-width="0.5pt" stroke-dasharray="2.0,2.0" points="717.094,362.157 717.094,227.815 "/>
      <polyline fill="none" stroke="#000000" stroke-width="0.5pt" stroke-dasharray="2.0,2.0" points="824.485,362.157 824.485,227.815 "/>
      <polyline fill="none" stroke="#000000" stroke-width="0.5pt" stroke-dasharray="2.0,2.0" points="931.876,362.157 931.876,227.815 "/>
      <polyline fill="none" stroke="#000000" stroke-width="0.5pt" stroke-dasharray="2.0,2.0" points="1039.267,362.157 1039.267,227.815 "/>
      <polyline fill="none" stroke="#000000" stroke-width="0.5pt" stroke-dasharray="2.0,2.0" points="1146.658,362.157 1146.658,227.815 "/>
      <polyline fill="none" stroke="#000000" stroke-width="0.5pt" stroke-dasharray="2.0,2.0" points="1254.049,362.157 1254.049,227.815 "/>
      <polyline fill="none" stroke="#000000" stroke-width="0.5pt" stroke-dasharray="2.0,2.0" points="180.140,362.157 180.140,362.157 "/>
      <polyline fill="none" stroke="#000000" stroke-width="0.5pt" stroke-dasharray="2.0,2.0" points="287.531,362.157 287.531,362.157 "/>
      <polyline fill="none" stroke="#000000" stroke-width="0.5pt" stroke-dasharray="2.0,2.0" points="394.922,362.157 394.922,362.157 "/>
      <polyline fill="none" stroke="#000000" stroke-width="0.5pt" stroke-dasharray="2.0,2.0" points="502.313,362.157 502.313,362.157 "/>
      <polyline fill="none" stroke="#000000" stroke-width="0.5pt" stroke-dasharray="2.0,2.0" points="609.703,362.157 609.703,362.157 "/>
      <polyline fill="none" stroke="#000000" stroke-width="0.5pt" stroke-dasharray="2.0,2.0" points="717.094,362.157 717.094,362.157 "/>
      <polyline fill="none" stroke="#000000" stroke-width="0.5pt" stroke-dasharray="2.0,2.0" points="824.485,362.157 824.485,362.157 "/>
      <polyline fill="none" stroke="#000000" stroke-width="0.5pt" stroke-dasharray="2.0,2.0" points="931.876,362.157 931.876,362.157 "/>
      <polyline fill="none" stroke="#000000" stroke-width="0.5pt" stroke-dasharray="2.0,2.0" points="1039.267,362.157 1039.267,362.157 "/>
      <polyline fill="none" stroke="#000000" stroke-width="0.5pt" stroke-dasharray="2.0,2.0" points="1146.658,362.157 1146.658,362.157 "/>
      <polyline fill="none" stroke="#000000" stroke-width="0.5pt" stroke-dasharray="2.0,2.0" points="1254.049,362.157 1254.049,362.157 "/>
    <g>
<g id="ID000027" >
  <g transform="translate(716.706,395.305)">
    <g transform="rotate(-0.0)">
      <text x="0.000" y="0.000" font-family="Helvetica" text-anchor="middle" font-size="12pt" fill="#142b8c" >Search Evolution Steps</text>
    </g>
  </g>
</g>
<g id="ID000028" >
  <g transform="translate(150.266,295.763)">
    <g transform="rotate(-90.0)">
      <text x="0.000" y="0.000" font-family="Helvetica" text-anchor="middle" font-size="12pt" fill="#142b8c" >Cost (Euros)</text>
    </g>
  </g>
</g>
<g id="ID000029" clip-path="url(#ID000026)" >
      <polyline fill="none" stroke="#0000ff" stroke-width="0.5pt" stroke-dasharray="none" points="459.356,263.383 470.095,259.874 480.834,258.712 491.573,258.712 502.312,258.712 513.052,258.712 523.791,258.712 534.530,258.712 545.269,258.712 556.008,258.712 566.747,258.712 577.486,258.712 588.225,258.712 598.964,258.712 609.703,258.712 620.443,258.712 631.182,258.712 641.921,258.712 652.660,259.658 663.399,259.658 674.138,259.658 684.877,301.606 695.616,301.606 706.355,301.606 717.094,302.580 727.833,302.580 738.573,302.580 749.312,290.167 760.051,290.167 770.790,296.270 781.529,296.270 792.268,296.270 803.007,296.270 813.746,296.270 824.485,287.302 835.224,287.302 845.964,287.302 856.703,287.302 867.442,287.302 878.181,287.302 888.920,287.302 899.659,287.302 910.398,287.302 921.137,287.302 931.876,287.302 942.615,287.302 953.354,287.302 964.094,287.302 974.833,287.302 985.572,287.302 996.311,287.302 1007.050,287.302 1017.789,287.302 1028.528,292.000 1039.267,292.000 1050.006,292.000 1060.745,292.000 1071.485,292.000 1082.224,293.589 1092.963,293.589 1103.702,293.589 1114.441,293.589 1125.180,307.106 1135.919,307.106 1146.658,307.106 1157.397,307.106 1168.136,307.106 1178.875,307.055 1189.615,307.055 1200.354,307.055 1211.093,307.055 1221.832,307.055 1232.571,307.055 1243.310,307.055 "/>
<g>
</g>
</g>
<g id="ID000030" clip-path="url(#ID000026)" >
      <polyline fill="none" stroke="#007f00" stroke-width="0.5pt" stroke-dasharray="none" points="1221.832,266.446 1232.571,266.446 1243.310,267.481 "/>
<g>
</g>
</g>
<g id="ID000031" clip-path="url(#ID000026)" >
<g>
</g>
</g>
<g id="ID000032" clip-path="url(#ID000026)" >
<g>
</g>
</g>
<g id="ID000033" clip-path="url(#ID000026)" >
      <polyline fill="none" stroke="#bf00bf" stroke-width="0.5pt" stroke-dasharray="none" points="598.964,305.043 609.703,305.043 620.443,304.755 631.182,304.974 641.921,303.512 652.660,303.512 663.399,303.512 674.138,303.431 684.877,303.431 695.616,303.431 706.355,303.431 717.094,297.405 727.833,297.405 738.573,297.405 749.312,297.405 760.051,307.524 770.790,307.524 781.529,307.524 792.268,307.524 803.007,307.415 813.746,307.415 824.485,309.938 835.224,309.062 845.964,309.062 856.703,309.062 867.442,310.297 878.181,310.297 888.920,306.746 899.659,306.746 910.398,306.746 921.137,306.746 931.876,306.746 942.615,306.746 953.354,306.746 964.094,306.746 974.833,306.746 985.572,306.746 996.311,306.746 1007.050,306.746 1017.789,306.746 1028.528,306.746 1039.267,306.746 1050.006,306.746 1060.745,306.746 1071.485,306.746 1082.224,306.746 1092.963,306.746 1103.702,306.746 1114.441,306.746 1125.180,306.746 1135.919,306.746 1146.658,306.746 1157.397,306.746 1168.136,306.746 1178.875,306.746 1189.615,306.746 1200.354,312.311 1211.093,312.311 1221.832,312.311 1232.571,312.311 1243.310,312.311 "/>
<g>
</g>
</g>
<g id="ID000034" clip-path="url(#ID000026)" >
      <polyline fill="none" stroke="#bfbf00" stroke-width="0.5pt" stroke-dasharray="none" points="964.094,297.193 974.833,297.193 985.572,297.193 996.311,297.193 1007.050,297.109 1017.789,297.109 1028.528,297.109 1039.267,297.109 1050.006,297.109 1060.745,297.109 1071.485,297.109 1082.224,297.109 1092.963,297.109 1103.702,297.109 1114.441,297.109 1125.180,297.109 1135.919,297.109 1146.658,297.109 1157.397,297.109 1168.136,297.093 1178.875,297.093 1189.615,297.093 1200.354,297.093 1211.093,297.093 1221.832,297.093 1232.571,297.093 1243.310,297.093 "/>
<g>
</g>
</g>
<g id="ID000035" clip-path="url(#ID000026)" >
      <polyline fill="none" stroke="#3f3f3f" stroke-width="0.5pt" stroke-dasharray="none" points="770.790,303.526 781.529,303.526 792.268,303.526 803.007,303.526 813.746,303.526 824.485,303.526 835.224,303.526 845.964,303.526 856.703,303.526 867.442,303.526 878.181,303.526 888.920,303.526 899.659,306.360 910.398,306.360 921.137,306.360 931.876,306.360 942.615,306.360 953.354,306.360 964.094,306.360 974.833,306.360 985.572,296.599 996.311,296.599 1007.050,296.599 1017.789,296.599 1028.528,296.599 1039.267,287.779 1050.006,287.779 1060.745,287.779 1071.485,288.942 1082.224,288.942 1092.963,288.942 1103.702,288.942 1114.441,287.645 1125.180,287.645 1135.919,287.645 1146.658,288.553 1157.397,288.553 1168.136,288.553 1178.875,288.553 1189.615,313.684 1200.354,313.684 1211.093,313.684 1221.832,313.684 1232.571,305.982 1243.310,305.982 "/>
<g>
</g>
</g>
<g id="ID000036" clip-path="url(#ID000026)" >
      <polyline fill="none" stroke="#0000ff" stroke-width="0.5pt" stroke-dasharray="none" points="470.095,261.397 480.834,261.397 491.573,265.941 502.312,265.941 513.052,305.060 523.791,305.060 534.530,305.060 545.269,305.060 556.008,305.060 566.747,305.060 577.486,305.060 588.225,305.060 598.964,308.463 609.703,308.463 620.443,308.463 631.182,308.463 641.921,307.902 652.660,292.499 663.399,291.625 674.138,286.358 684.877,286.358 695.616,286.358 706.355,308.594 717.094,308.798 727.833,308.664 738.573,308.664 749.312,308.664 760.051,308.664 770.790,308.664 781.529,308.664 792.268,308.664 803.007,308.664 813.746,308.664 824.485,329.166 835.224,329.166 845.964,329.166 856.703,329.166 867.442,329.166 878.181,329.166 888.920,329.166 899.659,329.166 910.398,329.166 921.137,329.166 931.876,329.166 942.615,329.166 953.354,329.166 964.094,329.166 974.833,330.042 985.572,331.862 996.311,331.862 1007.050,333.994 1017.789,335.405 1028.528,335.529 1039.267,335.349 1050.006,335.718 1060.745,335.920 1071.485,336.008 1082.224,335.816 1092.963,336.606 1103.702,336.717 1114.441,337.514 1125.180,336.253 1135.919,338.403 1146.658,336.487 1157.397,337.523 1168.136,345.816 1178.875,352.257 1189.615,352.257 1200.354,352.485 1211.093,354.225 1221.832,353.645 1232.571,354.225 1243.310,354.443 "/>
<g>
</g>
</g>
<g id="ID000037" clip-path="url(#ID000026)" >
      <polyline fill="none" stroke="#007f00" stroke-width="0.5pt" stroke-dasharray="none" points="921.137,243.802 931.876,243.802 942.615,243.802 953.354,243.802 964.094,243.802 974.833,243.802 985.572,236.963 996.311,236.963 1007.050,236.963 1017.789,236.963 1028.528,236.963 1039.267,236.963 1050.006,237.265 1060.745,237.265 1071.485,237.265 1082.224,241.550 1092.963,241.550 1103.702,241.550 1114.441,241.550 1125.180,247.243 1135.919,247.243 1146.658,247.243 1157.397,247.243 1168.136,247.243 1178.875,247.243 1189.615,247.243 1200.354,247.243 1211.093,247.361 1221.832,247.361 1232.571,247.361 1243.310,247.361 "/>
<g>
</g>
</g>
<g id="ID000038" clip-path="url(#ID000026)" >
      <polyline fill="none" stroke="#ff0000" stroke-width="0.5pt" stroke-dasharray="none" points="373.443,262.737 384.182,265.488 394.922,298.206 405.661,298.206 416.400,298.206 427.139,298.206 437.878,298.206 448.617,297.864 459.356,297.864 470.095,297.864 480.834,297.864 491.573,297.144 502.312,297.144 513.052,297.144 523.791,297.144 534.530,296.363 545.269,296.363 556.008,296.363 566.747,296.363 577.486,296.363 588.225,296.363 598.964,296.363 609.703,296.363 620.443,296.363 631.182,296.363 641.921,296.363 652.660,296.363 663.399,296.363 674.138,296.363 684.877,296.363 695.616,296.363 706.355,296.363 717.094,296.363 727.833,296.363 738.573,296.363 749.312,296.363 760.051,294.892 770.790,294.892 781.529,294.892 792.268,294.892 803.007,294.892 813.746,294.892 824.485,294.892 835.224,294.892 845.964,294.892 856.703,294.892 867.442,294.892 878.181,294.892 888.920,294.892 899.659,294.892 910.398,294.892 921.137,294.892 931.876,294.892 942.615,294.892 953.354,294.892 964.094,294.892 974.833,294.892 985.572,294.892 996.311,294.892 1007.050,294.892 1017.789,295.520 1028.528,295.520 1039.267,325.638 1050.006,325.638 1060.745,325.638 1071.485,325.638 1082.224,325.638 1092.963,325.638 1103.702,325.638 1114.441,325.638 1125.180,325.638 1135.919,325.638 1146.658,325.638 1157.397,325.638 1168.136,325.638 1178.875,325.638 1189.615,325.638 1200.354,325.638 1211.093,325.638 1221.832,325.638 1232.571,325.638 1243.310,325.638 "/>
<g>
</g>
</g>
<g id="ID000039" clip-path="url(#ID000026)" >
      <polyline fill="none" stroke="#00bfbf" stroke-width="0.5pt" stroke-dasharray="none" points="717.094,322.348 727.833,322.348 738.573,322.348 749.312,322.348 760.051,322.393 770.790,322.393 781.529,322.393 792.268,322.393 803.007,322.393 813.746,322.393 824.485,322.393 835.224,322.393 845.964,322.393 856.703,322.393 867.442,322.393 878.181,322.393 888.920,322.393 899.659,322.393 910.398,322.393 921.137,322.393 931.876,320.981 942.615,320.981 953.354,318.900 964.094,318.900 974.833,318.900 985.572,318.900 996.311,318.900 1007.050,318.900 1017.789,318.900 1028.528,318.900 1039.267,318.900 1050.006,319.079 1060.745,316.792 1071.485,316.792 1082.224,316.792 1092.963,316.853 1103.702,316.853 1114.441,316.853 1125.180,314.977 1135.919,314.977 1146.658,297.508 1157.397,297.508 1168.136,297.508 1178.875,297.489 1189.615,297.489 1200.354,297.489 1211.093,297.489 1221.832,297.489 1232.571,297.489 1243.310,302.034 "/>
<g>
</g>
</g>
<g id="ID000040" clip-path="url(#ID000026)" >
      <polyline fill="none" stroke="#bf00bf" stroke-width="0.5pt" stroke-dasharray="none" points="373.443,297.635 384.182,297.635 394.922,300.518 405.661,300.518 416.400,300.518 427.139,300.518 437.878,300.518 448.617,300.518 459.356,300.518 470.095,300.518 480.834,300.518 491.573,300.518 502.312,300.518 513.052,300.518 523.791,300.518 534.530,300.518 545.269,300.518 556.008,300.518 566.747,298.114 577.486,298.114 588.225,298.114 598.964,298.114 609.703,298.114 620.443,298.114 631.182,298.114 641.921,298.114 652.660,300.442 663.399,300.442 674.138,300.442 684.877,300.442 695.616,300.442 706.355,300.442 717.094,300.442 727.833,300.442 738.573,300.442 749.312,300.442 760.051,300.442 770.790,300.442 781.529,300.442 792.268,296.887 803.007,296.887 813.746,296.887 824.485,296.887 835.224,296.887 845.964,296.887 856.703,296.887 867.442,296.887 878.181,296.887 888.920,296.887 899.659,296.887 910.398,296.887 921.137,296.887 931.876,296.887 942.615,296.887 953.354,296.887 964.094,296.887 974.833,296.887 985.572,296.887 996.311,296.887 1007.050,296.887 1017.789,296.887 1028.528,296.887 1039.267,296.887 1050.006,296.946 1060.745,296.946 1071.485,296.946 1082.224,296.946 1092.963,296.946 1103.702,296.946 1114.441,296.946 1125.180,296.946 1135.919,296.946 1146.658,296.946 1157.397,296.946 1168.136,296.828 1178.875,296.828 1189.615,296.828 1200.354,296.828 1211.093,296.828 1221.832,296.828 1232.571,296.828 1243.310,296.828 "/>
<g>
</g>
</g>
<g id="ID000041" clip-path="url(#ID000026)" >
      <polyline fill="none" stroke="#bfbf00" stroke-width="0.5pt" stroke-dasharray="none" points="384.182,262.690 394.922,262.690 405.661,260.325 416.400,260.325 427.139,260.325 437.878,260.325 448.617,280.117 459.356,281.274 470.095,298.097 480.834,298.097 491.573,298.097 502.312,298.965 513.052,298.965 523.791,298.965 534.530,298.965 545.269,298.965 556.008,298.965 566.747,298.965 577.486,298.965 588.225,298.965 598.964,306.476 609.703,306.476 620.443,306.476 631.182,311.606 641.921,311.606 652.660,311.606 663.399,311.606 674.138,311.606 684.877,311.606 695.616,311.606 706.355,311.606 717.094,311.606 727.833,311.606 738.573,311.606 749.312,311.606 760.051,311.606 770.790,311.606 781.529,319.197 792.268,319.014 803.007,319.014 813.746,319.014 824.485,319.014 835.224,319.014 845.964,319.014 856.703,319.014 867.442,319.014 878.181,317.302 888.920,317.302 899.659,321.960 910.398,321.960 921.137,319.742 931.876,323.572 942.615,319.963 953.354,319.963 964.094,319.963 974.833,331.517 985.572,332.263 996.311,332.263 1007.050,333.726 1017.789,335.305 1028.528,333.319 1039.267,335.718 1050.006,335.703 1060.745,335.887 1071.485,336.267 1082.224,336.267 1092.963,336.203 1103.702,336.877 1114.441,338.159 1125.180,338.159 1135.919,338.144 1146.658,339.061 1157.397,339.061 1168.136,346.187 1178.875,352.257 1189.615,352.485 1200.354,354.225 1211.093,354.225 1221.832,354.225 1232.571,354.225 1243.310,354.343 "/>
<g>
</g>
</g>
<g id="ID000042" clip-path="url(#ID000026)" >
      <polyline fill="none" stroke="#3f3f3f" stroke-width="0.5pt" stroke-dasharray="none" points="609.703,267.962 620.443,265.937 631.182,265.937 641.921,265.937 652.660,284.930 663.399,284.930 674.138,284.930 684.877,284.930 695.616,284.930 706.355,284.930 717.094,285.821 727.833,285.821 738.573,285.821 749.312,285.821 760.051,286.265 770.790,286.265 781.529,286.265 792.268,286.265 803.007,286.265 813.746,286.265 824.485,286.265 835.224,286.265 845.964,286.265 856.703,286.265 867.442,286.265 878.181,286.265 888.920,286.265 899.659,286.265 910.398,286.265 921.137,286.265 931.876,286.265 942.615,286.265 953.354,286.265 964.094,286.265 974.833,282.132 985.572,282.132 996.311,282.301 1007.050,282.301 1017.789,282.301 1028.528,282.301 1039.267,282.301 1050.006,282.301 1060.745,282.301 1071.485,282.435 1082.224,284.058 1092.963,284.058 1103.702,281.806 1114.441,281.806 1125.180,281.806 1135.919,281.806 1146.658,281.806 1157.397,281.806 1168.136,281.806 1178.875,281.811 1189.615,281.811 1200.354,281.811 1211.093,281.811 1221.832,281.811 1232.571,281.811 1243.310,281.811 "/>
<g>
</g>
</g>
<g id="ID000043" clip-path="url(#ID000026)" >
      <polyline fill="none" stroke="#0000ff" stroke-width="0.5pt" stroke-dasharray="none" points="931.876,305.583 942.615,305.583 953.354,305.583 964.094,305.583 974.833,305.583 985.572,308.004 996.311,298.591 1007.050,298.591 1017.789,298.591 1028.528,298.591 1039.267,298.591 1050.006,298.591 1060.745,311.033 1071.485,311.033 1082.224,311.033 1092.963,311.033 1103.702,319.843 1114.441,319.843 1125.180,319.843 1135.919,324.930 1146.658,324.930 1157.397,324.930 1168.136,324.930 1178.875,324.930 1189.615,324.930 1200.354,324.930 1211.093,324.930 1221.832,324.930 1232.571,324.930 1243.310,324.930 "/>
<g>
</g>
</g>
<g id="ID000044" clip-path="url(#ID000026)" >
      <polyline fill="none" stroke="#007f00" stroke-width="0.5pt" stroke-dasharray="none" points="459.356,261.145 470.095,262.086 480.834,262.086 491.573,262.086 502.312,262.086 513.052,262.086 523.791,262.086 534.530,292.660 545.269,292.660 556.008,292.660 566.747,292.660 577.486,292.660 588.225,292.660 598.964,292.660 609.703,292.660 620.443,292.660 631.182,292.660 641.921,292.660 652.660,292.660 663.399,292.660 674.138,292.660 684.877,292.660 695.616,292.660 706.355,292.660 717.094,292.660 727.833,292.660 738.573,292.660 749.312,292.660 760.051,292.660 770.790,292.660 781.529,292.660 792.268,292.660 803.007,292.660 813.746,292.660 824.485,292.660 835.224,292.660 845.964,292.660 856.703,292.660 867.442,292.660 878.181,292.660 888.920,292.660 899.659,292.660 910.398,292.660 921.137,292.660 931.876,292.660 942.615,292.660 953.354,292.660 964.094,292.660 974.833,292.660 985.572,292.660 996.311,292.660 1007.050,292.660 1017.789,292.660 1028.528,292.660 1039.267,292.660 1050.006,292.660 1060.745,292.660 1071.485,292.660 1082.224,292.660 1092.963,292.644 1103.702,292.644 1114.441,292.644 1125.180,292.644 1135.919,292.644 1146.658,292.644 1157.397,292.644 1168.136,292.644 1178.875,292.644 1189.615,294.525 1200.354,294.525 1211.093,294.525 1221.832,294.525 1232.571,294.525 1243.310,294.525 "/>
<g>
</g>
</g>
<g id="ID000045" clip-path="url(#ID000026)" >
<g>
</g>
</g>
<g id="ID000046" clip-path="url(#ID000026)" >
<g>
</g>
</g>
<g id="ID000047" clip-path="url(#ID000026)" >
      <polyline fill="none" stroke="#bf00bf" stroke-width="0.5pt" stroke-dasharray="none" points="717.094,263.495 727.833,263.495 738.573,263.495 749.312,263.495 760.051,265.420 770.790,265.420 781.529,265.420 792.268,265.420 803.007,265.420 813.746,265.420 824.485,265.420 835.224,254.700 845.964,254.700 856.703,254.700 867.442,254.700 878.181,254.757 888.920,254.757 899.659,254.757 910.398,254.757 921.137,254.757 931.876,254.757 942.615,254.757 953.354,254.757 964.094,254.757 974.833,254.757 985.572,254.757 996.311,254.757 1007.050,254.757 1017.789,254.757 1028.528,254.757 1039.267,254.757 1050.006,254.757 1060.745,254.757 1071.485,254.757 1082.224,254.757 1092.963,254.757 1103.702,254.757 1114.441,254.757 1125.180,254.757 1135.919,253.918 1146.658,253.918 1157.397,253.918 1168.136,253.918 1178.875,249.976 1189.615,249.976 1200.354,250.508 1211.093,250.508 1221.832,250.508 1232.571,250.508 1243.310,249.976 "/>
<g>
</g>
</g>
<g id="ID000048" clip-path="url(#ID000026)" >
      <polyline fill="none" stroke="#bfbf00" stroke-width="0.5pt" stroke-dasharray="none" points="491.573,260.768 502.312,283.498 513.052,282.881 523.791,282.881 534.530,282.881 545.269,282.881 556.008,273.052 566.747,273.052 577.486,273.052 588.225,273.052 598.964,273.052 609.703,272.409 620.443,272.409 631.182,272.409 641.921,272.409 652.660,272.409 663.399,272.409 674.138,272.409 684.877,272.409 695.616,272.409 706.355,272.409 717.094,272.409 727.833,267.251 738.573,267.251 749.312,267.251 760.051,267.251 770.790,288.037 781.529,288.037 792.268,288.037 803.007,288.037 813.746,289.324 824.485,289.324 835.224,289.324 845.964,289.324 856.703,289.324 867.442,289.324 878.181,289.324 888.920,289.324 899.659,288.579 910.398,288.579 921.137,288.579 931.876,288.579 942.615,288.579 953.354,288.579 964.094,288.579 974.833,290.572 985.572,290.572 996.311,290.572 1007.050,290.572 1017.789,290.572 1028.528,290.572 1039.267,290.572 1050.006,290.572 1060.745,288.926 1071.485,288.926 1082.224,288.926 1092.963,288.926 1103.702,288.926 1114.441,288.926 1125.180,297.709 1135.919,297.709 1146.658,297.709 1157.397,297.709 1168.136,297.709 1178.875,297.709 1189.615,297.709 1200.354,297.709 1211.093,297.709 1221.832,297.709 1232.571,297.709 1243.310,297.709 "/>
<g>
</g>
</g>
<g id="ID000049" >
</g>
    </g>
    <g>
      <polyline fill="none" stroke="#000000" stroke-width="0.5pt" stroke-dasharray="none" points="180.140,362.157 180.140,351.418 "/>
      <polyline fill="none" stroke="#000000" stroke-width="0.5pt" stroke-dasharray="none" points="287.531,362.157 287.531,351.418 "/>
      <polyline fill="none" stroke="#000000" stroke-width="0.5pt" stroke-dasharray="none" points="394.922,362.157 394.922,351.418 "/>
      <polyline fill="none" stroke="#000000" stroke-width="0.5pt" stroke-dasharray="none" points="502.313,362.157 502.313,351.418 "/>
      <polyline fill="none" stroke="#000000" stroke-width="0.5pt" stroke-dasharray="none" points="609.703,362.157 609.703,351.418 "/>
      <polyline fill="none" stroke="#000000" stroke-width="0.5pt" stroke-dasharray="none" points="717.094,362.157 717.094,351.418 "/>
      <polyline fill="none" stroke="#000000" stroke-width="0.5pt" stroke-dasharray="none" points="824.485,362.157 824.485,351.418 "/>
      <polyline fill="none" stroke="#000000" stroke-width="0.5pt" stroke-dasharray="none" points="931.876,362.157 931.876,351.418 "/>
      <polyline fill="none" stroke="#000000" stroke-width="0.5pt" stroke-dasharray="none" points="1039.267,362.157 1039.267,351.418 "/>
      <polyline fill="none" stroke="#000000" stroke-width="0.5pt" stroke-dasharray="none" points="1146.658,362.157 1146.658,351.418 "/>
      <polyline fill="none" stroke="#000000" stroke-width="0.5pt" stroke-dasharray="none" points="1254.049,362.157 1254.049,351.418 "/>
      <polyline fill="none" stroke="#000000" stroke-width="0.5pt" stroke-dasharray="none" points="180.140,362.157 1254.049,362.157 "/>
  <g transform="translate(180.140,373.999)">
    <g transform="rotate(-0.0)">
      <text x="0.000" y="0.000" font-family="Helvetica" text-anchor="middle" font-size="8pt" fill="#000000" >0</text>
    </g>
  </g>
  <g transform="translate(287.531,373.999)">
    <g transform="rotate(-0.0)">
      <text x="0.000" y="0.000" font-family="Helvetica" text-anchor="middle" font-size="8pt" fill="#000000" >10</text>
    </g>
  </g>
  <g transform="translate(394.922,373.999)">
    <g transform="rotate(-0.0)">
      <text x="0.000" y="0.000" font-family="Helvetica" text-anchor="middle" font-size="8pt" fill="#000000" >20</text>
    </g>
  </g>
  <g transform="translate(502.313,373.999)">
    <g transform="rotate(-0.0)">
      <text x="0.000" y="0.000" font-family="Helvetica" text-anchor="middle" font-size="8pt" fill="#000000" >30</text>
    </g>
  </g>
  <g transform="translate(609.703,373.999)">
    <g transform="rotate(-0.0)">
      <text x="0.000" y="0.000" font-family="Helvetica" text-anchor="middle" font-size="8pt" fill="#000000" >40</text>
    </g>
  </g>
  <g transform="translate(717.094,373.999)">
    <g transform="rotate(-0.0)">
      <text x="0.000" y="0.000" font-family="Helvetica" text-anchor="middle" font-size="8pt" fill="#000000" >50</text>
    </g>
  </g>
  <g transform="translate(824.485,373.999)">
    <g transform="rotate(-0.0)">
      <text x="0.000" y="0.000" font-family="Helvetica" text-anchor="middle" font-size="8pt" fill="#000000" >60</text>
    </g>
  </g>
  <g transform="translate(931.876,373.999)">
    <g transform="rotate(-0.0)">
      <text x="0.000" y="0.000" font-family="Helvetica" text-anchor="middle" font-size="8pt" fill="#000000" >70</text>
    </g>
  </g>
  <g transform="translate(1039.267,373.999)">
    <g transform="rotate(-0.0)">
      <text x="0.000" y="0.000" font-family="Helvetica" text-anchor="middle" font-size="8pt" fill="#000000" >80</text>
    </g>
  </g>
  <g transform="translate(1146.658,373.999)">
    <g transform="rotate(-0.0)">
      <text x="0.000" y="0.000" font-family="Helvetica" text-anchor="middle" font-size="8pt" fill="#000000" >90</text>
    </g>
  </g>
  <g transform="translate(1254.049,373.999)">
    <g transform="rotate(-0.0)">
      <text x="0.000" y="0.000" font-family="Helvetica" text-anchor="middle" font-size="8pt" fill="#000000" >100</text>
    </g>
  </g>
      <polyline fill="none" stroke="#000000" stroke-width="0.5pt" stroke-dasharray="none" points="180.140,362.157 190.879,362.157 "/>
      <polyline fill="none" stroke="#000000" stroke-width="0.5pt" stroke-dasharray="none" points="180.140,317.376 190.879,317.376 "/>
      <polyline fill="none" stroke="#000000" stroke-width="0.5pt" stroke-dasharray="none" points="180.140,272.596 190.879,272.596 "/>
      <polyline fill="none" stroke="#000000" stroke-width="0.5pt" stroke-dasharray="none" points="180.140,227.815 190.879,227.815 "/>
      <polyline fill="none" stroke="#000000" stroke-width="0.5pt" stroke-dasharray="none" points="180.140,362.157 180.140,227.815 "/>
  <g transform="translate(158.661,365.649)">
    <g transform="rotate(-0.0)">
      <text x="0.000" y="0.000" font-family="Helvetica" text-anchor="end" font-size="8pt" fill="#000000" >3</text>
    </g>
  </g>
  <g transform="translate(158.661,320.868)">
    <g transform="rotate(-0.0)">
      <text x="0.000" y="0.000" font-family="Helvetica" text-anchor="end" font-size="8pt" fill="#000000" >3.5</text>
    </g>
  </g>
  <g transform="translate(158.661,276.087)">
    <g transform="rotate(-0.0)">
      <text x="0.000" y="0.000" font-family="Helvetica" text-anchor="end" font-size="8pt" fill="#000000" >4</text>
    </g>
  </g>
  <g transform="translate(158.661,231.306)">
    <g transform="rotate(-0.0)">
      <text x="0.000" y="0.000" font-family="Helvetica" text-anchor="end" font-size="8pt" fill="#000000" >4.5</text>
    </g>
  </g>
      <polyline fill="none" stroke="#000000" stroke-width="0.5pt" stroke-dasharray="none" points="180.140,362.157 180.140,360.814 "/>
      <polyline fill="none" stroke="#000000" stroke-width="0.5pt" stroke-dasharray="none" points="180.140,362.157 180.140,360.814 "/>
      <polyline fill="none" stroke="#000000" stroke-width="0.5pt" stroke-dasharray="none" points="180.140,362.157 180.140,360.814 "/>
      <polyline fill="none" stroke="#000000" stroke-width="0.5pt" stroke-dasharray="none" points="180.140,362.157 180.140,362.157 "/>
    </g>
  </g>
  </g>
</svg>
