<?xml version="1.0" encoding="utf-8" standalone="no"?><!DOCTYPE svg PUBLIC "-//W3C//DTD SVG 1.1//EN" "http://www.w3.org/Graphics/SVG/1.1/DTD/svg11.dtd">
<svg preserveAspectRatio="xMinYMin meet" width="100%" height="100%" viewBox="0 0 1256.250 354.375"  version="1.1" xmlns="http://www.w3.org/2000/svg" xmlns:xlink="http://www.w3.org/1999/xlink">
  <desc>Matlab Figure Converted by PLOT2SVG written by Juerg Schwizer</desc>
  <g id="topgroup">
  <rect x="0" y="0" width="1256.250" height="354.375" fill="#ffffff" stroke="none" />
  <g id ="ID000000">
  <clipPath id="ID000001">
    <rect x="0.000" y="0.000" width="1256.250" height="354.375"/>
  </clipPath>
    <g>
    </g>
  </g>
  <g id ="ID000002">
  <clipPath id="ID000003">
    <rect x="109.688" y="30.937" width="1091.980" height="266.318"/>
  </clipPath>
      <polygon fill="#ffffff" fill-opacity="1.00" stroke="none" stroke-width="0.5pt" stroke-opacity="1.00" stroke-dasharray="none" points="109.688,297.255 1201.667,297.255 1201.667,30.937 109.688,30.937 "/>
      <polygon fill="#ffffff" fill-opacity="1.00" stroke="none" stroke-width="0.5pt" stroke-opacity="1.00" stroke-dasharray="none" points="109.688,30.937 1201.667,30.937 1201.667,30.937 109.688,30.937 "/>
      <polygon fill="#ffffff" fill-opacity="1.00" stroke="none" stroke-width="0.5pt" stroke-opacity="1.00" stroke-dasharray="none" points="109.688,297.255 109.688,297.255 109.688,30.937 109.688,30.937 "/>
      <polyline fill="none" stroke="#000000" stroke-width="0.5pt" stroke-dasharray="2.0,2.0" points="109.688,297.255 109.688,30.937 "/>
      <polyline fill="none" stroke="#000000" stroke-width="0.5pt" stroke-dasharray="2.0,2.0" points="155.187,297.255 155.187,30.937 "/>
      <polyline fill="none" stroke="#000000" stroke-width="0.5pt" stroke-dasharray="2.0,2.0" points="200.686,297.255 200.686,30.937 "/>
      <polyline fill="none" stroke="#000000" stroke-width="0.5pt" stroke-dasharray="2.0,2.0" points="246.185,297.255 246.185,30.937 "/>
      <polyline fill="none" stroke="#000000" stroke-width="0.5pt" stroke-dasharray="2.0,2.0" points="291.684,297.255 291.684,30.937 "/>
      <polyline fill="none" stroke="#000000" stroke-width="0.5pt" stroke-dasharray="2.0,2.0" points="337.183,297.255 337.183,30.937 "/>
      <polyline fill="none" stroke="#000000" stroke-width="0.5pt" stroke-dasharray="2.0,2.0" points="382.682,297.255 382.682,30.937 "/>
      <polyline fill="none" stroke="#000000" stroke-width="0.5pt" stroke-dasharray="2.0,2.0" points="428.182,297.255 428.182,30.937 "/>
      <polyline fill="none" stroke="#000000" stroke-width="0.5pt" stroke-dasharray="2.0,2.0" points="473.681,297.255 473.681,30.937 "/>
      <polyline fill="none" stroke="#000000" stroke-width="0.5pt" stroke-dasharray="2.0,2.0" points="519.180,297.255 519.180,30.937 "/>
      <polyline fill="none" stroke="#000000" stroke-width="0.5pt" stroke-dasharray="2.0,2.0" points="564.679,297.255 564.679,30.937 "/>
      <polyline fill="none" stroke="#000000" stroke-width="0.5pt" stroke-dasharray="2.0,2.0" points="610.178,297.255 610.178,30.937 "/>
      <polyline fill="none" stroke="#000000" stroke-width="0.5pt" stroke-dasharray="2.0,2.0" points="655.677,297.255 655.677,30.937 "/>
      <polyline fill="none" stroke="#000000" stroke-width="0.5pt" stroke-dasharray="2.0,2.0" points="701.177,297.255 701.177,30.937 "/>
      <polyline fill="none" stroke="#000000" stroke-width="0.5pt" stroke-dasharray="2.0,2.0" points="746.676,297.255 746.676,30.937 "/>
      <polyline fill="none" stroke="#000000" stroke-width="0.5pt" stroke-dasharray="2.0,2.0" points="792.175,297.255 792.175,30.937 "/>
      <polyline fill="none" stroke="#000000" stroke-width="0.5pt" stroke-dasharray="2.0,2.0" points="837.674,297.255 837.674,30.937 "/>
      <polyline fill="none" stroke="#000000" stroke-width="0.5pt" stroke-dasharray="2.0,2.0" points="883.173,297.255 883.173,30.937 "/>
      <polyline fill="none" stroke="#000000" stroke-width="0.5pt" stroke-dasharray="2.0,2.0" points="928.672,297.255 928.672,30.937 "/>
      <polyline fill="none" stroke="#000000" stroke-width="0.5pt" stroke-dasharray="2.0,2.0" points="974.172,297.255 974.172,30.937 "/>
      <polyline fill="none" stroke="#000000" stroke-width="0.5pt" stroke-dasharray="2.0,2.0" points="1019.671,297.255 1019.671,30.937 "/>
      <polyline fill="none" stroke="#000000" stroke-width="0.5pt" stroke-dasharray="2.0,2.0" points="1065.170,297.255 1065.170,30.937 "/>
      <polyline fill="none" stroke="#000000" stroke-width="0.5pt" stroke-dasharray="2.0,2.0" points="1110.669,297.255 1110.669,30.937 "/>
      <polyline fill="none" stroke="#000000" stroke-width="0.5pt" stroke-dasharray="2.0,2.0" points="1156.168,297.255 1156.168,30.937 "/>
      <polyline fill="none" stroke="#000000" stroke-width="0.5pt" stroke-dasharray="2.0,2.0" points="1201.667,297.255 1201.667,30.937 "/>
      <polyline fill="none" stroke="#000000" stroke-width="0.5pt" stroke-dasharray="2.0,2.0" points="109.688,297.255 1201.667,297.255 "/>
      <polyline fill="none" stroke="#000000" stroke-width="0.5pt" stroke-dasharray="2.0,2.0" points="109.688,230.676 1201.667,230.676 "/>
      <polyline fill="none" stroke="#000000" stroke-width="0.5pt" stroke-dasharray="2.0,2.0" points="109.688,164.096 1201.667,164.096 "/>
      <polyline fill="none" stroke="#000000" stroke-width="0.5pt" stroke-dasharray="2.0,2.0" points="109.688,97.517 1201.667,97.517 "/>
      <polyline fill="none" stroke="#000000" stroke-width="0.5pt" stroke-dasharray="2.0,2.0" points="109.688,30.937 1201.667,30.937 "/>
      <polyline fill="none" stroke="#000000" stroke-width="0.5pt" stroke-dasharray="2.0,2.0" points="109.688,30.937 109.688,30.937 "/>
      <polyline fill="none" stroke="#000000" stroke-width="0.5pt" stroke-dasharray="2.0,2.0" points="155.187,30.937 155.187,30.937 "/>
      <polyline fill="none" stroke="#000000" stroke-width="0.5pt" stroke-dasharray="2.0,2.0" points="200.686,30.937 200.686,30.937 "/>
      <polyline fill="none" stroke="#000000" stroke-width="0.5pt" stroke-dasharray="2.0,2.0" points="246.185,30.937 246.185,30.937 "/>
      <polyline fill="none" stroke="#000000" stroke-width="0.5pt" stroke-dasharray="2.0,2.0" points="291.684,30.937 291.684,30.937 "/>
      <polyline fill="none" stroke="#000000" stroke-width="0.5pt" stroke-dasharray="2.0,2.0" points="337.183,30.937 337.183,30.937 "/>
      <polyline fill="none" stroke="#000000" stroke-width="0.5pt" stroke-dasharray="2.0,2.0" points="382.682,30.937 382.682,30.937 "/>
      <polyline fill="none" stroke="#000000" stroke-width="0.5pt" stroke-dasharray="2.0,2.0" points="428.182,30.937 428.182,30.937 "/>
      <polyline fill="none" stroke="#000000" stroke-width="0.5pt" stroke-dasharray="2.0,2.0" points="473.681,30.937 473.681,30.937 "/>
      <polyline fill="none" stroke="#000000" stroke-width="0.5pt" stroke-dasharray="2.0,2.0" points="519.180,30.937 519.180,30.937 "/>
      <polyline fill="none" stroke="#000000" stroke-width="0.5pt" stroke-dasharray="2.0,2.0" points="564.679,30.937 564.679,30.937 "/>
      <polyline fill="none" stroke="#000000" stroke-width="0.5pt" stroke-dasharray="2.0,2.0" points="610.178,30.937 610.178,30.937 "/>
      <polyline fill="none" stroke="#000000" stroke-width="0.5pt" stroke-dasharray="2.0,2.0" points="655.677,30.937 655.677,30.937 "/>
      <polyline fill="none" stroke="#000000" stroke-width="0.5pt" stroke-dasharray="2.0,2.0" points="701.177,30.937 701.177,30.937 "/>
      <polyline fill="none" stroke="#000000" stroke-width="0.5pt" stroke-dasharray="2.0,2.0" points="746.676,30.937 746.676,30.937 "/>
      <polyline fill="none" stroke="#000000" stroke-width="0.5pt" stroke-dasharray="2.0,2.0" points="792.175,30.937 792.175,30.937 "/>
      <polyline fill="none" stroke="#000000" stroke-width="0.5pt" stroke-dasharray="2.0,2.0" points="837.674,30.937 837.674,30.937 "/>
      <polyline fill="none" stroke="#000000" stroke-width="0.5pt" stroke-dasharray="2.0,2.0" points="883.173,30.937 883.173,30.937 "/>
      <polyline fill="none" stroke="#000000" stroke-width="0.5pt" stroke-dasharray="2.0,2.0" points="928.672,30.937 928.672,30.937 "/>
      <polyline fill="none" stroke="#000000" stroke-width="0.5pt" stroke-dasharray="2.0,2.0" points="974.172,30.937 974.172,30.937 "/>
      <polyline fill="none" stroke="#000000" stroke-width="0.5pt" stroke-dasharray="2.0,2.0" points="1019.671,30.937 1019.671,30.937 "/>
      <polyline fill="none" stroke="#000000" stroke-width="0.5pt" stroke-dasharray="2.0,2.0" points="1065.170,30.937 1065.170,30.937 "/>
      <polyline fill="none" stroke="#000000" stroke-width="0.5pt" stroke-dasharray="2.0,2.0" points="1110.669,30.937 1110.669,30.937 "/>
      <polyline fill="none" stroke="#000000" stroke-width="0.5pt" stroke-dasharray="2.0,2.0" points="1156.168,30.937 1156.168,30.937 "/>
      <polyline fill="none" stroke="#000000" stroke-width="0.5pt" stroke-dasharray="2.0,2.0" points="1201.667,30.937 1201.667,30.937 "/>
      <polyline fill="none" stroke="#000000" stroke-width="0.5pt" stroke-dasharray="2.0,2.0" points="109.688,297.255 109.688,297.255 "/>
      <polyline fill="none" stroke="#000000" stroke-width="0.5pt" stroke-dasharray="2.0,2.0" points="109.688,230.676 109.688,230.676 "/>
      <polyline fill="none" stroke="#000000" stroke-width="0.5pt" stroke-dasharray="2.0,2.0" points="109.688,164.096 109.688,164.096 "/>
      <polyline fill="none" stroke="#000000" stroke-width="0.5pt" stroke-dasharray="2.0,2.0" points="109.688,97.517 109.688,97.517 "/>
      <polyline fill="none" stroke="#000000" stroke-width="0.5pt" stroke-dasharray="2.0,2.0" points="109.688,30.937 109.688,30.937 "/>
    <g>
<g id="ID000004" >
  <g transform="translate(660.364,333.048)">
    <g transform="rotate(-0.0)">
      <text x="0.000" y="0.000" font-family="Helvetica" text-anchor="middle" font-size="13pt" fill="#142b8c" >Time of day (24h)</text>
    </g>
  </g>
</g>
<g id="ID000005" >
  <g transform="translate(70.319,165.503)">
    <g transform="rotate(-90.0)">
      <text x="0.000" y="0.000" font-family="Helvetica" text-anchor="middle" font-size="13pt" fill="#142b8c" >Watt</text>
    </g>
  </g>
</g>
<g id="ID000006" >
  <g transform="translate(353.860,73.322)">
    <g transform="rotate(-0.0)">
      <text x="0.000" y="0.000" font-family="Helvetica" text-anchor="middle" font-size="19pt" font-weight="lighter" fill="#142b8c" >Partly Clouded Solar Forecast</text>
    </g>
  </g>
</g>
<g id="ID000007" clip-path="url(#ID000003)" >
<g id="ID000008" clip-path="url(#ID000003)" >
      <polygon fill="#ffcc00" fill-opacity="1.00" stroke="#000000" stroke-width="1.0pt" stroke-opacity="0.00" stroke-dasharray="none" points="110.446,297.255 110.446,297.255 111.204,297.255 111.962,297.255 112.721,297.255 113.479,297.255 114.237,297.255 114.996,297.255 115.754,297.255 116.512,297.255 117.271,297.255 118.029,297.255 118.787,297.255 119.546,297.255 120.304,297.255 121.062,297.255 121.821,297.255 122.579,297.255 123.337,297.255 124.096,297.255 124.854,297.255 125.612,297.255 126.371,297.255 127.129,297.255 127.887,297.255 128.645,297.255 129.404,297.255 130.162,297.255 130.920,297.255 131.679,297.255 132.437,297.255 133.195,297.255 133.954,297.255 134.712,297.255 135.470,297.255 136.229,297.255 136.987,297.255 137.745,297.255 138.504,297.255 139.262,297.255 140.020,297.255 140.779,297.255 141.537,297.255 142.295,297.255 143.054,297.255 143.812,297.255 144.570,297.255 145.329,297.255 146.087,297.255 146.845,297.255 147.603,297.255 148.362,297.255 149.120,297.255 149.878,297.255 150.637,297.255 151.395,297.255 152.153,297.255 152.912,297.255 153.670,297.255 154.428,297.255 155.187,297.255 155.945,297.255 156.703,297.255 157.462,297.255 158.220,297.255 158.978,297.255 159.737,297.255 160.495,297.255 161.253,297.255 162.012,297.255 162.770,297.255 163.528,297.255 164.286,297.255 165.045,297.255 165.803,297.255 166.561,297.255 167.320,297.255 168.078,297.255 168.836,297.255 169.595,297.255 170.353,297.255 171.111,297.255 171.870,297.255 172.628,297.255 173.386,297.255 174.145,297.255 174.903,297.255 175.661,297.255 176.420,297.255 177.178,297.255 177.936,297.255 178.695,297.255 179.453,297.255 180.211,297.255 180.970,297.255 181.728,297.255 182.486,297.255 183.244,297.255 184.003,297.255 184.761,297.255 185.519,297.255 186.278,297.255 187.036,297.255 187.794,297.255 188.553,297.255 189.311,297.255 190.069,297.255 190.828,297.255 191.586,297.255 192.344,297.255 193.103,297.255 193.861,297.255 194.619,297.255 195.378,297.255 196.136,297.255 196.894,297.255 197.653,297.255 198.411,297.255 199.169,297.255 199.928,297.255 200.686,297.255 201.444,297.255 202.202,297.255 202.961,297.255 203.719,297.255 204.477,297.255 205.236,297.255 205.994,297.255 206.752,297.255 207.511,297.255 208.269,297.255 209.027,297.255 209.786,297.255 210.544,297.255 211.302,297.255 212.061,297.255 212.819,297.255 213.577,297.255 214.336,297.255 215.094,297.255 215.852,297.255 216.611,297.255 217.369,297.255 218.127,297.255 218.885,297.255 219.644,297.255 220.402,297.255 221.160,297.255 221.919,297.255 222.677,297.255 223.435,297.255 224.194,297.255 224.952,297.255 225.710,297.255 226.469,297.255 227.227,297.255 227.985,297.255 228.744,297.255 229.502,297.255 230.260,297.255 231.019,297.255 231.777,297.255 232.535,297.255 233.294,297.255 234.052,297.255 234.810,297.255 235.569,297.255 236.327,297.255 237.085,297.255 237.843,297.255 238.602,297.255 239.360,297.255 240.118,297.255 240.877,297.255 241.635,297.255 242.393,297.255 243.152,297.255 243.910,297.255 244.668,297.255 245.427,297.255 246.185,297.255 246.943,297.255 247.702,297.255 248.460,297.255 249.218,297.255 249.977,297.255 250.735,297.255 251.493,297.255 252.252,297.255 253.010,297.255 253.768,297.255 254.526,297.255 255.285,297.255 256.043,297.255 256.801,297.255 257.560,297.255 258.318,297.255 259.076,297.255 259.835,297.255 260.593,297.255 261.351,297.255 262.110,297.255 262.868,297.255 263.626,297.255 264.385,297.255 265.143,297.255 265.901,297.255 266.660,297.255 267.418,297.255 268.176,297.255 268.935,297.255 269.693,297.255 270.451,297.255 271.210,297.255 271.968,297.255 272.726,297.255 273.484,297.255 274.243,297.255 275.001,297.255 275.759,297.255 276.518,297.255 277.276,297.255 278.034,297.255 278.793,297.255 279.551,297.255 280.309,297.255 281.068,297.255 281.826,297.255 282.584,297.255 283.343,297.255 284.101,297.255 284.859,297.255 285.618,297.255 286.376,297.255 287.134,297.255 287.893,297.255 288.651,297.255 289.409,297.255 290.168,297.255 290.926,297.255 291.684,297.255 292.442,297.255 293.201,297.255 293.959,297.255 294.717,297.255 295.476,297.255 296.234,297.255 296.992,297.255 297.751,297.255 298.509,297.255 299.267,297.255 300.026,297.255 300.784,297.255 301.542,297.255 302.301,297.255 303.059,297.255 303.817,297.255 304.576,297.255 305.334,297.255 306.092,297.255 306.851,297.255 307.609,297.255 308.367,297.255 309.125,297.255 309.884,297.255 310.642,297.255 311.400,297.255 312.159,297.255 312.917,297.255 313.675,297.255 314.434,297.255 315.192,297.255 315.950,297.255 316.709,297.255 317.467,297.255 318.225,297.255 318.984,297.255 319.742,297.255 320.500,297.255 321.259,297.255 322.017,297.255 322.775,297.255 323.534,297.255 324.292,297.255 325.050,297.255 325.809,297.255 326.567,297.255 327.325,297.255 328.083,297.255 328.842,297.255 329.600,297.255 330.358,297.255 331.117,297.255 331.875,297.255 332.633,297.255 333.392,297.255 334.150,297.255 334.908,297.255 335.667,297.255 336.425,297.255 337.183,297.255 337.942,297.255 338.700,297.255 339.458,297.255 340.217,297.255 340.975,297.255 341.733,297.255 342.492,297.255 343.250,297.255 344.008,297.255 344.766,297.255 345.525,297.255 346.283,297.255 347.041,297.255 347.800,297.255 348.558,297.255 349.316,297.255 350.075,297.255 350.833,297.255 351.591,297.255 352.350,297.255 353.108,297.255 353.866,297.255 354.625,297.255 355.383,297.255 356.141,297.255 356.900,297.255 357.658,297.255 358.416,297.255 359.175,297.255 359.933,297.255 360.691,297.255 361.450,297.255 362.208,297.255 362.966,297.255 363.724,297.255 364.483,297.255 365.241,297.255 365.999,297.255 366.758,297.255 367.516,297.255 368.274,297.255 369.033,297.255 369.791,297.255 370.549,297.255 371.308,297.255 372.066,297.255 372.824,297.255 373.583,297.255 374.341,297.255 375.099,297.255 375.858,297.255 376.616,297.255 377.374,297.255 378.133,297.255 378.891,297.255 379.649,297.255 380.408,297.255 381.166,297.255 381.924,297.255 382.682,297.255 383.441,297.255 384.199,297.255 384.957,297.255 385.716,297.255 386.474,297.255 387.232,297.255 387.991,297.255 388.749,297.255 389.507,297.255 390.266,297.255 391.024,297.255 391.782,297.255 392.541,297.255 393.299,297.255 394.057,297.255 394.816,297.255 395.574,297.255 396.332,297.255 397.091,297.255 397.849,297.255 398.607,297.255 399.365,297.255 400.124,297.255 400.882,297.255 401.640,297.255 402.399,297.255 403.157,297.255 403.915,297.255 404.674,297.255 405.432,297.255 406.190,297.255 406.949,297.255 407.707,297.255 408.465,297.255 409.224,297.255 409.982,297.255 410.740,297.255 411.499,297.255 412.257,297.255 413.015,297.255 413.774,297.255 414.532,297.255 415.290,297.255 416.049,297.255 416.807,297.255 417.565,297.255 418.323,297.255 419.082,297.255 419.840,297.255 420.598,297.255 421.357,297.255 422.115,297.255 422.873,297.255 423.632,297.255 424.390,297.255 425.148,297.255 425.907,297.255 426.665,297.255 427.423,297.255 428.182,297.255 428.940,297.255 429.698,297.255 430.457,297.255 431.215,297.255 431.973,297.255 432.732,297.255 433.490,297.255 434.248,297.255 435.006,297.255 435.765,297.255 436.523,297.255 437.281,297.255 438.040,297.255 438.798,297.255 439.556,297.255 440.315,297.255 441.073,297.255 441.831,297.255 442.590,297.255 443.348,297.255 444.106,297.255 444.865,297.255 445.623,297.255 446.381,297.255 447.140,297.255 447.898,297.255 448.656,297.255 449.415,297.255 450.173,297.255 450.931,297.255 451.690,297.255 452.448,297.255 453.206,297.255 453.964,297.255 454.723,297.255 455.481,297.255 456.239,297.255 456.998,297.255 457.756,297.255 458.514,297.255 459.273,297.255 460.031,297.255 460.789,297.255 461.548,297.255 462.306,297.255 463.064,297.255 463.823,297.255 464.581,297.255 465.339,297.255 466.098,297.255 466.856,297.255 467.614,297.255 468.373,297.255 469.131,297.255 469.889,297.255 470.648,297.255 471.406,297.255 472.164,297.255 472.922,297.255 473.681,297.255 474.439,297.255 475.197,297.240 475.956,297.203 476.714,297.146 477.472,297.072 478.231,296.982 478.989,296.876 479.747,296.755 480.506,296.619 481.264,296.469 482.022,296.305 482.781,296.127 483.539,295.936 484.297,295.732 485.056,295.515 485.814,295.285 486.572,295.042 487.331,294.788 488.089,294.521 488.847,294.242 489.605,293.951 490.364,293.649 491.122,293.335 491.880,293.009 492.639,292.673 493.397,292.325 494.155,291.965 494.914,291.595 495.672,291.214 496.430,290.823 497.189,291.922 497.947,291.600 498.705,291.269 499.464,290.931 500.222,290.584 500.980,290.230 501.739,289.867 502.497,289.497 503.255,289.119 504.014,288.734 504.772,291.142 505.530,290.868 506.289,290.588 507.047,290.302 507.805,290.012 508.563,289.717 509.322,289.417 510.080,289.112 510.838,288.802 511.597,288.487 512.355,288.460 513.113,288.146 513.872,287.828 514.630,287.505 515.388,287.177 516.147,286.846 516.905,286.509 517.663,286.169 518.422,285.824 519.180,285.474 519.938,273.821 520.697,273.130 521.455,272.431 522.213,271.724 522.972,271.009 523.730,270.286 524.488,269.556 525.247,268.817 526.005,268.072 526.763,267.318 527.521,268.576 528.280,267.858 529.038,267.133 529.796,266.402 530.555,265.664 531.313,264.919 532.071,264.168 532.830,263.410 533.588,262.645 534.346,261.875 535.105,259.136 535.863,258.310 536.621,257.478 537.380,256.639 538.138,255.794 538.896,254.943 539.655,254.085 540.413,253.221 541.171,252.352 541.930,251.476 542.688,249.881 543.446,248.980 544.204,248.073 544.963,247.160 545.721,246.242 546.479,245.318 547.238,244.388 547.996,243.453 548.754,242.512 549.513,241.566 550.271,263.602 551.029,263.033 551.788,262.462 552.546,261.888 553.304,261.311 554.063,260.730 554.821,260.147 555.579,259.562 556.338,258.973 557.096,258.382 557.854,239.547 558.613,238.675 559.371,237.799 560.129,236.919 560.888,236.036 561.646,235.148 562.404,234.258 563.162,233.364 563.921,232.466 564.679,231.566 565.437,245.827 566.196,245.127 566.954,244.424 567.712,243.718 568.471,243.011 569.229,242.301 569.987,241.588 570.746,240.874 571.504,240.158 572.262,239.439 573.021,210.007 573.779,208.930 574.537,207.851 575.296,206.768 576.054,205.684 576.812,204.596 577.571,203.506 578.329,202.414 579.087,201.319 579.845,200.222 580.604,199.123 581.362,198.022 582.120,196.918 582.879,195.813 583.637,194.706 584.395,193.597 585.154,192.486 585.912,191.374 586.670,190.260 587.429,189.145 588.187,209.484 588.945,208.585 589.704,207.686 590.462,206.785 591.220,205.884 591.979,204.982 592.737,204.079 593.495,203.176 594.254,202.271 595.012,201.367 595.770,176.800 596.529,175.673 597.287,174.545 598.045,173.418 598.803,172.289 599.562,171.161 600.320,170.032 601.078,168.904 601.837,167.775 602.595,166.646 603.353,165.518 604.112,164.389 604.870,163.262 605.628,162.134 606.387,161.007 607.145,159.880 607.903,158.754 608.662,157.629 609.420,156.505 610.178,155.381 610.937,154.258 611.695,153.137 612.453,152.016 613.212,150.897 613.970,149.778 614.728,148.662 615.487,147.546 616.245,146.432 617.003,145.319 617.761,144.208 618.520,168.672 619.278,167.748 620.036,166.826 620.795,165.905 621.553,164.986 622.311,164.069 623.070,163.153 623.828,162.240 624.586,161.328 625.345,160.418 626.103,132.115 626.861,131.029 627.620,129.946 628.378,128.865 629.136,127.787 629.895,126.712 630.653,125.640 631.411,124.570 632.170,123.504 632.928,122.441 633.686,141.366 634.444,140.429 635.203,139.495 635.961,138.564 636.719,137.636 637.478,136.711 638.236,135.790 638.994,134.871 639.753,133.956 640.511,133.044 641.269,124.308 642.028,123.360 642.786,122.416 643.544,121.476 644.303,120.539 645.061,119.606 645.819,118.677 646.578,117.753 647.336,116.832 648.094,115.915 648.853,124.362 649.611,123.500 650.369,122.643 651.128,121.789 651.886,120.940 652.644,120.095 653.402,119.255 654.161,118.418 654.919,117.586 655.677,116.759 656.436,91.376 657.194,90.447 657.952,89.524 658.711,88.605 659.469,87.692 660.227,86.784 660.986,85.882 661.744,84.985 662.502,84.094 663.261,83.209 664.019,129.821 664.777,129.141 665.536,128.465 666.294,127.793 667.052,127.126 667.811,126.464 668.569,125.807 669.327,125.154 670.085,124.506 670.844,123.863 671.602,73.862 672.360,73.049 673.119,72.243 673.877,71.443 674.635,70.650 675.394,69.863 676.152,69.083 676.910,68.309 677.669,67.542 678.427,66.782 679.185,161.189 679.944,160.750 680.702,160.315 681.460,159.884 682.219,159.457 682.977,159.034 683.735,158.616 684.494,158.201 685.252,157.791 686.010,157.385 686.769,58.882 687.527,58.207 688.285,57.540 689.043,56.879 689.802,56.226 690.560,55.581 691.318,54.943 692.077,54.313 692.835,53.691 693.593,53.076 694.352,52.469 695.110,51.869 695.868,51.278 696.627,50.694 697.385,50.118 698.143,49.550 698.902,48.990 699.660,48.438 700.418,47.894 701.177,47.358 701.935,46.830 702.693,46.310 703.452,45.798 704.210,45.295 704.968,44.799 705.727,44.312 706.485,43.833 707.243,43.363 708.001,42.901 708.760,42.447 709.518,128.894 710.276,128.606 711.035,128.323 711.793,128.046 712.551,127.775 713.310,127.509 714.068,127.249 714.826,126.995 715.585,126.746 716.343,126.503 717.101,38.017 717.860,37.666 718.618,37.324 719.376,36.990 720.135,36.665 720.893,36.349 721.651,36.042 722.410,35.743 723.168,35.454 723.926,35.173 724.684,98.855 725.443,98.656 726.201,98.464 726.959,98.278 727.718,98.100 728.476,97.928 729.234,97.763 729.993,97.604 730.751,97.453 731.509,97.308 732.268,90.329 733.026,90.194 733.784,90.066 734.543,89.944 735.301,89.830 736.059,89.723 736.818,89.623 737.576,89.530 738.334,89.444 739.093,89.366 739.851,31.350 740.609,31.268 741.368,31.195 742.126,31.131 742.884,31.076 743.642,31.030 744.401,30.994 745.159,30.966 745.917,30.948 746.676,30.939 747.434,57.602 748.192,57.610 748.951,57.626 749.709,57.651 750.467,57.684 751.226,57.725 751.984,57.775 752.742,57.832 753.501,57.898 754.259,57.972 755.017,31.442 755.776,31.542 756.534,31.652 757.292,31.771 758.051,31.899 758.809,32.035 759.567,32.181 760.325,32.337 761.084,32.501 761.842,32.674 762.600,140.967 763.359,141.080 764.117,141.198 764.875,141.322 765.634,141.451 766.392,141.585 767.150,141.725 767.909,141.870 768.667,142.020 769.425,142.175 770.184,137.434 770.942,137.605 771.700,137.782 772.459,137.964 773.217,138.151 773.975,138.344 774.734,138.542 775.492,138.746 776.250,138.955 777.009,139.169 777.767,38.377 778.525,38.745 779.283,39.122 780.042,39.508 780.800,39.902 781.558,40.305 782.317,40.717 783.075,41.137 783.833,41.565 784.592,42.002 785.350,154.329 786.108,154.583 786.867,154.842 787.625,155.106 788.383,155.375 789.142,155.648 789.900,155.926 790.658,156.208 791.417,156.495 792.175,156.787 792.933,101.724 793.692,102.143 794.450,102.569 795.208,103.001 795.967,103.439 796.725,103.884 797.483,104.334 798.241,104.791 799.000,105.254 799.758,105.723 800.516,170.516 801.275,170.835 802.033,171.158 802.791,171.485 803.550,171.816 804.308,172.151 805.066,172.490 805.825,172.833 806.583,173.179 807.341,173.530 808.100,59.565 808.858,60.255 809.616,60.951 810.375,61.656 811.133,62.367 811.891,63.085 812.650,63.811 813.408,64.543 814.166,65.283 814.924,66.029 815.683,135.327 816.441,135.861 817.199,136.400 817.958,136.943 818.716,137.491 819.474,138.044 820.233,138.601 820.991,139.163 821.749,139.730 822.508,140.301 823.266,83.029 824.024,83.823 824.783,84.624 825.541,85.430 826.299,86.243 827.058,87.061 827.816,87.885 828.574,88.714 829.333,89.550 830.091,90.391 830.849,100.129 831.608,100.944 832.366,101.765 833.124,102.591 833.882,103.421 834.641,104.257 835.399,105.098 836.157,105.944 836.916,106.795 837.674,107.651 838.432,92.311 839.191,93.250 839.949,94.195 840.707,95.144 841.466,96.099 842.224,97.058 842.982,98.022 843.741,98.991 844.499,99.965 845.257,100.943 846.016,137.993 846.774,138.798 847.532,139.607 848.291,140.419 849.049,141.235 849.807,142.054 850.566,142.877 851.324,143.703 852.082,144.532 852.840,145.365 853.599,111.992 854.357,113.020 855.115,114.053 855.874,115.089 856.632,116.129 857.390,117.172 858.149,118.219 858.907,119.270 859.665,120.323 860.424,121.380 861.182,125.020 861.940,126.068 862.699,127.119 863.457,128.172 864.215,129.229 864.974,130.288 865.732,131.350 866.490,132.415 867.249,133.482 868.007,134.552 868.765,186.027 869.523,186.767 870.282,187.508 871.040,188.251 871.798,188.995 872.557,189.741 873.315,190.488 874.073,191.236 874.832,191.986 875.590,192.737 876.348,144.208 877.107,145.319 877.865,146.432 878.623,147.546 879.382,148.662 880.140,149.778 880.898,150.897 881.657,152.016 882.415,153.137 883.173,154.258 883.932,155.381 884.690,156.505 885.448,157.629 886.207,158.754 886.965,159.880 887.723,161.007 888.481,162.134 889.240,163.262 889.998,164.389 890.756,165.518 891.515,175.412 892.273,176.465 893.031,177.518 893.790,178.570 894.548,179.623 895.306,180.676 896.065,181.729 896.823,182.781 897.581,183.833 898.340,184.884 899.098,177.927 899.856,179.052 900.615,180.178 901.373,181.302 902.131,182.426 902.890,183.548 903.648,184.670 904.406,185.790 905.164,186.910 905.923,188.028 906.681,240.233 907.439,240.821 908.198,241.408 908.956,241.995 909.714,242.581 910.473,243.166 911.231,243.750 911.989,244.333 912.748,244.915 913.506,245.496 914.264,200.222 915.023,201.319 915.781,202.414 916.539,203.506 917.298,204.596 918.056,205.684 918.814,206.768 919.573,207.851 920.331,208.930 921.089,210.007 921.848,230.465 922.606,231.295 923.364,232.122 924.122,232.947 924.881,233.770 925.639,234.590 926.397,235.408 927.156,236.223 927.914,237.035 928.672,237.844 929.431,222.716 930.189,223.738 930.947,224.756 931.706,225.771 932.464,226.782 933.222,227.788 933.981,228.791 934.739,229.789 935.497,230.783 936.256,231.773 937.014,261.473 937.772,262.017 938.531,262.559 939.289,263.098 940.047,263.635 940.806,264.169 941.564,264.700 942.322,265.229 943.080,265.755 943.839,266.278 944.597,267.679 945.355,268.182 946.114,268.681 946.872,269.178 947.630,269.671 948.389,270.162 949.147,270.650 949.905,271.135 950.664,271.616 951.422,272.095 952.180,255.444 952.939,256.244 953.697,257.038 954.455,257.827 955.214,258.610 955.972,259.388 956.730,260.160 957.489,260.926 958.247,261.686 959.005,262.440 959.763,259.385 960.522,260.210 961.280,261.028 962.038,261.839 962.797,262.643 963.555,263.440 964.313,264.230 965.072,265.013 965.830,265.789 966.588,266.557 967.347,267.318 968.105,268.072 968.863,268.817 969.622,269.556 970.380,270.286 971.138,271.009 971.897,271.724 972.655,272.431 973.413,273.130 974.172,273.821 974.930,278.460 975.688,279.017 976.447,279.567 977.205,280.111 977.963,280.647 978.721,281.177 979.480,281.699 980.238,282.214 980.996,282.722 981.755,283.223 982.513,280.867 983.271,281.455 984.030,282.035 984.788,282.605 985.546,283.166 986.305,283.717 987.063,284.260 987.821,284.792 988.580,285.316 989.338,285.829 990.096,291.127 990.855,291.404 991.613,291.676 992.371,291.942 993.130,292.203 993.888,292.458 994.646,292.707 995.404,292.951 996.163,293.188 996.921,293.420 997.679,290.823 998.438,291.214 999.196,291.595 999.954,291.965 1000.713,292.325 1001.471,292.673 1002.229,293.009 1002.988,293.335 1003.746,293.649 1004.504,293.951 1005.263,294.242 1006.021,294.521 1006.779,294.788 1007.538,295.042 1008.296,295.285 1009.054,295.515 1009.813,295.732 1010.571,295.936 1011.329,296.127 1012.088,296.305 1012.846,296.779 1013.604,296.870 1014.362,296.952 1015.121,297.026 1015.879,297.090 1016.637,297.144 1017.396,297.189 1018.154,297.223 1018.912,297.246 1019.671,297.255 1020.429,297.255 1021.187,297.255 1021.946,297.255 1022.704,297.255 1023.462,297.255 1024.221,297.255 1024.979,297.255 1025.737,297.255 1026.496,297.255 1027.254,297.255 1028.012,297.255 1028.771,297.255 1029.529,297.255 1030.287,297.255 1031.046,297.255 1031.804,297.255 1032.562,297.255 1033.320,297.255 1034.079,297.255 1034.837,297.255 1035.595,297.255 1036.354,297.255 1037.112,297.255 1037.870,297.255 1038.629,297.255 1039.387,297.255 1040.145,297.255 1040.904,297.255 1041.662,297.255 1042.420,297.255 1043.179,297.255 1043.937,297.255 1044.695,297.255 1045.454,297.255 1046.212,297.255 1046.970,297.255 1047.729,297.255 1048.487,297.255 1049.245,297.255 1050.003,297.255 1050.762,297.255 1051.520,297.255 1052.278,297.255 1053.037,297.255 1053.795,297.255 1054.553,297.255 1055.312,297.255 1056.070,297.255 1056.828,297.255 1057.587,297.255 1058.345,297.255 1059.103,297.255 1059.862,297.255 1060.620,297.255 1061.378,297.255 1062.137,297.255 1062.895,297.255 1063.653,297.255 1064.412,297.255 1065.170,297.255 1065.928,297.255 1066.687,297.255 1067.445,297.255 1068.203,297.255 1068.961,297.255 1069.720,297.255 1070.478,297.255 1071.236,297.255 1071.995,297.255 1072.753,297.255 1073.511,297.255 1074.270,297.255 1075.028,297.255 1075.786,297.255 1076.545,297.255 1077.303,297.255 1078.061,297.255 1078.820,297.255 1079.578,297.255 1080.336,297.255 1081.095,297.255 1081.853,297.255 1082.611,297.255 1083.370,297.255 1084.128,297.255 1084.886,297.255 1085.644,297.255 1086.403,297.255 1087.161,297.255 1087.919,297.255 1088.678,297.255 1089.436,297.255 1090.194,297.255 1090.953,297.255 1091.711,297.255 1092.469,297.255 1093.228,297.255 1093.986,297.255 1094.744,297.255 1095.503,297.255 1096.261,297.255 1097.019,297.255 1097.778,297.255 1098.536,297.255 1099.294,297.255 1100.053,297.255 1100.811,297.255 1101.569,297.255 1102.328,297.255 1103.086,297.255 1103.844,297.255 1104.602,297.255 1105.361,297.255 1106.119,297.255 1106.877,297.255 1107.636,297.255 1108.394,297.255 1109.152,297.255 1109.911,297.255 1110.669,297.255 1111.427,297.255 1112.186,297.255 1112.944,297.255 1113.702,297.255 1114.461,297.255 1115.219,297.255 1115.977,297.255 1116.736,297.255 1117.494,297.255 1118.252,297.255 1119.011,297.255 1119.769,297.255 1120.527,297.255 1121.286,297.255 1122.044,297.255 1122.802,297.255 1123.560,297.255 1124.319,297.255 1125.077,297.255 1125.835,297.255 1126.594,297.255 1127.352,297.255 1128.110,297.255 1128.869,297.255 1129.627,297.255 1130.385,297.255 1131.144,297.255 1131.902,297.255 1132.660,297.255 1133.419,297.255 1134.177,297.255 1134.935,297.255 1135.694,297.255 1136.452,297.255 1137.210,297.255 1137.969,297.255 1138.727,297.255 1139.485,297.255 1140.243,297.255 1141.002,297.255 1141.760,297.255 1142.518,297.255 1143.277,297.255 1144.035,297.255 1144.793,297.255 1145.552,297.255 1146.310,297.255 1147.068,297.255 1147.827,297.255 1148.585,297.255 1149.343,297.255 1150.102,297.255 1150.860,297.255 1151.618,297.255 1152.377,297.255 1153.135,297.255 1153.893,297.255 1154.652,297.255 1155.410,297.255 1156.168,297.255 1156.927,297.255 1157.685,297.255 1158.443,297.255 1159.201,297.255 1159.960,297.255 1160.718,297.255 1161.476,297.255 1162.235,297.255 1162.993,297.255 1163.751,297.255 1164.510,297.255 1165.268,297.255 1166.026,297.255 1166.785,297.255 1167.543,297.255 1168.301,297.255 1169.060,297.255 1169.818,297.255 1170.576,297.255 1171.335,297.255 1172.093,297.255 1172.851,297.255 1173.610,297.255 1174.368,297.255 1175.126,297.255 1175.885,297.255 1176.643,297.255 1177.401,297.255 1178.159,297.255 1178.918,297.255 1179.676,297.255 1180.434,297.255 1181.193,297.255 1181.951,297.255 1182.709,297.255 1183.468,297.255 1184.226,297.255 1184.984,297.255 1185.743,297.255 1186.501,297.255 1187.259,297.255 1188.018,297.255 1188.776,297.255 1189.534,297.255 1190.293,297.255 1191.051,297.255 1191.809,297.255 1192.568,297.255 1193.326,297.255 1194.084,297.255 1194.842,297.255 1195.601,297.255 1196.359,297.255 1197.117,297.255 1197.876,297.255 1198.634,297.255 1199.392,297.255 1200.151,297.255 1200.909,297.255 1201.667,297.255 1201.667,297.255 1200.909,297.255 1200.151,297.255 1199.392,297.255 1198.634,297.255 1197.876,297.255 1197.117,297.255 1196.359,297.255 1195.601,297.255 1194.842,297.255 1194.084,297.255 1193.326,297.255 1192.568,297.255 1191.809,297.255 1191.051,297.255 1190.293,297.255 1189.534,297.255 1188.776,297.255 1188.018,297.255 1187.259,297.255 1186.501,297.255 1185.743,297.255 1184.984,297.255 1184.226,297.255 1183.468,297.255 1182.709,297.255 1181.951,297.255 1181.193,297.255 1180.434,297.255 1179.676,297.255 1178.918,297.255 1178.159,297.255 1177.401,297.255 1176.643,297.255 1175.885,297.255 1175.126,297.255 1174.368,297.255 1173.610,297.255 1172.851,297.255 1172.093,297.255 1171.335,297.255 1170.576,297.255 1169.818,297.255 1169.060,297.255 1168.301,297.255 1167.543,297.255 1166.785,297.255 1166.026,297.255 1165.268,297.255 1164.510,297.255 1163.751,297.255 1162.993,297.255 1162.235,297.255 1161.476,297.255 1160.718,297.255 1159.960,297.255 1159.201,297.255 1158.443,297.255 1157.685,297.255 1156.927,297.255 1156.168,297.255 1155.410,297.255 1154.652,297.255 1153.893,297.255 1153.135,297.255 1152.377,297.255 1151.618,297.255 1150.860,297.255 1150.102,297.255 1149.343,297.255 1148.585,297.255 1147.827,297.255 1147.068,297.255 1146.310,297.255 1145.552,297.255 1144.793,297.255 1144.035,297.255 1143.277,297.255 1142.518,297.255 1141.760,297.255 1141.002,297.255 1140.243,297.255 1139.485,297.255 1138.727,297.255 1137.969,297.255 1137.210,297.255 1136.452,297.255 1135.694,297.255 1134.935,297.255 1134.177,297.255 1133.419,297.255 1132.660,297.255 1131.902,297.255 1131.144,297.255 1130.385,297.255 1129.627,297.255 1128.869,297.255 1128.110,297.255 1127.352,297.255 1126.594,297.255 1125.835,297.255 1125.077,297.255 1124.319,297.255 1123.560,297.255 1122.802,297.255 1122.044,297.255 1121.286,297.255 1120.527,297.255 1119.769,297.255 1119.011,297.255 1118.252,297.255 1117.494,297.255 1116.736,297.255 1115.977,297.255 1115.219,297.255 1114.461,297.255 1113.702,297.255 1112.944,297.255 1112.186,297.255 1111.427,297.255 1110.669,297.255 1109.911,297.255 1109.152,297.255 1108.394,297.255 1107.636,297.255 1106.877,297.255 1106.119,297.255 1105.361,297.255 1104.602,297.255 1103.844,297.255 1103.086,297.255 1102.328,297.255 1101.569,297.255 1100.811,297.255 1100.053,297.255 1099.294,297.255 1098.536,297.255 1097.778,297.255 1097.019,297.255 1096.261,297.255 1095.503,297.255 1094.744,297.255 1093.986,297.255 1093.228,297.255 1092.469,297.255 1091.711,297.255 1090.953,297.255 1090.194,297.255 1089.436,297.255 1088.678,297.255 1087.919,297.255 1087.161,297.255 1086.403,297.255 1085.644,297.255 1084.886,297.255 1084.128,297.255 1083.370,297.255 1082.611,297.255 1081.853,297.255 1081.095,297.255 1080.336,297.255 1079.578,297.255 1078.820,297.255 1078.061,297.255 1077.303,297.255 1076.545,297.255 1075.786,297.255 1075.028,297.255 1074.270,297.255 1073.511,297.255 1072.753,297.255 1071.995,297.255 1071.236,297.255 1070.478,297.255 1069.720,297.255 1068.961,297.255 1068.203,297.255 1067.445,297.255 1066.687,297.255 1065.928,297.255 1065.170,297.255 1064.412,297.255 1063.653,297.255 1062.895,297.255 1062.137,297.255 1061.378,297.255 1060.620,297.255 1059.862,297.255 1059.103,297.255 1058.345,297.255 1057.587,297.255 1056.828,297.255 1056.070,297.255 1055.312,297.255 1054.553,297.255 1053.795,297.255 1053.037,297.255 1052.278,297.255 1051.520,297.255 1050.762,297.255 1050.003,297.255 1049.245,297.255 1048.487,297.255 1047.729,297.255 1046.970,297.255 1046.212,297.255 1045.454,297.255 1044.695,297.255 1043.937,297.255 1043.179,297.255 1042.420,297.255 1041.662,297.255 1040.904,297.255 1040.145,297.255 1039.387,297.255 1038.629,297.255 1037.870,297.255 1037.112,297.255 1036.354,297.255 1035.595,297.255 1034.837,297.255 1034.079,297.255 1033.320,297.255 1032.562,297.255 1031.804,297.255 1031.046,297.255 1030.287,297.255 1029.529,297.255 1028.771,297.255 1028.012,297.255 1027.254,297.255 1026.496,297.255 1025.737,297.255 1024.979,297.255 1024.221,297.255 1023.462,297.255 1022.704,297.255 1021.946,297.255 1021.187,297.255 1020.429,297.255 1019.671,297.255 1018.912,297.255 1018.154,297.255 1017.396,297.255 1016.637,297.255 1015.879,297.255 1015.121,297.255 1014.362,297.255 1013.604,297.255 1012.846,297.255 1012.088,297.255 1011.329,297.255 1010.571,297.255 1009.813,297.255 1009.054,297.255 1008.296,297.255 1007.538,297.255 1006.779,297.255 1006.021,297.255 1005.263,297.255 1004.504,297.255 1003.746,297.255 1002.988,297.255 1002.229,297.255 1001.471,297.255 1000.713,297.255 999.954,297.255 999.196,297.255 998.438,297.255 997.679,297.255 996.921,297.255 996.163,297.255 995.404,297.255 994.646,297.255 993.888,297.255 993.130,297.255 992.371,297.255 991.613,297.255 990.855,297.255 990.096,297.255 989.338,297.255 988.580,297.255 987.821,297.255 987.063,297.255 986.305,297.255 985.546,297.255 984.788,297.255 984.030,297.255 983.271,297.255 982.513,297.255 981.755,297.255 980.996,297.255 980.238,297.255 979.480,297.255 978.721,297.255 977.963,297.255 977.205,297.255 976.447,297.255 975.688,297.255 974.930,297.255 974.172,297.255 973.413,297.255 972.655,297.255 971.897,297.255 971.138,297.255 970.380,297.255 969.622,297.255 968.863,297.255 968.105,297.255 967.347,297.255 966.588,297.255 965.830,297.255 965.072,297.255 964.313,297.255 963.555,297.255 962.797,297.255 962.038,297.255 961.280,297.255 960.522,297.255 959.763,297.255 959.005,297.255 958.247,297.255 957.489,297.255 956.730,297.255 955.972,297.255 955.214,297.255 954.455,297.255 953.697,297.255 952.939,297.255 952.180,297.255 951.422,297.255 950.664,297.255 949.905,297.255 949.147,297.255 948.389,297.255 947.630,297.255 946.872,297.255 946.114,297.255 945.355,297.255 944.597,297.255 943.839,297.255 943.080,297.255 942.322,297.255 941.564,297.255 940.806,297.255 940.047,297.255 939.289,297.255 938.531,297.255 937.772,297.255 937.014,297.255 936.256,297.255 935.497,297.255 934.739,297.255 933.981,297.255 933.222,297.255 932.464,297.255 931.706,297.255 930.947,297.255 930.189,297.255 929.431,297.255 928.672,297.255 927.914,297.255 927.156,297.255 926.397,297.255 925.639,297.255 924.881,297.255 924.122,297.255 923.364,297.255 922.606,297.255 921.848,297.255 921.089,297.255 920.331,297.255 919.573,297.255 918.814,297.255 918.056,297.255 917.298,297.255 916.539,297.255 915.781,297.255 915.023,297.255 914.264,297.255 913.506,297.255 912.748,297.255 911.989,297.255 911.231,297.255 910.473,297.255 909.714,297.255 908.956,297.255 908.198,297.255 907.439,297.255 906.681,297.255 905.923,297.255 905.164,297.255 904.406,297.255 903.648,297.255 902.890,297.255 902.131,297.255 901.373,297.255 900.615,297.255 899.856,297.255 899.098,297.255 898.340,297.255 897.581,297.255 896.823,297.255 896.065,297.255 895.306,297.255 894.548,297.255 893.790,297.255 893.031,297.255 892.273,297.255 891.515,297.255 890.756,297.255 889.998,297.255 889.240,297.255 888.481,297.255 887.723,297.255 886.965,297.255 886.207,297.255 885.448,297.255 884.690,297.255 883.932,297.255 883.173,297.255 882.415,297.255 881.657,297.255 880.898,297.255 880.140,297.255 879.382,297.255 878.623,297.255 877.865,297.255 877.107,297.255 876.348,297.255 875.590,297.255 874.832,297.255 874.073,297.255 873.315,297.255 872.557,297.255 871.798,297.255 871.040,297.255 870.282,297.255 869.523,297.255 868.765,297.255 868.007,297.255 867.249,297.255 866.490,297.255 865.732,297.255 864.974,297.255 864.215,297.255 863.457,297.255 862.699,297.255 861.940,297.255 861.182,297.255 860.424,297.255 859.665,297.255 858.907,297.255 858.149,297.255 857.390,297.255 856.632,297.255 855.874,297.255 855.115,297.255 854.357,297.255 853.599,297.255 852.840,297.255 852.082,297.255 851.324,297.255 850.566,297.255 849.807,297.255 849.049,297.255 848.291,297.255 847.532,297.255 846.774,297.255 846.016,297.255 845.257,297.255 844.499,297.255 843.741,297.255 842.982,297.255 842.224,297.255 841.466,297.255 840.707,297.255 839.949,297.255 839.191,297.255 838.432,297.255 837.674,297.255 836.916,297.255 836.157,297.255 835.399,297.255 834.641,297.255 833.882,297.255 833.124,297.255 832.366,297.255 831.608,297.255 830.849,297.255 830.091,297.255 829.333,297.255 828.574,297.255 827.816,297.255 827.058,297.255 826.299,297.255 825.541,297.255 824.783,297.255 824.024,297.255 823.266,297.255 822.508,297.255 821.749,297.255 820.991,297.255 820.233,297.255 819.474,297.255 818.716,297.255 817.958,297.255 817.199,297.255 816.441,297.255 815.683,297.255 814.924,297.255 814.166,297.255 813.408,297.255 812.650,297.255 811.891,297.255 811.133,297.255 810.375,297.255 809.616,297.255 808.858,297.255 808.100,297.255 807.341,297.255 806.583,297.255 805.825,297.255 805.066,297.255 804.308,297.255 803.550,297.255 802.791,297.255 802.033,297.255 801.275,297.255 800.516,297.255 799.758,297.255 799.000,297.255 798.241,297.255 797.483,297.255 796.725,297.255 795.967,297.255 795.208,297.255 794.450,297.255 793.692,297.255 792.933,297.255 792.175,297.255 791.417,297.255 790.658,297.255 789.900,297.255 789.142,297.255 788.383,297.255 787.625,297.255 786.867,297.255 786.108,297.255 785.350,297.255 784.592,297.255 783.833,297.255 783.075,297.255 782.317,297.255 781.558,297.255 780.800,297.255 780.042,297.255 779.283,297.255 778.525,297.255 777.767,297.255 777.009,297.255 776.250,297.255 775.492,297.255 774.734,297.255 773.975,297.255 773.217,297.255 772.459,297.255 771.700,297.255 770.942,297.255 770.184,297.255 769.425,297.255 768.667,297.255 767.909,297.255 767.150,297.255 766.392,297.255 765.634,297.255 764.875,297.255 764.117,297.255 763.359,297.255 762.600,297.255 761.842,297.255 761.084,297.255 760.325,297.255 759.567,297.255 758.809,297.255 758.051,297.255 757.292,297.255 756.534,297.255 755.776,297.255 755.017,297.255 754.259,297.255 753.501,297.255 752.742,297.255 751.984,297.255 751.226,297.255 750.467,297.255 749.709,297.255 748.951,297.255 748.192,297.255 747.434,297.255 746.676,297.255 745.917,297.255 745.159,297.255 744.401,297.255 743.642,297.255 742.884,297.255 742.126,297.255 741.368,297.255 740.609,297.255 739.851,297.255 739.093,297.255 738.334,297.255 737.576,297.255 736.818,297.255 736.059,297.255 735.301,297.255 734.543,297.255 733.784,297.255 733.026,297.255 732.268,297.255 731.509,297.255 730.751,297.255 729.993,297.255 729.234,297.255 728.476,297.255 727.718,297.255 726.959,297.255 726.201,297.255 725.443,297.255 724.684,297.255 723.926,297.255 723.168,297.255 722.410,297.255 721.651,297.255 720.893,297.255 720.135,297.255 719.376,297.255 718.618,297.255 717.860,297.255 717.101,297.255 716.343,297.255 715.585,297.255 714.826,297.255 714.068,297.255 713.310,297.255 712.551,297.255 711.793,297.255 711.035,297.255 710.276,297.255 709.518,297.255 708.760,297.255 708.001,297.255 707.243,297.255 706.485,297.255 705.727,297.255 704.968,297.255 704.210,297.255 703.452,297.255 702.693,297.255 701.935,297.255 701.177,297.255 700.418,297.255 699.660,297.255 698.902,297.255 698.143,297.255 697.385,297.255 696.627,297.255 695.868,297.255 695.110,297.255 694.352,297.255 693.593,297.255 692.835,297.255 692.077,297.255 691.318,297.255 690.560,297.255 689.802,297.255 689.043,297.255 688.285,297.255 687.527,297.255 686.769,297.255 686.010,297.255 685.252,297.255 684.494,297.255 683.735,297.255 682.977,297.255 682.219,297.255 681.460,297.255 680.702,297.255 679.944,297.255 679.185,297.255 678.427,297.255 677.669,297.255 676.910,297.255 676.152,297.255 675.394,297.255 674.635,297.255 673.877,297.255 673.119,297.255 672.360,297.255 671.602,297.255 670.844,297.255 670.085,297.255 669.327,297.255 668.569,297.255 667.811,297.255 667.052,297.255 666.294,297.255 665.536,297.255 664.777,297.255 664.019,297.255 663.261,297.255 662.502,297.255 661.744,297.255 660.986,297.255 660.227,297.255 659.469,297.255 658.711,297.255 657.952,297.255 657.194,297.255 656.436,297.255 655.677,297.255 654.919,297.255 654.161,297.255 653.402,297.255 652.644,297.255 651.886,297.255 651.128,297.255 650.369,297.255 649.611,297.255 648.853,297.255 648.094,297.255 647.336,297.255 646.578,297.255 645.819,297.255 645.061,297.255 644.303,297.255 643.544,297.255 642.786,297.255 642.028,297.255 641.269,297.255 640.511,297.255 639.753,297.255 638.994,297.255 638.236,297.255 637.478,297.255 636.719,297.255 635.961,297.255 635.203,297.255 634.444,297.255 633.686,297.255 632.928,297.255 632.170,297.255 631.411,297.255 630.653,297.255 629.895,297.255 629.136,297.255 628.378,297.255 627.620,297.255 626.861,297.255 626.103,297.255 625.345,297.255 624.586,297.255 623.828,297.255 623.070,297.255 622.311,297.255 621.553,297.255 620.795,297.255 620.036,297.255 619.278,297.255 618.520,297.255 617.761,297.255 617.003,297.255 616.245,297.255 615.487,297.255 614.728,297.255 613.970,297.255 613.212,297.255 612.453,297.255 611.695,297.255 610.937,297.255 610.178,297.255 609.420,297.255 608.662,297.255 607.903,297.255 607.145,297.255 606.387,297.255 605.628,297.255 604.870,297.255 604.112,297.255 603.353,297.255 602.595,297.255 601.837,297.255 601.078,297.255 600.320,297.255 599.562,297.255 598.803,297.255 598.045,297.255 597.287,297.255 596.529,297.255 595.770,297.255 595.012,297.255 594.254,297.255 593.495,297.255 592.737,297.255 591.979,297.255 591.220,297.255 590.462,297.255 589.704,297.255 588.945,297.255 588.187,297.255 587.429,297.255 586.670,297.255 585.912,297.255 585.154,297.255 584.395,297.255 583.637,297.255 582.879,297.255 582.120,297.255 581.362,297.255 580.604,297.255 579.845,297.255 579.087,297.255 578.329,297.255 577.571,297.255 576.812,297.255 576.054,297.255 575.296,297.255 574.537,297.255 573.779,297.255 573.021,297.255 572.262,297.255 571.504,297.255 570.746,297.255 569.987,297.255 569.229,297.255 568.471,297.255 567.712,297.255 566.954,297.255 566.196,297.255 565.437,297.255 564.679,297.255 563.921,297.255 563.162,297.255 562.404,297.255 561.646,297.255 560.888,297.255 560.129,297.255 559.371,297.255 558.613,297.255 557.854,297.255 557.096,297.255 556.338,297.255 555.579,297.255 554.821,297.255 554.063,297.255 553.304,297.255 552.546,297.255 551.788,297.255 551.029,297.255 550.271,297.255 549.513,297.255 548.754,297.255 547.996,297.255 547.238,297.255 546.479,297.255 545.721,297.255 544.963,297.255 544.204,297.255 543.446,297.255 542.688,297.255 541.930,297.255 541.171,297.255 540.413,297.255 539.655,297.255 538.896,297.255 538.138,297.255 537.380,297.255 536.621,297.255 535.863,297.255 535.105,297.255 534.346,297.255 533.588,297.255 532.830,297.255 532.071,297.255 531.313,297.255 530.555,297.255 529.796,297.255 529.038,297.255 528.280,297.255 527.521,297.255 526.763,297.255 526.005,297.255 525.247,297.255 524.488,297.255 523.730,297.255 522.972,297.255 522.213,297.255 521.455,297.255 520.697,297.255 519.938,297.255 519.180,297.255 518.422,297.255 517.663,297.255 516.905,297.255 516.147,297.255 515.388,297.255 514.630,297.255 513.872,297.255 513.113,297.255 512.355,297.255 511.597,297.255 510.838,297.255 510.080,297.255 509.322,297.255 508.563,297.255 507.805,297.255 507.047,297.255 506.289,297.255 505.530,297.255 504.772,297.255 504.014,297.255 503.255,297.255 502.497,297.255 501.739,297.255 500.980,297.255 500.222,297.255 499.464,297.255 498.705,297.255 497.947,297.255 497.189,297.255 496.430,297.255 495.672,297.255 494.914,297.255 494.155,297.255 493.397,297.255 492.639,297.255 491.880,297.255 491.122,297.255 490.364,297.255 489.605,297.255 488.847,297.255 488.089,297.255 487.331,297.255 486.572,297.255 485.814,297.255 485.056,297.255 484.297,297.255 483.539,297.255 482.781,297.255 482.022,297.255 481.264,297.255 480.506,297.255 479.747,297.255 478.989,297.255 478.231,297.255 477.472,297.255 476.714,297.255 475.956,297.255 475.197,297.255 474.439,297.255 473.681,297.255 472.922,297.255 472.164,297.255 471.406,297.255 470.648,297.255 469.889,297.255 469.131,297.255 468.373,297.255 467.614,297.255 466.856,297.255 466.098,297.255 465.339,297.255 464.581,297.255 463.823,297.255 463.064,297.255 462.306,297.255 461.548,297.255 460.789,297.255 460.031,297.255 459.273,297.255 458.514,297.255 457.756,297.255 456.998,297.255 456.239,297.255 455.481,297.255 454.723,297.255 453.964,297.255 453.206,297.255 452.448,297.255 451.690,297.255 450.931,297.255 450.173,297.255 449.415,297.255 448.656,297.255 447.898,297.255 447.140,297.255 446.381,297.255 445.623,297.255 444.865,297.255 444.106,297.255 443.348,297.255 442.590,297.255 441.831,297.255 441.073,297.255 440.315,297.255 439.556,297.255 438.798,297.255 438.040,297.255 437.281,297.255 436.523,297.255 435.765,297.255 435.006,297.255 434.248,297.255 433.490,297.255 432.732,297.255 431.973,297.255 431.215,297.255 430.457,297.255 429.698,297.255 428.940,297.255 428.182,297.255 427.423,297.255 426.665,297.255 425.907,297.255 425.148,297.255 424.390,297.255 423.632,297.255 422.873,297.255 422.115,297.255 421.357,297.255 420.598,297.255 419.840,297.255 419.082,297.255 418.323,297.255 417.565,297.255 416.807,297.255 416.049,297.255 415.290,297.255 414.532,297.255 413.774,297.255 413.015,297.255 412.257,297.255 411.499,297.255 410.740,297.255 409.982,297.255 409.224,297.255 408.465,297.255 407.707,297.255 406.949,297.255 406.190,297.255 405.432,297.255 404.674,297.255 403.915,297.255 403.157,297.255 402.399,297.255 401.640,297.255 400.882,297.255 400.124,297.255 399.365,297.255 398.607,297.255 397.849,297.255 397.091,297.255 396.332,297.255 395.574,297.255 394.816,297.255 394.057,297.255 393.299,297.255 392.541,297.255 391.782,297.255 391.024,297.255 390.266,297.255 389.507,297.255 388.749,297.255 387.991,297.255 387.232,297.255 386.474,297.255 385.716,297.255 384.957,297.255 384.199,297.255 383.441,297.255 382.682,297.255 381.924,297.255 381.166,297.255 380.408,297.255 379.649,297.255 378.891,297.255 378.133,297.255 377.374,297.255 376.616,297.255 375.858,297.255 375.099,297.255 374.341,297.255 373.583,297.255 372.824,297.255 372.066,297.255 371.308,297.255 370.549,297.255 369.791,297.255 369.033,297.255 368.274,297.255 367.516,297.255 366.758,297.255 365.999,297.255 365.241,297.255 364.483,297.255 363.724,297.255 362.966,297.255 362.208,297.255 361.450,297.255 360.691,297.255 359.933,297.255 359.175,297.255 358.416,297.255 357.658,297.255 356.900,297.255 356.141,297.255 355.383,297.255 354.625,297.255 353.866,297.255 353.108,297.255 352.350,297.255 351.591,297.255 350.833,297.255 350.075,297.255 349.316,297.255 348.558,297.255 347.800,297.255 347.041,297.255 346.283,297.255 345.525,297.255 344.766,297.255 344.008,297.255 343.250,297.255 342.492,297.255 341.733,297.255 340.975,297.255 340.217,297.255 339.458,297.255 338.700,297.255 337.942,297.255 337.183,297.255 336.425,297.255 335.667,297.255 334.908,297.255 334.150,297.255 333.392,297.255 332.633,297.255 331.875,297.255 331.117,297.255 330.358,297.255 329.600,297.255 328.842,297.255 328.083,297.255 327.325,297.255 326.567,297.255 325.809,297.255 325.050,297.255 324.292,297.255 323.534,297.255 322.775,297.255 322.017,297.255 321.259,297.255 320.500,297.255 319.742,297.255 318.984,297.255 318.225,297.255 317.467,297.255 316.709,297.255 315.950,297.255 315.192,297.255 314.434,297.255 313.675,297.255 312.917,297.255 312.159,297.255 311.400,297.255 310.642,297.255 309.884,297.255 309.125,297.255 308.367,297.255 307.609,297.255 306.851,297.255 306.092,297.255 305.334,297.255 304.576,297.255 303.817,297.255 303.059,297.255 302.301,297.255 301.542,297.255 300.784,297.255 300.026,297.255 299.267,297.255 298.509,297.255 297.751,297.255 296.992,297.255 296.234,297.255 295.476,297.255 294.717,297.255 293.959,297.255 293.201,297.255 292.442,297.255 291.684,297.255 290.926,297.255 290.168,297.255 289.409,297.255 288.651,297.255 287.893,297.255 287.134,297.255 286.376,297.255 285.618,297.255 284.859,297.255 284.101,297.255 283.343,297.255 282.584,297.255 281.826,297.255 281.068,297.255 280.309,297.255 279.551,297.255 278.793,297.255 278.034,297.255 277.276,297.255 276.518,297.255 275.759,297.255 275.001,297.255 274.243,297.255 273.484,297.255 272.726,297.255 271.968,297.255 271.210,297.255 270.451,297.255 269.693,297.255 268.935,297.255 268.176,297.255 267.418,297.255 266.660,297.255 265.901,297.255 265.143,297.255 264.385,297.255 263.626,297.255 262.868,297.255 262.110,297.255 261.351,297.255 260.593,297.255 259.835,297.255 259.076,297.255 258.318,297.255 257.560,297.255 256.801,297.255 256.043,297.255 255.285,297.255 254.526,297.255 253.768,297.255 253.010,297.255 252.252,297.255 251.493,297.255 250.735,297.255 249.977,297.255 249.218,297.255 248.460,297.255 247.702,297.255 246.943,297.255 246.185,297.255 245.427,297.255 244.668,297.255 243.910,297.255 243.152,297.255 242.393,297.255 241.635,297.255 240.877,297.255 240.118,297.255 239.360,297.255 238.602,297.255 237.843,297.255 237.085,297.255 236.327,297.255 235.569,297.255 234.810,297.255 234.052,297.255 233.294,297.255 232.535,297.255 231.777,297.255 231.019,297.255 230.260,297.255 229.502,297.255 228.744,297.255 227.985,297.255 227.227,297.255 226.469,297.255 225.710,297.255 224.952,297.255 224.194,297.255 223.435,297.255 222.677,297.255 221.919,297.255 221.160,297.255 220.402,297.255 219.644,297.255 218.885,297.255 218.127,297.255 217.369,297.255 216.611,297.255 215.852,297.255 215.094,297.255 214.336,297.255 213.577,297.255 212.819,297.255 212.061,297.255 211.302,297.255 210.544,297.255 209.786,297.255 209.027,297.255 208.269,297.255 207.511,297.255 206.752,297.255 205.994,297.255 205.236,297.255 204.477,297.255 203.719,297.255 202.961,297.255 202.202,297.255 201.444,297.255 200.686,297.255 199.928,297.255 199.169,297.255 198.411,297.255 197.653,297.255 196.894,297.255 196.136,297.255 195.378,297.255 194.619,297.255 193.861,297.255 193.103,297.255 192.344,297.255 191.586,297.255 190.828,297.255 190.069,297.255 189.311,297.255 188.553,297.255 187.794,297.255 187.036,297.255 186.278,297.255 185.519,297.255 184.761,297.255 184.003,297.255 183.244,297.255 182.486,297.255 181.728,297.255 180.970,297.255 180.211,297.255 179.453,297.255 178.695,297.255 177.936,297.255 177.178,297.255 176.420,297.255 175.661,297.255 174.903,297.255 174.145,297.255 173.386,297.255 172.628,297.255 171.870,297.255 171.111,297.255 170.353,297.255 169.595,297.255 168.836,297.255 168.078,297.255 167.320,297.255 166.561,297.255 165.803,297.255 165.045,297.255 164.286,297.255 163.528,297.255 162.770,297.255 162.012,297.255 161.253,297.255 160.495,297.255 159.737,297.255 158.978,297.255 158.220,297.255 157.462,297.255 156.703,297.255 155.945,297.255 155.187,297.255 154.428,297.255 153.670,297.255 152.912,297.255 152.153,297.255 151.395,297.255 150.637,297.255 149.878,297.255 149.120,297.255 148.362,297.255 147.603,297.255 146.845,297.255 146.087,297.255 145.329,297.255 144.570,297.255 143.812,297.255 143.054,297.255 142.295,297.255 141.537,297.255 140.779,297.255 140.020,297.255 139.262,297.255 138.504,297.255 137.745,297.255 136.987,297.255 136.229,297.255 135.470,297.255 134.712,297.255 133.954,297.255 133.195,297.255 132.437,297.255 131.679,297.255 130.920,297.255 130.162,297.255 129.404,297.255 128.645,297.255 127.887,297.255 127.129,297.255 126.371,297.255 125.612,297.255 124.854,297.255 124.096,297.255 123.337,297.255 122.579,297.255 121.821,297.255 121.062,297.255 120.304,297.255 119.546,297.255 118.787,297.255 118.029,297.255 117.271,297.255 116.512,297.255 115.754,297.255 114.996,297.255 114.237,297.255 113.479,297.255 112.721,297.255 111.962,297.255 111.204,297.255 110.446,297.255 "/>
</g>
</g><g id="ID000009" >
</g>
<g id="ID000010" >
</g>
    </g>
    <g>
      <polyline fill="none" stroke="#000000" stroke-width="0.5pt" stroke-dasharray="none" points="109.688,297.255 109.688,286.335 "/>
      <polyline fill="none" stroke="#000000" stroke-width="0.5pt" stroke-dasharray="none" points="155.187,297.255 155.187,286.335 "/>
      <polyline fill="none" stroke="#000000" stroke-width="0.5pt" stroke-dasharray="none" points="200.686,297.255 200.686,286.335 "/>
      <polyline fill="none" stroke="#000000" stroke-width="0.5pt" stroke-dasharray="none" points="246.185,297.255 246.185,286.335 "/>
      <polyline fill="none" stroke="#000000" stroke-width="0.5pt" stroke-dasharray="none" points="291.684,297.255 291.684,286.335 "/>
      <polyline fill="none" stroke="#000000" stroke-width="0.5pt" stroke-dasharray="none" points="337.183,297.255 337.183,286.335 "/>
      <polyline fill="none" stroke="#000000" stroke-width="0.5pt" stroke-dasharray="none" points="382.682,297.255 382.682,286.335 "/>
      <polyline fill="none" stroke="#000000" stroke-width="0.5pt" stroke-dasharray="none" points="428.182,297.255 428.182,286.335 "/>
      <polyline fill="none" stroke="#000000" stroke-width="0.5pt" stroke-dasharray="none" points="473.681,297.255 473.681,286.335 "/>
      <polyline fill="none" stroke="#000000" stroke-width="0.5pt" stroke-dasharray="none" points="519.180,297.255 519.180,286.335 "/>
      <polyline fill="none" stroke="#000000" stroke-width="0.5pt" stroke-dasharray="none" points="564.679,297.255 564.679,286.335 "/>
      <polyline fill="none" stroke="#000000" stroke-width="0.5pt" stroke-dasharray="none" points="610.178,297.255 610.178,286.335 "/>
      <polyline fill="none" stroke="#000000" stroke-width="0.5pt" stroke-dasharray="none" points="655.677,297.255 655.677,286.335 "/>
      <polyline fill="none" stroke="#000000" stroke-width="0.5pt" stroke-dasharray="none" points="701.177,297.255 701.177,286.335 "/>
      <polyline fill="none" stroke="#000000" stroke-width="0.5pt" stroke-dasharray="none" points="746.676,297.255 746.676,286.335 "/>
      <polyline fill="none" stroke="#000000" stroke-width="0.5pt" stroke-dasharray="none" points="792.175,297.255 792.175,286.335 "/>
      <polyline fill="none" stroke="#000000" stroke-width="0.5pt" stroke-dasharray="none" points="837.674,297.255 837.674,286.335 "/>
      <polyline fill="none" stroke="#000000" stroke-width="0.5pt" stroke-dasharray="none" points="883.173,297.255 883.173,286.335 "/>
      <polyline fill="none" stroke="#000000" stroke-width="0.5pt" stroke-dasharray="none" points="928.672,297.255 928.672,286.335 "/>
      <polyline fill="none" stroke="#000000" stroke-width="0.5pt" stroke-dasharray="none" points="974.172,297.255 974.172,286.335 "/>
      <polyline fill="none" stroke="#000000" stroke-width="0.5pt" stroke-dasharray="none" points="1019.671,297.255 1019.671,286.335 "/>
      <polyline fill="none" stroke="#000000" stroke-width="0.5pt" stroke-dasharray="none" points="1065.170,297.255 1065.170,286.335 "/>
      <polyline fill="none" stroke="#000000" stroke-width="0.5pt" stroke-dasharray="none" points="1110.669,297.255 1110.669,286.335 "/>
      <polyline fill="none" stroke="#000000" stroke-width="0.5pt" stroke-dasharray="none" points="1156.168,297.255 1156.168,286.335 "/>
      <polyline fill="none" stroke="#000000" stroke-width="0.5pt" stroke-dasharray="none" points="1201.667,297.255 1201.667,286.335 "/>
      <polyline fill="none" stroke="#000000" stroke-width="0.5pt" stroke-dasharray="none" points="109.688,297.255 1201.667,297.255 "/>
  <g transform="translate(109.688,313.644)">
    <g transform="rotate(-0.0)">
      <text x="0.000" y="0.000" font-family="Helvetica" text-anchor="middle" font-size="9pt" font-style="oblique" fill="#000000" >00:00</text>
    </g>
  </g>
  <g transform="translate(155.187,313.644)">
    <g transform="rotate(-0.0)">
      <text x="0.000" y="0.000" font-family="Helvetica" text-anchor="middle" font-size="9pt" font-style="oblique" fill="#000000" >01:00</text>
    </g>
  </g>
  <g transform="translate(200.686,313.644)">
    <g transform="rotate(-0.0)">
      <text x="0.000" y="0.000" font-family="Helvetica" text-anchor="middle" font-size="9pt" font-style="oblique" fill="#000000" >02:00</text>
    </g>
  </g>
  <g transform="translate(246.185,313.644)">
    <g transform="rotate(-0.0)">
      <text x="0.000" y="0.000" font-family="Helvetica" text-anchor="middle" font-size="9pt" font-style="oblique" fill="#000000" >03:00</text>
    </g>
  </g>
  <g transform="translate(291.684,313.644)">
    <g transform="rotate(-0.0)">
      <text x="0.000" y="0.000" font-family="Helvetica" text-anchor="middle" font-size="9pt" font-style="oblique" fill="#000000" >04:00</text>
    </g>
  </g>
  <g transform="translate(337.183,313.644)">
    <g transform="rotate(-0.0)">
      <text x="0.000" y="0.000" font-family="Helvetica" text-anchor="middle" font-size="9pt" font-style="oblique" fill="#000000" >05:00</text>
    </g>
  </g>
  <g transform="translate(382.682,313.644)">
    <g transform="rotate(-0.0)">
      <text x="0.000" y="0.000" font-family="Helvetica" text-anchor="middle" font-size="9pt" font-style="oblique" fill="#000000" >06:00</text>
    </g>
  </g>
  <g transform="translate(428.182,313.644)">
    <g transform="rotate(-0.0)">
      <text x="0.000" y="0.000" font-family="Helvetica" text-anchor="middle" font-size="9pt" font-style="oblique" fill="#000000" >07:00</text>
    </g>
  </g>
  <g transform="translate(473.681,313.644)">
    <g transform="rotate(-0.0)">
      <text x="0.000" y="0.000" font-family="Helvetica" text-anchor="middle" font-size="9pt" font-style="oblique" fill="#000000" >08:00</text>
    </g>
  </g>
  <g transform="translate(519.180,313.644)">
    <g transform="rotate(-0.0)">
      <text x="0.000" y="0.000" font-family="Helvetica" text-anchor="middle" font-size="9pt" font-style="oblique" fill="#000000" >09:00</text>
    </g>
  </g>
  <g transform="translate(564.679,313.644)">
    <g transform="rotate(-0.0)">
      <text x="0.000" y="0.000" font-family="Helvetica" text-anchor="middle" font-size="9pt" font-style="oblique" fill="#000000" >10:00</text>
    </g>
  </g>
  <g transform="translate(610.178,313.644)">
    <g transform="rotate(-0.0)">
      <text x="0.000" y="0.000" font-family="Helvetica" text-anchor="middle" font-size="9pt" font-style="oblique" fill="#000000" >11:00</text>
    </g>
  </g>
  <g transform="translate(655.677,313.644)">
    <g transform="rotate(-0.0)">
      <text x="0.000" y="0.000" font-family="Helvetica" text-anchor="middle" font-size="9pt" font-style="oblique" fill="#000000" >12:00</text>
    </g>
  </g>
  <g transform="translate(701.177,313.644)">
    <g transform="rotate(-0.0)">
      <text x="0.000" y="0.000" font-family="Helvetica" text-anchor="middle" font-size="9pt" font-style="oblique" fill="#000000" >13:00</text>
    </g>
  </g>
  <g transform="translate(746.676,313.644)">
    <g transform="rotate(-0.0)">
      <text x="0.000" y="0.000" font-family="Helvetica" text-anchor="middle" font-size="9pt" font-style="oblique" fill="#000000" >14:00</text>
    </g>
  </g>
  <g transform="translate(792.175,313.644)">
    <g transform="rotate(-0.0)">
      <text x="0.000" y="0.000" font-family="Helvetica" text-anchor="middle" font-size="9pt" font-style="oblique" fill="#000000" >15:00</text>
    </g>
  </g>
  <g transform="translate(837.674,313.644)">
    <g transform="rotate(-0.0)">
      <text x="0.000" y="0.000" font-family="Helvetica" text-anchor="middle" font-size="9pt" font-style="oblique" fill="#000000" >16:00</text>
    </g>
  </g>
  <g transform="translate(883.173,313.644)">
    <g transform="rotate(-0.0)">
      <text x="0.000" y="0.000" font-family="Helvetica" text-anchor="middle" font-size="9pt" font-style="oblique" fill="#000000" >17:00</text>
    </g>
  </g>
  <g transform="translate(928.672,313.644)">
    <g transform="rotate(-0.0)">
      <text x="0.000" y="0.000" font-family="Helvetica" text-anchor="middle" font-size="9pt" font-style="oblique" fill="#000000" >18:00</text>
    </g>
  </g>
  <g transform="translate(974.172,313.644)">
    <g transform="rotate(-0.0)">
      <text x="0.000" y="0.000" font-family="Helvetica" text-anchor="middle" font-size="9pt" font-style="oblique" fill="#000000" >19:00</text>
    </g>
  </g>
  <g transform="translate(1019.671,313.644)">
    <g transform="rotate(-0.0)">
      <text x="0.000" y="0.000" font-family="Helvetica" text-anchor="middle" font-size="9pt" font-style="oblique" fill="#000000" >20:00</text>
    </g>
  </g>
  <g transform="translate(1065.170,313.644)">
    <g transform="rotate(-0.0)">
      <text x="0.000" y="0.000" font-family="Helvetica" text-anchor="middle" font-size="9pt" font-style="oblique" fill="#000000" >21:00</text>
    </g>
  </g>
  <g transform="translate(1110.669,313.644)">
    <g transform="rotate(-0.0)">
      <text x="0.000" y="0.000" font-family="Helvetica" text-anchor="middle" font-size="9pt" font-style="oblique" fill="#000000" >22:00</text>
    </g>
  </g>
  <g transform="translate(1156.168,313.644)">
    <g transform="rotate(-0.0)">
      <text x="0.000" y="0.000" font-family="Helvetica" text-anchor="middle" font-size="9pt" font-style="oblique" fill="#000000" >23:00</text>
    </g>
  </g>
  <g transform="translate(1201.667,313.644)">
    <g transform="rotate(-0.0)">
      <text x="0.000" y="0.000" font-family="Helvetica" text-anchor="middle" font-size="9pt" font-style="oblique" fill="#000000" >24:00</text>
    </g>
  </g>
      <polyline fill="none" stroke="#000000" stroke-width="0.5pt" stroke-dasharray="none" points="109.688,297.255 120.607,297.255 "/>
      <polyline fill="none" stroke="#000000" stroke-width="0.5pt" stroke-dasharray="none" points="109.688,230.676 120.607,230.676 "/>
      <polyline fill="none" stroke="#000000" stroke-width="0.5pt" stroke-dasharray="none" points="109.688,164.096 120.607,164.096 "/>
      <polyline fill="none" stroke="#000000" stroke-width="0.5pt" stroke-dasharray="none" points="109.688,97.517 120.607,97.517 "/>
      <polyline fill="none" stroke="#000000" stroke-width="0.5pt" stroke-dasharray="none" points="109.688,30.937 120.607,30.937 "/>
      <polyline fill="none" stroke="#000000" stroke-width="0.5pt" stroke-dasharray="none" points="109.688,297.255 109.688,30.937 "/>
  <g transform="translate(87.848,301.474)">
    <g transform="rotate(-0.0)">
      <text x="0.000" y="0.000" font-family="Helvetica" text-anchor="end" font-size="9pt" font-style="oblique" fill="#000000" >0</text>
    </g>
  </g>
  <g transform="translate(87.848,234.894)">
    <g transform="rotate(-0.0)">
      <text x="0.000" y="0.000" font-family="Helvetica" text-anchor="end" font-size="9pt" font-style="oblique" fill="#000000" >500</text>
    </g>
  </g>
  <g transform="translate(87.848,168.315)">
    <g transform="rotate(-0.0)">
      <text x="0.000" y="0.000" font-family="Helvetica" text-anchor="end" font-size="9pt" font-style="oblique" fill="#000000" >1000</text>
    </g>
  </g>
  <g transform="translate(87.848,101.736)">
    <g transform="rotate(-0.0)">
      <text x="0.000" y="0.000" font-family="Helvetica" text-anchor="end" font-size="9pt" font-style="oblique" fill="#000000" >1500</text>
    </g>
  </g>
  <g transform="translate(87.848,35.156)">
    <g transform="rotate(-0.0)">
      <text x="0.000" y="0.000" font-family="Helvetica" text-anchor="end" font-size="9pt" font-style="oblique" fill="#000000" >2000</text>
    </g>
  </g>
      <polyline fill="none" stroke="#000000" stroke-width="0.5pt" stroke-dasharray="none" points="109.688,297.255 109.688,294.592 "/>
      <polyline fill="none" stroke="#000000" stroke-width="0.5pt" stroke-dasharray="none" points="109.688,297.255 109.688,294.592 "/>
      <polyline fill="none" stroke="#000000" stroke-width="0.5pt" stroke-dasharray="none" points="109.688,297.255 109.688,294.592 "/>
      <polyline fill="none" stroke="#000000" stroke-width="0.5pt" stroke-dasharray="none" points="109.688,297.255 109.688,297.255 "/>
    </g>
  </g>
  <g id ="ID000011">
  <clipPath id="ID000012">
    <rect x="0.000" y="0.000" width="1256.250" height="354.375"/>
  </clipPath>
    <g>
    </g>
  </g>
  </g>
</svg>
