<?xml version="1.0" encoding="utf-8" standalone="no"?><!DOCTYPE svg PUBLIC "-//W3C//DTD SVG 1.1//EN" "http://www.w3.org/Graphics/SVG/1.1/DTD/svg11.dtd">
<svg preserveAspectRatio="xMinYMin meet" width="100%" height="100%" viewBox="0 0 1663.125 393.750"  version="1.1" xmlns="http://www.w3.org/2000/svg" xmlns:xlink="http://www.w3.org/1999/xlink">
  <desc>Matlab Figure Converted by PLOT2SVG written by Juerg Schwizer</desc>
  <g id="topgroup">
  <rect x="0" y="0" width="1663.125" height="393.750" fill="#ffffff" stroke="none" />
  <g id ="ID000000">
  <clipPath id="ID000001">
    <rect x="145.213" y="34.375" width="1445.651" height="295.908"/>
  </clipPath>
      <polygon fill="#ffffff" fill-opacity="1.00" stroke="none" stroke-width="0.5pt" stroke-opacity="1.00" stroke-dasharray="none" points="145.213,330.283 1590.864,330.283 1590.864,34.375 145.213,34.375 "/>
      <polygon fill="#ffffff" fill-opacity="1.00" stroke="none" stroke-width="0.5pt" stroke-opacity="1.00" stroke-dasharray="none" points="145.213,34.375 1590.864,34.375 1590.864,34.375 145.213,34.375 "/>
      <polygon fill="#ffffff" fill-opacity="1.00" stroke="none" stroke-width="0.5pt" stroke-opacity="1.00" stroke-dasharray="none" points="145.213,330.283 145.213,330.283 145.213,34.375 145.213,34.375 "/>
      <polyline fill="none" stroke="#000000" stroke-width="0.5pt" stroke-dasharray="2.0,2.0" points="145.213,330.283 145.213,34.375 "/>
      <polyline fill="none" stroke="#000000" stroke-width="0.5pt" stroke-dasharray="2.0,2.0" points="203.039,330.283 203.039,34.375 "/>
      <polyline fill="none" stroke="#000000" stroke-width="0.5pt" stroke-dasharray="2.0,2.0" points="260.865,330.283 260.865,34.375 "/>
      <polyline fill="none" stroke="#000000" stroke-width="0.5pt" stroke-dasharray="2.0,2.0" points="318.691,330.283 318.691,34.375 "/>
      <polyline fill="none" stroke="#000000" stroke-width="0.5pt" stroke-dasharray="2.0,2.0" points="376.517,330.283 376.517,34.375 "/>
      <polyline fill="none" stroke="#000000" stroke-width="0.5pt" stroke-dasharray="2.0,2.0" points="434.343,330.283 434.343,34.375 "/>
      <polyline fill="none" stroke="#000000" stroke-width="0.5pt" stroke-dasharray="2.0,2.0" points="492.169,330.283 492.169,34.375 "/>
      <polyline fill="none" stroke="#000000" stroke-width="0.5pt" stroke-dasharray="2.0,2.0" points="549.995,330.283 549.995,34.375 "/>
      <polyline fill="none" stroke="#000000" stroke-width="0.5pt" stroke-dasharray="2.0,2.0" points="607.821,330.283 607.821,34.375 "/>
      <polyline fill="none" stroke="#000000" stroke-width="0.5pt" stroke-dasharray="2.0,2.0" points="665.647,330.283 665.647,34.375 "/>
      <polyline fill="none" stroke="#000000" stroke-width="0.5pt" stroke-dasharray="2.0,2.0" points="723.474,330.283 723.474,34.375 "/>
      <polyline fill="none" stroke="#000000" stroke-width="0.5pt" stroke-dasharray="2.0,2.0" points="781.300,330.283 781.300,34.375 "/>
      <polyline fill="none" stroke="#000000" stroke-width="0.5pt" stroke-dasharray="2.0,2.0" points="839.126,330.283 839.126,34.375 "/>
      <polyline fill="none" stroke="#000000" stroke-width="0.5pt" stroke-dasharray="2.0,2.0" points="896.952,330.283 896.952,34.375 "/>
      <polyline fill="none" stroke="#000000" stroke-width="0.5pt" stroke-dasharray="2.0,2.0" points="954.778,330.283 954.778,34.375 "/>
      <polyline fill="none" stroke="#000000" stroke-width="0.5pt" stroke-dasharray="2.0,2.0" points="1012.604,330.283 1012.604,34.375 "/>
      <polyline fill="none" stroke="#000000" stroke-width="0.5pt" stroke-dasharray="2.0,2.0" points="1070.430,330.283 1070.430,34.375 "/>
      <polyline fill="none" stroke="#000000" stroke-width="0.5pt" stroke-dasharray="2.0,2.0" points="1128.256,330.283 1128.256,34.375 "/>
      <polyline fill="none" stroke="#000000" stroke-width="0.5pt" stroke-dasharray="2.0,2.0" points="1186.082,330.283 1186.082,34.375 "/>
      <polyline fill="none" stroke="#000000" stroke-width="0.5pt" stroke-dasharray="2.0,2.0" points="1243.908,330.283 1243.908,34.375 "/>
      <polyline fill="none" stroke="#000000" stroke-width="0.5pt" stroke-dasharray="2.0,2.0" points="1301.734,330.283 1301.734,34.375 "/>
      <polyline fill="none" stroke="#000000" stroke-width="0.5pt" stroke-dasharray="2.0,2.0" points="1359.560,330.283 1359.560,34.375 "/>
      <polyline fill="none" stroke="#000000" stroke-width="0.5pt" stroke-dasharray="2.0,2.0" points="1417.386,330.283 1417.386,34.375 "/>
      <polyline fill="none" stroke="#000000" stroke-width="0.5pt" stroke-dasharray="2.0,2.0" points="1475.212,330.283 1475.212,34.375 "/>
      <polyline fill="none" stroke="#000000" stroke-width="0.5pt" stroke-dasharray="2.0,2.0" points="1533.038,330.283 1533.038,34.375 "/>
      <polyline fill="none" stroke="#000000" stroke-width="0.5pt" stroke-dasharray="2.0,2.0" points="145.213,330.283 1590.864,330.283 "/>
      <polyline fill="none" stroke="#000000" stroke-width="0.5pt" stroke-dasharray="2.0,2.0" points="145.213,297.405 1590.864,297.405 "/>
      <polyline fill="none" stroke="#000000" stroke-width="0.5pt" stroke-dasharray="2.0,2.0" points="145.213,264.526 1590.864,264.526 "/>
      <polyline fill="none" stroke="#000000" stroke-width="0.5pt" stroke-dasharray="2.0,2.0" points="145.213,231.647 1590.864,231.647 "/>
      <polyline fill="none" stroke="#000000" stroke-width="0.5pt" stroke-dasharray="2.0,2.0" points="145.213,198.769 1590.864,198.769 "/>
      <polyline fill="none" stroke="#000000" stroke-width="0.5pt" stroke-dasharray="2.0,2.0" points="145.213,165.890 1590.864,165.890 "/>
      <polyline fill="none" stroke="#000000" stroke-width="0.5pt" stroke-dasharray="2.0,2.0" points="145.213,133.011 1590.864,133.011 "/>
      <polyline fill="none" stroke="#000000" stroke-width="0.5pt" stroke-dasharray="2.0,2.0" points="145.213,100.132 1590.864,100.132 "/>
      <polyline fill="none" stroke="#000000" stroke-width="0.5pt" stroke-dasharray="2.0,2.0" points="145.213,67.254 1590.864,67.254 "/>
      <polyline fill="none" stroke="#000000" stroke-width="0.5pt" stroke-dasharray="2.0,2.0" points="145.213,34.375 1590.864,34.375 "/>
      <polyline fill="none" stroke="#000000" stroke-width="0.5pt" stroke-dasharray="2.0,2.0" points="145.213,34.375 145.213,34.375 "/>
      <polyline fill="none" stroke="#000000" stroke-width="0.5pt" stroke-dasharray="2.0,2.0" points="203.039,34.375 203.039,34.375 "/>
      <polyline fill="none" stroke="#000000" stroke-width="0.5pt" stroke-dasharray="2.0,2.0" points="260.865,34.375 260.865,34.375 "/>
      <polyline fill="none" stroke="#000000" stroke-width="0.5pt" stroke-dasharray="2.0,2.0" points="318.691,34.375 318.691,34.375 "/>
      <polyline fill="none" stroke="#000000" stroke-width="0.5pt" stroke-dasharray="2.0,2.0" points="376.517,34.375 376.517,34.375 "/>
      <polyline fill="none" stroke="#000000" stroke-width="0.5pt" stroke-dasharray="2.0,2.0" points="434.343,34.375 434.343,34.375 "/>
      <polyline fill="none" stroke="#000000" stroke-width="0.5pt" stroke-dasharray="2.0,2.0" points="492.169,34.375 492.169,34.375 "/>
      <polyline fill="none" stroke="#000000" stroke-width="0.5pt" stroke-dasharray="2.0,2.0" points="549.995,34.375 549.995,34.375 "/>
      <polyline fill="none" stroke="#000000" stroke-width="0.5pt" stroke-dasharray="2.0,2.0" points="607.821,34.375 607.821,34.375 "/>
      <polyline fill="none" stroke="#000000" stroke-width="0.5pt" stroke-dasharray="2.0,2.0" points="665.647,34.375 665.647,34.375 "/>
      <polyline fill="none" stroke="#000000" stroke-width="0.5pt" stroke-dasharray="2.0,2.0" points="723.474,34.375 723.474,34.375 "/>
      <polyline fill="none" stroke="#000000" stroke-width="0.5pt" stroke-dasharray="2.0,2.0" points="781.300,34.375 781.300,34.375 "/>
      <polyline fill="none" stroke="#000000" stroke-width="0.5pt" stroke-dasharray="2.0,2.0" points="839.126,34.375 839.126,34.375 "/>
      <polyline fill="none" stroke="#000000" stroke-width="0.5pt" stroke-dasharray="2.0,2.0" points="896.952,34.375 896.952,34.375 "/>
      <polyline fill="none" stroke="#000000" stroke-width="0.5pt" stroke-dasharray="2.0,2.0" points="954.778,34.375 954.778,34.375 "/>
      <polyline fill="none" stroke="#000000" stroke-width="0.5pt" stroke-dasharray="2.0,2.0" points="1012.604,34.375 1012.604,34.375 "/>
      <polyline fill="none" stroke="#000000" stroke-width="0.5pt" stroke-dasharray="2.0,2.0" points="1070.430,34.375 1070.430,34.375 "/>
      <polyline fill="none" stroke="#000000" stroke-width="0.5pt" stroke-dasharray="2.0,2.0" points="1128.256,34.375 1128.256,34.375 "/>
      <polyline fill="none" stroke="#000000" stroke-width="0.5pt" stroke-dasharray="2.0,2.0" points="1186.082,34.375 1186.082,34.375 "/>
      <polyline fill="none" stroke="#000000" stroke-width="0.5pt" stroke-dasharray="2.0,2.0" points="1243.908,34.375 1243.908,34.375 "/>
      <polyline fill="none" stroke="#000000" stroke-width="0.5pt" stroke-dasharray="2.0,2.0" points="1301.734,34.375 1301.734,34.375 "/>
      <polyline fill="none" stroke="#000000" stroke-width="0.5pt" stroke-dasharray="2.0,2.0" points="1359.560,34.375 1359.560,34.375 "/>
      <polyline fill="none" stroke="#000000" stroke-width="0.5pt" stroke-dasharray="2.0,2.0" points="1417.386,34.375 1417.386,34.375 "/>
      <polyline fill="none" stroke="#000000" stroke-width="0.5pt" stroke-dasharray="2.0,2.0" points="1475.212,34.375 1475.212,34.375 "/>
      <polyline fill="none" stroke="#000000" stroke-width="0.5pt" stroke-dasharray="2.0,2.0" points="1533.038,34.375 1533.038,34.375 "/>
      <polyline fill="none" stroke="#000000" stroke-width="0.5pt" stroke-dasharray="2.0,2.0" points="145.213,330.283 145.213,330.283 "/>
      <polyline fill="none" stroke="#000000" stroke-width="0.5pt" stroke-dasharray="2.0,2.0" points="145.213,297.405 145.213,297.405 "/>
      <polyline fill="none" stroke="#000000" stroke-width="0.5pt" stroke-dasharray="2.0,2.0" points="145.213,264.526 145.213,264.526 "/>
      <polyline fill="none" stroke="#000000" stroke-width="0.5pt" stroke-dasharray="2.0,2.0" points="145.213,231.647 145.213,231.647 "/>
      <polyline fill="none" stroke="#000000" stroke-width="0.5pt" stroke-dasharray="2.0,2.0" points="145.213,198.769 145.213,198.769 "/>
      <polyline fill="none" stroke="#000000" stroke-width="0.5pt" stroke-dasharray="2.0,2.0" points="145.213,165.890 145.213,165.890 "/>
      <polyline fill="none" stroke="#000000" stroke-width="0.5pt" stroke-dasharray="2.0,2.0" points="145.213,133.011 145.213,133.011 "/>
      <polyline fill="none" stroke="#000000" stroke-width="0.5pt" stroke-dasharray="2.0,2.0" points="145.213,100.132 145.213,100.132 "/>
      <polyline fill="none" stroke="#000000" stroke-width="0.5pt" stroke-dasharray="2.0,2.0" points="145.213,67.254 145.213,67.254 "/>
      <polyline fill="none" stroke="#000000" stroke-width="0.5pt" stroke-dasharray="2.0,2.0" points="145.213,34.375 145.213,34.375 "/>
    <g>
<g id="ID000002" >
  <g transform="translate(867.570,364.828)">
    <g transform="rotate(-0.0)">
      <text x="0.000" y="0.000" font-family="Helvetica" text-anchor="middle" font-size="13pt" font-style="oblique" fill="#142b8c" >Time of day (24h)</text>
    </g>
  </g>
</g>
<g id="ID000003" >
  <g transform="translate(105.838,183.269)">
    <g transform="rotate(-90.0)">
      <text x="0.000" y="0.000" font-family="Helvetica" text-anchor="middle" font-size="13pt" font-style="oblique" fill="#142b8c" >Watt</text>
    </g>
  </g>
</g>
<g id="ID000004" >
  <g transform="translate(867.570,23.581)">
    <g transform="rotate(-0.0)">
      <text x="0.000" y="0.000" font-family="Helvetica" text-anchor="middle" font-size="19pt" font-weight="lighter" font-style="oblique" fill="#142b8c" >Partly Clouded Irradiance Forecast</text>
    </g>
  </g>
</g>
<g id="ID000005" clip-path="url(#ID000001)" >
<g id="ID000006" clip-path="url(#ID000001)" >
      <polygon fill="#ffcc00" fill-opacity="1.00" stroke="#000000" stroke-width="1.0pt" stroke-opacity="0.00" stroke-dasharray="none" points="146.177,330.283 146.177,330.283 147.141,330.283 148.104,330.283 149.068,330.283 150.032,330.283 150.996,330.283 151.960,330.283 152.923,330.283 153.887,330.283 154.851,330.283 155.815,330.283 156.778,330.283 157.742,330.283 158.706,330.283 159.670,330.283 160.633,330.283 161.597,330.283 162.561,330.283 163.525,330.283 164.488,330.283 165.452,330.283 166.416,330.283 167.380,330.283 168.344,330.283 169.307,330.283 170.271,330.283 171.235,330.283 172.199,330.283 173.162,330.283 174.126,330.283 175.090,330.283 176.054,330.283 177.017,330.283 177.981,330.283 178.945,330.283 179.909,330.283 180.873,330.283 181.836,330.283 182.800,330.283 183.764,330.283 184.728,330.283 185.691,330.283 186.655,330.283 187.619,330.283 188.583,330.283 189.546,330.283 190.510,330.283 191.474,330.283 192.438,330.283 193.402,330.283 194.365,330.283 195.329,330.283 196.293,330.283 197.257,330.283 198.220,330.283 199.184,330.283 200.148,330.283 201.112,330.283 202.075,330.283 203.039,330.283 204.003,330.283 204.967,330.283 205.930,330.283 206.894,330.283 207.858,330.283 208.822,330.283 209.786,330.283 210.749,330.283 211.713,330.283 212.677,330.283 213.641,330.283 214.604,330.283 215.568,330.283 216.532,330.283 217.496,330.283 218.459,330.283 219.423,330.283 220.387,330.283 221.351,330.283 222.315,330.283 223.278,330.283 224.242,330.283 225.206,330.283 226.170,330.283 227.133,330.283 228.097,330.283 229.061,330.283 230.025,330.283 230.988,330.283 231.952,330.283 232.916,330.283 233.880,330.283 234.844,330.283 235.807,330.283 236.771,330.283 237.735,330.283 238.699,330.283 239.662,330.283 240.626,330.283 241.590,330.283 242.554,330.283 243.517,330.283 244.481,330.283 245.445,330.283 246.409,330.283 247.372,330.283 248.336,330.283 249.300,330.283 250.264,330.283 251.228,330.283 252.191,330.283 253.155,330.283 254.119,330.283 255.083,330.283 256.046,330.283 257.010,330.283 257.974,330.283 258.938,330.283 259.901,330.283 260.865,330.283 261.829,330.283 262.793,330.283 263.757,330.283 264.720,330.283 265.684,330.283 266.648,330.283 267.612,330.283 268.575,330.283 269.539,330.283 270.503,330.283 271.467,330.283 272.430,330.283 273.394,330.283 274.358,330.283 275.322,330.283 276.286,330.283 277.249,330.283 278.213,330.283 279.177,330.283 280.141,330.283 281.104,330.283 282.068,330.283 283.032,330.283 283.996,330.283 284.959,330.283 285.923,330.283 286.887,330.283 287.851,330.283 288.814,330.283 289.778,330.283 290.742,330.283 291.706,330.283 292.670,330.283 293.633,330.283 294.597,330.283 295.561,330.283 296.525,330.283 297.488,330.283 298.452,330.283 299.416,330.283 300.380,330.283 301.343,330.283 302.307,330.283 303.271,330.283 304.235,330.283 305.199,330.283 306.162,330.283 307.126,330.283 308.090,330.283 309.054,330.283 310.017,330.283 310.981,330.283 311.945,330.283 312.909,330.283 313.872,330.283 314.836,330.283 315.800,330.283 316.764,330.283 317.727,330.283 318.691,330.283 319.655,330.283 320.619,330.283 321.583,330.283 322.546,330.283 323.510,330.283 324.474,330.283 325.438,330.283 326.401,330.283 327.365,330.283 328.329,330.283 329.293,330.283 330.256,330.283 331.220,330.283 332.184,330.283 333.148,330.283 334.112,330.283 335.075,330.283 336.039,330.283 337.003,330.283 337.967,330.283 338.930,330.283 339.894,330.283 340.858,330.283 341.822,330.283 342.785,330.283 343.749,330.283 344.713,330.283 345.677,330.283 346.641,330.283 347.604,330.283 348.568,330.283 349.532,330.283 350.496,330.283 351.459,330.283 352.423,330.283 353.387,330.283 354.351,330.283 355.314,330.283 356.278,330.283 357.242,330.283 358.206,330.283 359.169,330.283 360.133,330.283 361.097,330.283 362.061,330.283 363.025,330.283 363.988,330.283 364.952,330.283 365.916,330.283 366.880,330.283 367.843,330.283 368.807,330.283 369.771,330.283 370.735,330.283 371.698,330.283 372.662,330.283 373.626,330.283 374.590,330.283 375.554,330.283 376.517,330.283 377.481,330.283 378.445,330.283 379.409,330.283 380.372,330.283 381.336,330.283 382.300,330.283 383.264,330.283 384.227,330.283 385.191,330.283 386.155,330.283 387.119,330.283 388.083,330.283 389.046,330.283 390.010,330.283 390.974,330.283 391.938,330.283 392.901,330.283 393.865,330.283 394.829,330.283 395.793,330.283 396.756,330.283 397.720,330.283 398.684,330.283 399.648,330.283 400.611,330.283 401.575,330.283 402.539,330.283 403.503,330.283 404.467,330.283 405.430,330.283 406.394,330.283 407.358,330.283 408.322,330.283 409.285,330.283 410.249,330.283 411.213,330.283 412.177,330.283 413.140,330.283 414.104,330.283 415.068,330.283 416.032,330.283 416.996,330.283 417.959,330.283 418.923,330.283 419.887,330.283 420.851,330.283 421.814,330.283 422.778,330.283 423.742,330.283 424.706,330.283 425.669,330.283 426.633,330.283 427.597,330.283 428.561,330.283 429.525,330.283 430.488,330.283 431.452,330.283 432.416,330.283 433.380,330.283 434.343,330.283 435.307,330.283 436.271,330.283 437.235,330.283 438.198,330.283 439.162,330.283 440.126,330.283 441.090,330.283 442.053,330.283 443.017,330.283 443.981,330.283 444.945,330.283 445.909,330.283 446.872,330.283 447.836,330.283 448.800,330.283 449.764,330.283 450.727,330.283 451.691,330.283 452.655,330.283 453.619,330.283 454.582,330.283 455.546,330.283 456.510,330.283 457.474,330.283 458.438,330.283 459.401,330.283 460.365,330.283 461.329,330.283 462.293,330.283 463.256,330.283 464.220,330.283 465.184,330.283 466.148,330.283 467.111,330.283 468.075,330.283 469.039,330.283 470.003,330.283 470.966,330.283 471.930,330.283 472.894,330.283 473.858,330.283 474.822,330.283 475.785,330.283 476.749,330.283 477.713,330.283 478.677,330.283 479.640,330.283 480.604,330.283 481.568,330.283 482.532,330.283 483.495,330.283 484.459,330.283 485.423,330.283 486.387,330.283 487.351,330.283 488.314,330.283 489.278,330.283 490.242,330.283 491.206,330.283 492.169,330.283 493.133,330.283 494.097,330.283 495.061,330.283 496.024,330.283 496.988,330.283 497.952,330.283 498.916,330.283 499.880,330.283 500.843,330.283 501.807,330.283 502.771,330.283 503.735,330.283 504.698,330.283 505.662,330.283 506.626,330.283 507.590,330.283 508.553,330.283 509.517,330.283 510.481,330.283 511.445,330.283 512.408,330.283 513.372,330.283 514.336,330.283 515.300,330.283 516.264,330.283 517.227,330.283 518.191,330.283 519.155,330.283 520.119,330.283 521.082,330.283 522.046,330.283 523.010,330.283 523.974,330.283 524.937,330.283 525.901,330.283 526.865,330.283 527.829,330.283 528.793,330.283 529.756,330.283 530.720,330.283 531.684,330.283 532.648,330.283 533.611,330.283 534.575,330.283 535.539,330.283 536.503,330.283 537.466,330.283 538.430,330.283 539.394,330.283 540.358,330.283 541.322,330.283 542.285,330.283 543.249,330.283 544.213,330.283 545.177,330.283 546.140,330.283 547.104,330.283 548.068,330.283 549.032,330.283 549.995,330.283 550.959,330.283 551.923,330.283 552.887,330.283 553.850,330.283 554.814,330.283 555.778,330.283 556.742,330.283 557.706,330.283 558.669,330.283 559.633,330.283 560.597,330.283 561.561,330.283 562.524,330.283 563.488,330.283 564.452,330.283 565.416,330.283 566.379,330.283 567.343,330.283 568.307,330.283 569.271,330.283 570.235,330.283 571.198,330.283 572.162,330.283 573.126,330.283 574.090,330.283 575.053,330.283 576.017,330.283 576.981,330.283 577.945,330.283 578.908,330.283 579.872,330.283 580.836,330.283 581.800,330.283 582.764,330.283 583.727,330.283 584.691,330.283 585.655,330.283 586.619,330.283 587.582,330.283 588.546,330.283 589.510,330.283 590.474,330.283 591.437,330.283 592.401,330.283 593.365,330.283 594.329,330.283 595.292,330.283 596.256,330.283 597.220,330.283 598.184,330.283 599.148,330.283 600.111,330.283 601.075,330.283 602.039,330.283 603.003,330.283 603.966,330.283 604.930,330.283 605.894,330.283 606.858,330.283 607.821,330.283 608.785,330.283 609.749,330.271 610.713,330.240 611.677,330.191 612.640,330.130 613.604,330.053 614.568,329.963 615.532,329.868 616.495,329.765 617.459,329.652 618.423,329.519 619.387,329.360 620.350,329.179 621.314,328.975 622.278,328.809 623.242,328.580 624.206,328.421 625.169,328.219 626.133,327.957 627.097,327.661 628.061,327.392 629.024,327.105 629.988,326.852 630.952,326.634 631.916,326.290 632.879,325.919 633.843,325.587 634.807,325.161 635.771,324.800 636.734,324.353 637.698,324.063 638.662,323.608 639.626,323.210 640.590,322.736 641.553,322.334 642.517,321.845 643.481,321.403 644.445,320.860 645.408,320.345 646.372,320.103 647.336,319.433 648.300,318.995 649.263,318.655 650.227,318.376 651.191,317.684 652.155,317.165 653.119,316.810 654.082,316.433 655.046,315.614 656.010,315.146 656.974,314.274 657.937,313.906 658.901,313.380 659.865,313.036 660.829,312.880 661.792,312.523 662.756,311.480 663.720,311.062 664.684,310.103 665.647,309.803 666.611,309.131 667.575,308.338 668.539,308.062 669.503,306.943 670.466,306.494 671.430,305.428 672.394,305.384 673.358,304.513 674.321,304.490 675.285,303.262 676.249,303.283 677.213,303.240 678.176,302.312 679.140,301.351 680.104,299.860 681.068,299.897 682.032,298.991 682.995,298.194 683.959,297.857 684.923,298.036 685.887,297.154 686.850,297.210 687.814,296.636 688.778,296.754 689.742,295.132 690.705,293.800 691.669,292.429 692.633,290.611 693.597,290.723 694.561,291.044 695.524,290.442 696.488,290.178 697.452,288.752 698.416,288.052 699.379,286.725 700.343,284.929 701.307,283.356 702.271,283.467 703.234,283.370 704.198,282.000 705.162,281.518 706.126,282.043 707.089,280.325 708.053,280.699 709.017,279.023 709.981,278.242 710.945,276.893 711.908,275.553 712.872,274.520 713.836,272.100 714.800,271.692 715.763,269.555 716.727,270.048 717.691,269.850 718.655,270.160 719.618,268.999 720.582,267.787 721.546,266.965 722.510,267.818 723.474,267.674 724.437,264.936 725.401,265.342 726.365,265.264 727.329,265.734 728.292,266.607 729.256,266.259 730.220,266.448 731.184,266.011 732.147,263.678 733.111,262.616 734.075,260.438 735.039,260.958 736.003,259.349 736.966,259.847 737.930,259.311 738.894,258.528 739.858,256.760 740.821,255.785 741.785,253.281 742.749,251.722 743.713,250.759 744.676,247.582 745.640,246.818 746.604,243.576 747.568,244.877 748.531,244.245 749.495,241.324 750.459,239.827 751.423,238.473 752.387,236.046 753.350,234.137 754.314,233.871 755.278,231.704 756.242,232.891 757.205,230.074 758.169,227.166 759.133,227.799 760.097,226.933 761.060,224.222 762.024,221.452 762.988,222.075 763.952,218.550 764.916,218.942 765.879,220.812 766.843,219.662 767.807,221.373 768.771,220.841 769.734,219.719 770.698,221.457 771.662,220.982 772.626,220.417 773.589,216.568 774.553,217.734 775.517,216.192 776.481,213.972 777.445,214.105 778.408,214.135 779.372,213.471 780.336,209.986 781.300,209.351 782.263,210.362 783.227,207.340 784.191,204.347 785.155,203.217 786.118,201.128 787.082,203.179 788.046,204.309 789.010,201.713 789.973,201.713 790.937,203.135 791.901,201.282 792.865,201.139 793.829,197.249 794.792,199.960 795.756,199.767 796.720,199.764 797.684,198.417 798.647,194.570 799.611,195.208 800.575,194.781 801.539,191.285 802.502,192.959 803.466,188.219 804.430,190.850 805.394,188.184 806.358,187.622 807.321,187.738 808.285,184.626 809.249,184.040 810.213,186.686 811.176,187.563 812.140,190.138 813.104,190.671 814.068,190.233 815.031,190.844 815.995,191.956 816.959,192.225 817.923,187.273 818.886,184.588 819.850,184.634 820.814,180.364 821.778,182.529 822.742,177.543 823.705,175.074 824.669,174.153 825.633,171.213 826.597,173.556 827.560,175.642 828.524,174.132 829.488,168.546 830.452,164.631 831.415,165.879 832.379,169.224 833.343,167.966 834.307,163.860 835.271,167.860 836.234,165.576 837.198,162.656 838.162,162.132 839.126,165.321 840.089,159.893 841.053,158.964 842.017,156.980 842.981,160.688 843.944,164.944 844.908,168.013 845.872,167.589 846.836,163.821 847.800,168.122 848.763,163.223 849.727,158.004 850.691,153.022 851.655,151.747 852.618,148.020 853.582,145.748 854.546,146.838 855.510,150.431 856.473,150.369 857.437,153.630 858.401,149.055 859.365,146.530 860.328,149.182 861.292,143.130 862.256,139.243 863.220,139.111 864.184,137.365 865.147,135.572 866.111,129.523 867.075,123.397 868.039,120.613 869.002,116.465 869.966,118.048 870.930,121.926 871.894,116.657 872.857,118.071 873.821,115.873 874.785,115.715 875.749,116.366 876.713,114.770 877.676,109.846 878.640,103.837 879.604,101.685 880.568,105.140 881.531,106.551 882.495,103.832 883.459,98.335 884.423,94.755 885.386,99.806 886.350,94.180 887.314,97.786 888.278,95.158 889.242,93.889 890.205,87.505 891.169,92.610 892.133,89.063 893.097,92.738 894.060,96.718 895.024,101.293 895.988,104.554 896.952,106.332 897.915,105.786 898.879,107.660 899.843,104.191 900.807,97.636 901.770,94.541 902.734,91.233 903.698,85.886 904.662,81.194 905.626,81.746 906.589,86.472 907.553,87.388 908.517,87.180 909.481,92.408 910.444,93.128 911.408,90.855 912.372,85.306 913.336,84.198 914.299,84.400 915.263,89.701 916.227,87.818 917.191,82.184 918.155,87.305 919.118,87.351 920.082,88.831 921.046,91.032 922.010,94.937 922.973,96.586 923.937,90.590 924.901,96.563 925.865,98.267 926.828,101.483 927.792,100.421 928.756,98.666 929.720,103.516 930.684,102.481 931.647,98.962 932.611,100.947 933.575,97.134 934.539,92.093 935.502,97.096 936.466,95.115 937.430,97.271 938.394,103.406 939.357,101.107 940.321,96.119 941.285,96.322 942.249,96.682 943.212,91.060 944.176,90.611 945.140,88.152 946.104,92.161 947.068,96.872 948.031,97.787 948.995,92.857 949.959,88.727 950.923,82.539 951.886,86.126 952.850,85.673 953.814,87.149 954.778,90.893 955.741,87.332 956.705,80.773 957.669,84.071 958.633,89.769 959.597,91.087 960.560,88.011 961.524,84.211 962.488,81.908 963.452,78.932 964.415,82.389 965.379,76.857 966.343,76.725 967.307,78.555 968.270,81.037 969.234,80.377 970.198,78.243 971.162,80.722 972.125,83.066 973.089,89.667 974.053,89.379 975.017,89.644 975.981,84.203 976.944,85.683 977.908,84.026 978.872,88.127 979.836,90.946 980.799,97.003 981.763,98.092 982.727,92.506 983.691,92.920 984.654,91.416 985.618,91.618 986.582,90.134 987.546,85.105 988.510,85.758 989.473,92.202 990.437,86.975 991.401,83.821 992.365,79.340 993.328,73.652 994.292,75.862 995.256,72.422 996.220,67.023 997.183,62.444 998.147,65.369 999.111,71.391 1000.075,66.844 1001.039,63.116 1002.002,68.898 1002.966,66.040 1003.930,67.101 1004.894,64.405 1005.857,64.794 1006.821,62.018 1007.785,60.183 1008.749,57.503 1009.712,60.331 1010.676,60.747 1011.640,62.985 1012.604,66.902 1013.567,64.372 1014.531,66.552 1015.495,62.272 1016.459,62.439 1017.423,68.851 1018.386,66.910 1019.350,67.776 1020.314,65.471 1021.278,70.162 1022.241,72.880 1023.205,71.036 1024.169,77.001 1025.133,76.651 1026.096,83.037 1027.060,85.059 1028.024,84.602 1028.988,90.128 1029.952,88.312 1030.915,85.920 1031.879,83.343 1032.843,81.897 1033.807,85.861 1034.770,86.907 1035.734,88.857 1036.698,89.854 1037.662,88.380 1038.625,89.536 1039.589,87.907 1040.553,91.933 1041.517,95.499 1042.481,101.585 1043.444,99.059 1044.408,103.169 1045.372,105.992 1046.336,107.943 1047.299,110.782 1048.263,107.890 1049.227,109.160 1050.191,114.241 1051.154,119.498 1052.118,120.285 1053.082,123.337 1054.046,123.197 1055.009,129.013 1055.973,126.648 1056.937,124.942 1057.901,123.869 1058.865,127.457 1059.828,126.464 1060.792,123.369 1061.756,122.031 1062.720,120.593 1063.683,116.374 1064.647,112.291 1065.611,109.216 1066.575,111.697 1067.538,113.029 1068.502,116.965 1069.466,117.731 1070.430,117.791 1071.394,118.816 1072.357,116.367 1073.321,121.749 1074.285,125.025 1075.249,123.948 1076.212,122.250 1077.176,126.989 1078.140,128.161 1079.104,130.041 1080.067,131.018 1081.031,133.744 1081.995,133.684 1082.959,135.563 1083.923,132.846 1084.886,131.280 1085.850,133.696 1086.814,130.108 1087.778,132.432 1088.741,132.832 1089.705,129.465 1090.669,134.604 1091.633,138.114 1092.596,139.088 1093.560,142.767 1094.524,142.113 1095.488,146.666 1096.451,148.238 1097.415,145.895 1098.379,148.626 1099.343,147.964 1100.307,153.236 1101.270,155.360 1102.234,154.848 1103.198,154.551 1104.162,153.304 1105.125,158.064 1106.089,157.298 1107.053,159.954 1108.017,157.325 1108.980,155.460 1109.944,153.510 1110.908,151.491 1111.872,155.092 1112.836,156.251 1113.799,157.228 1114.763,157.740 1115.727,155.778 1116.691,154.858 1117.654,154.782 1118.618,159.347 1119.582,160.557 1120.546,164.971 1121.509,165.808 1122.473,166.782 1123.437,169.778 1124.401,173.852 1125.364,173.070 1126.328,174.818 1127.292,173.802 1128.256,171.856 1129.220,175.697 1130.183,179.975 1131.147,182.016 1132.111,183.507 1133.075,182.221 1134.038,182.076 1135.002,182.855 1135.966,186.583 1136.930,189.269 1137.893,188.798 1138.857,192.023 1139.821,194.919 1140.785,197.280 1141.749,195.448 1142.712,195.276 1143.676,193.711 1144.640,193.688 1145.604,193.018 1146.567,194.863 1147.531,196.917 1148.495,199.901 1149.459,201.126 1150.422,199.952 1151.386,202.851 1152.350,205.916 1153.314,209.817 1154.278,211.435 1155.241,211.918 1156.205,210.629 1157.169,214.076 1158.133,214.867 1159.096,215.409 1160.060,218.528 1161.024,219.190 1161.988,221.977 1162.951,221.438 1163.915,223.853 1164.879,225.896 1165.843,228.271 1166.806,230.013 1167.770,229.721 1168.734,229.897 1169.698,230.927 1170.662,230.762 1171.625,233.857 1172.589,234.567 1173.553,237.238 1174.517,237.971 1175.480,237.105 1176.444,237.613 1177.408,237.279 1178.372,236.925 1179.335,237.812 1180.299,238.545 1181.263,239.882 1182.227,240.538 1183.191,240.861 1184.154,243.016 1185.118,243.507 1186.082,244.873 1187.046,247.632 1188.009,247.989 1188.973,250.575 1189.937,252.599 1190.901,253.858 1191.864,255.855 1192.828,258.087 1193.792,259.055 1194.756,261.749 1195.720,262.023 1196.683,262.038 1197.647,263.719 1198.611,264.977 1199.575,265.644 1200.538,266.390 1201.502,267.918 1202.466,267.868 1203.430,268.078 1204.393,267.911 1205.357,269.074 1206.321,268.908 1207.285,269.667 1208.248,270.922 1209.212,270.755 1210.176,272.207 1211.140,272.316 1212.104,274.324 1213.067,276.544 1214.031,277.327 1214.995,278.621 1215.959,279.563 1216.922,279.929 1217.886,281.367 1218.850,281.306 1219.814,282.411 1220.777,283.056 1221.741,283.236 1222.705,284.691 1223.669,284.992 1224.633,285.115 1225.596,285.418 1226.560,286.867 1227.524,288.502 1228.488,290.088 1229.451,291.122 1230.415,292.230 1231.379,293.826 1232.343,295.198 1233.306,295.569 1234.270,297.048 1235.234,297.255 1236.198,298.137 1237.162,299.525 1238.125,300.033 1239.089,300.310 1240.053,301.109 1241.017,301.521 1241.980,302.612 1242.944,303.570 1243.908,304.592 1244.872,305.080 1245.835,305.697 1246.799,306.059 1247.763,306.293 1248.727,307.153 1249.690,308.113 1250.654,308.991 1251.618,309.848 1252.582,310.448 1253.546,311.395 1254.509,312.319 1255.473,312.926 1256.437,313.562 1257.401,314.422 1258.364,314.898 1259.328,315.432 1260.292,315.899 1261.256,316.545 1262.219,316.948 1263.183,317.386 1264.147,317.846 1265.111,318.627 1266.075,319.234 1267.038,319.786 1268.002,320.217 1268.966,320.931 1269.930,321.364 1270.893,321.901 1271.857,322.409 1272.821,322.759 1273.785,323.274 1274.748,323.557 1275.712,324.080 1276.676,324.421 1277.640,324.779 1278.603,325.133 1279.567,325.531 1280.531,325.938 1281.495,326.217 1282.459,326.623 1283.422,326.918 1284.386,327.285 1285.350,327.542 1286.314,327.797 1287.277,328.099 1288.241,328.395 1289.205,328.668 1290.169,328.902 1291.132,329.079 1292.096,329.261 1293.060,329.429 1294.024,329.587 1294.988,329.735 1295.951,329.866 1296.915,329.985 1297.879,330.083 1298.843,330.167 1299.806,330.228 1300.770,330.268 1301.734,330.283 1302.698,330.283 1303.661,330.283 1304.625,330.283 1305.589,330.283 1306.553,330.283 1307.517,330.283 1308.480,330.283 1309.444,330.283 1310.408,330.283 1311.372,330.283 1312.335,330.283 1313.299,330.283 1314.263,330.283 1315.227,330.283 1316.190,330.283 1317.154,330.283 1318.118,330.283 1319.082,330.283 1320.045,330.283 1321.009,330.283 1321.973,330.283 1322.937,330.283 1323.901,330.283 1324.864,330.283 1325.828,330.283 1326.792,330.283 1327.756,330.283 1328.719,330.283 1329.683,330.283 1330.647,330.283 1331.611,330.283 1332.574,330.283 1333.538,330.283 1334.502,330.283 1335.466,330.283 1336.430,330.283 1337.393,330.283 1338.357,330.283 1339.321,330.283 1340.285,330.283 1341.248,330.283 1342.212,330.283 1343.176,330.283 1344.140,330.283 1345.103,330.283 1346.067,330.283 1347.031,330.283 1347.995,330.283 1348.959,330.283 1349.922,330.283 1350.886,330.283 1351.850,330.283 1352.814,330.283 1353.777,330.283 1354.741,330.283 1355.705,330.283 1356.669,330.283 1357.632,330.283 1358.596,330.283 1359.560,330.283 1360.524,330.283 1361.487,330.283 1362.451,330.283 1363.415,330.283 1364.379,330.283 1365.343,330.283 1366.306,330.283 1367.270,330.283 1368.234,330.283 1369.198,330.283 1370.161,330.283 1371.125,330.283 1372.089,330.283 1373.053,330.283 1374.016,330.283 1374.980,330.283 1375.944,330.283 1376.908,330.283 1377.872,330.283 1378.835,330.283 1379.799,330.283 1380.763,330.283 1381.727,330.283 1382.690,330.283 1383.654,330.283 1384.618,330.283 1385.582,330.283 1386.545,330.283 1387.509,330.283 1388.473,330.283 1389.437,330.283 1390.401,330.283 1391.364,330.283 1392.328,330.283 1393.292,330.283 1394.256,330.283 1395.219,330.283 1396.183,330.283 1397.147,330.283 1398.111,330.283 1399.074,330.283 1400.038,330.283 1401.002,330.283 1401.966,330.283 1402.929,330.283 1403.893,330.283 1404.857,330.283 1405.821,330.283 1406.785,330.283 1407.748,330.283 1408.712,330.283 1409.676,330.283 1410.640,330.283 1411.603,330.283 1412.567,330.283 1413.531,330.283 1414.495,330.283 1415.458,330.283 1416.422,330.283 1417.386,330.283 1418.350,330.283 1419.314,330.283 1420.277,330.283 1421.241,330.283 1422.205,330.283 1423.169,330.283 1424.132,330.283 1425.096,330.283 1426.060,330.283 1427.024,330.283 1427.987,330.283 1428.951,330.283 1429.915,330.283 1430.879,330.283 1431.842,330.283 1432.806,330.283 1433.770,330.283 1434.734,330.283 1435.698,330.283 1436.661,330.283 1437.625,330.283 1438.589,330.283 1439.553,330.283 1440.516,330.283 1441.480,330.283 1442.444,330.283 1443.408,330.283 1444.371,330.283 1445.335,330.283 1446.299,330.283 1447.263,330.283 1448.227,330.283 1449.190,330.283 1450.154,330.283 1451.118,330.283 1452.082,330.283 1453.045,330.283 1454.009,330.283 1454.973,330.283 1455.937,330.283 1456.900,330.283 1457.864,330.283 1458.828,330.283 1459.792,330.283 1460.756,330.283 1461.719,330.283 1462.683,330.283 1463.647,330.283 1464.611,330.283 1465.574,330.283 1466.538,330.283 1467.502,330.283 1468.466,330.283 1469.429,330.283 1470.393,330.283 1471.357,330.283 1472.321,330.283 1473.284,330.283 1474.248,330.283 1475.212,330.283 1476.176,330.283 1477.140,330.283 1478.103,330.283 1479.067,330.283 1480.031,330.283 1480.995,330.283 1481.958,330.283 1482.922,330.283 1483.886,330.283 1484.850,330.283 1485.813,330.283 1486.777,330.283 1487.741,330.283 1488.705,330.283 1489.669,330.283 1490.632,330.283 1491.596,330.283 1492.560,330.283 1493.524,330.283 1494.487,330.283 1495.451,330.283 1496.415,330.283 1497.379,330.283 1498.342,330.283 1499.306,330.283 1500.270,330.283 1501.234,330.283 1502.198,330.283 1503.161,330.283 1504.125,330.283 1505.089,330.283 1506.053,330.283 1507.016,330.283 1507.980,330.283 1508.944,330.283 1509.908,330.283 1510.871,330.283 1511.835,330.283 1512.799,330.283 1513.763,330.283 1514.726,330.283 1515.690,330.283 1516.654,330.283 1517.618,330.283 1518.582,330.283 1519.545,330.283 1520.509,330.283 1521.473,330.283 1522.437,330.283 1523.400,330.283 1524.364,330.283 1525.328,330.283 1526.292,330.283 1527.255,330.283 1528.219,330.283 1529.183,330.283 1530.147,330.283 1531.111,330.283 1532.074,330.283 1533.038,330.283 1533.038,330.283 1532.074,330.283 1531.111,330.283 1530.147,330.283 1529.183,330.283 1528.219,330.283 1527.255,330.283 1526.292,330.283 1525.328,330.283 1524.364,330.283 1523.400,330.283 1522.437,330.283 1521.473,330.283 1520.509,330.283 1519.545,330.283 1518.582,330.283 1517.618,330.283 1516.654,330.283 1515.690,330.283 1514.726,330.283 1513.763,330.283 1512.799,330.283 1511.835,330.283 1510.871,330.283 1509.908,330.283 1508.944,330.283 1507.980,330.283 1507.016,330.283 1506.053,330.283 1505.089,330.283 1504.125,330.283 1503.161,330.283 1502.198,330.283 1501.234,330.283 1500.270,330.283 1499.306,330.283 1498.342,330.283 1497.379,330.283 1496.415,330.283 1495.451,330.283 1494.487,330.283 1493.524,330.283 1492.560,330.283 1491.596,330.283 1490.632,330.283 1489.669,330.283 1488.705,330.283 1487.741,330.283 1486.777,330.283 1485.813,330.283 1484.850,330.283 1483.886,330.283 1482.922,330.283 1481.958,330.283 1480.995,330.283 1480.031,330.283 1479.067,330.283 1478.103,330.283 1477.140,330.283 1476.176,330.283 1475.212,330.283 1474.248,330.283 1473.284,330.283 1472.321,330.283 1471.357,330.283 1470.393,330.283 1469.429,330.283 1468.466,330.283 1467.502,330.283 1466.538,330.283 1465.574,330.283 1464.611,330.283 1463.647,330.283 1462.683,330.283 1461.719,330.283 1460.756,330.283 1459.792,330.283 1458.828,330.283 1457.864,330.283 1456.900,330.283 1455.937,330.283 1454.973,330.283 1454.009,330.283 1453.045,330.283 1452.082,330.283 1451.118,330.283 1450.154,330.283 1449.190,330.283 1448.227,330.283 1447.263,330.283 1446.299,330.283 1445.335,330.283 1444.371,330.283 1443.408,330.283 1442.444,330.283 1441.480,330.283 1440.516,330.283 1439.553,330.283 1438.589,330.283 1437.625,330.283 1436.661,330.283 1435.698,330.283 1434.734,330.283 1433.770,330.283 1432.806,330.283 1431.842,330.283 1430.879,330.283 1429.915,330.283 1428.951,330.283 1427.987,330.283 1427.024,330.283 1426.060,330.283 1425.096,330.283 1424.132,330.283 1423.169,330.283 1422.205,330.283 1421.241,330.283 1420.277,330.283 1419.314,330.283 1418.350,330.283 1417.386,330.283 1416.422,330.283 1415.458,330.283 1414.495,330.283 1413.531,330.283 1412.567,330.283 1411.603,330.283 1410.640,330.283 1409.676,330.283 1408.712,330.283 1407.748,330.283 1406.785,330.283 1405.821,330.283 1404.857,330.283 1403.893,330.283 1402.929,330.283 1401.966,330.283 1401.002,330.283 1400.038,330.283 1399.074,330.283 1398.111,330.283 1397.147,330.283 1396.183,330.283 1395.219,330.283 1394.256,330.283 1393.292,330.283 1392.328,330.283 1391.364,330.283 1390.401,330.283 1389.437,330.283 1388.473,330.283 1387.509,330.283 1386.545,330.283 1385.582,330.283 1384.618,330.283 1383.654,330.283 1382.690,330.283 1381.727,330.283 1380.763,330.283 1379.799,330.283 1378.835,330.283 1377.872,330.283 1376.908,330.283 1375.944,330.283 1374.980,330.283 1374.016,330.283 1373.053,330.283 1372.089,330.283 1371.125,330.283 1370.161,330.283 1369.198,330.283 1368.234,330.283 1367.270,330.283 1366.306,330.283 1365.343,330.283 1364.379,330.283 1363.415,330.283 1362.451,330.283 1361.487,330.283 1360.524,330.283 1359.560,330.283 1358.596,330.283 1357.632,330.283 1356.669,330.283 1355.705,330.283 1354.741,330.283 1353.777,330.283 1352.814,330.283 1351.850,330.283 1350.886,330.283 1349.922,330.283 1348.959,330.283 1347.995,330.283 1347.031,330.283 1346.067,330.283 1345.103,330.283 1344.140,330.283 1343.176,330.283 1342.212,330.283 1341.248,330.283 1340.285,330.283 1339.321,330.283 1338.357,330.283 1337.393,330.283 1336.430,330.283 1335.466,330.283 1334.502,330.283 1333.538,330.283 1332.574,330.283 1331.611,330.283 1330.647,330.283 1329.683,330.283 1328.719,330.283 1327.756,330.283 1326.792,330.283 1325.828,330.283 1324.864,330.283 1323.901,330.283 1322.937,330.283 1321.973,330.283 1321.009,330.283 1320.045,330.283 1319.082,330.283 1318.118,330.283 1317.154,330.283 1316.190,330.283 1315.227,330.283 1314.263,330.283 1313.299,330.283 1312.335,330.283 1311.372,330.283 1310.408,330.283 1309.444,330.283 1308.480,330.283 1307.517,330.283 1306.553,330.283 1305.589,330.283 1304.625,330.283 1303.661,330.283 1302.698,330.283 1301.734,330.283 1300.770,330.283 1299.806,330.283 1298.843,330.283 1297.879,330.283 1296.915,330.283 1295.951,330.283 1294.988,330.283 1294.024,330.283 1293.060,330.283 1292.096,330.283 1291.132,330.283 1290.169,330.283 1289.205,330.283 1288.241,330.283 1287.277,330.283 1286.314,330.283 1285.350,330.283 1284.386,330.283 1283.422,330.283 1282.459,330.283 1281.495,330.283 1280.531,330.283 1279.567,330.283 1278.603,330.283 1277.640,330.283 1276.676,330.283 1275.712,330.283 1274.748,330.283 1273.785,330.283 1272.821,330.283 1271.857,330.283 1270.893,330.283 1269.930,330.283 1268.966,330.283 1268.002,330.283 1267.038,330.283 1266.075,330.283 1265.111,330.283 1264.147,330.283 1263.183,330.283 1262.219,330.283 1261.256,330.283 1260.292,330.283 1259.328,330.283 1258.364,330.283 1257.401,330.283 1256.437,330.283 1255.473,330.283 1254.509,330.283 1253.546,330.283 1252.582,330.283 1251.618,330.283 1250.654,330.283 1249.690,330.283 1248.727,330.283 1247.763,330.283 1246.799,330.283 1245.835,330.283 1244.872,330.283 1243.908,330.283 1242.944,330.283 1241.980,330.283 1241.017,330.283 1240.053,330.283 1239.089,330.283 1238.125,330.283 1237.162,330.283 1236.198,330.283 1235.234,330.283 1234.270,330.283 1233.306,330.283 1232.343,330.283 1231.379,330.283 1230.415,330.283 1229.451,330.283 1228.488,330.283 1227.524,330.283 1226.560,330.283 1225.596,330.283 1224.633,330.283 1223.669,330.283 1222.705,330.283 1221.741,330.283 1220.777,330.283 1219.814,330.283 1218.850,330.283 1217.886,330.283 1216.922,330.283 1215.959,330.283 1214.995,330.283 1214.031,330.283 1213.067,330.283 1212.104,330.283 1211.140,330.283 1210.176,330.283 1209.212,330.283 1208.248,330.283 1207.285,330.283 1206.321,330.283 1205.357,330.283 1204.393,330.283 1203.430,330.283 1202.466,330.283 1201.502,330.283 1200.538,330.283 1199.575,330.283 1198.611,330.283 1197.647,330.283 1196.683,330.283 1195.720,330.283 1194.756,330.283 1193.792,330.283 1192.828,330.283 1191.864,330.283 1190.901,330.283 1189.937,330.283 1188.973,330.283 1188.009,330.283 1187.046,330.283 1186.082,330.283 1185.118,330.283 1184.154,330.283 1183.191,330.283 1182.227,330.283 1181.263,330.283 1180.299,330.283 1179.335,330.283 1178.372,330.283 1177.408,330.283 1176.444,330.283 1175.480,330.283 1174.517,330.283 1173.553,330.283 1172.589,330.283 1171.625,330.283 1170.662,330.283 1169.698,330.283 1168.734,330.283 1167.770,330.283 1166.806,330.283 1165.843,330.283 1164.879,330.283 1163.915,330.283 1162.951,330.283 1161.988,330.283 1161.024,330.283 1160.060,330.283 1159.096,330.283 1158.133,330.283 1157.169,330.283 1156.205,330.283 1155.241,330.283 1154.278,330.283 1153.314,330.283 1152.350,330.283 1151.386,330.283 1150.422,330.283 1149.459,330.283 1148.495,330.283 1147.531,330.283 1146.567,330.283 1145.604,330.283 1144.640,330.283 1143.676,330.283 1142.712,330.283 1141.749,330.283 1140.785,330.283 1139.821,330.283 1138.857,330.283 1137.893,330.283 1136.930,330.283 1135.966,330.283 1135.002,330.283 1134.038,330.283 1133.075,330.283 1132.111,330.283 1131.147,330.283 1130.183,330.283 1129.220,330.283 1128.256,330.283 1127.292,330.283 1126.328,330.283 1125.364,330.283 1124.401,330.283 1123.437,330.283 1122.473,330.283 1121.509,330.283 1120.546,330.283 1119.582,330.283 1118.618,330.283 1117.654,330.283 1116.691,330.283 1115.727,330.283 1114.763,330.283 1113.799,330.283 1112.836,330.283 1111.872,330.283 1110.908,330.283 1109.944,330.283 1108.980,330.283 1108.017,330.283 1107.053,330.283 1106.089,330.283 1105.125,330.283 1104.162,330.283 1103.198,330.283 1102.234,330.283 1101.270,330.283 1100.307,330.283 1099.343,330.283 1098.379,330.283 1097.415,330.283 1096.451,330.283 1095.488,330.283 1094.524,330.283 1093.560,330.283 1092.596,330.283 1091.633,330.283 1090.669,330.283 1089.705,330.283 1088.741,330.283 1087.778,330.283 1086.814,330.283 1085.850,330.283 1084.886,330.283 1083.923,330.283 1082.959,330.283 1081.995,330.283 1081.031,330.283 1080.067,330.283 1079.104,330.283 1078.140,330.283 1077.176,330.283 1076.212,330.283 1075.249,330.283 1074.285,330.283 1073.321,330.283 1072.357,330.283 1071.394,330.283 1070.430,330.283 1069.466,330.283 1068.502,330.283 1067.538,330.283 1066.575,330.283 1065.611,330.283 1064.647,330.283 1063.683,330.283 1062.720,330.283 1061.756,330.283 1060.792,330.283 1059.828,330.283 1058.865,330.283 1057.901,330.283 1056.937,330.283 1055.973,330.283 1055.009,330.283 1054.046,330.283 1053.082,330.283 1052.118,330.283 1051.154,330.283 1050.191,330.283 1049.227,330.283 1048.263,330.283 1047.299,330.283 1046.336,330.283 1045.372,330.283 1044.408,330.283 1043.444,330.283 1042.481,330.283 1041.517,330.283 1040.553,330.283 1039.589,330.283 1038.625,330.283 1037.662,330.283 1036.698,330.283 1035.734,330.283 1034.770,330.283 1033.807,330.283 1032.843,330.283 1031.879,330.283 1030.915,330.283 1029.952,330.283 1028.988,330.283 1028.024,330.283 1027.060,330.283 1026.096,330.283 1025.133,330.283 1024.169,330.283 1023.205,330.283 1022.241,330.283 1021.278,330.283 1020.314,330.283 1019.350,330.283 1018.386,330.283 1017.423,330.283 1016.459,330.283 1015.495,330.283 1014.531,330.283 1013.567,330.283 1012.604,330.283 1011.640,330.283 1010.676,330.283 1009.712,330.283 1008.749,330.283 1007.785,330.283 1006.821,330.283 1005.857,330.283 1004.894,330.283 1003.930,330.283 1002.966,330.283 1002.002,330.283 1001.039,330.283 1000.075,330.283 999.111,330.283 998.147,330.283 997.183,330.283 996.220,330.283 995.256,330.283 994.292,330.283 993.328,330.283 992.365,330.283 991.401,330.283 990.437,330.283 989.473,330.283 988.510,330.283 987.546,330.283 986.582,330.283 985.618,330.283 984.654,330.283 983.691,330.283 982.727,330.283 981.763,330.283 980.799,330.283 979.836,330.283 978.872,330.283 977.908,330.283 976.944,330.283 975.981,330.283 975.017,330.283 974.053,330.283 973.089,330.283 972.125,330.283 971.162,330.283 970.198,330.283 969.234,330.283 968.270,330.283 967.307,330.283 966.343,330.283 965.379,330.283 964.415,330.283 963.452,330.283 962.488,330.283 961.524,330.283 960.560,330.283 959.597,330.283 958.633,330.283 957.669,330.283 956.705,330.283 955.741,330.283 954.778,330.283 953.814,330.283 952.850,330.283 951.886,330.283 950.923,330.283 949.959,330.283 948.995,330.283 948.031,330.283 947.068,330.283 946.104,330.283 945.140,330.283 944.176,330.283 943.212,330.283 942.249,330.283 941.285,330.283 940.321,330.283 939.357,330.283 938.394,330.283 937.430,330.283 936.466,330.283 935.502,330.283 934.539,330.283 933.575,330.283 932.611,330.283 931.647,330.283 930.684,330.283 929.720,330.283 928.756,330.283 927.792,330.283 926.828,330.283 925.865,330.283 924.901,330.283 923.937,330.283 922.973,330.283 922.010,330.283 921.046,330.283 920.082,330.283 919.118,330.283 918.155,330.283 917.191,330.283 916.227,330.283 915.263,330.283 914.299,330.283 913.336,330.283 912.372,330.283 911.408,330.283 910.444,330.283 909.481,330.283 908.517,330.283 907.553,330.283 906.589,330.283 905.626,330.283 904.662,330.283 903.698,330.283 902.734,330.283 901.770,330.283 900.807,330.283 899.843,330.283 898.879,330.283 897.915,330.283 896.952,330.283 895.988,330.283 895.024,330.283 894.060,330.283 893.097,330.283 892.133,330.283 891.169,330.283 890.205,330.283 889.242,330.283 888.278,330.283 887.314,330.283 886.350,330.283 885.386,330.283 884.423,330.283 883.459,330.283 882.495,330.283 881.531,330.283 880.568,330.283 879.604,330.283 878.640,330.283 877.676,330.283 876.713,330.283 875.749,330.283 874.785,330.283 873.821,330.283 872.857,330.283 871.894,330.283 870.930,330.283 869.966,330.283 869.002,330.283 868.039,330.283 867.075,330.283 866.111,330.283 865.147,330.283 864.184,330.283 863.220,330.283 862.256,330.283 861.292,330.283 860.328,330.283 859.365,330.283 858.401,330.283 857.437,330.283 856.473,330.283 855.510,330.283 854.546,330.283 853.582,330.283 852.618,330.283 851.655,330.283 850.691,330.283 849.727,330.283 848.763,330.283 847.800,330.283 846.836,330.283 845.872,330.283 844.908,330.283 843.944,330.283 842.981,330.283 842.017,330.283 841.053,330.283 840.089,330.283 839.126,330.283 838.162,330.283 837.198,330.283 836.234,330.283 835.271,330.283 834.307,330.283 833.343,330.283 832.379,330.283 831.415,330.283 830.452,330.283 829.488,330.283 828.524,330.283 827.560,330.283 826.597,330.283 825.633,330.283 824.669,330.283 823.705,330.283 822.742,330.283 821.778,330.283 820.814,330.283 819.850,330.283 818.886,330.283 817.923,330.283 816.959,330.283 815.995,330.283 815.031,330.283 814.068,330.283 813.104,330.283 812.140,330.283 811.176,330.283 810.213,330.283 809.249,330.283 808.285,330.283 807.321,330.283 806.358,330.283 805.394,330.283 804.430,330.283 803.466,330.283 802.502,330.283 801.539,330.283 800.575,330.283 799.611,330.283 798.647,330.283 797.684,330.283 796.720,330.283 795.756,330.283 794.792,330.283 793.829,330.283 792.865,330.283 791.901,330.283 790.937,330.283 789.973,330.283 789.010,330.283 788.046,330.283 787.082,330.283 786.118,330.283 785.155,330.283 784.191,330.283 783.227,330.283 782.263,330.283 781.300,330.283 780.336,330.283 779.372,330.283 778.408,330.283 777.445,330.283 776.481,330.283 775.517,330.283 774.553,330.283 773.589,330.283 772.626,330.283 771.662,330.283 770.698,330.283 769.734,330.283 768.771,330.283 767.807,330.283 766.843,330.283 765.879,330.283 764.916,330.283 763.952,330.283 762.988,330.283 762.024,330.283 761.060,330.283 760.097,330.283 759.133,330.283 758.169,330.283 757.205,330.283 756.242,330.283 755.278,330.283 754.314,330.283 753.350,330.283 752.387,330.283 751.423,330.283 750.459,330.283 749.495,330.283 748.531,330.283 747.568,330.283 746.604,330.283 745.640,330.283 744.676,330.283 743.713,330.283 742.749,330.283 741.785,330.283 740.821,330.283 739.858,330.283 738.894,330.283 737.930,330.283 736.966,330.283 736.003,330.283 735.039,330.283 734.075,330.283 733.111,330.283 732.147,330.283 731.184,330.283 730.220,330.283 729.256,330.283 728.292,330.283 727.329,330.283 726.365,330.283 725.401,330.283 724.437,330.283 723.474,330.283 722.510,330.283 721.546,330.283 720.582,330.283 719.618,330.283 718.655,330.283 717.691,330.283 716.727,330.283 715.763,330.283 714.800,330.283 713.836,330.283 712.872,330.283 711.908,330.283 710.945,330.283 709.981,330.283 709.017,330.283 708.053,330.283 707.089,330.283 706.126,330.283 705.162,330.283 704.198,330.283 703.234,330.283 702.271,330.283 701.307,330.283 700.343,330.283 699.379,330.283 698.416,330.283 697.452,330.283 696.488,330.283 695.524,330.283 694.561,330.283 693.597,330.283 692.633,330.283 691.669,330.283 690.705,330.283 689.742,330.283 688.778,330.283 687.814,330.283 686.850,330.283 685.887,330.283 684.923,330.283 683.959,330.283 682.995,330.283 682.032,330.283 681.068,330.283 680.104,330.283 679.140,330.283 678.176,330.283 677.213,330.283 676.249,330.283 675.285,330.283 674.321,330.283 673.358,330.283 672.394,330.283 671.430,330.283 670.466,330.283 669.503,330.283 668.539,330.283 667.575,330.283 666.611,330.283 665.647,330.283 664.684,330.283 663.720,330.283 662.756,330.283 661.792,330.283 660.829,330.283 659.865,330.283 658.901,330.283 657.937,330.283 656.974,330.283 656.010,330.283 655.046,330.283 654.082,330.283 653.119,330.283 652.155,330.283 651.191,330.283 650.227,330.283 649.263,330.283 648.300,330.283 647.336,330.283 646.372,330.283 645.408,330.283 644.445,330.283 643.481,330.283 642.517,330.283 641.553,330.283 640.590,330.283 639.626,330.283 638.662,330.283 637.698,330.283 636.734,330.283 635.771,330.283 634.807,330.283 633.843,330.283 632.879,330.283 631.916,330.283 630.952,330.283 629.988,330.283 629.024,330.283 628.061,330.283 627.097,330.283 626.133,330.283 625.169,330.283 624.206,330.283 623.242,330.283 622.278,330.283 621.314,330.283 620.350,330.283 619.387,330.283 618.423,330.283 617.459,330.283 616.495,330.283 615.532,330.283 614.568,330.283 613.604,330.283 612.640,330.283 611.677,330.283 610.713,330.283 609.749,330.283 608.785,330.283 607.821,330.283 606.858,330.283 605.894,330.283 604.930,330.283 603.966,330.283 603.003,330.283 602.039,330.283 601.075,330.283 600.111,330.283 599.148,330.283 598.184,330.283 597.220,330.283 596.256,330.283 595.292,330.283 594.329,330.283 593.365,330.283 592.401,330.283 591.437,330.283 590.474,330.283 589.510,330.283 588.546,330.283 587.582,330.283 586.619,330.283 585.655,330.283 584.691,330.283 583.727,330.283 582.764,330.283 581.800,330.283 580.836,330.283 579.872,330.283 578.908,330.283 577.945,330.283 576.981,330.283 576.017,330.283 575.053,330.283 574.090,330.283 573.126,330.283 572.162,330.283 571.198,330.283 570.235,330.283 569.271,330.283 568.307,330.283 567.343,330.283 566.379,330.283 565.416,330.283 564.452,330.283 563.488,330.283 562.524,330.283 561.561,330.283 560.597,330.283 559.633,330.283 558.669,330.283 557.706,330.283 556.742,330.283 555.778,330.283 554.814,330.283 553.850,330.283 552.887,330.283 551.923,330.283 550.959,330.283 549.995,330.283 549.032,330.283 548.068,330.283 547.104,330.283 546.140,330.283 545.177,330.283 544.213,330.283 543.249,330.283 542.285,330.283 541.322,330.283 540.358,330.283 539.394,330.283 538.430,330.283 537.466,330.283 536.503,330.283 535.539,330.283 534.575,330.283 533.611,330.283 532.648,330.283 531.684,330.283 530.720,330.283 529.756,330.283 528.793,330.283 527.829,330.283 526.865,330.283 525.901,330.283 524.937,330.283 523.974,330.283 523.010,330.283 522.046,330.283 521.082,330.283 520.119,330.283 519.155,330.283 518.191,330.283 517.227,330.283 516.264,330.283 515.300,330.283 514.336,330.283 513.372,330.283 512.408,330.283 511.445,330.283 510.481,330.283 509.517,330.283 508.553,330.283 507.590,330.283 506.626,330.283 505.662,330.283 504.698,330.283 503.735,330.283 502.771,330.283 501.807,330.283 500.843,330.283 499.880,330.283 498.916,330.283 497.952,330.283 496.988,330.283 496.024,330.283 495.061,330.283 494.097,330.283 493.133,330.283 492.169,330.283 491.206,330.283 490.242,330.283 489.278,330.283 488.314,330.283 487.351,330.283 486.387,330.283 485.423,330.283 484.459,330.283 483.495,330.283 482.532,330.283 481.568,330.283 480.604,330.283 479.640,330.283 478.677,330.283 477.713,330.283 476.749,330.283 475.785,330.283 474.822,330.283 473.858,330.283 472.894,330.283 471.930,330.283 470.966,330.283 470.003,330.283 469.039,330.283 468.075,330.283 467.111,330.283 466.148,330.283 465.184,330.283 464.220,330.283 463.256,330.283 462.293,330.283 461.329,330.283 460.365,330.283 459.401,330.283 458.438,330.283 457.474,330.283 456.510,330.283 455.546,330.283 454.582,330.283 453.619,330.283 452.655,330.283 451.691,330.283 450.727,330.283 449.764,330.283 448.800,330.283 447.836,330.283 446.872,330.283 445.909,330.283 444.945,330.283 443.981,330.283 443.017,330.283 442.053,330.283 441.090,330.283 440.126,330.283 439.162,330.283 438.198,330.283 437.235,330.283 436.271,330.283 435.307,330.283 434.343,330.283 433.380,330.283 432.416,330.283 431.452,330.283 430.488,330.283 429.525,330.283 428.561,330.283 427.597,330.283 426.633,330.283 425.669,330.283 424.706,330.283 423.742,330.283 422.778,330.283 421.814,330.283 420.851,330.283 419.887,330.283 418.923,330.283 417.959,330.283 416.996,330.283 416.032,330.283 415.068,330.283 414.104,330.283 413.140,330.283 412.177,330.283 411.213,330.283 410.249,330.283 409.285,330.283 408.322,330.283 407.358,330.283 406.394,330.283 405.430,330.283 404.467,330.283 403.503,330.283 402.539,330.283 401.575,330.283 400.611,330.283 399.648,330.283 398.684,330.283 397.720,330.283 396.756,330.283 395.793,330.283 394.829,330.283 393.865,330.283 392.901,330.283 391.938,330.283 390.974,330.283 390.010,330.283 389.046,330.283 388.083,330.283 387.119,330.283 386.155,330.283 385.191,330.283 384.227,330.283 383.264,330.283 382.300,330.283 381.336,330.283 380.372,330.283 379.409,330.283 378.445,330.283 377.481,330.283 376.517,330.283 375.554,330.283 374.590,330.283 373.626,330.283 372.662,330.283 371.698,330.283 370.735,330.283 369.771,330.283 368.807,330.283 367.843,330.283 366.880,330.283 365.916,330.283 364.952,330.283 363.988,330.283 363.025,330.283 362.061,330.283 361.097,330.283 360.133,330.283 359.169,330.283 358.206,330.283 357.242,330.283 356.278,330.283 355.314,330.283 354.351,330.283 353.387,330.283 352.423,330.283 351.459,330.283 350.496,330.283 349.532,330.283 348.568,330.283 347.604,330.283 346.641,330.283 345.677,330.283 344.713,330.283 343.749,330.283 342.785,330.283 341.822,330.283 340.858,330.283 339.894,330.283 338.930,330.283 337.967,330.283 337.003,330.283 336.039,330.283 335.075,330.283 334.112,330.283 333.148,330.283 332.184,330.283 331.220,330.283 330.256,330.283 329.293,330.283 328.329,330.283 327.365,330.283 326.401,330.283 325.438,330.283 324.474,330.283 323.510,330.283 322.546,330.283 321.583,330.283 320.619,330.283 319.655,330.283 318.691,330.283 317.727,330.283 316.764,330.283 315.800,330.283 314.836,330.283 313.872,330.283 312.909,330.283 311.945,330.283 310.981,330.283 310.017,330.283 309.054,330.283 308.090,330.283 307.126,330.283 306.162,330.283 305.199,330.283 304.235,330.283 303.271,330.283 302.307,330.283 301.343,330.283 300.380,330.283 299.416,330.283 298.452,330.283 297.488,330.283 296.525,330.283 295.561,330.283 294.597,330.283 293.633,330.283 292.670,330.283 291.706,330.283 290.742,330.283 289.778,330.283 288.814,330.283 287.851,330.283 286.887,330.283 285.923,330.283 284.959,330.283 283.996,330.283 283.032,330.283 282.068,330.283 281.104,330.283 280.141,330.283 279.177,330.283 278.213,330.283 277.249,330.283 276.286,330.283 275.322,330.283 274.358,330.283 273.394,330.283 272.430,330.283 271.467,330.283 270.503,330.283 269.539,330.283 268.575,330.283 267.612,330.283 266.648,330.283 265.684,330.283 264.720,330.283 263.757,330.283 262.793,330.283 261.829,330.283 260.865,330.283 259.901,330.283 258.938,330.283 257.974,330.283 257.010,330.283 256.046,330.283 255.083,330.283 254.119,330.283 253.155,330.283 252.191,330.283 251.228,330.283 250.264,330.283 249.300,330.283 248.336,330.283 247.372,330.283 246.409,330.283 245.445,330.283 244.481,330.283 243.517,330.283 242.554,330.283 241.590,330.283 240.626,330.283 239.662,330.283 238.699,330.283 237.735,330.283 236.771,330.283 235.807,330.283 234.844,330.283 233.880,330.283 232.916,330.283 231.952,330.283 230.988,330.283 230.025,330.283 229.061,330.283 228.097,330.283 227.133,330.283 226.170,330.283 225.206,330.283 224.242,330.283 223.278,330.283 222.315,330.283 221.351,330.283 220.387,330.283 219.423,330.283 218.459,330.283 217.496,330.283 216.532,330.283 215.568,330.283 214.604,330.283 213.641,330.283 212.677,330.283 211.713,330.283 210.749,330.283 209.786,330.283 208.822,330.283 207.858,330.283 206.894,330.283 205.930,330.283 204.967,330.283 204.003,330.283 203.039,330.283 202.075,330.283 201.112,330.283 200.148,330.283 199.184,330.283 198.220,330.283 197.257,330.283 196.293,330.283 195.329,330.283 194.365,330.283 193.402,330.283 192.438,330.283 191.474,330.283 190.510,330.283 189.546,330.283 188.583,330.283 187.619,330.283 186.655,330.283 185.691,330.283 184.728,330.283 183.764,330.283 182.800,330.283 181.836,330.283 180.873,330.283 179.909,330.283 178.945,330.283 177.981,330.283 177.017,330.283 176.054,330.283 175.090,330.283 174.126,330.283 173.162,330.283 172.199,330.283 171.235,330.283 170.271,330.283 169.307,330.283 168.344,330.283 167.380,330.283 166.416,330.283 165.452,330.283 164.488,330.283 163.525,330.283 162.561,330.283 161.597,330.283 160.633,330.283 159.670,330.283 158.706,330.283 157.742,330.283 156.778,330.283 155.815,330.283 154.851,330.283 153.887,330.283 152.923,330.283 151.960,330.283 150.996,330.283 150.032,330.283 149.068,330.283 148.104,330.283 147.141,330.283 146.177,330.283 "/>
</g>
</g>    </g>
    <g>
      <polyline fill="none" stroke="#000000" stroke-width="0.5pt" stroke-dasharray="none" points="145.213,330.283 145.213,315.827 "/>
      <polyline fill="none" stroke="#000000" stroke-width="0.5pt" stroke-dasharray="none" points="203.039,330.283 203.039,315.827 "/>
      <polyline fill="none" stroke="#000000" stroke-width="0.5pt" stroke-dasharray="none" points="260.865,330.283 260.865,315.827 "/>
      <polyline fill="none" stroke="#000000" stroke-width="0.5pt" stroke-dasharray="none" points="318.691,330.283 318.691,315.827 "/>
      <polyline fill="none" stroke="#000000" stroke-width="0.5pt" stroke-dasharray="none" points="376.517,330.283 376.517,315.827 "/>
      <polyline fill="none" stroke="#000000" stroke-width="0.5pt" stroke-dasharray="none" points="434.343,330.283 434.343,315.827 "/>
      <polyline fill="none" stroke="#000000" stroke-width="0.5pt" stroke-dasharray="none" points="492.169,330.283 492.169,315.827 "/>
      <polyline fill="none" stroke="#000000" stroke-width="0.5pt" stroke-dasharray="none" points="549.995,330.283 549.995,315.827 "/>
      <polyline fill="none" stroke="#000000" stroke-width="0.5pt" stroke-dasharray="none" points="607.821,330.283 607.821,315.827 "/>
      <polyline fill="none" stroke="#000000" stroke-width="0.5pt" stroke-dasharray="none" points="665.647,330.283 665.647,315.827 "/>
      <polyline fill="none" stroke="#000000" stroke-width="0.5pt" stroke-dasharray="none" points="723.474,330.283 723.474,315.827 "/>
      <polyline fill="none" stroke="#000000" stroke-width="0.5pt" stroke-dasharray="none" points="781.300,330.283 781.300,315.827 "/>
      <polyline fill="none" stroke="#000000" stroke-width="0.5pt" stroke-dasharray="none" points="839.126,330.283 839.126,315.827 "/>
      <polyline fill="none" stroke="#000000" stroke-width="0.5pt" stroke-dasharray="none" points="896.952,330.283 896.952,315.827 "/>
      <polyline fill="none" stroke="#000000" stroke-width="0.5pt" stroke-dasharray="none" points="954.778,330.283 954.778,315.827 "/>
      <polyline fill="none" stroke="#000000" stroke-width="0.5pt" stroke-dasharray="none" points="1012.604,330.283 1012.604,315.827 "/>
      <polyline fill="none" stroke="#000000" stroke-width="0.5pt" stroke-dasharray="none" points="1070.430,330.283 1070.430,315.827 "/>
      <polyline fill="none" stroke="#000000" stroke-width="0.5pt" stroke-dasharray="none" points="1128.256,330.283 1128.256,315.827 "/>
      <polyline fill="none" stroke="#000000" stroke-width="0.5pt" stroke-dasharray="none" points="1186.082,330.283 1186.082,315.827 "/>
      <polyline fill="none" stroke="#000000" stroke-width="0.5pt" stroke-dasharray="none" points="1243.908,330.283 1243.908,315.827 "/>
      <polyline fill="none" stroke="#000000" stroke-width="0.5pt" stroke-dasharray="none" points="1301.734,330.283 1301.734,315.827 "/>
      <polyline fill="none" stroke="#000000" stroke-width="0.5pt" stroke-dasharray="none" points="1359.560,330.283 1359.560,315.827 "/>
      <polyline fill="none" stroke="#000000" stroke-width="0.5pt" stroke-dasharray="none" points="1417.386,330.283 1417.386,315.827 "/>
      <polyline fill="none" stroke="#000000" stroke-width="0.5pt" stroke-dasharray="none" points="1475.212,330.283 1475.212,315.827 "/>
      <polyline fill="none" stroke="#000000" stroke-width="0.5pt" stroke-dasharray="none" points="1533.038,330.283 1533.038,315.827 "/>
      <polyline fill="none" stroke="#000000" stroke-width="0.5pt" stroke-dasharray="none" points="145.213,330.283 1590.864,330.283 "/>
  <g transform="translate(145.213,347.264)">
    <g transform="rotate(-0.0)">
      <text x="0.000" y="0.000" font-family="Helvetica" text-anchor="middle" font-size="9pt" font-style="oblique" fill="#000000" >00:00</text>
    </g>
  </g>
  <g transform="translate(203.039,347.264)">
    <g transform="rotate(-0.0)">
      <text x="0.000" y="0.000" font-family="Helvetica" text-anchor="middle" font-size="9pt" font-style="oblique" fill="#000000" >01:00</text>
    </g>
  </g>
  <g transform="translate(260.865,347.264)">
    <g transform="rotate(-0.0)">
      <text x="0.000" y="0.000" font-family="Helvetica" text-anchor="middle" font-size="9pt" font-style="oblique" fill="#000000" >02:00</text>
    </g>
  </g>
  <g transform="translate(318.691,347.264)">
    <g transform="rotate(-0.0)">
      <text x="0.000" y="0.000" font-family="Helvetica" text-anchor="middle" font-size="9pt" font-style="oblique" fill="#000000" >03:00</text>
    </g>
  </g>
  <g transform="translate(376.517,347.264)">
    <g transform="rotate(-0.0)">
      <text x="0.000" y="0.000" font-family="Helvetica" text-anchor="middle" font-size="9pt" font-style="oblique" fill="#000000" >04:00</text>
    </g>
  </g>
  <g transform="translate(434.343,347.264)">
    <g transform="rotate(-0.0)">
      <text x="0.000" y="0.000" font-family="Helvetica" text-anchor="middle" font-size="9pt" font-style="oblique" fill="#000000" >05:00</text>
    </g>
  </g>
  <g transform="translate(492.169,347.264)">
    <g transform="rotate(-0.0)">
      <text x="0.000" y="0.000" font-family="Helvetica" text-anchor="middle" font-size="9pt" font-style="oblique" fill="#000000" >06:00</text>
    </g>
  </g>
  <g transform="translate(549.995,347.264)">
    <g transform="rotate(-0.0)">
      <text x="0.000" y="0.000" font-family="Helvetica" text-anchor="middle" font-size="9pt" font-style="oblique" fill="#000000" >07:00</text>
    </g>
  </g>
  <g transform="translate(607.821,347.264)">
    <g transform="rotate(-0.0)">
      <text x="0.000" y="0.000" font-family="Helvetica" text-anchor="middle" font-size="9pt" font-style="oblique" fill="#000000" >08:00</text>
    </g>
  </g>
  <g transform="translate(665.647,347.264)">
    <g transform="rotate(-0.0)">
      <text x="0.000" y="0.000" font-family="Helvetica" text-anchor="middle" font-size="9pt" font-style="oblique" fill="#000000" >09:00</text>
    </g>
  </g>
  <g transform="translate(723.474,347.264)">
    <g transform="rotate(-0.0)">
      <text x="0.000" y="0.000" font-family="Helvetica" text-anchor="middle" font-size="9pt" font-style="oblique" fill="#000000" >10:00</text>
    </g>
  </g>
  <g transform="translate(781.300,347.264)">
    <g transform="rotate(-0.0)">
      <text x="0.000" y="0.000" font-family="Helvetica" text-anchor="middle" font-size="9pt" font-style="oblique" fill="#000000" >11:00</text>
    </g>
  </g>
  <g transform="translate(839.126,347.264)">
    <g transform="rotate(-0.0)">
      <text x="0.000" y="0.000" font-family="Helvetica" text-anchor="middle" font-size="9pt" font-style="oblique" fill="#000000" >12:00</text>
    </g>
  </g>
  <g transform="translate(896.952,347.264)">
    <g transform="rotate(-0.0)">
      <text x="0.000" y="0.000" font-family="Helvetica" text-anchor="middle" font-size="9pt" font-style="oblique" fill="#000000" >13:00</text>
    </g>
  </g>
  <g transform="translate(954.778,347.264)">
    <g transform="rotate(-0.0)">
      <text x="0.000" y="0.000" font-family="Helvetica" text-anchor="middle" font-size="9pt" font-style="oblique" fill="#000000" >14:00</text>
    </g>
  </g>
  <g transform="translate(1012.604,347.264)">
    <g transform="rotate(-0.0)">
      <text x="0.000" y="0.000" font-family="Helvetica" text-anchor="middle" font-size="9pt" font-style="oblique" fill="#000000" >15:00</text>
    </g>
  </g>
  <g transform="translate(1070.430,347.264)">
    <g transform="rotate(-0.0)">
      <text x="0.000" y="0.000" font-family="Helvetica" text-anchor="middle" font-size="9pt" font-style="oblique" fill="#000000" >16:00</text>
    </g>
  </g>
  <g transform="translate(1128.256,347.264)">
    <g transform="rotate(-0.0)">
      <text x="0.000" y="0.000" font-family="Helvetica" text-anchor="middle" font-size="9pt" font-style="oblique" fill="#000000" >17:00</text>
    </g>
  </g>
  <g transform="translate(1186.082,347.264)">
    <g transform="rotate(-0.0)">
      <text x="0.000" y="0.000" font-family="Helvetica" text-anchor="middle" font-size="9pt" font-style="oblique" fill="#000000" >18:00</text>
    </g>
  </g>
  <g transform="translate(1243.908,347.264)">
    <g transform="rotate(-0.0)">
      <text x="0.000" y="0.000" font-family="Helvetica" text-anchor="middle" font-size="9pt" font-style="oblique" fill="#000000" >19:00</text>
    </g>
  </g>
  <g transform="translate(1301.734,347.264)">
    <g transform="rotate(-0.0)">
      <text x="0.000" y="0.000" font-family="Helvetica" text-anchor="middle" font-size="9pt" font-style="oblique" fill="#000000" >20:00</text>
    </g>
  </g>
  <g transform="translate(1359.560,347.264)">
    <g transform="rotate(-0.0)">
      <text x="0.000" y="0.000" font-family="Helvetica" text-anchor="middle" font-size="9pt" font-style="oblique" fill="#000000" >21:00</text>
    </g>
  </g>
  <g transform="translate(1417.386,347.264)">
    <g transform="rotate(-0.0)">
      <text x="0.000" y="0.000" font-family="Helvetica" text-anchor="middle" font-size="9pt" font-style="oblique" fill="#000000" >22:00</text>
    </g>
  </g>
  <g transform="translate(1475.212,347.264)">
    <g transform="rotate(-0.0)">
      <text x="0.000" y="0.000" font-family="Helvetica" text-anchor="middle" font-size="9pt" font-style="oblique" fill="#000000" >23:00</text>
    </g>
  </g>
  <g transform="translate(1533.038,347.264)">
    <g transform="rotate(-0.0)">
      <text x="0.000" y="0.000" font-family="Helvetica" text-anchor="middle" font-size="9pt" font-style="oblique" fill="#000000" >24:00</text>
    </g>
  </g>
      <polyline fill="none" stroke="#000000" stroke-width="0.5pt" stroke-dasharray="none" points="145.213,330.283 159.670,330.283 "/>
      <polyline fill="none" stroke="#000000" stroke-width="0.5pt" stroke-dasharray="none" points="145.213,297.405 159.670,297.405 "/>
      <polyline fill="none" stroke="#000000" stroke-width="0.5pt" stroke-dasharray="none" points="145.213,264.526 159.670,264.526 "/>
      <polyline fill="none" stroke="#000000" stroke-width="0.5pt" stroke-dasharray="none" points="145.213,231.647 159.670,231.647 "/>
      <polyline fill="none" stroke="#000000" stroke-width="0.5pt" stroke-dasharray="none" points="145.213,198.769 159.670,198.769 "/>
      <polyline fill="none" stroke="#000000" stroke-width="0.5pt" stroke-dasharray="none" points="145.213,165.890 159.670,165.890 "/>
      <polyline fill="none" stroke="#000000" stroke-width="0.5pt" stroke-dasharray="none" points="145.213,133.011 159.670,133.011 "/>
      <polyline fill="none" stroke="#000000" stroke-width="0.5pt" stroke-dasharray="none" points="145.213,100.132 159.670,100.132 "/>
      <polyline fill="none" stroke="#000000" stroke-width="0.5pt" stroke-dasharray="none" points="145.213,67.254 159.670,67.254 "/>
      <polyline fill="none" stroke="#000000" stroke-width="0.5pt" stroke-dasharray="none" points="145.213,34.375 159.670,34.375 "/>
      <polyline fill="none" stroke="#000000" stroke-width="0.5pt" stroke-dasharray="none" points="145.213,330.283 145.213,34.375 "/>
  <g transform="translate(116.300,334.502)">
    <g transform="rotate(-0.0)">
      <text x="0.000" y="0.000" font-family="Helvetica" text-anchor="end" font-size="9pt" font-style="oblique" fill="#000000" >0</text>
    </g>
  </g>
  <g transform="translate(116.300,301.623)">
    <g transform="rotate(-0.0)">
      <text x="0.000" y="0.000" font-family="Helvetica" text-anchor="end" font-size="9pt" font-style="oblique" fill="#000000" >200</text>
    </g>
  </g>
  <g transform="translate(116.300,268.745)">
    <g transform="rotate(-0.0)">
      <text x="0.000" y="0.000" font-family="Helvetica" text-anchor="end" font-size="9pt" font-style="oblique" fill="#000000" >400</text>
    </g>
  </g>
  <g transform="translate(116.300,235.866)">
    <g transform="rotate(-0.0)">
      <text x="0.000" y="0.000" font-family="Helvetica" text-anchor="end" font-size="9pt" font-style="oblique" fill="#000000" >600</text>
    </g>
  </g>
  <g transform="translate(116.300,202.987)">
    <g transform="rotate(-0.0)">
      <text x="0.000" y="0.000" font-family="Helvetica" text-anchor="end" font-size="9pt" font-style="oblique" fill="#000000" >800</text>
    </g>
  </g>
  <g transform="translate(116.300,170.109)">
    <g transform="rotate(-0.0)">
      <text x="0.000" y="0.000" font-family="Helvetica" text-anchor="end" font-size="9pt" font-style="oblique" fill="#000000" >1000</text>
    </g>
  </g>
  <g transform="translate(116.300,137.230)">
    <g transform="rotate(-0.0)">
      <text x="0.000" y="0.000" font-family="Helvetica" text-anchor="end" font-size="9pt" font-style="oblique" fill="#000000" >1200</text>
    </g>
  </g>
  <g transform="translate(116.300,104.351)">
    <g transform="rotate(-0.0)">
      <text x="0.000" y="0.000" font-family="Helvetica" text-anchor="end" font-size="9pt" font-style="oblique" fill="#000000" >1400</text>
    </g>
  </g>
  <g transform="translate(116.300,71.472)">
    <g transform="rotate(-0.0)">
      <text x="0.000" y="0.000" font-family="Helvetica" text-anchor="end" font-size="9pt" font-style="oblique" fill="#000000" >1600</text>
    </g>
  </g>
  <g transform="translate(116.300,38.594)">
    <g transform="rotate(-0.0)">
      <text x="0.000" y="0.000" font-family="Helvetica" text-anchor="end" font-size="9pt" font-style="oblique" fill="#000000" >1800</text>
    </g>
  </g>
      <polyline fill="none" stroke="#000000" stroke-width="0.5pt" stroke-dasharray="none" points="145.213,330.283 145.213,327.324 "/>
      <polyline fill="none" stroke="#000000" stroke-width="0.5pt" stroke-dasharray="none" points="145.213,330.283 145.213,327.324 "/>
      <polyline fill="none" stroke="#000000" stroke-width="0.5pt" stroke-dasharray="none" points="145.213,330.283 145.213,327.324 "/>
      <polyline fill="none" stroke="#000000" stroke-width="0.5pt" stroke-dasharray="none" points="145.213,330.283 145.213,330.283 "/>
    </g>
  </g>
  </g>
</svg>
