<?xml version="1.0" encoding="utf-8" standalone="no"?><!DOCTYPE svg PUBLIC "-//W3C//DTD SVG 1.1//EN" "http://www.w3.org/Graphics/SVG/1.1/DTD/svg11.dtd">
<svg preserveAspectRatio="xMinYMin meet" width="100%" height="100%" viewBox="0 0 1920.000 540.000"  version="1.1" xmlns="http://www.w3.org/2000/svg" xmlns:xlink="http://www.w3.org/1999/xlink">
  <desc>Matlab Figure Converted by PLOT2SVG written by Juerg Schwizer</desc>
  <g id="topgroup">
  <rect x="0" y="0" width="1920.000" height="540.000" fill="#ffffff" stroke="none" />
  <g id ="ID000000">
  <clipPath id="ID000001">
    <rect x="167.642" y="47.143" width="1668.936" height="405.817"/>
  </clipPath>
      <polygon fill="#ffffff" fill-opacity="1.00" stroke="none" stroke-width="0.5pt" stroke-opacity="1.00" stroke-dasharray="none" points="167.642,452.960 1836.578,452.960 1836.578,47.143 167.642,47.143 "/>
      <polygon fill="#ffffff" fill-opacity="1.00" stroke="none" stroke-width="0.5pt" stroke-opacity="1.00" stroke-dasharray="none" points="167.642,47.143 1836.578,47.143 1836.578,47.143 167.642,47.143 "/>
      <polygon fill="#ffffff" fill-opacity="1.00" stroke="none" stroke-width="0.5pt" stroke-opacity="1.00" stroke-dasharray="none" points="167.642,452.960 167.642,452.960 167.642,47.143 167.642,47.143 "/>
      <polyline fill="none" stroke="#000000" stroke-width="0.5pt" stroke-dasharray="2.0,2.0" points="167.642,452.960 167.642,47.143 "/>
      <polyline fill="none" stroke="#000000" stroke-width="0.5pt" stroke-dasharray="2.0,2.0" points="234.399,452.960 234.399,47.143 "/>
      <polyline fill="none" stroke="#000000" stroke-width="0.5pt" stroke-dasharray="2.0,2.0" points="301.157,452.960 301.157,47.143 "/>
      <polyline fill="none" stroke="#000000" stroke-width="0.5pt" stroke-dasharray="2.0,2.0" points="367.914,452.960 367.914,47.143 "/>
      <polyline fill="none" stroke="#000000" stroke-width="0.5pt" stroke-dasharray="2.0,2.0" points="434.672,452.960 434.672,47.143 "/>
      <polyline fill="none" stroke="#000000" stroke-width="0.5pt" stroke-dasharray="2.0,2.0" points="501.429,452.960 501.429,47.143 "/>
      <polyline fill="none" stroke="#000000" stroke-width="0.5pt" stroke-dasharray="2.0,2.0" points="568.187,452.960 568.187,47.143 "/>
      <polyline fill="none" stroke="#000000" stroke-width="0.5pt" stroke-dasharray="2.0,2.0" points="634.944,452.960 634.944,47.143 "/>
      <polyline fill="none" stroke="#000000" stroke-width="0.5pt" stroke-dasharray="2.0,2.0" points="701.701,452.960 701.701,47.143 "/>
      <polyline fill="none" stroke="#000000" stroke-width="0.5pt" stroke-dasharray="2.0,2.0" points="768.459,452.960 768.459,47.143 "/>
      <polyline fill="none" stroke="#000000" stroke-width="0.5pt" stroke-dasharray="2.0,2.0" points="835.216,452.960 835.216,47.143 "/>
      <polyline fill="none" stroke="#000000" stroke-width="0.5pt" stroke-dasharray="2.0,2.0" points="901.974,452.960 901.974,47.143 "/>
      <polyline fill="none" stroke="#000000" stroke-width="0.5pt" stroke-dasharray="2.0,2.0" points="968.731,452.960 968.731,47.143 "/>
      <polyline fill="none" stroke="#000000" stroke-width="0.5pt" stroke-dasharray="2.0,2.0" points="1035.489,452.960 1035.489,47.143 "/>
      <polyline fill="none" stroke="#000000" stroke-width="0.5pt" stroke-dasharray="2.0,2.0" points="1102.246,452.960 1102.246,47.143 "/>
      <polyline fill="none" stroke="#000000" stroke-width="0.5pt" stroke-dasharray="2.0,2.0" points="1169.004,452.960 1169.004,47.143 "/>
      <polyline fill="none" stroke="#000000" stroke-width="0.5pt" stroke-dasharray="2.0,2.0" points="1235.761,452.960 1235.761,47.143 "/>
      <polyline fill="none" stroke="#000000" stroke-width="0.5pt" stroke-dasharray="2.0,2.0" points="1302.519,452.960 1302.519,47.143 "/>
      <polyline fill="none" stroke="#000000" stroke-width="0.5pt" stroke-dasharray="2.0,2.0" points="1369.276,452.960 1369.276,47.143 "/>
      <polyline fill="none" stroke="#000000" stroke-width="0.5pt" stroke-dasharray="2.0,2.0" points="1436.033,452.960 1436.033,47.143 "/>
      <polyline fill="none" stroke="#000000" stroke-width="0.5pt" stroke-dasharray="2.0,2.0" points="1502.791,452.960 1502.791,47.143 "/>
      <polyline fill="none" stroke="#000000" stroke-width="0.5pt" stroke-dasharray="2.0,2.0" points="1569.548,452.960 1569.548,47.143 "/>
      <polyline fill="none" stroke="#000000" stroke-width="0.5pt" stroke-dasharray="2.0,2.0" points="1636.306,452.960 1636.306,47.143 "/>
      <polyline fill="none" stroke="#000000" stroke-width="0.5pt" stroke-dasharray="2.0,2.0" points="1703.063,452.960 1703.063,47.143 "/>
      <polyline fill="none" stroke="#000000" stroke-width="0.5pt" stroke-dasharray="2.0,2.0" points="1769.821,452.960 1769.821,47.143 "/>
      <polyline fill="none" stroke="#000000" stroke-width="0.5pt" stroke-dasharray="2.0,2.0" points="167.642,452.960 1836.578,452.960 "/>
      <polyline fill="none" stroke="#000000" stroke-width="0.5pt" stroke-dasharray="2.0,2.0" points="167.642,385.324 1836.578,385.324 "/>
      <polyline fill="none" stroke="#000000" stroke-width="0.5pt" stroke-dasharray="2.0,2.0" points="167.642,317.688 1836.578,317.688 "/>
      <polyline fill="none" stroke="#000000" stroke-width="0.5pt" stroke-dasharray="2.0,2.0" points="167.642,250.052 1836.578,250.052 "/>
      <polyline fill="none" stroke="#000000" stroke-width="0.5pt" stroke-dasharray="2.0,2.0" points="167.642,182.415 1836.578,182.415 "/>
      <polyline fill="none" stroke="#000000" stroke-width="0.5pt" stroke-dasharray="2.0,2.0" points="167.642,114.779 1836.578,114.779 "/>
      <polyline fill="none" stroke="#000000" stroke-width="0.5pt" stroke-dasharray="2.0,2.0" points="167.642,47.143 1836.578,47.143 "/>
      <polyline fill="none" stroke="#000000" stroke-width="0.5pt" stroke-dasharray="2.0,2.0" points="167.642,47.143 167.642,47.143 "/>
      <polyline fill="none" stroke="#000000" stroke-width="0.5pt" stroke-dasharray="2.0,2.0" points="234.399,47.143 234.399,47.143 "/>
      <polyline fill="none" stroke="#000000" stroke-width="0.5pt" stroke-dasharray="2.0,2.0" points="301.157,47.143 301.157,47.143 "/>
      <polyline fill="none" stroke="#000000" stroke-width="0.5pt" stroke-dasharray="2.0,2.0" points="367.914,47.143 367.914,47.143 "/>
      <polyline fill="none" stroke="#000000" stroke-width="0.5pt" stroke-dasharray="2.0,2.0" points="434.672,47.143 434.672,47.143 "/>
      <polyline fill="none" stroke="#000000" stroke-width="0.5pt" stroke-dasharray="2.0,2.0" points="501.429,47.143 501.429,47.143 "/>
      <polyline fill="none" stroke="#000000" stroke-width="0.5pt" stroke-dasharray="2.0,2.0" points="568.187,47.143 568.187,47.143 "/>
      <polyline fill="none" stroke="#000000" stroke-width="0.5pt" stroke-dasharray="2.0,2.0" points="634.944,47.143 634.944,47.143 "/>
      <polyline fill="none" stroke="#000000" stroke-width="0.5pt" stroke-dasharray="2.0,2.0" points="701.701,47.143 701.701,47.143 "/>
      <polyline fill="none" stroke="#000000" stroke-width="0.5pt" stroke-dasharray="2.0,2.0" points="768.459,47.143 768.459,47.143 "/>
      <polyline fill="none" stroke="#000000" stroke-width="0.5pt" stroke-dasharray="2.0,2.0" points="835.216,47.143 835.216,47.143 "/>
      <polyline fill="none" stroke="#000000" stroke-width="0.5pt" stroke-dasharray="2.0,2.0" points="901.974,47.143 901.974,47.143 "/>
      <polyline fill="none" stroke="#000000" stroke-width="0.5pt" stroke-dasharray="2.0,2.0" points="968.731,47.143 968.731,47.143 "/>
      <polyline fill="none" stroke="#000000" stroke-width="0.5pt" stroke-dasharray="2.0,2.0" points="1035.489,47.143 1035.489,47.143 "/>
      <polyline fill="none" stroke="#000000" stroke-width="0.5pt" stroke-dasharray="2.0,2.0" points="1102.246,47.143 1102.246,47.143 "/>
      <polyline fill="none" stroke="#000000" stroke-width="0.5pt" stroke-dasharray="2.0,2.0" points="1169.004,47.143 1169.004,47.143 "/>
      <polyline fill="none" stroke="#000000" stroke-width="0.5pt" stroke-dasharray="2.0,2.0" points="1235.761,47.143 1235.761,47.143 "/>
      <polyline fill="none" stroke="#000000" stroke-width="0.5pt" stroke-dasharray="2.0,2.0" points="1302.519,47.143 1302.519,47.143 "/>
      <polyline fill="none" stroke="#000000" stroke-width="0.5pt" stroke-dasharray="2.0,2.0" points="1369.276,47.143 1369.276,47.143 "/>
      <polyline fill="none" stroke="#000000" stroke-width="0.5pt" stroke-dasharray="2.0,2.0" points="1436.033,47.143 1436.033,47.143 "/>
      <polyline fill="none" stroke="#000000" stroke-width="0.5pt" stroke-dasharray="2.0,2.0" points="1502.791,47.143 1502.791,47.143 "/>
      <polyline fill="none" stroke="#000000" stroke-width="0.5pt" stroke-dasharray="2.0,2.0" points="1569.548,47.143 1569.548,47.143 "/>
      <polyline fill="none" stroke="#000000" stroke-width="0.5pt" stroke-dasharray="2.0,2.0" points="1636.306,47.143 1636.306,47.143 "/>
      <polyline fill="none" stroke="#000000" stroke-width="0.5pt" stroke-dasharray="2.0,2.0" points="1703.063,47.143 1703.063,47.143 "/>
      <polyline fill="none" stroke="#000000" stroke-width="0.5pt" stroke-dasharray="2.0,2.0" points="1769.821,47.143 1769.821,47.143 "/>
      <polyline fill="none" stroke="#000000" stroke-width="0.5pt" stroke-dasharray="2.0,2.0" points="167.642,452.960 167.642,452.960 "/>
      <polyline fill="none" stroke="#000000" stroke-width="0.5pt" stroke-dasharray="2.0,2.0" points="167.642,385.324 167.642,385.324 "/>
      <polyline fill="none" stroke="#000000" stroke-width="0.5pt" stroke-dasharray="2.0,2.0" points="167.642,317.688 167.642,317.688 "/>
      <polyline fill="none" stroke="#000000" stroke-width="0.5pt" stroke-dasharray="2.0,2.0" points="167.642,250.052 167.642,250.052 "/>
      <polyline fill="none" stroke="#000000" stroke-width="0.5pt" stroke-dasharray="2.0,2.0" points="167.642,182.415 167.642,182.415 "/>
      <polyline fill="none" stroke="#000000" stroke-width="0.5pt" stroke-dasharray="2.0,2.0" points="167.642,114.779 167.642,114.779 "/>
      <polyline fill="none" stroke="#000000" stroke-width="0.5pt" stroke-dasharray="2.0,2.0" points="167.642,47.143 167.642,47.143 "/>
    <g>
<g id="ID000002" >
  <g transform="translate(1001.641,489.235)">
    <g transform="rotate(-0.0)">
      <text x="0.000" y="0.000" font-family="Helvetica" text-anchor="middle" font-size="15pt" font-style="oblique" fill="#142b8c" >Time of day (24h)</text>
    </g>
  </g>
</g>
<g id="ID000003" >
  <g transform="translate(134.357,250.989)">
    <g transform="rotate(-90.0)">
      <text x="0.000" y="0.000" font-family="Helvetica" text-anchor="middle" font-size="15pt" font-style="oblique" fill="#142b8c" >Watt</text>
    </g>
  </g>
</g>
<g id="ID000004" >
  <g transform="translate(1001.641,36.363)">
    <g transform="rotate(-0.0)">
      <text x="0.000" y="0.000" font-family="Helvetica" text-anchor="middle" font-size="19pt" font-weight="lighter" font-style="oblique" fill="#142b8c" >partlyClouded</text>
    </g>
  </g>
</g>
<g id="ID000005" clip-path="url(#ID000001)" >
<g id="ID000006" clip-path="url(#ID000001)" >
      <polygon fill="#ffcc00" fill-opacity="1.00" stroke="#000000" stroke-width="1.0pt" stroke-opacity="0.00" stroke-dasharray="none" points="168.754,452.960 168.754,452.960 169.867,452.960 170.980,452.960 172.092,452.960 173.205,452.960 174.318,452.960 175.430,452.960 176.543,452.960 177.655,452.960 178.768,452.960 179.881,452.960 180.993,452.960 182.106,452.960 183.219,452.960 184.331,452.960 185.444,452.960 186.556,452.960 187.669,452.960 188.782,452.960 189.894,452.960 191.007,452.960 192.120,452.960 193.232,452.960 194.345,452.960 195.457,452.960 196.570,452.960 197.683,452.960 198.795,452.960 199.908,452.960 201.021,452.960 202.133,452.960 203.246,452.960 204.358,452.960 205.471,452.960 206.584,452.960 207.696,452.960 208.809,452.960 209.922,452.960 211.034,452.960 212.147,452.960 213.259,452.960 214.372,452.960 215.485,452.960 216.597,452.960 217.710,452.960 218.823,452.960 219.935,452.960 221.048,452.960 222.160,452.960 223.273,452.960 224.386,452.960 225.498,452.960 226.611,452.960 227.724,452.960 228.836,452.960 229.949,452.960 231.061,452.960 232.174,452.960 233.287,452.960 234.399,452.960 235.512,452.960 236.624,452.960 237.737,452.960 238.850,452.960 239.962,452.960 241.075,452.960 242.188,452.960 243.300,452.960 244.413,452.960 245.525,452.960 246.638,452.960 247.751,452.960 248.863,452.960 249.976,452.960 251.089,452.960 252.201,452.960 253.314,452.960 254.426,452.960 255.539,452.960 256.652,452.960 257.764,452.960 258.877,452.960 259.990,452.960 261.102,452.960 262.215,452.960 263.327,452.960 264.440,452.960 265.553,452.960 266.665,452.960 267.778,452.960 268.891,452.960 270.003,452.960 271.116,452.960 272.228,452.960 273.341,452.960 274.454,452.960 275.566,452.960 276.679,452.960 277.792,452.960 278.904,452.960 280.017,452.960 281.129,452.960 282.242,452.960 283.355,452.960 284.467,452.960 285.580,452.960 286.693,452.960 287.805,452.960 288.918,452.960 290.030,452.960 291.143,452.960 292.256,452.960 293.368,452.960 294.481,452.960 295.594,452.960 296.706,452.960 297.819,452.960 298.931,452.960 300.044,452.960 301.157,452.960 302.269,452.960 303.382,452.960 304.495,452.960 305.607,452.960 306.720,452.960 307.832,452.960 308.945,452.960 310.058,452.960 311.170,452.960 312.283,452.960 313.396,452.960 314.508,452.960 315.621,452.960 316.733,452.960 317.846,452.960 318.959,452.960 320.071,452.960 321.184,452.960 322.297,452.960 323.409,452.960 324.522,452.960 325.634,452.960 326.747,452.960 327.860,452.960 328.972,452.960 330.085,452.960 331.198,452.960 332.310,452.960 333.423,452.960 334.535,452.960 335.648,452.960 336.761,452.960 337.873,452.960 338.986,452.960 340.099,452.960 341.211,452.960 342.324,452.960 343.436,452.960 344.549,452.960 345.662,452.960 346.774,452.960 347.887,452.960 349.000,452.960 350.112,452.960 351.225,452.960 352.337,452.960 353.450,452.960 354.563,452.960 355.675,452.960 356.788,452.960 357.901,452.960 359.013,452.960 360.126,452.960 361.238,452.960 362.351,452.960 363.464,452.960 364.576,452.960 365.689,452.960 366.802,452.960 367.914,452.960 369.027,452.960 370.139,452.960 371.252,452.960 372.365,452.960 373.477,452.960 374.590,452.960 375.703,452.960 376.815,452.960 377.928,452.960 379.040,452.960 380.153,452.960 381.266,452.960 382.378,452.960 383.491,452.960 384.604,452.960 385.716,452.960 386.829,452.960 387.941,452.960 389.054,452.960 390.167,452.960 391.279,452.960 392.392,452.960 393.505,452.960 394.617,452.960 395.730,452.960 396.842,452.960 397.955,452.960 399.068,452.960 400.180,452.960 401.293,452.960 402.406,452.960 403.518,452.960 404.631,452.960 405.743,452.960 406.856,452.960 407.969,452.960 409.081,452.960 410.194,452.960 411.307,452.960 412.419,452.960 413.532,452.960 414.644,452.960 415.757,452.960 416.870,452.960 417.982,452.960 419.095,452.960 420.207,452.960 421.320,452.960 422.433,452.960 423.545,452.960 424.658,452.960 425.771,452.960 426.883,452.960 427.996,452.960 429.108,452.960 430.221,452.960 431.334,452.960 432.446,452.960 433.559,452.960 434.672,452.960 435.784,452.960 436.897,452.960 438.009,452.960 439.122,452.960 440.235,452.960 441.347,452.960 442.460,452.960 443.573,452.960 444.685,452.960 445.798,452.960 446.910,452.960 448.023,452.960 449.136,452.960 450.248,452.960 451.361,452.960 452.474,452.960 453.586,452.960 454.699,452.960 455.811,452.960 456.924,452.960 458.037,452.960 459.149,452.960 460.262,452.960 461.375,452.960 462.487,452.960 463.600,452.960 464.712,452.960 465.825,452.960 466.938,452.960 468.050,452.960 469.163,452.960 470.276,452.960 471.388,452.960 472.501,452.960 473.613,452.960 474.726,452.960 475.839,452.960 476.951,452.960 478.064,452.960 479.177,452.960 480.289,452.960 481.402,452.960 482.514,452.960 483.627,452.960 484.740,452.960 485.852,452.960 486.965,452.960 488.078,452.960 489.190,452.960 490.303,452.960 491.415,452.960 492.528,452.960 493.641,452.960 494.753,452.960 495.866,452.960 496.979,452.960 498.091,452.960 499.204,452.960 500.316,452.960 501.429,452.960 502.542,452.960 503.654,452.960 504.767,452.960 505.880,452.960 506.992,452.960 508.105,452.960 509.217,452.960 510.330,452.960 511.443,452.960 512.555,452.960 513.668,452.960 514.781,452.960 515.893,452.960 517.006,452.960 518.118,452.960 519.231,452.960 520.344,452.960 521.456,452.960 522.569,452.960 523.682,452.960 524.794,452.960 525.907,452.960 527.019,452.960 528.132,452.960 529.245,452.960 530.357,452.960 531.470,452.960 532.583,452.960 533.695,452.960 534.808,452.960 535.920,452.960 537.033,452.960 538.146,452.960 539.258,452.960 540.371,452.960 541.484,452.960 542.596,452.960 543.709,452.960 544.821,452.960 545.934,452.960 547.047,452.960 548.159,452.960 549.272,452.960 550.385,452.960 551.497,452.960 552.610,452.960 553.722,452.960 554.835,452.960 555.948,452.960 557.060,452.960 558.173,452.960 559.286,452.960 560.398,452.960 561.511,452.960 562.623,452.960 563.736,452.960 564.849,452.960 565.961,452.960 567.074,452.960 568.187,452.960 569.299,452.960 570.412,452.960 571.524,452.960 572.637,452.960 573.750,452.960 574.862,452.960 575.975,452.960 577.088,452.960 578.200,452.960 579.313,452.960 580.425,452.960 581.538,452.960 582.651,452.960 583.763,452.960 584.876,452.960 585.989,452.960 587.101,452.960 588.214,452.960 589.326,452.960 590.439,452.960 591.552,452.960 592.664,452.960 593.777,452.960 594.890,452.960 596.002,452.960 597.115,452.960 598.227,452.960 599.340,452.960 600.453,452.960 601.565,452.960 602.678,452.960 603.790,452.960 604.903,452.960 606.016,452.960 607.128,452.960 608.241,452.960 609.354,452.960 610.466,452.960 611.579,452.960 612.691,452.960 613.804,452.960 614.917,452.960 616.029,452.960 617.142,452.960 618.255,452.960 619.367,452.960 620.480,452.960 621.592,452.960 622.705,452.960 623.818,452.960 624.930,452.960 626.043,452.960 627.156,452.960 628.268,452.960 629.381,452.960 630.493,452.960 631.606,452.960 632.719,452.960 633.831,452.960 634.944,452.960 636.057,452.960 637.169,452.960 638.282,452.960 639.394,452.960 640.507,452.960 641.620,452.960 642.732,452.960 643.845,452.960 644.958,452.960 646.070,452.960 647.183,452.960 648.295,452.960 649.408,452.960 650.521,452.960 651.633,452.960 652.746,452.960 653.859,452.960 654.971,452.960 656.084,452.960 657.196,452.960 658.309,452.960 659.422,452.960 660.534,452.960 661.647,452.960 662.760,452.960 663.872,452.960 664.985,452.960 666.097,452.960 667.210,452.960 668.323,452.960 669.435,452.960 670.548,452.960 671.661,452.960 672.773,452.960 673.886,452.960 674.998,452.960 676.111,452.960 677.224,452.960 678.336,452.960 679.449,452.960 680.562,452.960 681.674,452.960 682.787,452.960 683.899,452.960 685.012,452.960 686.125,452.960 687.237,452.960 688.350,452.960 689.463,452.960 690.575,452.960 691.688,452.960 692.800,452.960 693.913,452.960 695.026,452.960 696.138,452.960 697.251,452.960 698.364,452.960 699.476,452.960 700.589,452.960 701.701,452.960 702.814,452.960 703.927,452.916 705.039,452.808 706.152,452.646 707.265,452.435 708.377,452.177 709.490,451.876 710.602,451.533 711.715,451.150 712.828,450.728 713.940,450.270 715.053,449.754 716.166,449.196 717.278,448.597 718.391,447.955 719.503,447.273 720.616,446.549 721.729,445.784 722.841,444.977 723.954,444.130 725.067,443.241 726.179,442.323 727.292,441.365 728.404,440.369 729.517,439.333 730.630,438.259 731.742,437.146 732.855,435.994 733.968,434.804 735.080,433.575 736.193,432.308 737.305,431.170 738.418,430.014 739.531,428.839 740.643,427.648 741.756,426.439 742.869,425.215 743.981,423.976 745.094,422.723 746.206,421.456 747.319,420.176 748.432,418.881 749.544,417.575 750.657,416.257 751.770,414.929 752.882,413.591 753.995,412.244 755.107,410.888 756.220,409.524 757.333,408.153 758.445,406.776 759.558,405.419 760.671,404.059 761.783,402.695 762.896,401.330 764.008,399.962 765.121,398.594 766.234,397.225 767.346,395.857 768.459,394.489 769.572,393.122 770.684,391.840 771.797,390.566 772.909,389.300 774.022,388.042 775.135,386.794 776.247,385.556 777.360,384.328 778.473,383.112 779.585,381.907 780.698,380.715 781.810,379.005 782.923,377.283 784.036,375.549 785.148,373.802 786.261,372.044 787.374,370.275 788.486,368.494 789.599,366.702 790.711,364.900 791.824,363.087 792.937,360.890 794.049,358.667 795.162,356.418 796.274,354.144 797.387,351.843 798.500,349.517 799.612,347.165 800.725,344.787 801.838,342.383 802.950,339.954 804.063,337.367 805.175,334.750 806.288,332.103 807.401,329.425 808.513,326.716 809.626,323.978 810.739,321.209 811.851,318.410 812.964,315.580 814.076,312.721 815.189,310.280 816.302,307.823 817.414,305.352 818.527,302.867 819.640,300.366 820.752,297.851 821.865,295.322 822.977,292.779 824.090,290.222 825.203,287.651 826.315,286.224 827.428,284.818 828.541,283.433 829.653,282.071 830.766,280.731 831.878,279.414 832.991,278.120 834.104,276.849 835.216,275.603 836.329,274.380 837.442,271.532 838.554,268.663 839.667,265.775 840.779,262.868 841.892,259.942 843.005,256.996 844.117,254.032 845.230,251.048 846.343,248.046 847.455,245.026 848.568,243.800 849.680,242.601 850.793,241.428 851.906,240.281 853.018,239.162 854.131,238.070 855.244,237.005 856.356,235.969 857.469,234.960 858.581,233.980 859.694,232.997 860.807,232.043 861.919,231.116 863.032,230.219 864.145,229.351 865.257,228.512 866.370,227.702 867.482,226.922 868.595,226.173 869.708,225.453 870.820,224.924 871.933,224.429 873.046,223.968 874.158,223.541 875.271,223.149 876.383,222.792 877.496,222.470 878.609,222.183 879.721,221.931 880.834,221.715 881.947,221.319 883.059,220.956 884.172,220.625 885.284,220.326 886.397,220.060 887.510,219.826 888.622,219.624 889.735,219.456 890.848,219.320 891.960,219.218 893.073,219.007 894.185,218.827 895.298,218.679 896.411,218.561 897.523,218.475 898.636,218.420 899.749,218.397 900.861,218.405 901.974,218.445 903.086,218.517 904.199,218.457 905.312,218.426 906.424,218.425 907.537,218.454 908.650,218.512 909.762,218.599 910.875,218.717 911.987,218.864 913.100,219.042 914.213,219.249 915.325,218.721 916.438,218.213 917.551,217.724 918.663,217.254 919.776,216.804 920.888,216.373 922.001,215.961 923.114,215.569 924.226,215.197 925.339,214.844 926.452,214.519 927.564,214.213 928.677,213.927 929.789,213.661 930.902,213.414 932.015,213.188 933.127,212.982 934.240,212.797 935.353,212.631 936.465,212.485 937.578,213.071 938.690,213.685 939.803,214.327 940.916,214.999 942.028,215.699 943.141,216.427 944.254,217.184 945.366,217.970 946.479,218.784 947.591,219.626 948.704,220.242 949.817,220.884 950.929,221.551 952.042,222.244 953.155,222.962 954.267,223.705 955.380,224.474 956.492,225.268 957.605,226.087 958.718,226.931 959.830,222.655 960.943,218.353 962.056,214.025 963.168,209.672 964.281,205.295 965.393,200.893 966.506,196.466 967.619,192.016 968.731,187.542 969.844,183.045 970.957,180.119 972.069,177.185 973.182,174.242 974.294,171.292 975.407,168.334 976.520,165.368 977.632,162.396 978.745,159.416 979.857,156.429 980.970,153.435 982.083,151.729 983.195,150.027 984.308,148.329 985.421,146.635 986.533,144.946 987.646,143.262 988.758,141.583 989.871,139.909 990.984,138.239 992.096,136.575 993.209,138.299 994.322,140.053 995.434,141.836 996.547,143.649 997.659,145.491 998.772,147.362 999.885,149.261 1000.997,151.190 1002.110,153.147 1003.223,155.132 1004.335,156.885 1005.448,158.664 1006.560,160.470 1007.673,162.301 1008.786,164.158 1009.898,166.040 1011.011,167.948 1012.124,169.880 1013.236,171.838 1014.349,173.820 1015.461,177.135 1016.574,180.482 1017.687,183.860 1018.799,187.268 1019.912,190.707 1021.025,194.177 1022.137,197.676 1023.250,201.205 1024.362,204.763 1025.475,208.350 1026.588,203.625 1027.700,198.888 1028.813,194.139 1029.926,189.379 1031.038,184.608 1032.151,179.827 1033.263,175.036 1034.376,170.235 1035.489,165.425 1036.601,160.607 1037.714,157.892 1038.827,155.178 1039.939,152.466 1041.052,149.754 1042.164,147.045 1043.277,144.337 1044.390,141.631 1045.502,138.928 1046.615,136.228 1047.728,133.530 1048.840,132.383 1049.953,131.244 1051.065,130.114 1052.178,128.993 1053.291,127.881 1054.403,126.778 1055.516,125.683 1056.629,124.598 1057.741,123.522 1058.854,122.456 1059.966,123.976 1061.079,125.513 1062.192,127.066 1063.304,128.635 1064.417,130.219 1065.530,131.820 1066.642,133.435 1067.755,135.066 1068.867,136.712 1069.980,138.373 1071.093,141.620 1072.205,144.884 1073.318,148.166 1074.431,151.464 1075.543,154.779 1076.656,158.110 1077.768,161.457 1078.881,164.820 1079.994,168.197 1081.106,171.590 1082.219,170.088 1083.332,168.594 1084.444,167.108 1085.557,165.630 1086.669,164.161 1087.782,162.700 1088.895,161.248 1090.007,159.805 1091.120,158.371 1092.233,156.946 1093.345,151.581 1094.458,146.223 1095.570,140.872 1096.683,135.530 1097.796,130.197 1098.908,124.874 1100.021,119.560 1101.134,114.257 1102.246,108.965 1103.359,103.685 1104.471,107.263 1105.584,110.853 1106.697,114.454 1107.809,118.066 1108.922,121.688 1110.035,125.320 1111.147,128.962 1112.260,132.614 1113.372,136.274 1114.485,139.942 1115.598,142.676 1116.710,145.418 1117.823,148.168 1118.936,150.927 1120.048,153.693 1121.161,156.467 1122.273,159.248 1123.386,162.035 1124.499,164.830 1125.611,167.630 1126.724,168.945 1127.837,170.267 1128.949,171.598 1130.062,172.936 1131.174,174.282 1132.287,175.635 1133.400,176.996 1134.512,178.364 1135.625,179.739 1136.738,181.121 1137.850,185.944 1138.963,190.767 1140.075,195.588 1141.188,200.407 1142.301,205.224 1143.413,210.038 1144.526,214.849 1145.639,219.656 1146.751,224.459 1147.864,229.258 1148.976,227.642 1150.089,226.040 1151.202,224.451 1152.314,222.875 1153.427,221.313 1154.540,219.765 1155.652,218.231 1156.765,216.711 1157.877,215.205 1158.990,213.714 1160.103,215.149 1161.215,216.588 1162.328,218.031 1163.440,219.478 1164.553,220.929 1165.666,222.383 1166.778,223.842 1167.891,225.303 1169.004,226.768 1170.116,228.236 1171.229,223.826 1172.341,219.444 1173.454,215.091 1174.567,210.768 1175.679,206.474 1176.792,202.211 1177.905,197.979 1179.017,193.778 1180.130,189.608 1181.242,185.470 1182.355,187.112 1183.468,188.757 1184.580,190.406 1185.693,192.057 1186.806,193.712 1187.918,195.370 1189.031,197.030 1190.143,198.693 1191.256,200.359 1192.369,202.027 1193.481,201.593 1194.594,201.173 1195.707,200.768 1196.819,200.378 1197.932,200.002 1199.044,199.641 1200.157,199.295 1201.270,198.963 1202.382,198.647 1203.495,198.345 1204.608,202.411 1205.720,206.463 1206.833,210.500 1207.945,214.523 1209.058,218.530 1210.171,222.522 1211.283,226.499 1212.396,230.459 1213.509,234.403 1214.621,238.331 1215.734,240.196 1216.846,242.059 1217.959,243.920 1219.072,245.779 1220.184,247.635 1221.297,249.488 1222.410,251.339 1223.522,253.188 1224.635,255.033 1225.747,256.875 1226.860,260.621 1227.973,264.348 1229.085,268.055 1230.198,271.742 1231.311,275.410 1232.423,279.056 1233.536,282.682 1234.648,286.287 1235.761,289.871 1236.874,293.433 1237.986,292.025 1239.099,290.640 1240.212,289.279 1241.324,287.942 1242.437,286.630 1243.549,285.341 1244.662,284.077 1245.775,282.837 1246.887,281.622 1248.000,280.431 1249.113,278.372 1250.225,276.348 1251.338,274.357 1252.450,272.400 1253.563,270.478 1254.676,268.590 1255.788,266.736 1256.901,264.917 1258.014,263.133 1259.126,261.384 1260.239,263.565 1261.351,265.737 1262.464,267.900 1263.577,270.055 1264.689,272.201 1265.802,274.337 1266.915,276.464 1268.027,278.582 1269.140,280.690 1270.252,282.789 1271.365,282.514 1272.478,282.258 1273.590,282.021 1274.703,281.804 1275.816,281.605 1276.928,281.426 1278.041,281.265 1279.153,281.124 1280.266,281.001 1281.379,280.898 1282.491,283.405 1283.604,285.896 1284.717,288.372 1285.829,290.831 1286.942,293.274 1288.054,295.701 1289.167,298.111 1290.280,300.505 1291.392,302.882 1292.505,305.242 1293.618,306.125 1294.730,307.013 1295.843,307.904 1296.955,308.800 1298.068,309.700 1299.181,310.604 1300.293,311.512 1301.406,312.424 1302.519,313.340 1303.631,314.260 1304.744,313.457 1305.856,312.685 1306.969,311.945 1308.082,311.236 1309.194,310.558 1310.307,309.910 1311.420,309.294 1312.532,308.709 1313.645,308.154 1314.757,307.630 1315.870,308.373 1316.983,309.125 1318.095,309.886 1319.208,310.656 1320.321,311.434 1321.433,312.221 1322.546,313.017 1323.658,313.821 1324.771,314.634 1325.884,315.455 1326.996,317.543 1328.109,319.616 1329.222,321.672 1330.334,323.713 1331.447,325.738 1332.559,327.746 1333.672,329.738 1334.785,331.714 1335.897,333.673 1337.010,335.617 1338.123,337.700 1339.235,339.764 1340.348,341.808 1341.460,343.832 1342.573,345.836 1343.686,347.820 1344.798,349.784 1345.911,351.728 1347.024,353.652 1348.136,355.556 1349.249,356.842 1350.361,358.122 1351.474,359.395 1352.587,360.661 1353.699,361.921 1354.812,363.174 1355.924,364.420 1357.037,365.659 1358.150,366.891 1359.262,368.117 1360.375,369.438 1361.488,370.750 1362.600,372.053 1363.713,373.345 1364.825,374.628 1365.938,375.901 1367.051,377.164 1368.163,378.416 1369.276,379.659 1370.389,380.892 1371.501,382.306 1372.614,383.704 1373.726,385.087 1374.839,386.454 1375.952,387.806 1377.064,389.143 1378.177,390.464 1379.290,391.769 1380.402,393.060 1381.515,394.334 1382.627,395.073 1383.740,395.813 1384.853,396.553 1385.965,397.294 1387.078,398.035 1388.191,398.776 1389.303,399.517 1390.416,400.258 1391.528,400.999 1392.641,401.739 1393.754,402.070 1394.866,402.414 1395.979,402.771 1397.092,403.142 1398.204,403.526 1399.317,403.922 1400.429,404.331 1401.542,404.752 1402.655,405.185 1403.767,405.629 1404.880,406.675 1405.993,407.709 1407.105,408.731 1408.218,409.742 1409.330,410.741 1410.443,411.728 1411.556,412.704 1412.668,413.667 1413.781,414.620 1414.894,415.560 1416.006,416.481 1417.119,417.391 1418.231,418.289 1419.344,419.175 1420.457,420.051 1421.569,420.914 1422.682,421.767 1423.795,422.607 1424.907,423.437 1426.020,424.254 1427.132,425.422 1428.245,426.559 1429.358,427.666 1430.470,428.745 1431.583,429.794 1432.696,430.814 1433.808,431.806 1434.921,432.769 1436.033,433.704 1437.146,434.612 1438.259,435.583 1439.371,436.521 1440.484,437.427 1441.597,438.302 1442.709,439.145 1443.822,439.958 1444.934,440.740 1446.047,441.493 1447.160,442.217 1448.272,442.911 1449.385,443.406 1450.498,443.886 1451.610,444.351 1452.723,444.801 1453.835,445.236 1454.948,445.656 1456.061,446.062 1457.173,446.453 1458.286,446.831 1459.399,447.194 1460.511,447.532 1461.624,447.858 1462.736,448.172 1463.849,448.474 1464.962,448.764 1466.074,449.042 1467.187,449.308 1468.300,449.564 1469.412,449.808 1470.525,450.041 1471.637,450.181 1472.750,450.321 1473.863,450.461 1474.975,450.600 1476.088,450.738 1477.201,450.874 1478.313,451.010 1479.426,451.144 1480.538,451.275 1481.651,451.405 1482.764,451.498 1483.876,451.595 1484.989,451.695 1486.102,451.797 1487.214,451.900 1488.327,452.004 1489.439,452.108 1490.552,452.210 1491.665,452.311 1492.777,452.408 1493.890,452.502 1495.003,452.591 1496.115,452.674 1497.228,452.749 1498.340,452.816 1499.453,452.872 1500.566,452.917 1501.678,452.947 1502.791,452.960 1503.904,452.960 1505.016,452.960 1506.129,452.960 1507.241,452.960 1508.354,452.960 1509.467,452.960 1510.579,452.960 1511.692,452.960 1512.805,452.960 1513.917,452.960 1515.030,452.960 1516.142,452.960 1517.255,452.960 1518.368,452.960 1519.480,452.960 1520.593,452.960 1521.706,452.960 1522.818,452.960 1523.931,452.960 1525.043,452.960 1526.156,452.960 1527.269,452.960 1528.381,452.960 1529.494,452.960 1530.607,452.960 1531.719,452.960 1532.832,452.960 1533.944,452.960 1535.057,452.960 1536.170,452.960 1537.282,452.960 1538.395,452.960 1539.507,452.960 1540.620,452.960 1541.733,452.960 1542.845,452.960 1543.958,452.960 1545.071,452.960 1546.183,452.960 1547.296,452.960 1548.408,452.960 1549.521,452.960 1550.634,452.960 1551.746,452.960 1552.859,452.960 1553.972,452.960 1555.084,452.960 1556.197,452.960 1557.309,452.960 1558.422,452.960 1559.535,452.960 1560.647,452.960 1561.760,452.960 1562.873,452.960 1563.985,452.960 1565.098,452.960 1566.210,452.960 1567.323,452.960 1568.436,452.960 1569.548,452.960 1570.661,452.960 1571.774,452.960 1572.886,452.960 1573.999,452.960 1575.111,452.960 1576.224,452.960 1577.337,452.960 1578.449,452.960 1579.562,452.960 1580.675,452.960 1581.787,452.960 1582.900,452.960 1584.012,452.960 1585.125,452.960 1586.238,452.960 1587.350,452.960 1588.463,452.960 1589.576,452.960 1590.688,452.960 1591.801,452.960 1592.913,452.960 1594.026,452.960 1595.139,452.960 1596.251,452.960 1597.364,452.960 1598.477,452.960 1599.589,452.960 1600.702,452.960 1601.814,452.960 1602.927,452.960 1604.040,452.960 1605.152,452.960 1606.265,452.960 1607.378,452.960 1608.490,452.960 1609.603,452.960 1610.715,452.960 1611.828,452.960 1612.941,452.960 1614.053,452.960 1615.166,452.960 1616.279,452.960 1617.391,452.960 1618.504,452.960 1619.616,452.960 1620.729,452.960 1621.842,452.960 1622.954,452.960 1624.067,452.960 1625.180,452.960 1626.292,452.960 1627.405,452.960 1628.517,452.960 1629.630,452.960 1630.743,452.960 1631.855,452.960 1632.968,452.960 1634.081,452.960 1635.193,452.960 1636.306,452.960 1637.418,452.960 1638.531,452.960 1639.644,452.960 1640.756,452.960 1641.869,452.960 1642.982,452.960 1644.094,452.960 1645.207,452.960 1646.319,452.960 1647.432,452.960 1648.545,452.960 1649.657,452.960 1650.770,452.960 1651.883,452.960 1652.995,452.960 1654.108,452.960 1655.220,452.960 1656.333,452.960 1657.446,452.960 1658.558,452.960 1659.671,452.960 1660.784,452.960 1661.896,452.960 1663.009,452.960 1664.121,452.960 1665.234,452.960 1666.347,452.960 1667.459,452.960 1668.572,452.960 1669.685,452.960 1670.797,452.960 1671.910,452.960 1673.022,452.960 1674.135,452.960 1675.248,452.960 1676.360,452.960 1677.473,452.960 1678.586,452.960 1679.698,452.960 1680.811,452.960 1681.923,452.960 1683.036,452.960 1684.149,452.960 1685.261,452.960 1686.374,452.960 1687.487,452.960 1688.599,452.960 1689.712,452.960 1690.824,452.960 1691.937,452.960 1693.050,452.960 1694.162,452.960 1695.275,452.960 1696.388,452.960 1697.500,452.960 1698.613,452.960 1699.725,452.960 1700.838,452.960 1701.951,452.960 1703.063,452.960 1704.176,452.960 1705.289,452.960 1706.401,452.960 1707.514,452.960 1708.626,452.960 1709.739,452.960 1710.852,452.960 1711.964,452.960 1713.077,452.960 1714.190,452.960 1715.302,452.960 1716.415,452.960 1717.527,452.960 1718.640,452.960 1719.753,452.960 1720.865,452.960 1721.978,452.960 1723.090,452.960 1724.203,452.960 1725.316,452.960 1726.428,452.960 1727.541,452.960 1728.654,452.960 1729.766,452.960 1730.879,452.960 1731.991,452.960 1733.104,452.960 1734.217,452.960 1735.329,452.960 1736.442,452.960 1737.555,452.960 1738.667,452.960 1739.780,452.960 1740.892,452.960 1742.005,452.960 1743.118,452.960 1744.230,452.960 1745.343,452.960 1746.456,452.960 1747.568,452.960 1748.681,452.960 1749.793,452.960 1750.906,452.960 1752.019,452.960 1753.131,452.960 1754.244,452.960 1755.357,452.960 1756.469,452.960 1757.582,452.960 1758.694,452.960 1759.807,452.960 1760.920,452.960 1762.032,452.960 1763.145,452.960 1764.258,452.960 1765.370,452.960 1766.483,452.960 1767.595,452.960 1768.708,452.960 1769.821,452.960 1769.821,452.960 1768.708,452.960 1767.595,452.960 1766.483,452.960 1765.370,452.960 1764.258,452.960 1763.145,452.960 1762.032,452.960 1760.920,452.960 1759.807,452.960 1758.694,452.960 1757.582,452.960 1756.469,452.960 1755.357,452.960 1754.244,452.960 1753.131,452.960 1752.019,452.960 1750.906,452.960 1749.793,452.960 1748.681,452.960 1747.568,452.960 1746.456,452.960 1745.343,452.960 1744.230,452.960 1743.118,452.960 1742.005,452.960 1740.892,452.960 1739.780,452.960 1738.667,452.960 1737.555,452.960 1736.442,452.960 1735.329,452.960 1734.217,452.960 1733.104,452.960 1731.991,452.960 1730.879,452.960 1729.766,452.960 1728.654,452.960 1727.541,452.960 1726.428,452.960 1725.316,452.960 1724.203,452.960 1723.090,452.960 1721.978,452.960 1720.865,452.960 1719.753,452.960 1718.640,452.960 1717.527,452.960 1716.415,452.960 1715.302,452.960 1714.190,452.960 1713.077,452.960 1711.964,452.960 1710.852,452.960 1709.739,452.960 1708.626,452.960 1707.514,452.960 1706.401,452.960 1705.289,452.960 1704.176,452.960 1703.063,452.960 1701.951,452.960 1700.838,452.960 1699.725,452.960 1698.613,452.960 1697.500,452.960 1696.388,452.960 1695.275,452.960 1694.162,452.960 1693.050,452.960 1691.937,452.960 1690.824,452.960 1689.712,452.960 1688.599,452.960 1687.487,452.960 1686.374,452.960 1685.261,452.960 1684.149,452.960 1683.036,452.960 1681.923,452.960 1680.811,452.960 1679.698,452.960 1678.586,452.960 1677.473,452.960 1676.360,452.960 1675.248,452.960 1674.135,452.960 1673.022,452.960 1671.910,452.960 1670.797,452.960 1669.685,452.960 1668.572,452.960 1667.459,452.960 1666.347,452.960 1665.234,452.960 1664.121,452.960 1663.009,452.960 1661.896,452.960 1660.784,452.960 1659.671,452.960 1658.558,452.960 1657.446,452.960 1656.333,452.960 1655.220,452.960 1654.108,452.960 1652.995,452.960 1651.883,452.960 1650.770,452.960 1649.657,452.960 1648.545,452.960 1647.432,452.960 1646.319,452.960 1645.207,452.960 1644.094,452.960 1642.982,452.960 1641.869,452.960 1640.756,452.960 1639.644,452.960 1638.531,452.960 1637.418,452.960 1636.306,452.960 1635.193,452.960 1634.081,452.960 1632.968,452.960 1631.855,452.960 1630.743,452.960 1629.630,452.960 1628.517,452.960 1627.405,452.960 1626.292,452.960 1625.180,452.960 1624.067,452.960 1622.954,452.960 1621.842,452.960 1620.729,452.960 1619.616,452.960 1618.504,452.960 1617.391,452.960 1616.279,452.960 1615.166,452.960 1614.053,452.960 1612.941,452.960 1611.828,452.960 1610.715,452.960 1609.603,452.960 1608.490,452.960 1607.378,452.960 1606.265,452.960 1605.152,452.960 1604.040,452.960 1602.927,452.960 1601.814,452.960 1600.702,452.960 1599.589,452.960 1598.477,452.960 1597.364,452.960 1596.251,452.960 1595.139,452.960 1594.026,452.960 1592.913,452.960 1591.801,452.960 1590.688,452.960 1589.576,452.960 1588.463,452.960 1587.350,452.960 1586.238,452.960 1585.125,452.960 1584.012,452.960 1582.900,452.960 1581.787,452.960 1580.675,452.960 1579.562,452.960 1578.449,452.960 1577.337,452.960 1576.224,452.960 1575.111,452.960 1573.999,452.960 1572.886,452.960 1571.774,452.960 1570.661,452.960 1569.548,452.960 1568.436,452.960 1567.323,452.960 1566.210,452.960 1565.098,452.960 1563.985,452.960 1562.873,452.960 1561.760,452.960 1560.647,452.960 1559.535,452.960 1558.422,452.960 1557.309,452.960 1556.197,452.960 1555.084,452.960 1553.972,452.960 1552.859,452.960 1551.746,452.960 1550.634,452.960 1549.521,452.960 1548.408,452.960 1547.296,452.960 1546.183,452.960 1545.071,452.960 1543.958,452.960 1542.845,452.960 1541.733,452.960 1540.620,452.960 1539.507,452.960 1538.395,452.960 1537.282,452.960 1536.170,452.960 1535.057,452.960 1533.944,452.960 1532.832,452.960 1531.719,452.960 1530.607,452.960 1529.494,452.960 1528.381,452.960 1527.269,452.960 1526.156,452.960 1525.043,452.960 1523.931,452.960 1522.818,452.960 1521.706,452.960 1520.593,452.960 1519.480,452.960 1518.368,452.960 1517.255,452.960 1516.142,452.960 1515.030,452.960 1513.917,452.960 1512.805,452.960 1511.692,452.960 1510.579,452.960 1509.467,452.960 1508.354,452.960 1507.241,452.960 1506.129,452.960 1505.016,452.960 1503.904,452.960 1502.791,452.960 1501.678,452.960 1500.566,452.960 1499.453,452.960 1498.340,452.960 1497.228,452.960 1496.115,452.960 1495.003,452.960 1493.890,452.960 1492.777,452.960 1491.665,452.960 1490.552,452.960 1489.439,452.960 1488.327,452.960 1487.214,452.960 1486.102,452.960 1484.989,452.960 1483.876,452.960 1482.764,452.960 1481.651,452.960 1480.538,452.960 1479.426,452.960 1478.313,452.960 1477.201,452.960 1476.088,452.960 1474.975,452.960 1473.863,452.960 1472.750,452.960 1471.637,452.960 1470.525,452.960 1469.412,452.960 1468.300,452.960 1467.187,452.960 1466.074,452.960 1464.962,452.960 1463.849,452.960 1462.736,452.960 1461.624,452.960 1460.511,452.960 1459.399,452.960 1458.286,452.960 1457.173,452.960 1456.061,452.960 1454.948,452.960 1453.835,452.960 1452.723,452.960 1451.610,452.960 1450.498,452.960 1449.385,452.960 1448.272,452.960 1447.160,452.960 1446.047,452.960 1444.934,452.960 1443.822,452.960 1442.709,452.960 1441.597,452.960 1440.484,452.960 1439.371,452.960 1438.259,452.960 1437.146,452.960 1436.033,452.960 1434.921,452.960 1433.808,452.960 1432.696,452.960 1431.583,452.960 1430.470,452.960 1429.358,452.960 1428.245,452.960 1427.132,452.960 1426.020,452.960 1424.907,452.960 1423.795,452.960 1422.682,452.960 1421.569,452.960 1420.457,452.960 1419.344,452.960 1418.231,452.960 1417.119,452.960 1416.006,452.960 1414.894,452.960 1413.781,452.960 1412.668,452.960 1411.556,452.960 1410.443,452.960 1409.330,452.960 1408.218,452.960 1407.105,452.960 1405.993,452.960 1404.880,452.960 1403.767,452.960 1402.655,452.960 1401.542,452.960 1400.429,452.960 1399.317,452.960 1398.204,452.960 1397.092,452.960 1395.979,452.960 1394.866,452.960 1393.754,452.960 1392.641,452.960 1391.528,452.960 1390.416,452.960 1389.303,452.960 1388.191,452.960 1387.078,452.960 1385.965,452.960 1384.853,452.960 1383.740,452.960 1382.627,452.960 1381.515,452.960 1380.402,452.960 1379.290,452.960 1378.177,452.960 1377.064,452.960 1375.952,452.960 1374.839,452.960 1373.726,452.960 1372.614,452.960 1371.501,452.960 1370.389,452.960 1369.276,452.960 1368.163,452.960 1367.051,452.960 1365.938,452.960 1364.825,452.960 1363.713,452.960 1362.600,452.960 1361.488,452.960 1360.375,452.960 1359.262,452.960 1358.150,452.960 1357.037,452.960 1355.924,452.960 1354.812,452.960 1353.699,452.960 1352.587,452.960 1351.474,452.960 1350.361,452.960 1349.249,452.960 1348.136,452.960 1347.024,452.960 1345.911,452.960 1344.798,452.960 1343.686,452.960 1342.573,452.960 1341.460,452.960 1340.348,452.960 1339.235,452.960 1338.123,452.960 1337.010,452.960 1335.897,452.960 1334.785,452.960 1333.672,452.960 1332.559,452.960 1331.447,452.960 1330.334,452.960 1329.222,452.960 1328.109,452.960 1326.996,452.960 1325.884,452.960 1324.771,452.960 1323.658,452.960 1322.546,452.960 1321.433,452.960 1320.321,452.960 1319.208,452.960 1318.095,452.960 1316.983,452.960 1315.870,452.960 1314.757,452.960 1313.645,452.960 1312.532,452.960 1311.420,452.960 1310.307,452.960 1309.194,452.960 1308.082,452.960 1306.969,452.960 1305.856,452.960 1304.744,452.960 1303.631,452.960 1302.519,452.960 1301.406,452.960 1300.293,452.960 1299.181,452.960 1298.068,452.960 1296.955,452.960 1295.843,452.960 1294.730,452.960 1293.618,452.960 1292.505,452.960 1291.392,452.960 1290.280,452.960 1289.167,452.960 1288.054,452.960 1286.942,452.960 1285.829,452.960 1284.717,452.960 1283.604,452.960 1282.491,452.960 1281.379,452.960 1280.266,452.960 1279.153,452.960 1278.041,452.960 1276.928,452.960 1275.816,452.960 1274.703,452.960 1273.590,452.960 1272.478,452.960 1271.365,452.960 1270.252,452.960 1269.140,452.960 1268.027,452.960 1266.915,452.960 1265.802,452.960 1264.689,452.960 1263.577,452.960 1262.464,452.960 1261.351,452.960 1260.239,452.960 1259.126,452.960 1258.014,452.960 1256.901,452.960 1255.788,452.960 1254.676,452.960 1253.563,452.960 1252.450,452.960 1251.338,452.960 1250.225,452.960 1249.113,452.960 1248.000,452.960 1246.887,452.960 1245.775,452.960 1244.662,452.960 1243.549,452.960 1242.437,452.960 1241.324,452.960 1240.212,452.960 1239.099,452.960 1237.986,452.960 1236.874,452.960 1235.761,452.960 1234.648,452.960 1233.536,452.960 1232.423,452.960 1231.311,452.960 1230.198,452.960 1229.085,452.960 1227.973,452.960 1226.860,452.960 1225.747,452.960 1224.635,452.960 1223.522,452.960 1222.410,452.960 1221.297,452.960 1220.184,452.960 1219.072,452.960 1217.959,452.960 1216.846,452.960 1215.734,452.960 1214.621,452.960 1213.509,452.960 1212.396,452.960 1211.283,452.960 1210.171,452.960 1209.058,452.960 1207.945,452.960 1206.833,452.960 1205.720,452.960 1204.608,452.960 1203.495,452.960 1202.382,452.960 1201.270,452.960 1200.157,452.960 1199.044,452.960 1197.932,452.960 1196.819,452.960 1195.707,452.960 1194.594,452.960 1193.481,452.960 1192.369,452.960 1191.256,452.960 1190.143,452.960 1189.031,452.960 1187.918,452.960 1186.806,452.960 1185.693,452.960 1184.580,452.960 1183.468,452.960 1182.355,452.960 1181.242,452.960 1180.130,452.960 1179.017,452.960 1177.905,452.960 1176.792,452.960 1175.679,452.960 1174.567,452.960 1173.454,452.960 1172.341,452.960 1171.229,452.960 1170.116,452.960 1169.004,452.960 1167.891,452.960 1166.778,452.960 1165.666,452.960 1164.553,452.960 1163.440,452.960 1162.328,452.960 1161.215,452.960 1160.103,452.960 1158.990,452.960 1157.877,452.960 1156.765,452.960 1155.652,452.960 1154.540,452.960 1153.427,452.960 1152.314,452.960 1151.202,452.960 1150.089,452.960 1148.976,452.960 1147.864,452.960 1146.751,452.960 1145.639,452.960 1144.526,452.960 1143.413,452.960 1142.301,452.960 1141.188,452.960 1140.075,452.960 1138.963,452.960 1137.850,452.960 1136.738,452.960 1135.625,452.960 1134.512,452.960 1133.400,452.960 1132.287,452.960 1131.174,452.960 1130.062,452.960 1128.949,452.960 1127.837,452.960 1126.724,452.960 1125.611,452.960 1124.499,452.960 1123.386,452.960 1122.273,452.960 1121.161,452.960 1120.048,452.960 1118.936,452.960 1117.823,452.960 1116.710,452.960 1115.598,452.960 1114.485,452.960 1113.372,452.960 1112.260,452.960 1111.147,452.960 1110.035,452.960 1108.922,452.960 1107.809,452.960 1106.697,452.960 1105.584,452.960 1104.471,452.960 1103.359,452.960 1102.246,452.960 1101.134,452.960 1100.021,452.960 1098.908,452.960 1097.796,452.960 1096.683,452.960 1095.570,452.960 1094.458,452.960 1093.345,452.960 1092.233,452.960 1091.120,452.960 1090.007,452.960 1088.895,452.960 1087.782,452.960 1086.669,452.960 1085.557,452.960 1084.444,452.960 1083.332,452.960 1082.219,452.960 1081.106,452.960 1079.994,452.960 1078.881,452.960 1077.768,452.960 1076.656,452.960 1075.543,452.960 1074.431,452.960 1073.318,452.960 1072.205,452.960 1071.093,452.960 1069.980,452.960 1068.867,452.960 1067.755,452.960 1066.642,452.960 1065.530,452.960 1064.417,452.960 1063.304,452.960 1062.192,452.960 1061.079,452.960 1059.966,452.960 1058.854,452.960 1057.741,452.960 1056.629,452.960 1055.516,452.960 1054.403,452.960 1053.291,452.960 1052.178,452.960 1051.065,452.960 1049.953,452.960 1048.840,452.960 1047.728,452.960 1046.615,452.960 1045.502,452.960 1044.390,452.960 1043.277,452.960 1042.164,452.960 1041.052,452.960 1039.939,452.960 1038.827,452.960 1037.714,452.960 1036.601,452.960 1035.489,452.960 1034.376,452.960 1033.263,452.960 1032.151,452.960 1031.038,452.960 1029.926,452.960 1028.813,452.960 1027.700,452.960 1026.588,452.960 1025.475,452.960 1024.362,452.960 1023.250,452.960 1022.137,452.960 1021.025,452.960 1019.912,452.960 1018.799,452.960 1017.687,452.960 1016.574,452.960 1015.461,452.960 1014.349,452.960 1013.236,452.960 1012.124,452.960 1011.011,452.960 1009.898,452.960 1008.786,452.960 1007.673,452.960 1006.560,452.960 1005.448,452.960 1004.335,452.960 1003.223,452.960 1002.110,452.960 1000.997,452.960 999.885,452.960 998.772,452.960 997.659,452.960 996.547,452.960 995.434,452.960 994.322,452.960 993.209,452.960 992.096,452.960 990.984,452.960 989.871,452.960 988.758,452.960 987.646,452.960 986.533,452.960 985.421,452.960 984.308,452.960 983.195,452.960 982.083,452.960 980.970,452.960 979.857,452.960 978.745,452.960 977.632,452.960 976.520,452.960 975.407,452.960 974.294,452.960 973.182,452.960 972.069,452.960 970.957,452.960 969.844,452.960 968.731,452.960 967.619,452.960 966.506,452.960 965.393,452.960 964.281,452.960 963.168,452.960 962.056,452.960 960.943,452.960 959.830,452.960 958.718,452.960 957.605,452.960 956.492,452.960 955.380,452.960 954.267,452.960 953.155,452.960 952.042,452.960 950.929,452.960 949.817,452.960 948.704,452.960 947.591,452.960 946.479,452.960 945.366,452.960 944.254,452.960 943.141,452.960 942.028,452.960 940.916,452.960 939.803,452.960 938.690,452.960 937.578,452.960 936.465,452.960 935.353,452.960 934.240,452.960 933.127,452.960 932.015,452.960 930.902,452.960 929.789,452.960 928.677,452.960 927.564,452.960 926.452,452.960 925.339,452.960 924.226,452.960 923.114,452.960 922.001,452.960 920.888,452.960 919.776,452.960 918.663,452.960 917.551,452.960 916.438,452.960 915.325,452.960 914.213,452.960 913.100,452.960 911.987,452.960 910.875,452.960 909.762,452.960 908.650,452.960 907.537,452.960 906.424,452.960 905.312,452.960 904.199,452.960 903.086,452.960 901.974,452.960 900.861,452.960 899.749,452.960 898.636,452.960 897.523,452.960 896.411,452.960 895.298,452.960 894.185,452.960 893.073,452.960 891.960,452.960 890.848,452.960 889.735,452.960 888.622,452.960 887.510,452.960 886.397,452.960 885.284,452.960 884.172,452.960 883.059,452.960 881.947,452.960 880.834,452.960 879.721,452.960 878.609,452.960 877.496,452.960 876.383,452.960 875.271,452.960 874.158,452.960 873.046,452.960 871.933,452.960 870.820,452.960 869.708,452.960 868.595,452.960 867.482,452.960 866.370,452.960 865.257,452.960 864.145,452.960 863.032,452.960 861.919,452.960 860.807,452.960 859.694,452.960 858.581,452.960 857.469,452.960 856.356,452.960 855.244,452.960 854.131,452.960 853.018,452.960 851.906,452.960 850.793,452.960 849.680,452.960 848.568,452.960 847.455,452.960 846.343,452.960 845.230,452.960 844.117,452.960 843.005,452.960 841.892,452.960 840.779,452.960 839.667,452.960 838.554,452.960 837.442,452.960 836.329,452.960 835.216,452.960 834.104,452.960 832.991,452.960 831.878,452.960 830.766,452.960 829.653,452.960 828.541,452.960 827.428,452.960 826.315,452.960 825.203,452.960 824.090,452.960 822.977,452.960 821.865,452.960 820.752,452.960 819.640,452.960 818.527,452.960 817.414,452.960 816.302,452.960 815.189,452.960 814.076,452.960 812.964,452.960 811.851,452.960 810.739,452.960 809.626,452.960 808.513,452.960 807.401,452.960 806.288,452.960 805.175,452.960 804.063,452.960 802.950,452.960 801.838,452.960 800.725,452.960 799.612,452.960 798.500,452.960 797.387,452.960 796.274,452.960 795.162,452.960 794.049,452.960 792.937,452.960 791.824,452.960 790.711,452.960 789.599,452.960 788.486,452.960 787.374,452.960 786.261,452.960 785.148,452.960 784.036,452.960 782.923,452.960 781.810,452.960 780.698,452.960 779.585,452.960 778.473,452.960 777.360,452.960 776.247,452.960 775.135,452.960 774.022,452.960 772.909,452.960 771.797,452.960 770.684,452.960 769.572,452.960 768.459,452.960 767.346,452.960 766.234,452.960 765.121,452.960 764.008,452.960 762.896,452.960 761.783,452.960 760.671,452.960 759.558,452.960 758.445,452.960 757.333,452.960 756.220,452.960 755.107,452.960 753.995,452.960 752.882,452.960 751.770,452.960 750.657,452.960 749.544,452.960 748.432,452.960 747.319,452.960 746.206,452.960 745.094,452.960 743.981,452.960 742.869,452.960 741.756,452.960 740.643,452.960 739.531,452.960 738.418,452.960 737.305,452.960 736.193,452.960 735.080,452.960 733.968,452.960 732.855,452.960 731.742,452.960 730.630,452.960 729.517,452.960 728.404,452.960 727.292,452.960 726.179,452.960 725.067,452.960 723.954,452.960 722.841,452.960 721.729,452.960 720.616,452.960 719.503,452.960 718.391,452.960 717.278,452.960 716.166,452.960 715.053,452.960 713.940,452.960 712.828,452.960 711.715,452.960 710.602,452.960 709.490,452.960 708.377,452.960 707.265,452.960 706.152,452.960 705.039,452.960 703.927,452.960 702.814,452.960 701.701,452.960 700.589,452.960 699.476,452.960 698.364,452.960 697.251,452.960 696.138,452.960 695.026,452.960 693.913,452.960 692.800,452.960 691.688,452.960 690.575,452.960 689.463,452.960 688.350,452.960 687.237,452.960 686.125,452.960 685.012,452.960 683.899,452.960 682.787,452.960 681.674,452.960 680.562,452.960 679.449,452.960 678.336,452.960 677.224,452.960 676.111,452.960 674.998,452.960 673.886,452.960 672.773,452.960 671.661,452.960 670.548,452.960 669.435,452.960 668.323,452.960 667.210,452.960 666.097,452.960 664.985,452.960 663.872,452.960 662.760,452.960 661.647,452.960 660.534,452.960 659.422,452.960 658.309,452.960 657.196,452.960 656.084,452.960 654.971,452.960 653.859,452.960 652.746,452.960 651.633,452.960 650.521,452.960 649.408,452.960 648.295,452.960 647.183,452.960 646.070,452.960 644.958,452.960 643.845,452.960 642.732,452.960 641.620,452.960 640.507,452.960 639.394,452.960 638.282,452.960 637.169,452.960 636.057,452.960 634.944,452.960 633.831,452.960 632.719,452.960 631.606,452.960 630.493,452.960 629.381,452.960 628.268,452.960 627.156,452.960 626.043,452.960 624.930,452.960 623.818,452.960 622.705,452.960 621.592,452.960 620.480,452.960 619.367,452.960 618.255,452.960 617.142,452.960 616.029,452.960 614.917,452.960 613.804,452.960 612.691,452.960 611.579,452.960 610.466,452.960 609.354,452.960 608.241,452.960 607.128,452.960 606.016,452.960 604.903,452.960 603.790,452.960 602.678,452.960 601.565,452.960 600.453,452.960 599.340,452.960 598.227,452.960 597.115,452.960 596.002,452.960 594.890,452.960 593.777,452.960 592.664,452.960 591.552,452.960 590.439,452.960 589.326,452.960 588.214,452.960 587.101,452.960 585.989,452.960 584.876,452.960 583.763,452.960 582.651,452.960 581.538,452.960 580.425,452.960 579.313,452.960 578.200,452.960 577.088,452.960 575.975,452.960 574.862,452.960 573.750,452.960 572.637,452.960 571.524,452.960 570.412,452.960 569.299,452.960 568.187,452.960 567.074,452.960 565.961,452.960 564.849,452.960 563.736,452.960 562.623,452.960 561.511,452.960 560.398,452.960 559.286,452.960 558.173,452.960 557.060,452.960 555.948,452.960 554.835,452.960 553.722,452.960 552.610,452.960 551.497,452.960 550.385,452.960 549.272,452.960 548.159,452.960 547.047,452.960 545.934,452.960 544.821,452.960 543.709,452.960 542.596,452.960 541.484,452.960 540.371,452.960 539.258,452.960 538.146,452.960 537.033,452.960 535.920,452.960 534.808,452.960 533.695,452.960 532.583,452.960 531.470,452.960 530.357,452.960 529.245,452.960 528.132,452.960 527.019,452.960 525.907,452.960 524.794,452.960 523.682,452.960 522.569,452.960 521.456,452.960 520.344,452.960 519.231,452.960 518.118,452.960 517.006,452.960 515.893,452.960 514.781,452.960 513.668,452.960 512.555,452.960 511.443,452.960 510.330,452.960 509.217,452.960 508.105,452.960 506.992,452.960 505.880,452.960 504.767,452.960 503.654,452.960 502.542,452.960 501.429,452.960 500.316,452.960 499.204,452.960 498.091,452.960 496.979,452.960 495.866,452.960 494.753,452.960 493.641,452.960 492.528,452.960 491.415,452.960 490.303,452.960 489.190,452.960 488.078,452.960 486.965,452.960 485.852,452.960 484.740,452.960 483.627,452.960 482.514,452.960 481.402,452.960 480.289,452.960 479.177,452.960 478.064,452.960 476.951,452.960 475.839,452.960 474.726,452.960 473.613,452.960 472.501,452.960 471.388,452.960 470.276,452.960 469.163,452.960 468.050,452.960 466.938,452.960 465.825,452.960 464.712,452.960 463.600,452.960 462.487,452.960 461.375,452.960 460.262,452.960 459.149,452.960 458.037,452.960 456.924,452.960 455.811,452.960 454.699,452.960 453.586,452.960 452.474,452.960 451.361,452.960 450.248,452.960 449.136,452.960 448.023,452.960 446.910,452.960 445.798,452.960 444.685,452.960 443.573,452.960 442.460,452.960 441.347,452.960 440.235,452.960 439.122,452.960 438.009,452.960 436.897,452.960 435.784,452.960 434.672,452.960 433.559,452.960 432.446,452.960 431.334,452.960 430.221,452.960 429.108,452.960 427.996,452.960 426.883,452.960 425.771,452.960 424.658,452.960 423.545,452.960 422.433,452.960 421.320,452.960 420.207,452.960 419.095,452.960 417.982,452.960 416.870,452.960 415.757,452.960 414.644,452.960 413.532,452.960 412.419,452.960 411.307,452.960 410.194,452.960 409.081,452.960 407.969,452.960 406.856,452.960 405.743,452.960 404.631,452.960 403.518,452.960 402.406,452.960 401.293,452.960 400.180,452.960 399.068,452.960 397.955,452.960 396.842,452.960 395.730,452.960 394.617,452.960 393.505,452.960 392.392,452.960 391.279,452.960 390.167,452.960 389.054,452.960 387.941,452.960 386.829,452.960 385.716,452.960 384.604,452.960 383.491,452.960 382.378,452.960 381.266,452.960 380.153,452.960 379.040,452.960 377.928,452.960 376.815,452.960 375.703,452.960 374.590,452.960 373.477,452.960 372.365,452.960 371.252,452.960 370.139,452.960 369.027,452.960 367.914,452.960 366.802,452.960 365.689,452.960 364.576,452.960 363.464,452.960 362.351,452.960 361.238,452.960 360.126,452.960 359.013,452.960 357.901,452.960 356.788,452.960 355.675,452.960 354.563,452.960 353.450,452.960 352.337,452.960 351.225,452.960 350.112,452.960 349.000,452.960 347.887,452.960 346.774,452.960 345.662,452.960 344.549,452.960 343.436,452.960 342.324,452.960 341.211,452.960 340.099,452.960 338.986,452.960 337.873,452.960 336.761,452.960 335.648,452.960 334.535,452.960 333.423,452.960 332.310,452.960 331.198,452.960 330.085,452.960 328.972,452.960 327.860,452.960 326.747,452.960 325.634,452.960 324.522,452.960 323.409,452.960 322.297,452.960 321.184,452.960 320.071,452.960 318.959,452.960 317.846,452.960 316.733,452.960 315.621,452.960 314.508,452.960 313.396,452.960 312.283,452.960 311.170,452.960 310.058,452.960 308.945,452.960 307.832,452.960 306.720,452.960 305.607,452.960 304.495,452.960 303.382,452.960 302.269,452.960 301.157,452.960 300.044,452.960 298.931,452.960 297.819,452.960 296.706,452.960 295.594,452.960 294.481,452.960 293.368,452.960 292.256,452.960 291.143,452.960 290.030,452.960 288.918,452.960 287.805,452.960 286.693,452.960 285.580,452.960 284.467,452.960 283.355,452.960 282.242,452.960 281.129,452.960 280.017,452.960 278.904,452.960 277.792,452.960 276.679,452.960 275.566,452.960 274.454,452.960 273.341,452.960 272.228,452.960 271.116,452.960 270.003,452.960 268.891,452.960 267.778,452.960 266.665,452.960 265.553,452.960 264.440,452.960 263.327,452.960 262.215,452.960 261.102,452.960 259.990,452.960 258.877,452.960 257.764,452.960 256.652,452.960 255.539,452.960 254.426,452.960 253.314,452.960 252.201,452.960 251.089,452.960 249.976,452.960 248.863,452.960 247.751,452.960 246.638,452.960 245.525,452.960 244.413,452.960 243.300,452.960 242.188,452.960 241.075,452.960 239.962,452.960 238.850,452.960 237.737,452.960 236.624,452.960 235.512,452.960 234.399,452.960 233.287,452.960 232.174,452.960 231.061,452.960 229.949,452.960 228.836,452.960 227.724,452.960 226.611,452.960 225.498,452.960 224.386,452.960 223.273,452.960 222.160,452.960 221.048,452.960 219.935,452.960 218.823,452.960 217.710,452.960 216.597,452.960 215.485,452.960 214.372,452.960 213.259,452.960 212.147,452.960 211.034,452.960 209.922,452.960 208.809,452.960 207.696,452.960 206.584,452.960 205.471,452.960 204.358,452.960 203.246,452.960 202.133,452.960 201.021,452.960 199.908,452.960 198.795,452.960 197.683,452.960 196.570,452.960 195.457,452.960 194.345,452.960 193.232,452.960 192.120,452.960 191.007,452.960 189.894,452.960 188.782,452.960 187.669,452.960 186.556,452.960 185.444,452.960 184.331,452.960 183.219,452.960 182.106,452.960 180.993,452.960 179.881,452.960 178.768,452.960 177.655,452.960 176.543,452.960 175.430,452.960 174.318,452.960 173.205,452.960 172.092,452.960 170.980,452.960 169.867,452.960 168.754,452.960 "/>
</g>
</g>    </g>
    <g>
      <polyline fill="none" stroke="#000000" stroke-width="0.5pt" stroke-dasharray="none" points="167.642,452.960 167.642,436.271 "/>
      <polyline fill="none" stroke="#000000" stroke-width="0.5pt" stroke-dasharray="none" points="234.399,452.960 234.399,436.271 "/>
      <polyline fill="none" stroke="#000000" stroke-width="0.5pt" stroke-dasharray="none" points="301.157,452.960 301.157,436.271 "/>
      <polyline fill="none" stroke="#000000" stroke-width="0.5pt" stroke-dasharray="none" points="367.914,452.960 367.914,436.271 "/>
      <polyline fill="none" stroke="#000000" stroke-width="0.5pt" stroke-dasharray="none" points="434.672,452.960 434.672,436.271 "/>
      <polyline fill="none" stroke="#000000" stroke-width="0.5pt" stroke-dasharray="none" points="501.429,452.960 501.429,436.271 "/>
      <polyline fill="none" stroke="#000000" stroke-width="0.5pt" stroke-dasharray="none" points="568.187,452.960 568.187,436.271 "/>
      <polyline fill="none" stroke="#000000" stroke-width="0.5pt" stroke-dasharray="none" points="634.944,452.960 634.944,436.271 "/>
      <polyline fill="none" stroke="#000000" stroke-width="0.5pt" stroke-dasharray="none" points="701.701,452.960 701.701,436.271 "/>
      <polyline fill="none" stroke="#000000" stroke-width="0.5pt" stroke-dasharray="none" points="768.459,452.960 768.459,436.271 "/>
      <polyline fill="none" stroke="#000000" stroke-width="0.5pt" stroke-dasharray="none" points="835.216,452.960 835.216,436.271 "/>
      <polyline fill="none" stroke="#000000" stroke-width="0.5pt" stroke-dasharray="none" points="901.974,452.960 901.974,436.271 "/>
      <polyline fill="none" stroke="#000000" stroke-width="0.5pt" stroke-dasharray="none" points="968.731,452.960 968.731,436.271 "/>
      <polyline fill="none" stroke="#000000" stroke-width="0.5pt" stroke-dasharray="none" points="1035.489,452.960 1035.489,436.271 "/>
      <polyline fill="none" stroke="#000000" stroke-width="0.5pt" stroke-dasharray="none" points="1102.246,452.960 1102.246,436.271 "/>
      <polyline fill="none" stroke="#000000" stroke-width="0.5pt" stroke-dasharray="none" points="1169.004,452.960 1169.004,436.271 "/>
      <polyline fill="none" stroke="#000000" stroke-width="0.5pt" stroke-dasharray="none" points="1235.761,452.960 1235.761,436.271 "/>
      <polyline fill="none" stroke="#000000" stroke-width="0.5pt" stroke-dasharray="none" points="1302.519,452.960 1302.519,436.271 "/>
      <polyline fill="none" stroke="#000000" stroke-width="0.5pt" stroke-dasharray="none" points="1369.276,452.960 1369.276,436.271 "/>
      <polyline fill="none" stroke="#000000" stroke-width="0.5pt" stroke-dasharray="none" points="1436.033,452.960 1436.033,436.271 "/>
      <polyline fill="none" stroke="#000000" stroke-width="0.5pt" stroke-dasharray="none" points="1502.791,452.960 1502.791,436.271 "/>
      <polyline fill="none" stroke="#000000" stroke-width="0.5pt" stroke-dasharray="none" points="1569.548,452.960 1569.548,436.271 "/>
      <polyline fill="none" stroke="#000000" stroke-width="0.5pt" stroke-dasharray="none" points="1636.306,452.960 1636.306,436.271 "/>
      <polyline fill="none" stroke="#000000" stroke-width="0.5pt" stroke-dasharray="none" points="1703.063,452.960 1703.063,436.271 "/>
      <polyline fill="none" stroke="#000000" stroke-width="0.5pt" stroke-dasharray="none" points="1769.821,452.960 1769.821,436.271 "/>
      <polyline fill="none" stroke="#000000" stroke-width="0.5pt" stroke-dasharray="none" points="167.642,452.960 1836.578,452.960 "/>
  <g transform="translate(167.642,472.139)">
    <g transform="rotate(-0.0)">
      <text x="0.000" y="0.000" font-family="Helvetica" text-anchor="middle" font-size="9pt" font-style="oblique" fill="#000000" >00:00</text>
    </g>
  </g>
  <g transform="translate(234.399,472.139)">
    <g transform="rotate(-0.0)">
      <text x="0.000" y="0.000" font-family="Helvetica" text-anchor="middle" font-size="9pt" font-style="oblique" fill="#000000" >01:00</text>
    </g>
  </g>
  <g transform="translate(301.157,472.139)">
    <g transform="rotate(-0.0)">
      <text x="0.000" y="0.000" font-family="Helvetica" text-anchor="middle" font-size="9pt" font-style="oblique" fill="#000000" >02:00</text>
    </g>
  </g>
  <g transform="translate(367.914,472.139)">
    <g transform="rotate(-0.0)">
      <text x="0.000" y="0.000" font-family="Helvetica" text-anchor="middle" font-size="9pt" font-style="oblique" fill="#000000" >03:00</text>
    </g>
  </g>
  <g transform="translate(434.672,472.139)">
    <g transform="rotate(-0.0)">
      <text x="0.000" y="0.000" font-family="Helvetica" text-anchor="middle" font-size="9pt" font-style="oblique" fill="#000000" >04:00</text>
    </g>
  </g>
  <g transform="translate(501.429,472.139)">
    <g transform="rotate(-0.0)">
      <text x="0.000" y="0.000" font-family="Helvetica" text-anchor="middle" font-size="9pt" font-style="oblique" fill="#000000" >05:00</text>
    </g>
  </g>
  <g transform="translate(568.187,472.139)">
    <g transform="rotate(-0.0)">
      <text x="0.000" y="0.000" font-family="Helvetica" text-anchor="middle" font-size="9pt" font-style="oblique" fill="#000000" >06:00</text>
    </g>
  </g>
  <g transform="translate(634.944,472.139)">
    <g transform="rotate(-0.0)">
      <text x="0.000" y="0.000" font-family="Helvetica" text-anchor="middle" font-size="9pt" font-style="oblique" fill="#000000" >07:00</text>
    </g>
  </g>
  <g transform="translate(701.701,472.139)">
    <g transform="rotate(-0.0)">
      <text x="0.000" y="0.000" font-family="Helvetica" text-anchor="middle" font-size="9pt" font-style="oblique" fill="#000000" >08:00</text>
    </g>
  </g>
  <g transform="translate(768.459,472.139)">
    <g transform="rotate(-0.0)">
      <text x="0.000" y="0.000" font-family="Helvetica" text-anchor="middle" font-size="9pt" font-style="oblique" fill="#000000" >09:00</text>
    </g>
  </g>
  <g transform="translate(835.216,472.139)">
    <g transform="rotate(-0.0)">
      <text x="0.000" y="0.000" font-family="Helvetica" text-anchor="middle" font-size="9pt" font-style="oblique" fill="#000000" >10:00</text>
    </g>
  </g>
  <g transform="translate(901.974,472.139)">
    <g transform="rotate(-0.0)">
      <text x="0.000" y="0.000" font-family="Helvetica" text-anchor="middle" font-size="9pt" font-style="oblique" fill="#000000" >11:00</text>
    </g>
  </g>
  <g transform="translate(968.731,472.139)">
    <g transform="rotate(-0.0)">
      <text x="0.000" y="0.000" font-family="Helvetica" text-anchor="middle" font-size="9pt" font-style="oblique" fill="#000000" >12:00</text>
    </g>
  </g>
  <g transform="translate(1035.489,472.139)">
    <g transform="rotate(-0.0)">
      <text x="0.000" y="0.000" font-family="Helvetica" text-anchor="middle" font-size="9pt" font-style="oblique" fill="#000000" >13:00</text>
    </g>
  </g>
  <g transform="translate(1102.246,472.139)">
    <g transform="rotate(-0.0)">
      <text x="0.000" y="0.000" font-family="Helvetica" text-anchor="middle" font-size="9pt" font-style="oblique" fill="#000000" >14:00</text>
    </g>
  </g>
  <g transform="translate(1169.004,472.139)">
    <g transform="rotate(-0.0)">
      <text x="0.000" y="0.000" font-family="Helvetica" text-anchor="middle" font-size="9pt" font-style="oblique" fill="#000000" >15:00</text>
    </g>
  </g>
  <g transform="translate(1235.761,472.139)">
    <g transform="rotate(-0.0)">
      <text x="0.000" y="0.000" font-family="Helvetica" text-anchor="middle" font-size="9pt" font-style="oblique" fill="#000000" >16:00</text>
    </g>
  </g>
  <g transform="translate(1302.519,472.139)">
    <g transform="rotate(-0.0)">
      <text x="0.000" y="0.000" font-family="Helvetica" text-anchor="middle" font-size="9pt" font-style="oblique" fill="#000000" >17:00</text>
    </g>
  </g>
  <g transform="translate(1369.276,472.139)">
    <g transform="rotate(-0.0)">
      <text x="0.000" y="0.000" font-family="Helvetica" text-anchor="middle" font-size="9pt" font-style="oblique" fill="#000000" >18:00</text>
    </g>
  </g>
  <g transform="translate(1436.033,472.139)">
    <g transform="rotate(-0.0)">
      <text x="0.000" y="0.000" font-family="Helvetica" text-anchor="middle" font-size="9pt" font-style="oblique" fill="#000000" >19:00</text>
    </g>
  </g>
  <g transform="translate(1502.791,472.139)">
    <g transform="rotate(-0.0)">
      <text x="0.000" y="0.000" font-family="Helvetica" text-anchor="middle" font-size="9pt" font-style="oblique" fill="#000000" >20:00</text>
    </g>
  </g>
  <g transform="translate(1569.548,472.139)">
    <g transform="rotate(-0.0)">
      <text x="0.000" y="0.000" font-family="Helvetica" text-anchor="middle" font-size="9pt" font-style="oblique" fill="#000000" >21:00</text>
    </g>
  </g>
  <g transform="translate(1636.306,472.139)">
    <g transform="rotate(-0.0)">
      <text x="0.000" y="0.000" font-family="Helvetica" text-anchor="middle" font-size="9pt" font-style="oblique" fill="#000000" >22:00</text>
    </g>
  </g>
  <g transform="translate(1703.063,472.139)">
    <g transform="rotate(-0.0)">
      <text x="0.000" y="0.000" font-family="Helvetica" text-anchor="middle" font-size="9pt" font-style="oblique" fill="#000000" >23:00</text>
    </g>
  </g>
  <g transform="translate(1769.821,472.139)">
    <g transform="rotate(-0.0)">
      <text x="0.000" y="0.000" font-family="Helvetica" text-anchor="middle" font-size="9pt" font-style="oblique" fill="#000000" >24:00</text>
    </g>
  </g>
      <polyline fill="none" stroke="#000000" stroke-width="0.5pt" stroke-dasharray="none" points="167.642,452.960 184.331,452.960 "/>
      <polyline fill="none" stroke="#000000" stroke-width="0.5pt" stroke-dasharray="none" points="167.642,385.324 184.331,385.324 "/>
      <polyline fill="none" stroke="#000000" stroke-width="0.5pt" stroke-dasharray="none" points="167.642,317.688 184.331,317.688 "/>
      <polyline fill="none" stroke="#000000" stroke-width="0.5pt" stroke-dasharray="none" points="167.642,250.052 184.331,250.052 "/>
      <polyline fill="none" stroke="#000000" stroke-width="0.5pt" stroke-dasharray="none" points="167.642,182.415 184.331,182.415 "/>
      <polyline fill="none" stroke="#000000" stroke-width="0.5pt" stroke-dasharray="none" points="167.642,114.779 184.331,114.779 "/>
      <polyline fill="none" stroke="#000000" stroke-width="0.5pt" stroke-dasharray="none" points="167.642,47.143 184.331,47.143 "/>
      <polyline fill="none" stroke="#000000" stroke-width="0.5pt" stroke-dasharray="none" points="167.642,452.960 167.642,47.143 "/>
  <g transform="translate(134.263,457.179)">
    <g transform="rotate(-0.0)">
      <text x="0.000" y="0.000" font-family="Helvetica" text-anchor="end" font-size="9pt" font-style="oblique" fill="#000000" >0</text>
    </g>
  </g>
  <g transform="translate(134.263,389.543)">
    <g transform="rotate(-0.0)">
      <text x="0.000" y="0.000" font-family="Helvetica" text-anchor="end" font-size="9pt" font-style="oblique" fill="#000000" >100</text>
    </g>
  </g>
  <g transform="translate(134.263,321.906)">
    <g transform="rotate(-0.0)">
      <text x="0.000" y="0.000" font-family="Helvetica" text-anchor="end" font-size="9pt" font-style="oblique" fill="#000000" >200</text>
    </g>
  </g>
  <g transform="translate(134.263,254.270)">
    <g transform="rotate(-0.0)">
      <text x="0.000" y="0.000" font-family="Helvetica" text-anchor="end" font-size="9pt" font-style="oblique" fill="#000000" >300</text>
    </g>
  </g>
  <g transform="translate(134.263,186.634)">
    <g transform="rotate(-0.0)">
      <text x="0.000" y="0.000" font-family="Helvetica" text-anchor="end" font-size="9pt" font-style="oblique" fill="#000000" >400</text>
    </g>
  </g>
  <g transform="translate(134.263,118.998)">
    <g transform="rotate(-0.0)">
      <text x="0.000" y="0.000" font-family="Helvetica" text-anchor="end" font-size="9pt" font-style="oblique" fill="#000000" >500</text>
    </g>
  </g>
  <g transform="translate(134.263,51.362)">
    <g transform="rotate(-0.0)">
      <text x="0.000" y="0.000" font-family="Helvetica" text-anchor="end" font-size="9pt" font-style="oblique" fill="#000000" >600</text>
    </g>
  </g>
      <polyline fill="none" stroke="#000000" stroke-width="0.5pt" stroke-dasharray="none" points="167.642,452.960 167.642,448.902 "/>
      <polyline fill="none" stroke="#000000" stroke-width="0.5pt" stroke-dasharray="none" points="167.642,452.960 167.642,448.902 "/>
      <polyline fill="none" stroke="#000000" stroke-width="0.5pt" stroke-dasharray="none" points="167.642,452.960 167.642,448.902 "/>
      <polyline fill="none" stroke="#000000" stroke-width="0.5pt" stroke-dasharray="none" points="167.642,452.960 167.642,452.960 "/>
    </g>
  </g>
  </g>
</svg>
