<?xml version="1.0" encoding="utf-8" standalone="no"?><!DOCTYPE svg PUBLIC "-//W3C//DTD SVG 1.1//EN" "http://www.w3.org/Graphics/SVG/1.1/DTD/svg11.dtd">
<svg preserveAspectRatio="xMinYMin meet" width="100%" height="100%" viewBox="0 0 1920.000 540.000"  version="1.1" xmlns="http://www.w3.org/2000/svg" xmlns:xlink="http://www.w3.org/1999/xlink">
  <desc>Matlab Figure Converted by PLOT2SVG written by Juerg Schwizer</desc>
  <g id="topgroup">
  <rect x="0" y="0" width="1920.000" height="540.000" fill="#ffffff" stroke="none" />
  <g id ="ID000000">
  <clipPath id="ID000001">
    <rect x="192.000" y="40.500" width="1662.090" height="440.100"/>
  </clipPath>
      <polygon fill="#ffffff" fill-opacity="1.00" stroke="none" stroke-width="0.5pt" stroke-opacity="1.00" stroke-dasharray="none" points="192.000,480.600 1854.090,480.600 1854.090,40.500 192.000,40.500 "/>
      <polygon fill="#ffffff" fill-opacity="1.00" stroke="none" stroke-width="0.5pt" stroke-opacity="1.00" stroke-dasharray="none" points="192.000,40.500 1854.090,40.500 1854.090,40.500 192.000,40.500 "/>
      <polygon fill="#ffffff" fill-opacity="1.00" stroke="none" stroke-width="0.5pt" stroke-opacity="1.00" stroke-dasharray="none" points="192.000,480.600 192.000,480.600 192.000,40.500 192.000,40.500 "/>
      <polyline fill="none" stroke="#000000" stroke-width="0.5pt" stroke-dasharray="2.0,2.0" points="192.000,480.600 192.000,40.500 "/>
      <polyline fill="none" stroke="#000000" stroke-width="0.5pt" stroke-dasharray="2.0,2.0" points="225.242,480.600 225.242,40.500 "/>
      <polyline fill="none" stroke="#000000" stroke-width="0.5pt" stroke-dasharray="2.0,2.0" points="258.484,480.600 258.484,40.500 "/>
      <polyline fill="none" stroke="#000000" stroke-width="0.5pt" stroke-dasharray="2.0,2.0" points="291.725,480.600 291.725,40.500 "/>
      <polyline fill="none" stroke="#000000" stroke-width="0.5pt" stroke-dasharray="2.0,2.0" points="324.967,480.600 324.967,40.500 "/>
      <polyline fill="none" stroke="#000000" stroke-width="0.5pt" stroke-dasharray="2.0,2.0" points="358.209,480.600 358.209,40.500 "/>
      <polyline fill="none" stroke="#000000" stroke-width="0.5pt" stroke-dasharray="2.0,2.0" points="391.451,480.600 391.451,40.500 "/>
      <polyline fill="none" stroke="#000000" stroke-width="0.5pt" stroke-dasharray="2.0,2.0" points="424.693,480.600 424.693,40.500 "/>
      <polyline fill="none" stroke="#000000" stroke-width="0.5pt" stroke-dasharray="2.0,2.0" points="457.934,480.600 457.934,40.500 "/>
      <polyline fill="none" stroke="#000000" stroke-width="0.5pt" stroke-dasharray="2.0,2.0" points="491.176,480.600 491.176,40.500 "/>
      <polyline fill="none" stroke="#000000" stroke-width="0.5pt" stroke-dasharray="2.0,2.0" points="524.418,480.600 524.418,40.500 "/>
      <polyline fill="none" stroke="#000000" stroke-width="0.5pt" stroke-dasharray="2.0,2.0" points="557.660,480.600 557.660,40.500 "/>
      <polyline fill="none" stroke="#000000" stroke-width="0.5pt" stroke-dasharray="2.0,2.0" points="590.901,480.600 590.901,40.500 "/>
      <polyline fill="none" stroke="#000000" stroke-width="0.5pt" stroke-dasharray="2.0,2.0" points="624.143,480.600 624.143,40.500 "/>
      <polyline fill="none" stroke="#000000" stroke-width="0.5pt" stroke-dasharray="2.0,2.0" points="657.385,480.600 657.385,40.500 "/>
      <polyline fill="none" stroke="#000000" stroke-width="0.5pt" stroke-dasharray="2.0,2.0" points="690.627,480.600 690.627,40.500 "/>
      <polyline fill="none" stroke="#000000" stroke-width="0.5pt" stroke-dasharray="2.0,2.0" points="723.869,480.600 723.869,40.500 "/>
      <polyline fill="none" stroke="#000000" stroke-width="0.5pt" stroke-dasharray="2.0,2.0" points="757.110,480.600 757.110,40.500 "/>
      <polyline fill="none" stroke="#000000" stroke-width="0.5pt" stroke-dasharray="2.0,2.0" points="790.352,480.600 790.352,40.500 "/>
      <polyline fill="none" stroke="#000000" stroke-width="0.5pt" stroke-dasharray="2.0,2.0" points="823.594,480.600 823.594,40.500 "/>
      <polyline fill="none" stroke="#000000" stroke-width="0.5pt" stroke-dasharray="2.0,2.0" points="856.836,480.600 856.836,40.500 "/>
      <polyline fill="none" stroke="#000000" stroke-width="0.5pt" stroke-dasharray="2.0,2.0" points="890.078,480.600 890.078,40.500 "/>
      <polyline fill="none" stroke="#000000" stroke-width="0.5pt" stroke-dasharray="2.0,2.0" points="923.319,480.600 923.319,40.500 "/>
      <polyline fill="none" stroke="#000000" stroke-width="0.5pt" stroke-dasharray="2.0,2.0" points="956.561,480.600 956.561,40.500 "/>
      <polyline fill="none" stroke="#000000" stroke-width="0.5pt" stroke-dasharray="2.0,2.0" points="989.803,480.600 989.803,40.500 "/>
      <polyline fill="none" stroke="#000000" stroke-width="0.5pt" stroke-dasharray="2.0,2.0" points="1023.045,480.600 1023.045,40.500 "/>
      <polyline fill="none" stroke="#000000" stroke-width="0.5pt" stroke-dasharray="2.0,2.0" points="1056.287,480.600 1056.287,40.500 "/>
      <polyline fill="none" stroke="#000000" stroke-width="0.5pt" stroke-dasharray="2.0,2.0" points="1089.528,480.600 1089.528,40.500 "/>
      <polyline fill="none" stroke="#000000" stroke-width="0.5pt" stroke-dasharray="2.0,2.0" points="1122.770,480.600 1122.770,40.500 "/>
      <polyline fill="none" stroke="#000000" stroke-width="0.5pt" stroke-dasharray="2.0,2.0" points="1156.012,480.600 1156.012,40.500 "/>
      <polyline fill="none" stroke="#000000" stroke-width="0.5pt" stroke-dasharray="2.0,2.0" points="1189.254,480.600 1189.254,40.500 "/>
      <polyline fill="none" stroke="#000000" stroke-width="0.5pt" stroke-dasharray="2.0,2.0" points="1222.496,480.600 1222.496,40.500 "/>
      <polyline fill="none" stroke="#000000" stroke-width="0.5pt" stroke-dasharray="2.0,2.0" points="1255.737,480.600 1255.737,40.500 "/>
      <polyline fill="none" stroke="#000000" stroke-width="0.5pt" stroke-dasharray="2.0,2.0" points="1288.979,480.600 1288.979,40.500 "/>
      <polyline fill="none" stroke="#000000" stroke-width="0.5pt" stroke-dasharray="2.0,2.0" points="1322.221,480.600 1322.221,40.500 "/>
      <polyline fill="none" stroke="#000000" stroke-width="0.5pt" stroke-dasharray="2.0,2.0" points="1355.463,480.600 1355.463,40.500 "/>
      <polyline fill="none" stroke="#000000" stroke-width="0.5pt" stroke-dasharray="2.0,2.0" points="1388.704,480.600 1388.704,40.500 "/>
      <polyline fill="none" stroke="#000000" stroke-width="0.5pt" stroke-dasharray="2.0,2.0" points="1421.946,480.600 1421.946,40.500 "/>
      <polyline fill="none" stroke="#000000" stroke-width="0.5pt" stroke-dasharray="2.0,2.0" points="1455.188,480.600 1455.188,40.500 "/>
      <polyline fill="none" stroke="#000000" stroke-width="0.5pt" stroke-dasharray="2.0,2.0" points="1488.430,480.600 1488.430,40.500 "/>
      <polyline fill="none" stroke="#000000" stroke-width="0.5pt" stroke-dasharray="2.0,2.0" points="1521.672,480.600 1521.672,40.500 "/>
      <polyline fill="none" stroke="#000000" stroke-width="0.5pt" stroke-dasharray="2.0,2.0" points="1554.913,480.600 1554.913,40.500 "/>
      <polyline fill="none" stroke="#000000" stroke-width="0.5pt" stroke-dasharray="2.0,2.0" points="1588.155,480.600 1588.155,40.500 "/>
      <polyline fill="none" stroke="#000000" stroke-width="0.5pt" stroke-dasharray="2.0,2.0" points="1621.397,480.600 1621.397,40.500 "/>
      <polyline fill="none" stroke="#000000" stroke-width="0.5pt" stroke-dasharray="2.0,2.0" points="192.000,480.600 1854.090,480.600 "/>
      <polyline fill="none" stroke="#000000" stroke-width="0.5pt" stroke-dasharray="2.0,2.0" points="192.000,392.580 1854.090,392.580 "/>
      <polyline fill="none" stroke="#000000" stroke-width="0.5pt" stroke-dasharray="2.0,2.0" points="192.000,304.560 1854.090,304.560 "/>
      <polyline fill="none" stroke="#000000" stroke-width="0.5pt" stroke-dasharray="2.0,2.0" points="192.000,216.540 1854.090,216.540 "/>
      <polyline fill="none" stroke="#000000" stroke-width="0.5pt" stroke-dasharray="2.0,2.0" points="192.000,128.520 1854.090,128.520 "/>
      <polyline fill="none" stroke="#000000" stroke-width="0.5pt" stroke-dasharray="2.0,2.0" points="192.000,40.500 1854.090,40.500 "/>
      <polyline fill="none" stroke="#000000" stroke-width="0.5pt" stroke-dasharray="2.0,2.0" points="192.000,40.500 192.000,40.500 "/>
      <polyline fill="none" stroke="#000000" stroke-width="0.5pt" stroke-dasharray="2.0,2.0" points="225.242,40.500 225.242,40.500 "/>
      <polyline fill="none" stroke="#000000" stroke-width="0.5pt" stroke-dasharray="2.0,2.0" points="258.484,40.500 258.484,40.500 "/>
      <polyline fill="none" stroke="#000000" stroke-width="0.5pt" stroke-dasharray="2.0,2.0" points="291.725,40.500 291.725,40.500 "/>
      <polyline fill="none" stroke="#000000" stroke-width="0.5pt" stroke-dasharray="2.0,2.0" points="324.967,40.500 324.967,40.500 "/>
      <polyline fill="none" stroke="#000000" stroke-width="0.5pt" stroke-dasharray="2.0,2.0" points="358.209,40.500 358.209,40.500 "/>
      <polyline fill="none" stroke="#000000" stroke-width="0.5pt" stroke-dasharray="2.0,2.0" points="391.451,40.500 391.451,40.500 "/>
      <polyline fill="none" stroke="#000000" stroke-width="0.5pt" stroke-dasharray="2.0,2.0" points="424.693,40.500 424.693,40.500 "/>
      <polyline fill="none" stroke="#000000" stroke-width="0.5pt" stroke-dasharray="2.0,2.0" points="457.934,40.500 457.934,40.500 "/>
      <polyline fill="none" stroke="#000000" stroke-width="0.5pt" stroke-dasharray="2.0,2.0" points="491.176,40.500 491.176,40.500 "/>
      <polyline fill="none" stroke="#000000" stroke-width="0.5pt" stroke-dasharray="2.0,2.0" points="524.418,40.500 524.418,40.500 "/>
      <polyline fill="none" stroke="#000000" stroke-width="0.5pt" stroke-dasharray="2.0,2.0" points="557.660,40.500 557.660,40.500 "/>
      <polyline fill="none" stroke="#000000" stroke-width="0.5pt" stroke-dasharray="2.0,2.0" points="590.901,40.500 590.901,40.500 "/>
      <polyline fill="none" stroke="#000000" stroke-width="0.5pt" stroke-dasharray="2.0,2.0" points="624.143,40.500 624.143,40.500 "/>
      <polyline fill="none" stroke="#000000" stroke-width="0.5pt" stroke-dasharray="2.0,2.0" points="657.385,40.500 657.385,40.500 "/>
      <polyline fill="none" stroke="#000000" stroke-width="0.5pt" stroke-dasharray="2.0,2.0" points="690.627,40.500 690.627,40.500 "/>
      <polyline fill="none" stroke="#000000" stroke-width="0.5pt" stroke-dasharray="2.0,2.0" points="723.869,40.500 723.869,40.500 "/>
      <polyline fill="none" stroke="#000000" stroke-width="0.5pt" stroke-dasharray="2.0,2.0" points="757.110,40.500 757.110,40.500 "/>
      <polyline fill="none" stroke="#000000" stroke-width="0.5pt" stroke-dasharray="2.0,2.0" points="790.352,40.500 790.352,40.500 "/>
      <polyline fill="none" stroke="#000000" stroke-width="0.5pt" stroke-dasharray="2.0,2.0" points="823.594,40.500 823.594,40.500 "/>
      <polyline fill="none" stroke="#000000" stroke-width="0.5pt" stroke-dasharray="2.0,2.0" points="856.836,40.500 856.836,40.500 "/>
      <polyline fill="none" stroke="#000000" stroke-width="0.5pt" stroke-dasharray="2.0,2.0" points="890.078,40.500 890.078,40.500 "/>
      <polyline fill="none" stroke="#000000" stroke-width="0.5pt" stroke-dasharray="2.0,2.0" points="923.319,40.500 923.319,40.500 "/>
      <polyline fill="none" stroke="#000000" stroke-width="0.5pt" stroke-dasharray="2.0,2.0" points="956.561,40.500 956.561,40.500 "/>
      <polyline fill="none" stroke="#000000" stroke-width="0.5pt" stroke-dasharray="2.0,2.0" points="989.803,40.500 989.803,40.500 "/>
      <polyline fill="none" stroke="#000000" stroke-width="0.5pt" stroke-dasharray="2.0,2.0" points="1023.045,40.500 1023.045,40.500 "/>
      <polyline fill="none" stroke="#000000" stroke-width="0.5pt" stroke-dasharray="2.0,2.0" points="1056.287,40.500 1056.287,40.500 "/>
      <polyline fill="none" stroke="#000000" stroke-width="0.5pt" stroke-dasharray="2.0,2.0" points="1089.528,40.500 1089.528,40.500 "/>
      <polyline fill="none" stroke="#000000" stroke-width="0.5pt" stroke-dasharray="2.0,2.0" points="1122.770,40.500 1122.770,40.500 "/>
      <polyline fill="none" stroke="#000000" stroke-width="0.5pt" stroke-dasharray="2.0,2.0" points="1156.012,40.500 1156.012,40.500 "/>
      <polyline fill="none" stroke="#000000" stroke-width="0.5pt" stroke-dasharray="2.0,2.0" points="1189.254,40.500 1189.254,40.500 "/>
      <polyline fill="none" stroke="#000000" stroke-width="0.5pt" stroke-dasharray="2.0,2.0" points="1222.496,40.500 1222.496,40.500 "/>
      <polyline fill="none" stroke="#000000" stroke-width="0.5pt" stroke-dasharray="2.0,2.0" points="1255.737,40.500 1255.737,40.500 "/>
      <polyline fill="none" stroke="#000000" stroke-width="0.5pt" stroke-dasharray="2.0,2.0" points="1288.979,40.500 1288.979,40.500 "/>
      <polyline fill="none" stroke="#000000" stroke-width="0.5pt" stroke-dasharray="2.0,2.0" points="1322.221,40.500 1322.221,40.500 "/>
      <polyline fill="none" stroke="#000000" stroke-width="0.5pt" stroke-dasharray="2.0,2.0" points="1355.463,40.500 1355.463,40.500 "/>
      <polyline fill="none" stroke="#000000" stroke-width="0.5pt" stroke-dasharray="2.0,2.0" points="1388.704,40.500 1388.704,40.500 "/>
      <polyline fill="none" stroke="#000000" stroke-width="0.5pt" stroke-dasharray="2.0,2.0" points="1421.946,40.500 1421.946,40.500 "/>
      <polyline fill="none" stroke="#000000" stroke-width="0.5pt" stroke-dasharray="2.0,2.0" points="1455.188,40.500 1455.188,40.500 "/>
      <polyline fill="none" stroke="#000000" stroke-width="0.5pt" stroke-dasharray="2.0,2.0" points="1488.430,40.500 1488.430,40.500 "/>
      <polyline fill="none" stroke="#000000" stroke-width="0.5pt" stroke-dasharray="2.0,2.0" points="1521.672,40.500 1521.672,40.500 "/>
      <polyline fill="none" stroke="#000000" stroke-width="0.5pt" stroke-dasharray="2.0,2.0" points="1554.913,40.500 1554.913,40.500 "/>
      <polyline fill="none" stroke="#000000" stroke-width="0.5pt" stroke-dasharray="2.0,2.0" points="1588.155,40.500 1588.155,40.500 "/>
      <polyline fill="none" stroke="#000000" stroke-width="0.5pt" stroke-dasharray="2.0,2.0" points="1621.397,40.500 1621.397,40.500 "/>
      <polyline fill="none" stroke="#000000" stroke-width="0.5pt" stroke-dasharray="2.0,2.0" points="192.000,480.600 192.000,480.600 "/>
      <polyline fill="none" stroke="#000000" stroke-width="0.5pt" stroke-dasharray="2.0,2.0" points="192.000,392.580 192.000,392.580 "/>
      <polyline fill="none" stroke="#000000" stroke-width="0.5pt" stroke-dasharray="2.0,2.0" points="192.000,304.560 192.000,304.560 "/>
      <polyline fill="none" stroke="#000000" stroke-width="0.5pt" stroke-dasharray="2.0,2.0" points="192.000,216.540 192.000,216.540 "/>
      <polyline fill="none" stroke="#000000" stroke-width="0.5pt" stroke-dasharray="2.0,2.0" points="192.000,128.520 192.000,128.520 "/>
      <polyline fill="none" stroke="#000000" stroke-width="0.5pt" stroke-dasharray="2.0,2.0" points="192.000,40.500 192.000,40.500 "/>
    <g>
<g id="ID000002" clip-path="url(#ID000001)" >
<g id="ID000003" clip-path="url(#ID000001)" >
      <polygon fill="#3366ff" fill-opacity="1.00" stroke="#000000" stroke-width="0.5pt" stroke-opacity="0.00" stroke-dasharray="none" points="198.648,480.600 198.648,476.023 205.297,336.951 211.945,197.880 218.593,326.829 225.242,455.778 231.890,312.658 238.539,169.537 245.187,172.266 251.835,174.995 258.484,173.586 265.132,172.178 271.780,175.347 278.429,178.515 285.077,177.899 291.725,177.283 298.374,177.019 305.022,176.755 311.670,176.843 318.319,176.931 324.967,189.166 331.616,201.401 338.264,326.389 344.912,451.377 351.561,446.800 358.209,442.223 364.857,447.152 371.506,452.082 378.154,441.519 384.802,430.957 391.451,441.783 398.099,452.610 404.747,450.321 411.396,448.033 418.044,449.441 424.693,450.849 431.341,451.113 437.989,451.377 444.638,450.937 451.286,450.497 457.934,444.248 464.583,437.998 471.231,442.663 477.879,447.328 484.528,447.240 491.176,447.152 497.824,438.967 504.473,430.781 511.121,441.783 517.770,452.786 524.418,452.874 531.066,452.962 537.715,453.402 544.363,453.842 551.011,452.962 557.660,452.082 564.308,450.057 570.956,448.033 577.605,450.057 584.253,452.082 590.901,452.786 597.550,453.490 604.198,452.522 610.847,451.553 617.495,441.871 624.143,432.189 630.792,441.079 637.440,449.969 644.088,449.617 650.737,449.265 657.385,451.201 664.033,453.138 670.682,451.993 677.330,450.849 683.979,448.913 690.627,446.976 697.275,446.360 703.924,445.744 710.572,448.297 717.220,450.849 723.869,452.082 730.517,453.314 737.165,447.240 743.814,441.167 750.462,443.103 757.110,445.040 763.759,447.769 770.407,450.497 777.056,448.121 783.704,445.744 790.352,446.096 797.001,446.448 803.649,448.913 810.297,451.377 816.946,449.001 823.594,446.624 830.242,448.649 836.891,450.673 843.539,448.825 850.187,446.976 856.836,448.561 863.484,450.145 870.133,451.641 876.781,453.138 883.429,453.138 890.078,453.138 896.726,452.170 903.374,451.201 910.023,451.641 916.671,452.082 923.319,450.761 929.968,449.441 936.616,449.441 943.264,449.441 949.913,450.673 956.561,451.905 963.210,450.673 969.858,449.441 976.506,443.720 983.155,437.998 989.803,444.160 996.451,450.321 1003.100,451.289 1009.748,452.258 1016.396,451.201 1023.045,450.145 1029.693,451.025 1036.341,451.905 1042.990,451.289 1049.638,450.673 1056.287,451.641 1062.935,452.610 1069.583,452.698 1076.232,452.786 1082.880,451.817 1089.528,450.849 1096.177,445.480 1102.825,440.111 1109.473,446.184 1116.122,452.258 1122.770,452.346 1129.419,452.434 1136.067,449.969 1142.715,447.504 1149.364,448.825 1156.012,450.145 1162.660,452.082 1169.309,454.018 1175.957,450.145 1182.605,446.272 1189.254,442.311 1195.902,438.350 1202.550,440.551 1209.199,442.751 1215.847,444.512 1222.496,446.272 1229.144,423.211 1235.792,400.150 1242.441,380.521 1249.089,360.893 1255.737,392.228 1262.386,423.563 1269.034,442.311 1275.682,461.060 1282.331,451.201 1288.979,441.343 1295.627,433.509 1302.276,425.676 1308.924,425.764 1315.573,425.852 1322.221,428.756 1328.869,431.661 1335.518,437.910 1342.166,444.160 1348.814,436.766 1355.463,429.372 1362.111,438.879 1368.759,448.385 1375.408,440.727 1382.056,433.069 1388.704,430.429 1395.353,427.788 1402.001,431.573 1408.650,435.358 1415.298,457.627 1421.946,479.896 1428.595,479.896 1435.243,479.896 1441.891,479.896 1448.540,479.896 1455.188,479.896 1461.836,479.896 1468.485,479.896 1475.133,479.896 1481.781,479.896 1488.430,479.896 1495.078,479.896 1501.727,479.896 1508.375,479.896 1515.023,479.896 1521.672,479.896 1528.320,479.896 1534.968,479.896 1541.617,479.896 1548.265,479.896 1554.913,479.896 1561.562,479.896 1568.210,479.896 1574.859,479.896 1581.507,479.896 1588.155,479.896 1594.804,479.896 1601.452,479.896 1608.100,479.896 1614.749,479.896 1621.397,479.896 1628.045,479.896 1628.045,480.600 1621.397,480.600 1614.749,480.600 1608.100,480.600 1601.452,480.600 1594.804,480.600 1588.155,480.600 1581.507,480.600 1574.859,480.600 1568.210,480.600 1561.562,480.600 1554.913,480.600 1548.265,480.600 1541.617,480.600 1534.968,480.600 1528.320,480.600 1521.672,480.600 1515.023,480.600 1508.375,480.600 1501.727,480.600 1495.078,480.600 1488.430,480.600 1481.781,480.600 1475.133,480.600 1468.485,480.600 1461.836,480.600 1455.188,480.600 1448.540,480.600 1441.891,480.600 1435.243,480.600 1428.595,480.600 1421.946,480.600 1415.298,480.600 1408.650,480.600 1402.001,480.600 1395.353,480.600 1388.704,480.600 1382.056,480.600 1375.408,480.600 1368.759,480.600 1362.111,480.600 1355.463,480.600 1348.814,480.600 1342.166,480.600 1335.518,480.600 1328.869,480.600 1322.221,480.600 1315.573,480.600 1308.924,480.600 1302.276,480.600 1295.627,480.600 1288.979,480.600 1282.331,480.600 1275.682,480.600 1269.034,480.600 1262.386,480.600 1255.737,480.600 1249.089,480.600 1242.441,480.600 1235.792,480.600 1229.144,480.600 1222.496,480.600 1215.847,480.600 1209.199,480.600 1202.550,480.600 1195.902,480.600 1189.254,480.600 1182.605,480.600 1175.957,480.600 1169.309,480.600 1162.660,480.600 1156.012,480.600 1149.364,480.600 1142.715,480.600 1136.067,480.600 1129.419,480.600 1122.770,480.600 1116.122,480.600 1109.473,480.600 1102.825,480.600 1096.177,480.600 1089.528,480.600 1082.880,480.600 1076.232,480.600 1069.583,480.600 1062.935,480.600 1056.287,480.600 1049.638,480.600 1042.990,480.600 1036.341,480.600 1029.693,480.600 1023.045,480.600 1016.396,480.600 1009.748,480.600 1003.100,480.600 996.451,480.600 989.803,480.600 983.155,480.600 976.506,480.600 969.858,480.600 963.210,480.600 956.561,480.600 949.913,480.600 943.264,480.600 936.616,480.600 929.968,480.600 923.319,480.600 916.671,480.600 910.023,480.600 903.374,480.600 896.726,480.600 890.078,480.600 883.429,480.600 876.781,480.600 870.133,480.600 863.484,480.600 856.836,480.600 850.187,480.600 843.539,480.600 836.891,480.600 830.242,480.600 823.594,480.600 816.946,480.600 810.297,480.600 803.649,480.600 797.001,480.600 790.352,480.600 783.704,480.600 777.056,480.600 770.407,480.600 763.759,480.600 757.110,480.600 750.462,480.600 743.814,480.600 737.165,480.600 730.517,480.600 723.869,480.600 717.220,480.600 710.572,480.600 703.924,480.600 697.275,480.600 690.627,480.600 683.979,480.600 677.330,480.600 670.682,480.600 664.033,480.600 657.385,480.600 650.737,480.600 644.088,480.600 637.440,480.600 630.792,480.600 624.143,480.600 617.495,480.600 610.847,480.600 604.198,480.600 597.550,480.600 590.901,480.600 584.253,480.600 577.605,480.600 570.956,480.600 564.308,480.600 557.660,480.600 551.011,480.600 544.363,480.600 537.715,480.600 531.066,480.600 524.418,480.600 517.770,480.600 511.121,480.600 504.473,480.600 497.824,480.600 491.176,480.600 484.528,480.600 477.879,480.600 471.231,480.600 464.583,480.600 457.934,480.600 451.286,480.600 444.638,480.600 437.989,480.600 431.341,480.600 424.693,480.600 418.044,480.600 411.396,480.600 404.747,480.600 398.099,480.600 391.451,480.600 384.802,480.600 378.154,480.600 371.506,480.600 364.857,480.600 358.209,480.600 351.561,480.600 344.912,480.600 338.264,480.600 331.616,480.600 324.967,480.600 318.319,480.600 311.670,480.600 305.022,480.600 298.374,480.600 291.725,480.600 285.077,480.600 278.429,480.600 271.780,480.600 265.132,480.600 258.484,480.600 251.835,480.600 245.187,480.600 238.539,480.600 231.890,480.600 225.242,480.600 218.593,480.600 211.945,480.600 205.297,480.600 198.648,480.600 "/>
</g>
</g><g id="ID000004" clip-path="url(#ID000001)" >
<g id="ID000005" clip-path="url(#ID000001)" >
      <polygon fill="#ff0000" fill-opacity="1.00" stroke="#000000" stroke-width="0.5pt" stroke-opacity="0.00" stroke-dasharray="none" points="198.648,476.023 198.648,471.446 205.297,329.030 211.945,182.036 218.593,316.267 225.242,438.438 231.890,294.174 238.539,137.850 245.187,114.173 251.835,90.495 258.484,89.087 265.132,87.679 271.780,88.207 278.429,88.735 285.077,82.838 291.725,76.940 298.374,76.676 305.022,76.412 311.670,68.578 318.319,60.745 324.967,125.791 331.616,190.838 338.264,315.827 344.912,440.815 351.561,436.238 358.209,431.661 364.857,436.590 371.506,441.519 378.154,430.957 384.802,420.394 391.451,431.221 398.099,442.047 404.747,439.759 411.396,437.470 418.044,438.879 424.693,440.287 431.341,443.191 437.989,446.096 444.638,443.015 451.286,439.935 457.934,433.685 464.583,427.436 471.231,432.101 477.879,436.766 484.528,436.678 491.176,436.590 497.824,431.045 504.473,425.499 511.121,433.861 517.770,442.223 524.418,442.311 531.066,442.399 537.715,442.839 544.363,443.280 551.011,442.399 557.660,441.519 564.308,439.495 570.956,437.470 577.605,439.495 584.253,441.519 590.901,444.864 597.550,448.209 604.198,444.600 610.847,440.991 617.495,431.309 624.143,421.627 630.792,430.517 637.440,439.407 644.088,439.055 650.737,438.702 657.385,440.639 664.033,442.575 670.682,441.431 677.330,440.287 683.979,438.350 690.627,436.414 697.275,435.798 703.924,435.182 710.572,437.734 717.220,440.287 723.869,441.519 730.517,442.751 737.165,436.678 743.814,430.605 750.462,432.541 757.110,434.478 763.759,437.206 770.407,439.935 777.056,437.558 783.704,435.182 790.352,435.534 797.001,435.886 803.649,438.350 810.297,440.815 816.946,438.438 823.594,436.062 830.242,438.086 836.891,440.111 843.539,438.262 850.187,436.414 856.836,437.998 863.484,439.583 870.133,441.079 876.781,442.575 883.429,442.575 890.078,442.575 896.726,441.607 903.374,440.639 910.023,441.079 916.671,441.519 923.319,440.199 929.968,438.879 936.616,438.879 943.264,438.879 949.913,440.111 956.561,441.343 963.210,440.111 969.858,438.879 976.506,433.157 983.155,427.436 989.803,433.597 996.451,439.759 1003.100,438.086 1009.748,436.414 1016.396,437.998 1023.045,439.583 1029.693,440.463 1036.341,441.343 1042.990,440.727 1049.638,440.111 1056.287,441.079 1062.935,442.047 1069.583,442.135 1076.232,442.223 1082.880,441.255 1089.528,440.287 1096.177,434.918 1102.825,429.548 1109.473,435.622 1116.122,441.695 1122.770,441.783 1129.419,441.871 1136.067,436.766 1142.715,431.661 1149.364,435.622 1156.012,439.583 1162.660,441.519 1169.309,443.456 1175.957,439.583 1182.605,435.710 1189.254,434.390 1195.902,433.069 1202.550,429.989 1209.199,426.908 1215.847,431.309 1222.496,435.710 1229.144,412.649 1235.792,354.027 1242.441,321.152 1249.089,288.276 1255.737,330.922 1262.386,373.568 1269.034,411.284 1275.682,455.778 1282.331,431.353 1288.979,413.705 1295.627,399.137 1302.276,384.570 1308.924,382.062 1315.573,379.553 1322.221,407.631 1328.869,415.817 1335.518,424.707 1342.166,433.597 1348.814,426.204 1355.463,418.810 1362.111,428.316 1368.759,437.822 1375.408,412.561 1382.056,395.133 1388.704,387.651 1395.353,380.169 1402.001,395.309 1408.650,419.514 1415.298,449.705 1421.946,479.192 1428.595,479.192 1435.243,479.192 1441.891,479.192 1448.540,479.192 1455.188,479.192 1461.836,479.192 1468.485,479.192 1475.133,479.192 1481.781,479.192 1488.430,479.192 1495.078,479.192 1501.727,479.192 1508.375,479.192 1515.023,479.192 1521.672,479.192 1528.320,479.192 1534.968,479.192 1541.617,479.192 1548.265,479.192 1554.913,479.192 1561.562,479.192 1568.210,479.192 1574.859,479.192 1581.507,479.192 1588.155,479.192 1594.804,479.192 1601.452,479.192 1608.100,479.192 1614.749,479.192 1621.397,479.192 1628.045,479.192 1628.045,479.896 1621.397,479.896 1614.749,479.896 1608.100,479.896 1601.452,479.896 1594.804,479.896 1588.155,479.896 1581.507,479.896 1574.859,479.896 1568.210,479.896 1561.562,479.896 1554.913,479.896 1548.265,479.896 1541.617,479.896 1534.968,479.896 1528.320,479.896 1521.672,479.896 1515.023,479.896 1508.375,479.896 1501.727,479.896 1495.078,479.896 1488.430,479.896 1481.781,479.896 1475.133,479.896 1468.485,479.896 1461.836,479.896 1455.188,479.896 1448.540,479.896 1441.891,479.896 1435.243,479.896 1428.595,479.896 1421.946,479.896 1415.298,457.627 1408.650,435.358 1402.001,431.573 1395.353,427.788 1388.704,430.429 1382.056,433.069 1375.408,440.727 1368.759,448.385 1362.111,438.879 1355.463,429.372 1348.814,436.766 1342.166,444.160 1335.518,437.910 1328.869,431.661 1322.221,428.756 1315.573,425.852 1308.924,425.764 1302.276,425.676 1295.627,433.509 1288.979,441.343 1282.331,451.201 1275.682,461.060 1269.034,442.311 1262.386,423.563 1255.737,392.228 1249.089,360.893 1242.441,380.521 1235.792,400.150 1229.144,423.211 1222.496,446.272 1215.847,444.512 1209.199,442.751 1202.550,440.551 1195.902,438.350 1189.254,442.311 1182.605,446.272 1175.957,450.145 1169.309,454.018 1162.660,452.082 1156.012,450.145 1149.364,448.825 1142.715,447.504 1136.067,449.969 1129.419,452.434 1122.770,452.346 1116.122,452.258 1109.473,446.184 1102.825,440.111 1096.177,445.480 1089.528,450.849 1082.880,451.817 1076.232,452.786 1069.583,452.698 1062.935,452.610 1056.287,451.641 1049.638,450.673 1042.990,451.289 1036.341,451.905 1029.693,451.025 1023.045,450.145 1016.396,451.201 1009.748,452.258 1003.100,451.289 996.451,450.321 989.803,444.160 983.155,437.998 976.506,443.720 969.858,449.441 963.210,450.673 956.561,451.905 949.913,450.673 943.264,449.441 936.616,449.441 929.968,449.441 923.319,450.761 916.671,452.082 910.023,451.641 903.374,451.201 896.726,452.170 890.078,453.138 883.429,453.138 876.781,453.138 870.133,451.641 863.484,450.145 856.836,448.561 850.187,446.976 843.539,448.825 836.891,450.673 830.242,448.649 823.594,446.624 816.946,449.001 810.297,451.377 803.649,448.913 797.001,446.448 790.352,446.096 783.704,445.744 777.056,448.121 770.407,450.497 763.759,447.769 757.110,445.040 750.462,443.103 743.814,441.167 737.165,447.240 730.517,453.314 723.869,452.082 717.220,450.849 710.572,448.297 703.924,445.744 697.275,446.360 690.627,446.976 683.979,448.913 677.330,450.849 670.682,451.993 664.033,453.138 657.385,451.201 650.737,449.265 644.088,449.617 637.440,449.969 630.792,441.079 624.143,432.189 617.495,441.871 610.847,451.553 604.198,452.522 597.550,453.490 590.901,452.786 584.253,452.082 577.605,450.057 570.956,448.033 564.308,450.057 557.660,452.082 551.011,452.962 544.363,453.842 537.715,453.402 531.066,452.962 524.418,452.874 517.770,452.786 511.121,441.783 504.473,430.781 497.824,438.967 491.176,447.152 484.528,447.240 477.879,447.328 471.231,442.663 464.583,437.998 457.934,444.248 451.286,450.497 444.638,450.937 437.989,451.377 431.341,451.113 424.693,450.849 418.044,449.441 411.396,448.033 404.747,450.321 398.099,452.610 391.451,441.783 384.802,430.957 378.154,441.519 371.506,452.082 364.857,447.152 358.209,442.223 351.561,446.800 344.912,451.377 338.264,326.389 331.616,201.401 324.967,189.166 318.319,176.931 311.670,176.843 305.022,176.755 298.374,177.019 291.725,177.283 285.077,177.899 278.429,178.515 271.780,175.347 265.132,172.178 258.484,173.586 251.835,174.995 245.187,172.266 238.539,169.537 231.890,312.658 225.242,455.778 218.593,326.829 211.945,197.880 205.297,336.951 198.648,476.023 "/>
</g>
</g><g id="ID000006" >
  <g transform="translate(1022.107,517.791)">
    <g transform="rotate(-0.0)">
      <text x="0.000" y="0.000" font-family="Helvetica" text-anchor="middle" font-size="15pt" font-style="oblique" fill="#142b8c" >Time Duration (minutes)</text>
    </g>
  </g>
</g>
<g id="ID000007" >
  <g transform="translate(148.409,261.955)">
    <g transform="rotate(-90.0)">
      <text x="0.000" y="0.000" font-family="Helvetica" text-anchor="middle" font-size="15pt" font-style="oblique" fill="#142b8c" >Watt</text>
    </g>
  </g>
</g>
<g id="ID000008" >
  <g transform="translate(1023.045,29.726)">
    <g transform="rotate(-0.0)">
      <text x="0.000" y="0.000" font-family="Helvetica" text-anchor="middle" font-size="19pt" font-style="oblique" fill="#142b8c" >tumblerDryer</text>
    </g>
  </g>
</g>
<g id="ID000009" >
</g>
<g id="ID000010" >
</g>
    </g>
    <g>
      <polyline fill="none" stroke="#000000" stroke-width="0.5pt" stroke-dasharray="none" points="192.000,480.600 192.000,463.979 "/>
      <polyline fill="none" stroke="#000000" stroke-width="0.5pt" stroke-dasharray="none" points="225.242,480.600 225.242,463.979 "/>
      <polyline fill="none" stroke="#000000" stroke-width="0.5pt" stroke-dasharray="none" points="258.484,480.600 258.484,463.979 "/>
      <polyline fill="none" stroke="#000000" stroke-width="0.5pt" stroke-dasharray="none" points="291.725,480.600 291.725,463.979 "/>
      <polyline fill="none" stroke="#000000" stroke-width="0.5pt" stroke-dasharray="none" points="324.967,480.600 324.967,463.979 "/>
      <polyline fill="none" stroke="#000000" stroke-width="0.5pt" stroke-dasharray="none" points="358.209,480.600 358.209,463.979 "/>
      <polyline fill="none" stroke="#000000" stroke-width="0.5pt" stroke-dasharray="none" points="391.451,480.600 391.451,463.979 "/>
      <polyline fill="none" stroke="#000000" stroke-width="0.5pt" stroke-dasharray="none" points="424.693,480.600 424.693,463.979 "/>
      <polyline fill="none" stroke="#000000" stroke-width="0.5pt" stroke-dasharray="none" points="457.934,480.600 457.934,463.979 "/>
      <polyline fill="none" stroke="#000000" stroke-width="0.5pt" stroke-dasharray="none" points="491.176,480.600 491.176,463.979 "/>
      <polyline fill="none" stroke="#000000" stroke-width="0.5pt" stroke-dasharray="none" points="524.418,480.600 524.418,463.979 "/>
      <polyline fill="none" stroke="#000000" stroke-width="0.5pt" stroke-dasharray="none" points="557.660,480.600 557.660,463.979 "/>
      <polyline fill="none" stroke="#000000" stroke-width="0.5pt" stroke-dasharray="none" points="590.901,480.600 590.901,463.979 "/>
      <polyline fill="none" stroke="#000000" stroke-width="0.5pt" stroke-dasharray="none" points="624.143,480.600 624.143,463.979 "/>
      <polyline fill="none" stroke="#000000" stroke-width="0.5pt" stroke-dasharray="none" points="657.385,480.600 657.385,463.979 "/>
      <polyline fill="none" stroke="#000000" stroke-width="0.5pt" stroke-dasharray="none" points="690.627,480.600 690.627,463.979 "/>
      <polyline fill="none" stroke="#000000" stroke-width="0.5pt" stroke-dasharray="none" points="723.869,480.600 723.869,463.979 "/>
      <polyline fill="none" stroke="#000000" stroke-width="0.5pt" stroke-dasharray="none" points="757.110,480.600 757.110,463.979 "/>
      <polyline fill="none" stroke="#000000" stroke-width="0.5pt" stroke-dasharray="none" points="790.352,480.600 790.352,463.979 "/>
      <polyline fill="none" stroke="#000000" stroke-width="0.5pt" stroke-dasharray="none" points="823.594,480.600 823.594,463.979 "/>
      <polyline fill="none" stroke="#000000" stroke-width="0.5pt" stroke-dasharray="none" points="856.836,480.600 856.836,463.979 "/>
      <polyline fill="none" stroke="#000000" stroke-width="0.5pt" stroke-dasharray="none" points="890.078,480.600 890.078,463.979 "/>
      <polyline fill="none" stroke="#000000" stroke-width="0.5pt" stroke-dasharray="none" points="923.319,480.600 923.319,463.979 "/>
      <polyline fill="none" stroke="#000000" stroke-width="0.5pt" stroke-dasharray="none" points="956.561,480.600 956.561,463.979 "/>
      <polyline fill="none" stroke="#000000" stroke-width="0.5pt" stroke-dasharray="none" points="989.803,480.600 989.803,463.979 "/>
      <polyline fill="none" stroke="#000000" stroke-width="0.5pt" stroke-dasharray="none" points="1023.045,480.600 1023.045,463.979 "/>
      <polyline fill="none" stroke="#000000" stroke-width="0.5pt" stroke-dasharray="none" points="1056.287,480.600 1056.287,463.979 "/>
      <polyline fill="none" stroke="#000000" stroke-width="0.5pt" stroke-dasharray="none" points="1089.528,480.600 1089.528,463.979 "/>
      <polyline fill="none" stroke="#000000" stroke-width="0.5pt" stroke-dasharray="none" points="1122.770,480.600 1122.770,463.979 "/>
      <polyline fill="none" stroke="#000000" stroke-width="0.5pt" stroke-dasharray="none" points="1156.012,480.600 1156.012,463.979 "/>
      <polyline fill="none" stroke="#000000" stroke-width="0.5pt" stroke-dasharray="none" points="1189.254,480.600 1189.254,463.979 "/>
      <polyline fill="none" stroke="#000000" stroke-width="0.5pt" stroke-dasharray="none" points="1222.496,480.600 1222.496,463.979 "/>
      <polyline fill="none" stroke="#000000" stroke-width="0.5pt" stroke-dasharray="none" points="1255.737,480.600 1255.737,463.979 "/>
      <polyline fill="none" stroke="#000000" stroke-width="0.5pt" stroke-dasharray="none" points="1288.979,480.600 1288.979,463.979 "/>
      <polyline fill="none" stroke="#000000" stroke-width="0.5pt" stroke-dasharray="none" points="1322.221,480.600 1322.221,463.979 "/>
      <polyline fill="none" stroke="#000000" stroke-width="0.5pt" stroke-dasharray="none" points="1355.463,480.600 1355.463,463.979 "/>
      <polyline fill="none" stroke="#000000" stroke-width="0.5pt" stroke-dasharray="none" points="1388.704,480.600 1388.704,463.979 "/>
      <polyline fill="none" stroke="#000000" stroke-width="0.5pt" stroke-dasharray="none" points="1421.946,480.600 1421.946,463.979 "/>
      <polyline fill="none" stroke="#000000" stroke-width="0.5pt" stroke-dasharray="none" points="1455.188,480.600 1455.188,463.979 "/>
      <polyline fill="none" stroke="#000000" stroke-width="0.5pt" stroke-dasharray="none" points="1488.430,480.600 1488.430,463.979 "/>
      <polyline fill="none" stroke="#000000" stroke-width="0.5pt" stroke-dasharray="none" points="1521.672,480.600 1521.672,463.979 "/>
      <polyline fill="none" stroke="#000000" stroke-width="0.5pt" stroke-dasharray="none" points="1554.913,480.600 1554.913,463.979 "/>
      <polyline fill="none" stroke="#000000" stroke-width="0.5pt" stroke-dasharray="none" points="1588.155,480.600 1588.155,463.979 "/>
      <polyline fill="none" stroke="#000000" stroke-width="0.5pt" stroke-dasharray="none" points="1621.397,480.600 1621.397,463.979 "/>
      <polyline fill="none" stroke="#000000" stroke-width="0.5pt" stroke-dasharray="none" points="192.000,480.600 1854.090,480.600 "/>
  <g transform="translate(192.000,501.571)">
    <g transform="rotate(-0.0)">
      <text x="0.000" y="0.000" font-family="Helvetica" text-anchor="middle" font-size="10pt" font-style="oblique" fill="#000000" >0</text>
    </g>
  </g>
  <g transform="translate(225.242,501.571)">
    <g transform="rotate(-0.0)">
      <text x="0.000" y="0.000" font-family="Helvetica" text-anchor="middle" font-size="10pt" font-style="oblique" fill="#000000" >5</text>
    </g>
  </g>
  <g transform="translate(258.484,501.571)">
    <g transform="rotate(-0.0)">
      <text x="0.000" y="0.000" font-family="Helvetica" text-anchor="middle" font-size="10pt" font-style="oblique" fill="#000000" >10</text>
    </g>
  </g>
  <g transform="translate(291.725,501.571)">
    <g transform="rotate(-0.0)">
      <text x="0.000" y="0.000" font-family="Helvetica" text-anchor="middle" font-size="10pt" font-style="oblique" fill="#000000" >15</text>
    </g>
  </g>
  <g transform="translate(324.967,501.571)">
    <g transform="rotate(-0.0)">
      <text x="0.000" y="0.000" font-family="Helvetica" text-anchor="middle" font-size="10pt" font-style="oblique" fill="#000000" >20</text>
    </g>
  </g>
  <g transform="translate(358.209,501.571)">
    <g transform="rotate(-0.0)">
      <text x="0.000" y="0.000" font-family="Helvetica" text-anchor="middle" font-size="10pt" font-style="oblique" fill="#000000" >25</text>
    </g>
  </g>
  <g transform="translate(391.451,501.571)">
    <g transform="rotate(-0.0)">
      <text x="0.000" y="0.000" font-family="Helvetica" text-anchor="middle" font-size="10pt" font-style="oblique" fill="#000000" >30</text>
    </g>
  </g>
  <g transform="translate(424.693,501.571)">
    <g transform="rotate(-0.0)">
      <text x="0.000" y="0.000" font-family="Helvetica" text-anchor="middle" font-size="10pt" font-style="oblique" fill="#000000" >35</text>
    </g>
  </g>
  <g transform="translate(457.934,501.571)">
    <g transform="rotate(-0.0)">
      <text x="0.000" y="0.000" font-family="Helvetica" text-anchor="middle" font-size="10pt" font-style="oblique" fill="#000000" >40</text>
    </g>
  </g>
  <g transform="translate(491.176,501.571)">
    <g transform="rotate(-0.0)">
      <text x="0.000" y="0.000" font-family="Helvetica" text-anchor="middle" font-size="10pt" font-style="oblique" fill="#000000" >45</text>
    </g>
  </g>
  <g transform="translate(524.418,501.571)">
    <g transform="rotate(-0.0)">
      <text x="0.000" y="0.000" font-family="Helvetica" text-anchor="middle" font-size="10pt" font-style="oblique" fill="#000000" >50</text>
    </g>
  </g>
  <g transform="translate(557.660,501.571)">
    <g transform="rotate(-0.0)">
      <text x="0.000" y="0.000" font-family="Helvetica" text-anchor="middle" font-size="10pt" font-style="oblique" fill="#000000" >55</text>
    </g>
  </g>
  <g transform="translate(590.901,501.571)">
    <g transform="rotate(-0.0)">
      <text x="0.000" y="0.000" font-family="Helvetica" text-anchor="middle" font-size="10pt" font-style="oblique" fill="#000000" >60</text>
    </g>
  </g>
  <g transform="translate(624.143,501.571)">
    <g transform="rotate(-0.0)">
      <text x="0.000" y="0.000" font-family="Helvetica" text-anchor="middle" font-size="10pt" font-style="oblique" fill="#000000" >65</text>
    </g>
  </g>
  <g transform="translate(657.385,501.571)">
    <g transform="rotate(-0.0)">
      <text x="0.000" y="0.000" font-family="Helvetica" text-anchor="middle" font-size="10pt" font-style="oblique" fill="#000000" >70</text>
    </g>
  </g>
  <g transform="translate(690.627,501.571)">
    <g transform="rotate(-0.0)">
      <text x="0.000" y="0.000" font-family="Helvetica" text-anchor="middle" font-size="10pt" font-style="oblique" fill="#000000" >75</text>
    </g>
  </g>
  <g transform="translate(723.869,501.571)">
    <g transform="rotate(-0.0)">
      <text x="0.000" y="0.000" font-family="Helvetica" text-anchor="middle" font-size="10pt" font-style="oblique" fill="#000000" >80</text>
    </g>
  </g>
  <g transform="translate(757.110,501.571)">
    <g transform="rotate(-0.0)">
      <text x="0.000" y="0.000" font-family="Helvetica" text-anchor="middle" font-size="10pt" font-style="oblique" fill="#000000" >85</text>
    </g>
  </g>
  <g transform="translate(790.352,501.571)">
    <g transform="rotate(-0.0)">
      <text x="0.000" y="0.000" font-family="Helvetica" text-anchor="middle" font-size="10pt" font-style="oblique" fill="#000000" >90</text>
    </g>
  </g>
  <g transform="translate(823.594,501.571)">
    <g transform="rotate(-0.0)">
      <text x="0.000" y="0.000" font-family="Helvetica" text-anchor="middle" font-size="10pt" font-style="oblique" fill="#000000" >95</text>
    </g>
  </g>
  <g transform="translate(856.836,501.571)">
    <g transform="rotate(-0.0)">
      <text x="0.000" y="0.000" font-family="Helvetica" text-anchor="middle" font-size="10pt" font-style="oblique" fill="#000000" >100</text>
    </g>
  </g>
  <g transform="translate(890.078,501.571)">
    <g transform="rotate(-0.0)">
      <text x="0.000" y="0.000" font-family="Helvetica" text-anchor="middle" font-size="10pt" font-style="oblique" fill="#000000" >105</text>
    </g>
  </g>
  <g transform="translate(923.319,501.571)">
    <g transform="rotate(-0.0)">
      <text x="0.000" y="0.000" font-family="Helvetica" text-anchor="middle" font-size="10pt" font-style="oblique" fill="#000000" >110</text>
    </g>
  </g>
  <g transform="translate(956.561,501.571)">
    <g transform="rotate(-0.0)">
      <text x="0.000" y="0.000" font-family="Helvetica" text-anchor="middle" font-size="10pt" font-style="oblique" fill="#000000" >115</text>
    </g>
  </g>
  <g transform="translate(989.803,501.571)">
    <g transform="rotate(-0.0)">
      <text x="0.000" y="0.000" font-family="Helvetica" text-anchor="middle" font-size="10pt" font-style="oblique" fill="#000000" >120</text>
    </g>
  </g>
  <g transform="translate(1023.045,501.571)">
    <g transform="rotate(-0.0)">
      <text x="0.000" y="0.000" font-family="Helvetica" text-anchor="middle" font-size="10pt" font-style="oblique" fill="#000000" >125</text>
    </g>
  </g>
  <g transform="translate(1056.287,501.571)">
    <g transform="rotate(-0.0)">
      <text x="0.000" y="0.000" font-family="Helvetica" text-anchor="middle" font-size="10pt" font-style="oblique" fill="#000000" >130</text>
    </g>
  </g>
  <g transform="translate(1089.528,501.571)">
    <g transform="rotate(-0.0)">
      <text x="0.000" y="0.000" font-family="Helvetica" text-anchor="middle" font-size="10pt" font-style="oblique" fill="#000000" >135</text>
    </g>
  </g>
  <g transform="translate(1122.770,501.571)">
    <g transform="rotate(-0.0)">
      <text x="0.000" y="0.000" font-family="Helvetica" text-anchor="middle" font-size="10pt" font-style="oblique" fill="#000000" >140</text>
    </g>
  </g>
  <g transform="translate(1156.012,501.571)">
    <g transform="rotate(-0.0)">
      <text x="0.000" y="0.000" font-family="Helvetica" text-anchor="middle" font-size="10pt" font-style="oblique" fill="#000000" >145</text>
    </g>
  </g>
  <g transform="translate(1189.254,501.571)">
    <g transform="rotate(-0.0)">
      <text x="0.000" y="0.000" font-family="Helvetica" text-anchor="middle" font-size="10pt" font-style="oblique" fill="#000000" >150</text>
    </g>
  </g>
  <g transform="translate(1222.496,501.571)">
    <g transform="rotate(-0.0)">
      <text x="0.000" y="0.000" font-family="Helvetica" text-anchor="middle" font-size="10pt" font-style="oblique" fill="#000000" >155</text>
    </g>
  </g>
  <g transform="translate(1255.737,501.571)">
    <g transform="rotate(-0.0)">
      <text x="0.000" y="0.000" font-family="Helvetica" text-anchor="middle" font-size="10pt" font-style="oblique" fill="#000000" >160</text>
    </g>
  </g>
  <g transform="translate(1288.979,501.571)">
    <g transform="rotate(-0.0)">
      <text x="0.000" y="0.000" font-family="Helvetica" text-anchor="middle" font-size="10pt" font-style="oblique" fill="#000000" >165</text>
    </g>
  </g>
  <g transform="translate(1322.221,501.571)">
    <g transform="rotate(-0.0)">
      <text x="0.000" y="0.000" font-family="Helvetica" text-anchor="middle" font-size="10pt" font-style="oblique" fill="#000000" >170</text>
    </g>
  </g>
  <g transform="translate(1355.463,501.571)">
    <g transform="rotate(-0.0)">
      <text x="0.000" y="0.000" font-family="Helvetica" text-anchor="middle" font-size="10pt" font-style="oblique" fill="#000000" >175</text>
    </g>
  </g>
  <g transform="translate(1388.704,501.571)">
    <g transform="rotate(-0.0)">
      <text x="0.000" y="0.000" font-family="Helvetica" text-anchor="middle" font-size="10pt" font-style="oblique" fill="#000000" >180</text>
    </g>
  </g>
  <g transform="translate(1421.946,501.571)">
    <g transform="rotate(-0.0)">
      <text x="0.000" y="0.000" font-family="Helvetica" text-anchor="middle" font-size="10pt" font-style="oblique" fill="#000000" >185</text>
    </g>
  </g>
  <g transform="translate(1455.188,501.571)">
    <g transform="rotate(-0.0)">
      <text x="0.000" y="0.000" font-family="Helvetica" text-anchor="middle" font-size="10pt" font-style="oblique" fill="#000000" >190</text>
    </g>
  </g>
  <g transform="translate(1488.430,501.571)">
    <g transform="rotate(-0.0)">
      <text x="0.000" y="0.000" font-family="Helvetica" text-anchor="middle" font-size="10pt" font-style="oblique" fill="#000000" >195</text>
    </g>
  </g>
  <g transform="translate(1521.672,501.571)">
    <g transform="rotate(-0.0)">
      <text x="0.000" y="0.000" font-family="Helvetica" text-anchor="middle" font-size="10pt" font-style="oblique" fill="#000000" >200</text>
    </g>
  </g>
  <g transform="translate(1554.913,501.571)">
    <g transform="rotate(-0.0)">
      <text x="0.000" y="0.000" font-family="Helvetica" text-anchor="middle" font-size="10pt" font-style="oblique" fill="#000000" >205</text>
    </g>
  </g>
  <g transform="translate(1588.155,501.571)">
    <g transform="rotate(-0.0)">
      <text x="0.000" y="0.000" font-family="Helvetica" text-anchor="middle" font-size="10pt" font-style="oblique" fill="#000000" >210</text>
    </g>
  </g>
  <g transform="translate(1621.397,501.571)">
    <g transform="rotate(-0.0)">
      <text x="0.000" y="0.000" font-family="Helvetica" text-anchor="middle" font-size="10pt" font-style="oblique" fill="#000000" >215</text>
    </g>
  </g>
      <polyline fill="none" stroke="#000000" stroke-width="0.5pt" stroke-dasharray="none" points="192.000,480.600 208.621,480.600 "/>
      <polyline fill="none" stroke="#000000" stroke-width="0.5pt" stroke-dasharray="none" points="192.000,392.580 208.621,392.580 "/>
      <polyline fill="none" stroke="#000000" stroke-width="0.5pt" stroke-dasharray="none" points="192.000,304.560 208.621,304.560 "/>
      <polyline fill="none" stroke="#000000" stroke-width="0.5pt" stroke-dasharray="none" points="192.000,216.540 208.621,216.540 "/>
      <polyline fill="none" stroke="#000000" stroke-width="0.5pt" stroke-dasharray="none" points="192.000,128.520 208.621,128.520 "/>
      <polyline fill="none" stroke="#000000" stroke-width="0.5pt" stroke-dasharray="none" points="192.000,40.500 208.621,40.500 "/>
      <polyline fill="none" stroke="#000000" stroke-width="0.5pt" stroke-dasharray="none" points="192.000,480.600 192.000,40.500 "/>
  <g transform="translate(158.758,485.241)">
    <g transform="rotate(-0.0)">
      <text x="0.000" y="0.000" font-family="Helvetica" text-anchor="end" font-size="10pt" font-style="oblique" fill="#000000" >0</text>
    </g>
  </g>
  <g transform="translate(158.758,397.221)">
    <g transform="rotate(-0.0)">
      <text x="0.000" y="0.000" font-family="Helvetica" text-anchor="end" font-size="10pt" font-style="oblique" fill="#000000" >500</text>
    </g>
  </g>
  <g transform="translate(158.758,309.201)">
    <g transform="rotate(-0.0)">
      <text x="0.000" y="0.000" font-family="Helvetica" text-anchor="end" font-size="10pt" font-style="oblique" fill="#000000" >1000</text>
    </g>
  </g>
  <g transform="translate(158.758,221.181)">
    <g transform="rotate(-0.0)">
      <text x="0.000" y="0.000" font-family="Helvetica" text-anchor="end" font-size="10pt" font-style="oblique" fill="#000000" >1500</text>
    </g>
  </g>
  <g transform="translate(158.758,133.161)">
    <g transform="rotate(-0.0)">
      <text x="0.000" y="0.000" font-family="Helvetica" text-anchor="end" font-size="10pt" font-style="oblique" fill="#000000" >2000</text>
    </g>
  </g>
  <g transform="translate(158.758,45.141)">
    <g transform="rotate(-0.0)">
      <text x="0.000" y="0.000" font-family="Helvetica" text-anchor="end" font-size="10pt" font-style="oblique" fill="#000000" >2500</text>
    </g>
  </g>
      <polyline fill="none" stroke="#000000" stroke-width="0.5pt" stroke-dasharray="none" points="192.000,480.600 192.000,476.199 "/>
      <polyline fill="none" stroke="#000000" stroke-width="0.5pt" stroke-dasharray="none" points="192.000,480.600 192.000,476.199 "/>
      <polyline fill="none" stroke="#000000" stroke-width="0.5pt" stroke-dasharray="none" points="192.000,480.600 192.000,476.199 "/>
      <polyline fill="none" stroke="#000000" stroke-width="0.5pt" stroke-dasharray="none" points="192.000,480.600 192.000,480.600 "/>
    </g>
  </g>
  <g id ="ID000011">
  <clipPath id="ID000012">
    <rect x="1632.065" y="50.625" width="183.750" height="45.000"/>
  </clipPath>
      <polygon fill="#ffffff" fill-opacity="1.00" stroke="none" stroke-width="0.5pt" stroke-opacity="1.00" stroke-dasharray="none" points="1632.065,95.625 1815.815,95.625 1815.815,50.625 1632.065,50.625 "/>
      <polygon fill="#ffffff" fill-opacity="1.00" stroke="none" stroke-width="0.5pt" stroke-opacity="1.00" stroke-dasharray="none" points="1632.065,50.625 1815.815,50.625 1815.815,50.625 1632.065,50.625 "/>
      <polygon fill="#ffffff" fill-opacity="1.00" stroke="none" stroke-width="0.5pt" stroke-opacity="1.00" stroke-dasharray="none" points="1632.065,95.625 1632.065,95.625 1632.065,50.625 1632.065,50.625 "/>
    <g>
<g id="ID000013" >
  <g transform="translate(1681.284,68.344)">
    <g transform="rotate(-0.0)">
      <text x="0.000" y="0.000" font-family="Helvetica" text-anchor="start" font-size="11pt" font-style="oblique" fill="#000000" >Mean Power Profile</text>
    </g>
  </g>
</g>
<g id="ID000014" clip-path="url(#ID000012)" >
<g id="ID000015" clip-path="url(#ID000012)" >
      <polygon fill="#3366ff" fill-opacity="1.00" stroke="#000000" stroke-width="0.5pt" stroke-opacity="0.00" stroke-dasharray="none" points="1639.565,70.531 1639.565,55.406 1677.065,55.406 1677.065,70.531 1639.565,70.531 "/>
</g>
</g><g id="ID000016" >
  <g transform="translate(1681.284,89.906)">
    <g transform="rotate(-0.0)">
      <text x="0.000" y="0.000" font-family="Helvetica" text-anchor="start" font-size="11pt" font-style="oblique" fill="#000000" >Peak Power Profile</text>
    </g>
  </g>
</g>
<g id="ID000017" clip-path="url(#ID000012)" >
<g id="ID000018" clip-path="url(#ID000012)" >
      <polygon fill="#ff0000" fill-opacity="1.00" stroke="#000000" stroke-width="0.5pt" stroke-opacity="0.00" stroke-dasharray="none" points="1639.565,90.844 1639.565,75.719 1677.065,75.719 1677.065,90.844 1639.565,90.844 "/>
</g>
</g><g id="ID000019" >
</g>
<g id="ID000020" >
</g>
<g id="ID000021" >
</g>
    </g>
    <g>
      <polyline fill="none" stroke="#000000" stroke-width="0.5pt" stroke-dasharray="none" points="1632.065,95.625 1815.815,95.625 "/>
      <polyline fill="none" stroke="#000000" stroke-width="0.5pt" stroke-dasharray="none" points="1632.065,50.625 1815.815,50.625 "/>
      <polyline fill="none" stroke="#000000" stroke-width="0.5pt" stroke-dasharray="none" points="1632.065,95.625 1632.065,50.625 "/>
      <polyline fill="none" stroke="#000000" stroke-width="0.5pt" stroke-dasharray="none" points="1815.815,95.625 1815.815,50.625 "/>
      <polyline fill="none" stroke="#000000" stroke-width="0.5pt" stroke-dasharray="none" points="1632.065,95.625 1632.065,95.175 "/>
      <polyline fill="none" stroke="#000000" stroke-width="0.5pt" stroke-dasharray="none" points="1632.065,95.625 1632.065,95.625 "/>
    </g>
  </g>
  </g>
</svg>
