<?xml version="1.0" encoding="utf-8" standalone="no"?><!DOCTYPE svg PUBLIC "-//W3C//DTD SVG 1.1//EN" "http://www.w3.org/Graphics/SVG/1.1/DTD/svg11.dtd">
<svg preserveAspectRatio="xMinYMin meet" width="100%" height="100%" viewBox="0 0 1920.000 540.000"  version="1.1" xmlns="http://www.w3.org/2000/svg" xmlns:xlink="http://www.w3.org/1999/xlink">
  <desc>Matlab Figure Converted by PLOT2SVG written by Juerg Schwizer</desc>
  <g id="topgroup">
  <rect x="0" y="0" width="1920.000" height="540.000" fill="#ffffff" stroke="none" />
  <g id ="ID000000">
  <clipPath id="ID000001">
    <rect x="192.000" y="40.500" width="1662.090" height="440.100"/>
  </clipPath>
      <polygon fill="#ffffff" fill-opacity="1.00" stroke="none" stroke-width="0.5pt" stroke-opacity="1.00" stroke-dasharray="none" points="192.000,480.600 1854.090,480.600 1854.090,40.500 192.000,40.500 "/>
      <polygon fill="#ffffff" fill-opacity="1.00" stroke="none" stroke-width="0.5pt" stroke-opacity="1.00" stroke-dasharray="none" points="192.000,40.500 1854.090,40.500 1854.090,40.500 192.000,40.500 "/>
      <polygon fill="#ffffff" fill-opacity="1.00" stroke="none" stroke-width="0.5pt" stroke-opacity="1.00" stroke-dasharray="none" points="192.000,480.600 192.000,480.600 192.000,40.500 192.000,40.500 "/>
      <polyline fill="none" stroke="#000000" stroke-width="0.5pt" stroke-dasharray="2.0,2.0" points="192.000,480.600 192.000,40.500 "/>
      <polyline fill="none" stroke="#000000" stroke-width="0.5pt" stroke-dasharray="2.0,2.0" points="284.338,480.600 284.338,40.500 "/>
      <polyline fill="none" stroke="#000000" stroke-width="0.5pt" stroke-dasharray="2.0,2.0" points="376.677,480.600 376.677,40.500 "/>
      <polyline fill="none" stroke="#000000" stroke-width="0.5pt" stroke-dasharray="2.0,2.0" points="469.015,480.600 469.015,40.500 "/>
      <polyline fill="none" stroke="#000000" stroke-width="0.5pt" stroke-dasharray="2.0,2.0" points="561.353,480.600 561.353,40.500 "/>
      <polyline fill="none" stroke="#000000" stroke-width="0.5pt" stroke-dasharray="2.0,2.0" points="653.692,480.600 653.692,40.500 "/>
      <polyline fill="none" stroke="#000000" stroke-width="0.5pt" stroke-dasharray="2.0,2.0" points="746.030,480.600 746.030,40.500 "/>
      <polyline fill="none" stroke="#000000" stroke-width="0.5pt" stroke-dasharray="2.0,2.0" points="838.368,480.600 838.368,40.500 "/>
      <polyline fill="none" stroke="#000000" stroke-width="0.5pt" stroke-dasharray="2.0,2.0" points="930.706,480.600 930.706,40.500 "/>
      <polyline fill="none" stroke="#000000" stroke-width="0.5pt" stroke-dasharray="2.0,2.0" points="1023.045,480.600 1023.045,40.500 "/>
      <polyline fill="none" stroke="#000000" stroke-width="0.5pt" stroke-dasharray="2.0,2.0" points="1115.383,480.600 1115.383,40.500 "/>
      <polyline fill="none" stroke="#000000" stroke-width="0.5pt" stroke-dasharray="2.0,2.0" points="1207.721,480.600 1207.721,40.500 "/>
      <polyline fill="none" stroke="#000000" stroke-width="0.5pt" stroke-dasharray="2.0,2.0" points="1300.060,480.600 1300.060,40.500 "/>
      <polyline fill="none" stroke="#000000" stroke-width="0.5pt" stroke-dasharray="2.0,2.0" points="1392.398,480.600 1392.398,40.500 "/>
      <polyline fill="none" stroke="#000000" stroke-width="0.5pt" stroke-dasharray="2.0,2.0" points="1484.736,480.600 1484.736,40.500 "/>
      <polyline fill="none" stroke="#000000" stroke-width="0.5pt" stroke-dasharray="2.0,2.0" points="1577.075,480.600 1577.075,40.500 "/>
      <polyline fill="none" stroke="#000000" stroke-width="0.5pt" stroke-dasharray="2.0,2.0" points="1669.413,480.600 1669.413,40.500 "/>
      <polyline fill="none" stroke="#000000" stroke-width="0.5pt" stroke-dasharray="2.0,2.0" points="1761.751,480.600 1761.751,40.500 "/>
      <polyline fill="none" stroke="#000000" stroke-width="0.5pt" stroke-dasharray="2.0,2.0" points="192.000,480.600 1854.090,480.600 "/>
      <polyline fill="none" stroke="#000000" stroke-width="0.5pt" stroke-dasharray="2.0,2.0" points="192.000,425.588 1854.090,425.588 "/>
      <polyline fill="none" stroke="#000000" stroke-width="0.5pt" stroke-dasharray="2.0,2.0" points="192.000,370.575 1854.090,370.575 "/>
      <polyline fill="none" stroke="#000000" stroke-width="0.5pt" stroke-dasharray="2.0,2.0" points="192.000,315.563 1854.090,315.563 "/>
      <polyline fill="none" stroke="#000000" stroke-width="0.5pt" stroke-dasharray="2.0,2.0" points="192.000,260.550 1854.090,260.550 "/>
      <polyline fill="none" stroke="#000000" stroke-width="0.5pt" stroke-dasharray="2.0,2.0" points="192.000,205.538 1854.090,205.538 "/>
      <polyline fill="none" stroke="#000000" stroke-width="0.5pt" stroke-dasharray="2.0,2.0" points="192.000,150.525 1854.090,150.525 "/>
      <polyline fill="none" stroke="#000000" stroke-width="0.5pt" stroke-dasharray="2.0,2.0" points="192.000,95.513 1854.090,95.513 "/>
      <polyline fill="none" stroke="#000000" stroke-width="0.5pt" stroke-dasharray="2.0,2.0" points="192.000,40.500 1854.090,40.500 "/>
      <polyline fill="none" stroke="#000000" stroke-width="0.5pt" stroke-dasharray="2.0,2.0" points="192.000,40.500 192.000,40.500 "/>
      <polyline fill="none" stroke="#000000" stroke-width="0.5pt" stroke-dasharray="2.0,2.0" points="284.338,40.500 284.338,40.500 "/>
      <polyline fill="none" stroke="#000000" stroke-width="0.5pt" stroke-dasharray="2.0,2.0" points="376.677,40.500 376.677,40.500 "/>
      <polyline fill="none" stroke="#000000" stroke-width="0.5pt" stroke-dasharray="2.0,2.0" points="469.015,40.500 469.015,40.500 "/>
      <polyline fill="none" stroke="#000000" stroke-width="0.5pt" stroke-dasharray="2.0,2.0" points="561.353,40.500 561.353,40.500 "/>
      <polyline fill="none" stroke="#000000" stroke-width="0.5pt" stroke-dasharray="2.0,2.0" points="653.692,40.500 653.692,40.500 "/>
      <polyline fill="none" stroke="#000000" stroke-width="0.5pt" stroke-dasharray="2.0,2.0" points="746.030,40.500 746.030,40.500 "/>
      <polyline fill="none" stroke="#000000" stroke-width="0.5pt" stroke-dasharray="2.0,2.0" points="838.368,40.500 838.368,40.500 "/>
      <polyline fill="none" stroke="#000000" stroke-width="0.5pt" stroke-dasharray="2.0,2.0" points="930.706,40.500 930.706,40.500 "/>
      <polyline fill="none" stroke="#000000" stroke-width="0.5pt" stroke-dasharray="2.0,2.0" points="1023.045,40.500 1023.045,40.500 "/>
      <polyline fill="none" stroke="#000000" stroke-width="0.5pt" stroke-dasharray="2.0,2.0" points="1115.383,40.500 1115.383,40.500 "/>
      <polyline fill="none" stroke="#000000" stroke-width="0.5pt" stroke-dasharray="2.0,2.0" points="1207.721,40.500 1207.721,40.500 "/>
      <polyline fill="none" stroke="#000000" stroke-width="0.5pt" stroke-dasharray="2.0,2.0" points="1300.060,40.500 1300.060,40.500 "/>
      <polyline fill="none" stroke="#000000" stroke-width="0.5pt" stroke-dasharray="2.0,2.0" points="1392.398,40.500 1392.398,40.500 "/>
      <polyline fill="none" stroke="#000000" stroke-width="0.5pt" stroke-dasharray="2.0,2.0" points="1484.736,40.500 1484.736,40.500 "/>
      <polyline fill="none" stroke="#000000" stroke-width="0.5pt" stroke-dasharray="2.0,2.0" points="1577.075,40.500 1577.075,40.500 "/>
      <polyline fill="none" stroke="#000000" stroke-width="0.5pt" stroke-dasharray="2.0,2.0" points="1669.413,40.500 1669.413,40.500 "/>
      <polyline fill="none" stroke="#000000" stroke-width="0.5pt" stroke-dasharray="2.0,2.0" points="1761.751,40.500 1761.751,40.500 "/>
      <polyline fill="none" stroke="#000000" stroke-width="0.5pt" stroke-dasharray="2.0,2.0" points="192.000,480.600 192.000,480.600 "/>
      <polyline fill="none" stroke="#000000" stroke-width="0.5pt" stroke-dasharray="2.0,2.0" points="192.000,425.588 192.000,425.587 "/>
      <polyline fill="none" stroke="#000000" stroke-width="0.5pt" stroke-dasharray="2.0,2.0" points="192.000,370.575 192.000,370.575 "/>
      <polyline fill="none" stroke="#000000" stroke-width="0.5pt" stroke-dasharray="2.0,2.0" points="192.000,315.563 192.000,315.563 "/>
      <polyline fill="none" stroke="#000000" stroke-width="0.5pt" stroke-dasharray="2.0,2.0" points="192.000,260.550 192.000,260.550 "/>
      <polyline fill="none" stroke="#000000" stroke-width="0.5pt" stroke-dasharray="2.0,2.0" points="192.000,205.538 192.000,205.538 "/>
      <polyline fill="none" stroke="#000000" stroke-width="0.5pt" stroke-dasharray="2.0,2.0" points="192.000,150.525 192.000,150.525 "/>
      <polyline fill="none" stroke="#000000" stroke-width="0.5pt" stroke-dasharray="2.0,2.0" points="192.000,95.513 192.000,95.513 "/>
      <polyline fill="none" stroke="#000000" stroke-width="0.5pt" stroke-dasharray="2.0,2.0" points="192.000,40.500 192.000,40.500 "/>
    <g>
<g id="ID000002" clip-path="url(#ID000001)" >
<g id="ID000003" clip-path="url(#ID000001)" >
      <polygon fill="#3366ff" fill-opacity="1.00" stroke="#000000" stroke-width="0.5pt" stroke-opacity="0.00" stroke-dasharray="none" points="210.468,480.600 210.468,286.846 228.935,287.396 247.403,287.946 265.871,287.836 284.338,287.726 302.806,287.946 321.274,288.166 339.741,288.441 358.209,288.716 376.677,378.112 395.144,467.507 413.612,373.821 432.080,280.134 450.547,281.400 469.015,282.665 487.483,282.555 505.950,282.445 524.418,283.490 542.886,284.535 561.353,284.425 579.821,284.315 598.289,284.260 616.756,284.205 635.224,284.590 653.692,284.976 672.159,284.480 690.627,283.985 709.095,376.076 727.562,468.167 746.030,465.197 764.498,462.226 782.965,455.954 801.433,449.683 819.900,452.929 838.368,456.174 856.836,456.284 875.303,456.394 893.771,457.385 912.239,458.375 930.706,457.990 949.174,457.605 967.642,457.110 986.109,456.615 1004.577,458.430 1023.045,460.245 1041.512,457.715 1059.980,455.184 1078.448,458.210 1096.915,461.236 1115.383,460.851 1133.851,460.465 1152.318,455.844 1170.786,451.223 1189.254,450.838 1207.721,450.453 1226.189,453.699 1244.657,456.945 1263.124,452.159 1281.592,447.372 1300.060,445.832 1318.527,444.292 1336.995,454.524 1355.463,464.756 1373.930,460.190 1392.398,455.624 1410.866,457.055 1429.333,458.485 1447.801,459.145 1466.269,459.805 1484.736,456.339 1503.204,452.874 1521.672,451.553 1540.139,450.233 1558.607,461.786 1577.075,473.338 1595.542,458.045 1614.010,442.751 1632.478,440.331 1650.945,437.910 1669.413,439.121 1687.881,440.331 1706.348,440.936 1724.816,441.541 1743.284,457.330 1761.751,473.118 1780.219,474.274 1798.687,475.429 1817.154,475.429 1817.154,480.600 1798.687,480.600 1780.219,480.600 1761.751,480.600 1743.284,480.600 1724.816,480.600 1706.348,480.600 1687.881,480.600 1669.413,480.600 1650.945,480.600 1632.478,480.600 1614.010,480.600 1595.542,480.600 1577.075,480.600 1558.607,480.600 1540.139,480.600 1521.672,480.600 1503.204,480.600 1484.736,480.600 1466.269,480.600 1447.801,480.600 1429.333,480.600 1410.866,480.600 1392.398,480.600 1373.930,480.600 1355.463,480.600 1336.995,480.600 1318.527,480.600 1300.060,480.600 1281.592,480.600 1263.124,480.600 1244.657,480.600 1226.189,480.600 1207.721,480.600 1189.254,480.600 1170.786,480.600 1152.318,480.600 1133.851,480.600 1115.383,480.600 1096.915,480.600 1078.448,480.600 1059.980,480.600 1041.512,480.600 1023.045,480.600 1004.577,480.600 986.109,480.600 967.642,480.600 949.174,480.600 930.706,480.600 912.239,480.600 893.771,480.600 875.303,480.600 856.836,480.600 838.368,480.600 819.900,480.600 801.433,480.600 782.965,480.600 764.498,480.600 746.030,480.600 727.562,480.600 709.095,480.600 690.627,480.600 672.159,480.600 653.692,480.600 635.224,480.600 616.756,480.600 598.289,480.600 579.821,480.600 561.353,480.600 542.886,480.600 524.418,480.600 505.950,480.600 487.483,480.600 469.015,480.600 450.547,480.600 432.080,480.600 413.612,480.600 395.144,480.600 376.677,480.600 358.209,480.600 339.741,480.600 321.274,480.600 302.806,480.600 284.338,480.600 265.871,480.600 247.403,480.600 228.935,480.600 210.468,480.600 "/>
</g>
</g><g id="ID000004" clip-path="url(#ID000001)" >
<g id="ID000005" clip-path="url(#ID000001)" >
      <polygon fill="#ff0000" fill-opacity="1.00" stroke="#000000" stroke-width="0.5pt" stroke-opacity="0.00" stroke-dasharray="none" points="210.468,286.846 210.468,214.229 228.935,158.667 247.403,103.104 265.871,101.344 284.338,99.583 302.806,99.803 321.274,100.024 339.741,172.915 358.209,245.807 376.677,351.706 395.144,457.605 413.612,334.212 432.080,210.819 450.547,149.370 469.015,87.921 487.483,87.811 505.950,87.701 524.418,90.396 542.886,93.092 561.353,112.786 579.821,132.481 598.289,198.441 616.756,264.401 635.224,226.827 653.692,189.254 672.159,208.563 690.627,227.873 709.095,343.069 727.562,458.265 746.030,458.595 764.498,458.925 782.965,451.003 801.433,443.081 819.900,446.327 838.368,449.573 856.836,443.081 875.303,436.590 893.771,444.182 912.239,451.773 930.706,449.738 949.174,447.703 967.642,445.557 986.109,443.412 1004.577,446.877 1023.045,450.343 1041.512,446.162 1059.980,441.981 1078.448,448.308 1096.915,454.634 1115.383,454.249 1133.851,453.864 1152.318,449.243 1170.786,444.622 1189.254,444.237 1207.721,443.852 1226.189,443.797 1244.657,443.742 1263.124,434.004 1281.592,424.267 1300.060,422.727 1318.527,421.186 1336.995,439.671 1355.463,458.155 1373.930,450.288 1392.398,442.421 1410.866,443.852 1429.333,445.282 1447.801,449.243 1466.269,453.204 1484.736,448.088 1503.204,442.971 1521.672,440.001 1540.139,437.030 1558.607,453.534 1577.075,470.038 1595.542,444.842 1614.010,419.646 1632.478,410.624 1650.945,401.602 1669.413,401.162 1687.881,400.722 1706.348,404.628 1724.816,408.534 1743.284,439.176 1761.751,469.818 1780.219,470.973 1798.687,472.128 1817.154,472.128 1817.154,475.429 1798.687,475.429 1780.219,474.274 1761.751,473.118 1743.284,457.330 1724.816,441.541 1706.348,440.936 1687.881,440.331 1669.413,439.121 1650.945,437.910 1632.478,440.331 1614.010,442.751 1595.542,458.045 1577.075,473.338 1558.607,461.786 1540.139,450.233 1521.672,451.553 1503.204,452.874 1484.736,456.339 1466.269,459.805 1447.801,459.145 1429.333,458.485 1410.866,457.055 1392.398,455.624 1373.930,460.190 1355.463,464.756 1336.995,454.524 1318.527,444.292 1300.060,445.832 1281.592,447.372 1263.124,452.159 1244.657,456.945 1226.189,453.699 1207.721,450.453 1189.254,450.838 1170.786,451.223 1152.318,455.844 1133.851,460.465 1115.383,460.851 1096.915,461.236 1078.448,458.210 1059.980,455.184 1041.512,457.715 1023.045,460.245 1004.577,458.430 986.109,456.615 967.642,457.110 949.174,457.605 930.706,457.990 912.239,458.375 893.771,457.385 875.303,456.394 856.836,456.284 838.368,456.174 819.900,452.929 801.433,449.683 782.965,455.954 764.498,462.226 746.030,465.197 727.562,468.167 709.095,376.076 690.627,283.985 672.159,284.480 653.692,284.976 635.224,284.590 616.756,284.205 598.289,284.260 579.821,284.315 561.353,284.425 542.886,284.535 524.418,283.490 505.950,282.445 487.483,282.555 469.015,282.665 450.547,281.400 432.080,280.134 413.612,373.821 395.144,467.507 376.677,378.112 358.209,288.716 339.741,288.441 321.274,288.166 302.806,287.946 284.338,287.726 265.871,287.836 247.403,287.946 228.935,287.396 210.468,286.846 "/>
</g>
</g><g id="ID000006" >
  <g transform="translate(1022.107,517.791)">
    <g transform="rotate(-0.0)">
      <text x="0.000" y="0.000" font-family="Helvetica" text-anchor="middle" font-size="15pt" font-style="oblique" fill="#142b8c" >Time Duration (minutes)</text>
    </g>
  </g>
</g>
<g id="ID000007" >
  <g transform="translate(148.409,261.955)">
    <g transform="rotate(-90.0)">
      <text x="0.000" y="0.000" font-family="Helvetica" text-anchor="middle" font-size="15pt" font-style="oblique" fill="#142b8c" >Watt</text>
    </g>
  </g>
</g>
<g id="ID000008" >
  <g transform="translate(1023.045,29.726)">
    <g transform="rotate(-0.0)">
      <text x="0.000" y="0.000" font-family="Helvetica" text-anchor="middle" font-size="19pt" font-style="oblique" fill="#142b8c" >washingMachine</text>
    </g>
  </g>
</g>
<g id="ID000009" >
</g>
<g id="ID000010" >
</g>
    </g>
    <g>
      <polyline fill="none" stroke="#000000" stroke-width="0.5pt" stroke-dasharray="none" points="192.000,480.600 192.000,463.979 "/>
      <polyline fill="none" stroke="#000000" stroke-width="0.5pt" stroke-dasharray="none" points="284.338,480.600 284.338,463.979 "/>
      <polyline fill="none" stroke="#000000" stroke-width="0.5pt" stroke-dasharray="none" points="376.677,480.600 376.677,463.979 "/>
      <polyline fill="none" stroke="#000000" stroke-width="0.5pt" stroke-dasharray="none" points="469.015,480.600 469.015,463.979 "/>
      <polyline fill="none" stroke="#000000" stroke-width="0.5pt" stroke-dasharray="none" points="561.353,480.600 561.353,463.979 "/>
      <polyline fill="none" stroke="#000000" stroke-width="0.5pt" stroke-dasharray="none" points="653.692,480.600 653.692,463.979 "/>
      <polyline fill="none" stroke="#000000" stroke-width="0.5pt" stroke-dasharray="none" points="746.030,480.600 746.030,463.979 "/>
      <polyline fill="none" stroke="#000000" stroke-width="0.5pt" stroke-dasharray="none" points="838.368,480.600 838.368,463.979 "/>
      <polyline fill="none" stroke="#000000" stroke-width="0.5pt" stroke-dasharray="none" points="930.706,480.600 930.706,463.979 "/>
      <polyline fill="none" stroke="#000000" stroke-width="0.5pt" stroke-dasharray="none" points="1023.045,480.600 1023.045,463.979 "/>
      <polyline fill="none" stroke="#000000" stroke-width="0.5pt" stroke-dasharray="none" points="1115.383,480.600 1115.383,463.979 "/>
      <polyline fill="none" stroke="#000000" stroke-width="0.5pt" stroke-dasharray="none" points="1207.721,480.600 1207.721,463.979 "/>
      <polyline fill="none" stroke="#000000" stroke-width="0.5pt" stroke-dasharray="none" points="1300.060,480.600 1300.060,463.979 "/>
      <polyline fill="none" stroke="#000000" stroke-width="0.5pt" stroke-dasharray="none" points="1392.398,480.600 1392.398,463.979 "/>
      <polyline fill="none" stroke="#000000" stroke-width="0.5pt" stroke-dasharray="none" points="1484.736,480.600 1484.736,463.979 "/>
      <polyline fill="none" stroke="#000000" stroke-width="0.5pt" stroke-dasharray="none" points="1577.075,480.600 1577.075,463.979 "/>
      <polyline fill="none" stroke="#000000" stroke-width="0.5pt" stroke-dasharray="none" points="1669.413,480.600 1669.413,463.979 "/>
      <polyline fill="none" stroke="#000000" stroke-width="0.5pt" stroke-dasharray="none" points="1761.751,480.600 1761.751,463.979 "/>
      <polyline fill="none" stroke="#000000" stroke-width="0.5pt" stroke-dasharray="none" points="192.000,480.600 1854.090,480.600 "/>
  <g transform="translate(192.000,501.571)">
    <g transform="rotate(-0.0)">
      <text x="0.000" y="0.000" font-family="Helvetica" text-anchor="middle" font-size="10pt" font-style="oblique" fill="#000000" >0</text>
    </g>
  </g>
  <g transform="translate(284.338,501.571)">
    <g transform="rotate(-0.0)">
      <text x="0.000" y="0.000" font-family="Helvetica" text-anchor="middle" font-size="10pt" font-style="oblique" fill="#000000" >5</text>
    </g>
  </g>
  <g transform="translate(376.677,501.571)">
    <g transform="rotate(-0.0)">
      <text x="0.000" y="0.000" font-family="Helvetica" text-anchor="middle" font-size="10pt" font-style="oblique" fill="#000000" >10</text>
    </g>
  </g>
  <g transform="translate(469.015,501.571)">
    <g transform="rotate(-0.0)">
      <text x="0.000" y="0.000" font-family="Helvetica" text-anchor="middle" font-size="10pt" font-style="oblique" fill="#000000" >15</text>
    </g>
  </g>
  <g transform="translate(561.353,501.571)">
    <g transform="rotate(-0.0)">
      <text x="0.000" y="0.000" font-family="Helvetica" text-anchor="middle" font-size="10pt" font-style="oblique" fill="#000000" >20</text>
    </g>
  </g>
  <g transform="translate(653.692,501.571)">
    <g transform="rotate(-0.0)">
      <text x="0.000" y="0.000" font-family="Helvetica" text-anchor="middle" font-size="10pt" font-style="oblique" fill="#000000" >25</text>
    </g>
  </g>
  <g transform="translate(746.030,501.571)">
    <g transform="rotate(-0.0)">
      <text x="0.000" y="0.000" font-family="Helvetica" text-anchor="middle" font-size="10pt" font-style="oblique" fill="#000000" >30</text>
    </g>
  </g>
  <g transform="translate(838.368,501.571)">
    <g transform="rotate(-0.0)">
      <text x="0.000" y="0.000" font-family="Helvetica" text-anchor="middle" font-size="10pt" font-style="oblique" fill="#000000" >35</text>
    </g>
  </g>
  <g transform="translate(930.706,501.571)">
    <g transform="rotate(-0.0)">
      <text x="0.000" y="0.000" font-family="Helvetica" text-anchor="middle" font-size="10pt" font-style="oblique" fill="#000000" >40</text>
    </g>
  </g>
  <g transform="translate(1023.045,501.571)">
    <g transform="rotate(-0.0)">
      <text x="0.000" y="0.000" font-family="Helvetica" text-anchor="middle" font-size="10pt" font-style="oblique" fill="#000000" >45</text>
    </g>
  </g>
  <g transform="translate(1115.383,501.571)">
    <g transform="rotate(-0.0)">
      <text x="0.000" y="0.000" font-family="Helvetica" text-anchor="middle" font-size="10pt" font-style="oblique" fill="#000000" >50</text>
    </g>
  </g>
  <g transform="translate(1207.721,501.571)">
    <g transform="rotate(-0.0)">
      <text x="0.000" y="0.000" font-family="Helvetica" text-anchor="middle" font-size="10pt" font-style="oblique" fill="#000000" >55</text>
    </g>
  </g>
  <g transform="translate(1300.060,501.571)">
    <g transform="rotate(-0.0)">
      <text x="0.000" y="0.000" font-family="Helvetica" text-anchor="middle" font-size="10pt" font-style="oblique" fill="#000000" >60</text>
    </g>
  </g>
  <g transform="translate(1392.398,501.571)">
    <g transform="rotate(-0.0)">
      <text x="0.000" y="0.000" font-family="Helvetica" text-anchor="middle" font-size="10pt" font-style="oblique" fill="#000000" >65</text>
    </g>
  </g>
  <g transform="translate(1484.736,501.571)">
    <g transform="rotate(-0.0)">
      <text x="0.000" y="0.000" font-family="Helvetica" text-anchor="middle" font-size="10pt" font-style="oblique" fill="#000000" >70</text>
    </g>
  </g>
  <g transform="translate(1577.075,501.571)">
    <g transform="rotate(-0.0)">
      <text x="0.000" y="0.000" font-family="Helvetica" text-anchor="middle" font-size="10pt" font-style="oblique" fill="#000000" >75</text>
    </g>
  </g>
  <g transform="translate(1669.413,501.571)">
    <g transform="rotate(-0.0)">
      <text x="0.000" y="0.000" font-family="Helvetica" text-anchor="middle" font-size="10pt" font-style="oblique" fill="#000000" >80</text>
    </g>
  </g>
  <g transform="translate(1761.751,501.571)">
    <g transform="rotate(-0.0)">
      <text x="0.000" y="0.000" font-family="Helvetica" text-anchor="middle" font-size="10pt" font-style="oblique" fill="#000000" >85</text>
    </g>
  </g>
      <polyline fill="none" stroke="#000000" stroke-width="0.5pt" stroke-dasharray="none" points="192.000,480.600 208.621,480.600 "/>
      <polyline fill="none" stroke="#000000" stroke-width="0.5pt" stroke-dasharray="none" points="192.000,425.588 208.621,425.588 "/>
      <polyline fill="none" stroke="#000000" stroke-width="0.5pt" stroke-dasharray="none" points="192.000,370.575 208.621,370.575 "/>
      <polyline fill="none" stroke="#000000" stroke-width="0.5pt" stroke-dasharray="none" points="192.000,315.563 208.621,315.563 "/>
      <polyline fill="none" stroke="#000000" stroke-width="0.5pt" stroke-dasharray="none" points="192.000,260.550 208.621,260.550 "/>
      <polyline fill="none" stroke="#000000" stroke-width="0.5pt" stroke-dasharray="none" points="192.000,205.538 208.621,205.538 "/>
      <polyline fill="none" stroke="#000000" stroke-width="0.5pt" stroke-dasharray="none" points="192.000,150.525 208.621,150.525 "/>
      <polyline fill="none" stroke="#000000" stroke-width="0.5pt" stroke-dasharray="none" points="192.000,95.513 208.621,95.513 "/>
      <polyline fill="none" stroke="#000000" stroke-width="0.5pt" stroke-dasharray="none" points="192.000,40.500 208.621,40.500 "/>
      <polyline fill="none" stroke="#000000" stroke-width="0.5pt" stroke-dasharray="none" points="192.000,480.600 192.000,40.500 "/>
  <g transform="translate(158.758,485.241)">
    <g transform="rotate(-0.0)">
      <text x="0.000" y="0.000" font-family="Helvetica" text-anchor="end" font-size="10pt" font-style="oblique" fill="#000000" >0</text>
    </g>
  </g>
  <g transform="translate(158.758,430.228)">
    <g transform="rotate(-0.0)">
      <text x="0.000" y="0.000" font-family="Helvetica" text-anchor="end" font-size="10pt" font-style="oblique" fill="#000000" >500</text>
    </g>
  </g>
  <g transform="translate(158.758,375.216)">
    <g transform="rotate(-0.0)">
      <text x="0.000" y="0.000" font-family="Helvetica" text-anchor="end" font-size="10pt" font-style="oblique" fill="#000000" >1000</text>
    </g>
  </g>
  <g transform="translate(158.758,320.203)">
    <g transform="rotate(-0.0)">
      <text x="0.000" y="0.000" font-family="Helvetica" text-anchor="end" font-size="10pt" font-style="oblique" fill="#000000" >1500</text>
    </g>
  </g>
  <g transform="translate(158.758,265.191)">
    <g transform="rotate(-0.0)">
      <text x="0.000" y="0.000" font-family="Helvetica" text-anchor="end" font-size="10pt" font-style="oblique" fill="#000000" >2000</text>
    </g>
  </g>
  <g transform="translate(158.758,210.178)">
    <g transform="rotate(-0.0)">
      <text x="0.000" y="0.000" font-family="Helvetica" text-anchor="end" font-size="10pt" font-style="oblique" fill="#000000" >2500</text>
    </g>
  </g>
  <g transform="translate(158.758,155.166)">
    <g transform="rotate(-0.0)">
      <text x="0.000" y="0.000" font-family="Helvetica" text-anchor="end" font-size="10pt" font-style="oblique" fill="#000000" >3000</text>
    </g>
  </g>
  <g transform="translate(158.758,100.153)">
    <g transform="rotate(-0.0)">
      <text x="0.000" y="0.000" font-family="Helvetica" text-anchor="end" font-size="10pt" font-style="oblique" fill="#000000" >3500</text>
    </g>
  </g>
  <g transform="translate(158.758,45.141)">
    <g transform="rotate(-0.0)">
      <text x="0.000" y="0.000" font-family="Helvetica" text-anchor="end" font-size="10pt" font-style="oblique" fill="#000000" >4000</text>
    </g>
  </g>
      <polyline fill="none" stroke="#000000" stroke-width="0.5pt" stroke-dasharray="none" points="192.000,480.600 192.000,476.199 "/>
      <polyline fill="none" stroke="#000000" stroke-width="0.5pt" stroke-dasharray="none" points="192.000,480.600 192.000,476.199 "/>
      <polyline fill="none" stroke="#000000" stroke-width="0.5pt" stroke-dasharray="none" points="192.000,480.600 192.000,476.199 "/>
      <polyline fill="none" stroke="#000000" stroke-width="0.5pt" stroke-dasharray="none" points="192.000,480.600 192.000,480.600 "/>
    </g>
  </g>
  <g id ="ID000011">
  <clipPath id="ID000012">
    <rect x="1632.065" y="50.625" width="183.750" height="45.000"/>
  </clipPath>
      <polygon fill="#ffffff" fill-opacity="1.00" stroke="none" stroke-width="0.5pt" stroke-opacity="1.00" stroke-dasharray="none" points="1632.065,95.625 1815.815,95.625 1815.815,50.625 1632.065,50.625 "/>
      <polygon fill="#ffffff" fill-opacity="1.00" stroke="none" stroke-width="0.5pt" stroke-opacity="1.00" stroke-dasharray="none" points="1632.065,50.625 1815.815,50.625 1815.815,50.625 1632.065,50.625 "/>
      <polygon fill="#ffffff" fill-opacity="1.00" stroke="none" stroke-width="0.5pt" stroke-opacity="1.00" stroke-dasharray="none" points="1632.065,95.625 1632.065,95.625 1632.065,50.625 1632.065,50.625 "/>
    <g>
<g id="ID000013" >
  <g transform="translate(1681.284,68.344)">
    <g transform="rotate(-0.0)">
      <text x="0.000" y="0.000" font-family="Helvetica" text-anchor="start" font-size="11pt" font-style="oblique" fill="#000000" >Mean Power Profile</text>
    </g>
  </g>
</g>
<g id="ID000014" clip-path="url(#ID000012)" >
<g id="ID000015" clip-path="url(#ID000012)" >
      <polygon fill="#3366ff" fill-opacity="1.00" stroke="#000000" stroke-width="0.5pt" stroke-opacity="0.00" stroke-dasharray="none" points="1639.565,70.531 1639.565,55.406 1677.065,55.406 1677.065,70.531 1639.565,70.531 "/>
</g>
</g><g id="ID000016" >
  <g transform="translate(1681.284,89.906)">
    <g transform="rotate(-0.0)">
      <text x="0.000" y="0.000" font-family="Helvetica" text-anchor="start" font-size="11pt" font-style="oblique" fill="#000000" >Peak Power Profile</text>
    </g>
  </g>
</g>
<g id="ID000017" clip-path="url(#ID000012)" >
<g id="ID000018" clip-path="url(#ID000012)" >
      <polygon fill="#ff0000" fill-opacity="1.00" stroke="#000000" stroke-width="0.5pt" stroke-opacity="0.00" stroke-dasharray="none" points="1639.565,90.844 1639.565,75.719 1677.065,75.719 1677.065,90.844 1639.565,90.844 "/>
</g>
</g><g id="ID000019" >
</g>
<g id="ID000020" >
</g>
<g id="ID000021" >
</g>
    </g>
    <g>
      <polyline fill="none" stroke="#000000" stroke-width="0.5pt" stroke-dasharray="none" points="1632.065,95.625 1815.815,95.625 "/>
      <polyline fill="none" stroke="#000000" stroke-width="0.5pt" stroke-dasharray="none" points="1632.065,50.625 1815.815,50.625 "/>
      <polyline fill="none" stroke="#000000" stroke-width="0.5pt" stroke-dasharray="none" points="1632.065,95.625 1632.065,50.625 "/>
      <polyline fill="none" stroke="#000000" stroke-width="0.5pt" stroke-dasharray="none" points="1815.815,95.625 1815.815,50.625 "/>
      <polyline fill="none" stroke="#000000" stroke-width="0.5pt" stroke-dasharray="none" points="1632.065,95.625 1632.065,95.175 "/>
      <polyline fill="none" stroke="#000000" stroke-width="0.5pt" stroke-dasharray="none" points="1632.065,95.625 1632.065,95.625 "/>
    </g>
  </g>
  </g>
</svg>
